<?xml version="1.0" encoding="utf-8"?>
<!-- Generator: Adobe Illustrator 16.0.0, SVG Export Plug-In . SVG Version: 6.00 Build 0)  -->
<!DOCTYPE svg PUBLIC "-//W3C//DTD SVG 1.1//EN" "http://www.w3.org/Graphics/SVG/1.1/DTD/svg11.dtd">
<svg version="1.1" id="svg" xmlns="http://www.w3.org/2000/svg" xmlns:xlink="http://www.w3.org/1999/xlink" x="0px" y="0px"
	 width="402px" height="846px" viewBox="0 0 402 846" enable-background="new 0 0 402 846" xml:space="preserve">
<g id="all">
	<g id="shenti">
		<g id="youshou">
			<path fill="none" stroke="#A5916C" stroke-miterlimit="10" stroke-dasharray="2" d="M80.114,796.302
				c0,0,183.666-5.167,201.333-19.5c27.833-25.667,31-176.333,39.167-183.5c11.5-8.5,30.5-93.167,22-94
				c-8.5-2.167-10.5,41.166-14,40s8.166-65.833-2-66.5c-9.5-1.667-8.5,57-12.5,57.666c-4,0.668,9.666-71-2.5-71.166
				c-6.5,0.167-8.167,67.5-11,67.5c-2.834,0,7.5-56.333-3.001-57c-10.5-0.667-7.166,69-12.5,70.5s-4-33.166-23.5-30.5
				c-4.166,2,9.5,12,11.5,46.5c1.334,22.834,7.334,18.834,11,34.5c2,66.333-31.332,137.333-34.5,139
				c-3.166,1.667-90.167,14.333-169.5,9"/>
			<path fill="none" stroke="#A5916C" stroke-width="0.5" stroke-miterlimit="10" stroke-dasharray="2" d="M299.28,480.802
				c-1,1.5-4.666-0.333-4.666-0.333s-0.5-7.667,3.166-7.5C300.114,473.302,300.28,479.302,299.28,480.802z"/>
			<path fill="none" stroke="#A5916C" stroke-width="0.5" stroke-miterlimit="10" stroke-dasharray="2" d="M314.113,470.802
				c-1,1.5-4.666-0.333-4.666-0.333s-0.5-7.667,3.166-7.5C314.947,463.302,315.113,469.302,314.113,470.802z"/>
			<path fill="none" stroke="#A5916C" stroke-width="0.5" stroke-miterlimit="10" stroke-dasharray="2" d="M328.28,483.802
				c-1,1.5-4.666-0.333-4.666-0.333s-0.5-7.667,3.166-7.5C329.114,476.302,329.28,482.302,328.28,483.802z"/>
			<path fill="none" stroke="#A5916C" stroke-width="0.5" stroke-miterlimit="10" stroke-dasharray="2" d="M342.494,508.665
				c-0.972,1.168-3.88-0.696-3.88-0.696s0.267-6.47,3.322-6.001C343.864,502.455,343.467,507.498,342.494,508.665z"/>
			<g>
				<path fill="none" stroke="#A5916C" stroke-width="0.25" stroke-miterlimit="10" stroke-dasharray="2" d="M325.28,506.969
					c0,0-2.333-1.667-4.166-0.833"/>
				<path fill="none" stroke="#A5916C" stroke-width="0.25" stroke-miterlimit="10" stroke-dasharray="2" d="M325.28,508.136
					c0,0-3.499-1.668-4.333-0.334"/>
			</g>
			<g>
				<path fill="none" stroke="#A5916C" stroke-width="0.25" stroke-miterlimit="10" stroke-dasharray="2" d="M312.28,498.635
					c0,0-2.333-1.667-4.166-0.833"/>
				<path fill="none" stroke="#A5916C" stroke-width="0.25" stroke-miterlimit="10" stroke-dasharray="2" d="M312.28,499.802
					c0,0-3.499-1.668-4.333-0.334"/>
			</g>
			<g>
				<path fill="none" stroke="#A5916C" stroke-width="0.25" stroke-miterlimit="10" stroke-dasharray="2" d="M271.936,528.509
					c0,0-2.859-0.199-3.985,1.47"/>
				<path fill="none" stroke="#A5916C" stroke-width="0.25" stroke-miterlimit="10" stroke-dasharray="2" d="M272.546,529.503
					c0,0-3.854,0.41-3.868,1.982"/>
			</g>
			<g>
				<path fill="none" stroke="#A5916C" stroke-width="0.25" stroke-miterlimit="10" stroke-dasharray="2" d="M275.825,543.799
					c0,0-2.734-0.859-4.22,0.499"/>
				<path fill="none" stroke="#A5916C" stroke-width="0.25" stroke-miterlimit="10" stroke-dasharray="2" d="M276.188,544.909
					c0,0-3.846-0.501-4.225,1.024"/>
			</g>
			<g>
				<path fill="none" stroke="#A5916C" stroke-width="0.25" stroke-miterlimit="10" stroke-dasharray="2" d="M297.613,503.635
					c0,0-2.334-1.667-4.166-0.833"/>
				<path fill="none" stroke="#A5916C" stroke-width="0.25" stroke-miterlimit="10" stroke-dasharray="2" d="M297.613,504.802
					c0,0-3.499-1.668-4.334-0.334"/>
			</g>
			<g>
				<path fill="none" stroke="#A5916C" stroke-width="0.25" stroke-miterlimit="10" stroke-dasharray="2" d="M339.613,525.636
					c0,0-2.333-1.667-4.166-0.834"/>
				<path fill="none" stroke="#A5916C" stroke-width="0.25" stroke-miterlimit="10" stroke-dasharray="2" d="M339.613,526.803
					c0,0-3.499-1.668-4.333-0.334"/>
			</g>
			<g>
				<path fill="none" stroke="#A5916C" stroke-width="0.25" stroke-miterlimit="10" stroke-dasharray="2" d="M341.613,515.636
					c0,0-2.333-1.667-4.166-0.834"/>
				<path fill="none" stroke="#A5916C" stroke-width="0.25" stroke-miterlimit="10" stroke-dasharray="2" d="M341.613,516.803
					c0,0-3.499-1.668-4.333-0.334"/>
			</g>
			<g>
				<path fill="none" stroke="#A5916C" stroke-width="0.25" stroke-miterlimit="10" stroke-dasharray="2" d="M327.28,491.636
					c0,0-2.333-1.667-4.167-0.834"/>
				<path fill="none" stroke="#A5916C" stroke-width="0.25" stroke-miterlimit="10" stroke-dasharray="2" d="M327.28,492.803
					c0,0-3.5-1.668-4.333-0.334"/>
			</g>
			<g>
				<path fill="none" stroke="#A5916C" stroke-width="0.25" stroke-miterlimit="10" stroke-dasharray="2" d="M313.947,479.969
					c0,0-2.333-1.667-4.167-0.834"/>
				<path fill="none" stroke="#A5916C" stroke-width="0.25" stroke-miterlimit="10" stroke-dasharray="2" d="M313.947,481.136
					c0,0-3.5-1.668-4.333-0.334"/>
			</g>
			<g>
				<path fill="none" stroke="#A5916C" stroke-width="0.25" stroke-miterlimit="10" stroke-dasharray="2" d="M298.947,487.636
					c0,0-2.334-1.667-4.168-0.834"/>
				<path fill="none" stroke="#A5916C" stroke-width="0.25" stroke-miterlimit="10" stroke-dasharray="2" d="M298.947,488.803
					c0,0-3.5-1.668-4.334-0.334"/>
			</g>
			<path fill="none" stroke="#A5916C" stroke-width="0.25" stroke-miterlimit="10" stroke-dasharray="2" d="M333.78,540.136
				c-1,2,0.667,4.166-0.666,5.333c-1.334,1.167-2.334,2.333-2.334,2.333"/>
			<path fill="none" stroke="#A5916C" stroke-width="0.25" stroke-miterlimit="10" stroke-dasharray="2" d="M321.447,532.303
				c-1,2,0.667,4.166-0.667,5.333c-1.333,1.167-2.333,2.333-2.333,2.333"/>
			<path fill="none" stroke="#A5916C" stroke-width="0.25" stroke-miterlimit="10" stroke-dasharray="2" d="M306.106,526.381
				c-0.47,2.188,1.688,3.867,0.688,5.33c-0.999,1.465-1.675,2.845-1.675,2.845"/>
			<path fill="none" stroke="#A5916C" stroke-width="0.25" stroke-miterlimit="10" stroke-dasharray="2" d="M292.076,526.026
				c0.34,2.21-1.91,3.763-0.997,5.28c0.912,1.521,1.507,2.937,1.507,2.937"/>
			<path fill="none" stroke="#A5916C" stroke-width="0.5" stroke-miterlimit="10" stroke-dasharray="2" d="M261.697,512.76
				c2.166-1.834,7.084,3.043,7.25,5.209s-3.168,3.333-3.168,3.333L261.697,512.76z"/>
		</g>
		<g id="zuoshou">
			<g>
				<g>
					<path fill="none" stroke="#A5916C" stroke-miterlimit="10" d="M331,400.833c0,0-0.341-0.01-0.995-0.029"/>
					<path fill="none" stroke="#A5916C" stroke-miterlimit="10" stroke-dasharray="1.9983,1.9983" d="M328.012,400.744
						c-23.788-0.742-182.012-6.159-198.345-19.41c-27.833-25.667-31-176.333-39.167-183.5c-11.5-8.5-30.5-93.167-22-94
						c8.5-2.167,10.5,41.166,14,40s-8.167-65.833,2-66.5C94,75.667,93,134.333,97,135c4,0.668-9.667-71,2.5-71.166
						c6.5,0.167,8.167,67.5,11,67.5s-7.5-56.333,3-57s7.167,69,12.5,70.5s4-33.166,23.5-30.5c4.167,2-9.5,12-11.5,46.5
						c-1.333,22.834-7.333,18.834-11,34.5c-2,66.333,31.333,137.333,34.5,139c3.14,1.653,88.71,14.121,167.496,9.131"/>
					<path fill="none" stroke="#A5916C" stroke-miterlimit="10" d="M330.002,343.399c0.333-0.021,0.666-0.043,0.998-0.066"/>
				</g>
			</g>
			<g>
				<g>
					<path fill="none" stroke="#A5916C" stroke-miterlimit="10" d="M331,400.833c0,0-0.341-0.01-0.995-0.029"/>
					<path fill="none" stroke="#A5916C" stroke-miterlimit="10" stroke-dasharray="1.9983,1.9983" d="M328.012,400.744
						c-23.788-0.742-182.012-6.159-198.345-19.41c-27.833-25.667-31-176.333-39.167-183.5c-11.5-8.5-30.5-93.167-22-94
						c8.5-2.167,10.5,41.166,14,40s-8.167-65.833,2-66.5C94,75.667,93,134.333,97,135c4,0.668-9.667-71,2.5-71.166
						c6.5,0.167,8.167,67.5,11,67.5s-7.5-56.333,3-57s7.167,69,12.5,70.5s4-33.166,23.5-30.5c4.167,2-9.5,12-11.5,46.5
						c-1.333,22.834-7.333,18.834-11,34.5c-2,66.333,31.333,137.333,34.5,139c3.14,1.653,88.71,14.121,167.496,9.131"/>
					<path fill="none" stroke="#A5916C" stroke-miterlimit="10" d="M330.002,343.399c0.333-0.021,0.666-0.043,0.998-0.066"/>
				</g>
			</g>
			<g>
				<g>
					<path fill="none" stroke="#A5916C" stroke-width="0.5" stroke-miterlimit="10" d="M115.582,85.394
						C116.125,85.188,116.5,85,116.5,85s0.025-0.391,0.023-0.995"/>
					<path fill="none" stroke="#A5916C" stroke-width="0.5" stroke-miterlimit="10" stroke-dasharray="1.8842,1.8842" d="
						M116.422,82.125c-0.23-2.156-0.952-4.721-3.089-4.624c-2.333,0.333-2.5,6.333-1.5,7.833c0.522,0.784,1.773,0.658,2.849,0.358"
						/>
				</g>
			</g>
			<g>
				<g>
					<path fill="none" stroke="#A5916C" stroke-width="0.5" stroke-miterlimit="10" d="M100.749,75.394
						c0.543-0.206,0.918-0.394,0.918-0.394s0.025-0.391,0.023-0.995"/>
					<path fill="none" stroke="#A5916C" stroke-width="0.5" stroke-miterlimit="10" stroke-dasharray="1.8842,1.8842" d="
						M101.589,72.125c-0.23-2.156-0.952-4.721-3.089-4.624c-2.333,0.333-2.5,6.333-1.5,7.833c0.522,0.784,1.773,0.658,2.849,0.358"
						/>
				</g>
			</g>
			<g>
				<g>
					<path fill="none" stroke="#A5916C" stroke-width="0.5" stroke-miterlimit="10" d="M86.582,88.394
						C87.125,88.188,87.5,88,87.5,88s0.025-0.391,0.023-0.995"/>
					<path fill="none" stroke="#A5916C" stroke-width="0.5" stroke-miterlimit="10" stroke-dasharray="1.8842,1.8842" d="
						M87.422,85.125c-0.23-2.156-0.952-4.721-3.089-4.624c-2.333,0.333-2.5,6.333-1.5,7.833c0.522,0.784,1.773,0.658,2.849,0.358"/>
				</g>
			</g>
			<g>
				<g>
					<path fill="none" stroke="#A5916C" stroke-width="0.5" stroke-miterlimit="10" d="M71.626,112.982
						c0.512-0.25,0.874-0.482,0.874-0.482s-0.017-0.4-0.088-0.994"/>
					<path fill="none" stroke="#A5916C" stroke-width="0.5" stroke-miterlimit="10" stroke-dasharray="1.9058,1.9058" d="
						M72.067,109.63c-0.427-1.661-1.264-3.38-2.893-3.131c-1.925,0.488-1.528,5.531-0.555,6.698c0.453,0.544,1.327,0.43,2.131,0.152
						"/>
				</g>
			</g>
			<g>
				<g>
					<g>
						<path fill="none" stroke="#A5916C" stroke-width="0.25" stroke-miterlimit="10" d="M85.833,111.5c0,0,0.341-0.244,0.866-0.499
							"/>
						<path fill="none" stroke="#A5916C" stroke-width="0.25" stroke-miterlimit="10" d="M89.031,110.438
							c0.328,0.017,0.656,0.086,0.969,0.229"/>
					</g>
				</g>
				<g>
					<g>
						<path fill="none" stroke="#A5916C" stroke-width="0.25" stroke-miterlimit="10" d="M85.833,112.667
							c0,0,0.381-0.182,0.922-0.377"/>
						<path fill="none" stroke="#A5916C" stroke-width="0.25" stroke-miterlimit="10" d="M89.33,111.844
							c0.36,0.057,0.659,0.205,0.836,0.489"/>
					</g>
				</g>
			</g>
			<g>
				<g>
					<g>
						<path fill="none" stroke="#A5916C" stroke-width="0.25" stroke-miterlimit="10" d="M98.833,103.167
							c0,0,0.341-0.244,0.866-0.499"/>
						<path fill="none" stroke="#A5916C" stroke-width="0.25" stroke-miterlimit="10" d="M102.031,102.104
							c0.328,0.017,0.656,0.086,0.969,0.229"/>
					</g>
				</g>
				<g>
					<g>
						<path fill="none" stroke="#A5916C" stroke-width="0.25" stroke-miterlimit="10" d="M98.833,104.333
							c0,0,0.381-0.182,0.922-0.377"/>
						<path fill="none" stroke="#A5916C" stroke-width="0.25" stroke-miterlimit="10" d="M102.33,103.51
							c0.36,0.057,0.659,0.205,0.836,0.489"/>
					</g>
				</g>
			</g>
			<g>
				<g>
					<g>
						<path fill="none" stroke="#A5916C" stroke-width="0.25" stroke-miterlimit="10" d="M139.18,133.041
							c0,0,0.418-0.029,0.999,0.028"/>
						<path fill="none" stroke="#A5916C" stroke-width="0.25" stroke-miterlimit="10" d="M142.46,133.809
							c0.271,0.186,0.513,0.417,0.706,0.702"/>
					</g>
				</g>
				<g>
					<g>
						<path fill="none" stroke="#A5916C" stroke-width="0.25" stroke-miterlimit="10" d="M138.568,134.036
							c0,0,0.42,0.045,0.983,0.161"/>
						<path fill="none" stroke="#A5916C" stroke-width="0.25" stroke-miterlimit="10" d="M141.979,135.164
							c0.277,0.237,0.454,0.52,0.457,0.854"/>
					</g>
				</g>
			</g>
			<g>
				<g>
					<g>
						<path fill="none" stroke="#A5916C" stroke-width="0.25" stroke-miterlimit="10" d="M135.289,148.332
							c0,0,0.4-0.126,0.978-0.205"/>
						<path fill="none" stroke="#A5916C" stroke-width="0.25" stroke-miterlimit="10" d="M138.657,148.313
							c0.307,0.118,0.597,0.285,0.851,0.518"/>
					</g>
				</g>
				<g>
					<g>
						<path fill="none" stroke="#A5916C" stroke-width="0.25" stroke-miterlimit="10" d="M134.927,149.442
							c0,0,0.419-0.055,0.994-0.073"/>
						<path fill="none" stroke="#A5916C" stroke-width="0.25" stroke-miterlimit="10" d="M138.506,149.743
							c0.325,0.166,0.563,0.398,0.644,0.724"/>
					</g>
				</g>
			</g>
			<g>
				<g>
					<g>
						<path fill="none" stroke="#A5916C" stroke-width="0.25" stroke-miterlimit="10" d="M113.5,108.167
							c0,0,0.341-0.244,0.866-0.499"/>
						<path fill="none" stroke="#A5916C" stroke-width="0.25" stroke-miterlimit="10" d="M116.698,107.104
							c0.328,0.017,0.656,0.086,0.969,0.229"/>
					</g>
				</g>
				<g>
					<g>
						<path fill="none" stroke="#A5916C" stroke-width="0.25" stroke-miterlimit="10" d="M113.5,109.333
							c0,0,0.381-0.182,0.922-0.377"/>
						<path fill="none" stroke="#A5916C" stroke-width="0.25" stroke-miterlimit="10" d="M116.997,108.51
							c0.36,0.057,0.659,0.205,0.836,0.489"/>
					</g>
				</g>
			</g>
			<g>
				<g>
					<g>
						<path fill="none" stroke="#A5916C" stroke-width="0.25" stroke-miterlimit="10" d="M71.5,130.167c0,0,0.341-0.244,0.866-0.499
							"/>
						<path fill="none" stroke="#A5916C" stroke-width="0.25" stroke-miterlimit="10" d="M74.698,129.104
							c0.329,0.018,0.656,0.087,0.969,0.229"/>
					</g>
				</g>
				<g>
					<g>
						<path fill="none" stroke="#A5916C" stroke-width="0.25" stroke-miterlimit="10" d="M71.5,131.334c0,0,0.381-0.182,0.922-0.377
							"/>
						<path fill="none" stroke="#A5916C" stroke-width="0.25" stroke-miterlimit="10" d="M74.997,130.511
							c0.36,0.057,0.659,0.205,0.836,0.489"/>
					</g>
				</g>
			</g>
			<g>
				<g>
					<g>
						<path fill="none" stroke="#A5916C" stroke-width="0.25" stroke-miterlimit="10" d="M69.5,120.167c0,0,0.341-0.244,0.866-0.499
							"/>
						<path fill="none" stroke="#A5916C" stroke-width="0.25" stroke-miterlimit="10" d="M72.698,119.104
							c0.329,0.018,0.656,0.087,0.969,0.229"/>
					</g>
				</g>
				<g>
					<g>
						<path fill="none" stroke="#A5916C" stroke-width="0.25" stroke-miterlimit="10" d="M69.5,121.334c0,0,0.381-0.182,0.922-0.377
							"/>
						<path fill="none" stroke="#A5916C" stroke-width="0.25" stroke-miterlimit="10" d="M72.997,120.511
							c0.36,0.057,0.659,0.205,0.836,0.489"/>
					</g>
				</g>
			</g>
			<g>
				<g>
					<g>
						<path fill="none" stroke="#A5916C" stroke-width="0.25" stroke-miterlimit="10" d="M83.834,96.167
							c0,0,0.341-0.244,0.866-0.499"/>
						<path fill="none" stroke="#A5916C" stroke-width="0.25" stroke-miterlimit="10" d="M87.032,95.104
							c0.329,0.018,0.656,0.087,0.969,0.229"/>
					</g>
				</g>
				<g>
					<g>
						<path fill="none" stroke="#A5916C" stroke-width="0.25" stroke-miterlimit="10" d="M83.834,97.334
							c0,0,0.381-0.182,0.922-0.377"/>
						<path fill="none" stroke="#A5916C" stroke-width="0.25" stroke-miterlimit="10" d="M87.331,96.511
							c0.36,0.057,0.659,0.205,0.836,0.489"/>
					</g>
				</g>
			</g>
			<g>
				<g>
					<g>
						<path fill="none" stroke="#A5916C" stroke-width="0.25" stroke-miterlimit="10" d="M97.167,84.5c0,0,0.341-0.244,0.866-0.499"
							/>
						<path fill="none" stroke="#A5916C" stroke-width="0.25" stroke-miterlimit="10" d="M100.365,83.438
							c0.329,0.018,0.656,0.087,0.969,0.229"/>
					</g>
				</g>
				<g>
					<g>
						<path fill="none" stroke="#A5916C" stroke-width="0.25" stroke-miterlimit="10" d="M97.167,85.667
							c0,0,0.381-0.182,0.922-0.377"/>
						<path fill="none" stroke="#A5916C" stroke-width="0.25" stroke-miterlimit="10" d="M100.664,84.844
							c0.36,0.057,0.659,0.205,0.836,0.489"/>
					</g>
				</g>
			</g>
			<g>
				<g>
					<g>
						<path fill="none" stroke="#A5916C" stroke-width="0.25" stroke-miterlimit="10" d="M112.167,92.167
							c0,0,0.341-0.244,0.866-0.499"/>
						<path fill="none" stroke="#A5916C" stroke-width="0.25" stroke-miterlimit="10" d="M115.365,91.104
							c0.329,0.018,0.656,0.087,0.969,0.229"/>
					</g>
				</g>
				<g>
					<g>
						<path fill="none" stroke="#A5916C" stroke-width="0.25" stroke-miterlimit="10" d="M112.167,93.334
							c0,0,0.381-0.182,0.922-0.377"/>
						<path fill="none" stroke="#A5916C" stroke-width="0.25" stroke-miterlimit="10" d="M115.664,92.511
							c0.36,0.057,0.659,0.205,0.836,0.489"/>
					</g>
				</g>
			</g>
			<g>
				<g>
					<path fill="none" stroke="#A5916C" stroke-width="0.25" stroke-miterlimit="10" d="M77.333,144.667
						c0.158,0.316,0.25,0.637,0.297,0.957"/>
					<path fill="none" stroke="#A5916C" stroke-width="0.25" stroke-miterlimit="10" stroke-dasharray="2.2813,2.2813" d="
						M77.509,147.896c-0.102,0.835-0.117,1.574,0.491,2.105c0.307,0.268,0.596,0.537,0.859,0.791"/>
					<path fill="none" stroke="#A5916C" stroke-width="0.25" stroke-miterlimit="10" d="M79.66,151.597
						c0.421,0.441,0.673,0.736,0.673,0.736"/>
				</g>
			</g>
			<g>
				<g>
					<path fill="none" stroke="#A5916C" stroke-width="0.25" stroke-miterlimit="10" d="M89.667,136.834
						c0.158,0.316,0.25,0.637,0.297,0.957"/>
					<path fill="none" stroke="#A5916C" stroke-width="0.25" stroke-miterlimit="10" stroke-dasharray="2.2813,2.2813" d="
						M89.843,140.063c-0.102,0.835-0.117,1.574,0.491,2.105c0.307,0.268,0.596,0.537,0.859,0.791"/>
					<path fill="none" stroke="#A5916C" stroke-width="0.25" stroke-miterlimit="10" d="M91.994,143.764
						c0.421,0.441,0.673,0.736,0.673,0.736"/>
				</g>
			</g>
			<g>
				<g>
					<path fill="none" stroke="#A5916C" stroke-width="0.25" stroke-miterlimit="10" d="M105.008,130.914
						c0.074,0.344,0.083,0.676,0.049,0.996"/>
					<path fill="none" stroke="#A5916C" stroke-width="0.25" stroke-miterlimit="10" stroke-dasharray="2.2815,2.2815" d="
						M104.373,134.079c-0.309,0.785-0.51,1.497-0.055,2.165c0.229,0.335,0.44,0.666,0.631,0.977"/>
					<path fill="none" stroke="#A5916C" stroke-width="0.25" stroke-miterlimit="10" d="M105.525,138.206
						c0.297,0.533,0.468,0.881,0.468,0.881"/>
				</g>
			</g>
			<g>
				<g>
					<path fill="none" stroke="#A5916C" stroke-width="0.25" stroke-miterlimit="10" d="M119.038,130.56
						c-0.054,0.35-0.042,0.683,0.01,1.002"/>
					<path fill="none" stroke="#A5916C" stroke-width="0.25" stroke-miterlimit="10" stroke-dasharray="2.2814,2.2814" d="
						M119.858,133.688c0.353,0.764,0.593,1.462,0.178,2.153c-0.21,0.35-0.403,0.694-0.576,1.017"/>
					<path fill="none" stroke="#A5916C" stroke-width="0.25" stroke-miterlimit="10" d="M118.945,137.87
						c-0.266,0.549-0.416,0.907-0.416,0.907"/>
				</g>
			</g>
			<g>
				<g>
					<path fill="none" stroke="#A5916C" stroke-width="0.5" stroke-miterlimit="10" d="M148.986,118.194l0.431-0.902
						c-0.266-0.225-0.573-0.349-0.908-0.389"/>
					<path fill="none" stroke="#A5916C" stroke-width="0.5" stroke-miterlimit="10" stroke-dasharray="1.8383,1.8383" d="
						M146.735,117.285c-2.147,1.019-4.455,3.743-4.568,5.215c-0.082,1.061,0.676,1.882,1.471,2.444"/>
					<path fill="none" stroke="#A5916C" stroke-width="0.5" stroke-miterlimit="10" d="M144.426,125.425
						c0.512,0.27,0.908,0.409,0.908,0.409l0.431-0.902"/>
					
						<line fill="none" stroke="#A5916C" stroke-width="0.5" stroke-miterlimit="10" stroke-dasharray="2.4892,2.4892" x1="146.839" y1="122.686" x2="148.449" y2="119.317"/>
				</g>
			</g>
		</g>
	</g>
	<g id="jingluo">
		<path id="LargeIntestine-2" fill="none" stroke="#AF1E24" stroke-miterlimit="10" stroke-dasharray="5,5" d="M293.614,476.302
			l-4,53c0,0-4,26-4.5,34s3,30,3,30l0.5,30l-6.5,23.5c0,0-27.5,93-28,99.5c-17.5,0.5-63.5,22.5-95.5,28s-68.5-14-79.5-6.5
			s-0.5,25-0.5,25"/>
		<path id="SmallIntestine-2" fill="none" stroke="#C51C6F" stroke-miterlimit="10" stroke-dasharray="5,5" d="M344.614,508.802
			c0,0-13.5,74-27,84.5c-3.5,6-14,114-14,114"/>
		<path id="Lung-2" fill="none" stroke="#85B22F" stroke-miterlimit="10" stroke-dasharray="5,5" d="M237.113,731.802
			c0,0-55.5,8-67.5,11.5s-82.25,29-102.25,20.5c0.5-1.25,6.75-15.75,6.75-15.75"/>
		<g id="TripleEnergizer-2">
			<path fill="none" stroke="#E3A72A" stroke-miterlimit="10" stroke-dasharray="5,5" d="M330.489,483.969
				c0,0-5.375,53.333-2.875,57.833c-9,19-27,48.5-27,48.5l-3,37l8.5,1.5c0,0-7,6-10.5,12.5c-8.5,27-17,129-17,129s-16.5-2.5-24.5,0
				s-81.5,22.5-81.5,22.5"/>
			<path fill="none" stroke="#E3A72A" stroke-miterlimit="10" stroke-dasharray="5,5" d="M132.614,794.302c-11,2-35.5-7.5-42.5-7
				s-13.5,4-15,9.5"/>
		</g>
		<path id="LargeIntestine-1" fill="none" stroke="#AF1E24" stroke-miterlimit="10" stroke-dasharray="5,5" d="M117.5,80.833
			l4,53c0,0,4,26,4.5,34s-3,30-3,30l-0.5,30l6.5,23.5c0,0,27.5,93,28,99.5c17.5,0.5,63.5,22.5,95.5,28s68.5-14,79.5-6.5
			s0.5,25,0.5,25"/>
		<path id="SmallIntestine-1" fill="none" stroke="#C51C6F" stroke-miterlimit="10" stroke-dasharray="5,5" d="M66.5,113.333
			c0,0,13.5,74,27,84.5c3.5,6,14,114,14,114"/>
		<path id="Lung-1" fill="none" stroke="#85B22F" stroke-miterlimit="10" stroke-dasharray="5,5" d="M174,336.333
			c0,0,55.5,8,67.5,11.5s82.25,29,102.25,20.5c-0.5-1.25-6.75-15.75-6.75-15.75"/>
		<g id="TripleEnergizer-1">
			<path fill="none" stroke="#E3A72A" stroke-miterlimit="10" stroke-dasharray="5,5" d="M80.625,88.5
				c0,0,5.375,53.333,2.875,57.833c9,19,27,48.5,27,48.5l3,37l-8.5,1.5c0,0,7,6,10.5,12.5c8.5,27,17,129,17,129s16.5-2.5,24.5,0
				s81.5,22.5,81.5,22.5"/>
			<path fill="none" stroke="#E3A72A" stroke-miterlimit="10" stroke-dasharray="5,5" d="M278.5,398.833c11,2,35.5-7.5,42.5-7
				s13.5,4,15,9.5"/>
		</g>
	</g>
	<g id="xuewei">
		<circle id="LI1-2" fill="#040000" stroke="#AF1E24" stroke-miterlimit="10" cx="293.332" cy="478.051" r="2.469"/>
		<circle id="LI2-2" fill="#040000" stroke="#AF1E24" stroke-miterlimit="10" cx="290.114" cy="525.333" r="2.469"/>
		<circle id="LI3-2" fill="#040000" stroke="#AF1E24" stroke-miterlimit="10" cx="288.614" cy="539.833" r="2.469"/>
		<circle id="LI4-2" fill="#040000" stroke="#AF1E24" stroke-miterlimit="10" cx="285.114" cy="562.271" r="2.469"/>
		<circle id="LI5-2" fill="#040000" stroke="#AF1E24" stroke-miterlimit="10" cx="287.614" cy="590.271" r="2.469"/>
		<circle id="LI6-2" fill="#040000" stroke="#AF1E24" stroke-miterlimit="10" cx="288.084" cy="626.301" r="2.469"/>
		<circle id="LI7-2" fill="#040000" stroke="#AF1E24" stroke-miterlimit="10" cx="280.614" cy="651.333" r="2.469"/>
		<circle id="LI8-2" fill="#040000" stroke="#AF1E24" stroke-miterlimit="10" cx="271.614" cy="682.833" r="2.469"/>
		<circle id="LI9-2" fill="#040000" stroke="#AF1E24" stroke-miterlimit="10" cx="269.364" cy="691.333" r="2.469"/>
		<circle id="LI10-2" fill="#040000" stroke="#AF1E24" stroke-miterlimit="10" cx="266.864" cy="699.333" r="2.469"/>
		<circle id="LI11-2" fill="#040000" stroke="#AF1E24" stroke-miterlimit="10" cx="256.114" cy="736.833" r="2.469"/>
		<circle id="LI12-2" fill="#040000" stroke="#AF1E24" stroke-miterlimit="10" cx="253.614" cy="746.583" r="2.469"/>
		<circle id="LI13-2" fill="#040000" stroke="#AF1E24" stroke-miterlimit="10" cx="220.113" cy="755.583" r="2.469"/>
		<circle id="LI14-2" fill="#040000" stroke="#AF1E24" stroke-miterlimit="10" cx="153.364" cy="775.083" r="2.469"/>
		<circle id="LI15-2" fill="#040000" stroke="#AF1E24" stroke-miterlimit="10" cx="78.364" cy="769.083" r="2.469"/>
		<circle id="LU4-2" fill="#040000" stroke="#85B22F" stroke-miterlimit="10" cx="176.864" cy="741.583" r="2.469"/>
		<circle id="LU3-2" fill="#040000" stroke="#85B22F" stroke-miterlimit="10" cx="161.864" cy="745.333" r="2.469"/>
		<circle id="LU2-2" fill="#040000" stroke="#85B22F" stroke-miterlimit="10" cx="67.364" cy="763.583" r="2.469"/>
		<circle id="LU1-2" fill="#040000" stroke="#85B22F" stroke-miterlimit="10" cx="74.114" cy="747.833" r="2.469"/>
		<circle id="TE1-2" fill="#040000" stroke="#E3A72A" stroke-miterlimit="10" cx="330.614" cy="485.083" r="2.469"/>
		<circle id="TE2-2" fill="#040000" stroke="#E3A72A" stroke-miterlimit="10" cx="327.114" cy="539.333" r="2.469"/>
		<circle id="TE3-2" fill="#040000" stroke="#E3A72A" stroke-miterlimit="10" cx="323.114" cy="551.083" r="2.469"/>
		<circle id="TE4-2" fill="#040000" stroke="#E3A72A" stroke-miterlimit="10" cx="300.614" cy="591.083" r="2.469"/>
		<circle id="TE5-2" fill="#040000" stroke="#E3A72A" stroke-miterlimit="10" cx="298.614" cy="614.083" r="2.469"/>
		<circle id="TE6-2" fill="#040000" stroke="#E3A72A" stroke-miterlimit="10" cx="297.614" cy="627.333" r="2.469"/>
		<circle id="TE7-2" fill="#040000" stroke="#E3A72A" stroke-miterlimit="10" cx="305.614" cy="629.083" r="2.469"/>
		<circle id="TE8-2" fill="#040000" stroke="#E3A72A" stroke-miterlimit="10" cx="295.864" cy="640.333" r="2.469"/>
		<circle id="TE9-2" fill="#040000" stroke="#E3A72A" stroke-miterlimit="10" cx="287.614" cy="686.833" r="2.469"/>
		<circle id="TE10-2" fill="#040000" stroke="#E3A72A" stroke-miterlimit="10" cx="266.114" cy="769.583" r="2.469"/>
		<circle id="TE11-2" fill="#040000" stroke="#E3A72A" stroke-miterlimit="10" cx="255.114" cy="770.333" r="2.469"/>
		<circle id="TE12-2" fill="#040000" stroke="#E3A72A" stroke-miterlimit="10" cx="210.863" cy="782.083" r="2.469"/>
		<circle id="TE13-2" fill="#040000" stroke="#E3A72A" stroke-miterlimit="10" cx="153.364" cy="792.583" r="2.469"/>
		<circle id="TE14-2" fill="#040000" stroke="#E3A72A" stroke-miterlimit="10" cx="88.614" cy="787.583" r="2.469"/>
		<circle id="SI2-2" fill="#040000" stroke="#C51C6F" stroke-miterlimit="10" cx="344.28" cy="509.583" r="2.469"/>
		<circle id="SI2-2" fill="#040000" stroke="#C51C6F" stroke-miterlimit="10" cx="336.947" cy="543.583" r="2.469"/>
		<circle id="SI3-2" fill="#040000" stroke="#C51C6F" stroke-miterlimit="10" cx="333.28" cy="557.917" r="2.469"/>
		<circle id="SI4-2" fill="#040000" stroke="#C51C6F" stroke-miterlimit="10" cx="327.947" cy="574.917" r="2.469"/>
		<circle id="SI5-2" fill="#040000" stroke="#C51C6F" stroke-miterlimit="10" cx="322.614" cy="585.917" r="2.469"/>
		<circle id="SI6-2" fill="#040000" stroke="#C51C6F" stroke-miterlimit="10" cx="315.613" cy="599.583" r="2.469"/>
		<circle id="SI7-2" fill="#040000" stroke="#C51C6F" stroke-miterlimit="10" cx="307.28" cy="670.25" r="2.469"/>
		<circle id="HT9-2" fill="#040000" stroke="#278DC5" stroke-miterlimit="10" cx="336.947" cy="508.917" r="2.469"/>
		
			<circle id="EX-UE5-2" fill="#FFFFFF" stroke="#926034" stroke-width="0.75" stroke-miterlimit="10" cx="269.529" cy="528.801" r="1.891"/>
		
			<circle id="EX-UE9-5" fill="#FFFFFF" stroke="#926034" stroke-width="0.75" stroke-miterlimit="10" cx="285.029" cy="540.051" r="1.891"/>
		
			<circle id="EX-UE9-6" fill="#FFFFFF" stroke="#926034" stroke-width="0.75" stroke-miterlimit="10" cx="300.53" cy="526.551" r="1.891"/>
		
			<circle id="EX-UE8-2" fill="#FFFFFF" stroke="#926034" stroke-width="0.75" stroke-miterlimit="10" cx="300.03" cy="534.801" r="1.891"/>
		
			<circle id="EX-UE7-3" fill="#FFFFFF" stroke="#926034" stroke-width="0.75" stroke-miterlimit="10" cx="299.53" cy="543.551" r="1.891"/>
		
			<circle id="EX-UE4-2" fill="#FFFFFF" stroke="#926034" stroke-width="0.75" stroke-miterlimit="10" cx="310.388" cy="499.218" r="1.891"/>
		
			<circle id="EX-UE9-7" fill="#FFFFFF" stroke="#926034" stroke-width="0.75" stroke-miterlimit="10" cx="314.53" cy="530.051" r="1.891"/>
		
			<circle id="EX-UE9-8" fill="#FFFFFF" stroke="#926034" stroke-width="0.75" stroke-miterlimit="10" cx="329.28" cy="536.551" r="1.891"/>
		
			<circle id="EX-UE7-4" fill="#FFFFFF" stroke="#926034" stroke-width="0.75" stroke-miterlimit="10" cx="317.28" cy="548.801" r="1.891"/>
		
			<circle id="EX-UE6-2" fill="#FFFFFF" stroke="#926034" stroke-width="0.75" stroke-miterlimit="10" cx="338.03" cy="525.551" r="1.891"/>
		<circle id="LI1-1" fill="#040000" stroke="#AF1E24" stroke-miterlimit="10" cx="117.782" cy="82.584" r="2.469"/>
		<circle id="LI2-1" fill="#040000" stroke="#AF1E24" stroke-miterlimit="10" cx="121" cy="129.865" r="2.469"/>
		<circle id="LI3-1" fill="#040000" stroke="#AF1E24" stroke-miterlimit="10" cx="122.5" cy="144.365" r="2.469"/>
		<circle id="LI4-1" fill="#040000" stroke="#AF1E24" stroke-miterlimit="10" cx="126" cy="166.803" r="2.469"/>
		<circle id="LI5-1" fill="#040000" stroke="#AF1E24" stroke-miterlimit="10" cx="123.5" cy="194.803" r="2.469"/>
		<circle id="LI6-1" fill="#040000" stroke="#AF1E24" stroke-miterlimit="10" cx="123.029" cy="230.834" r="2.469"/>
		<circle id="LI7-1" fill="#040000" stroke="#AF1E24" stroke-miterlimit="10" cx="130.5" cy="255.865" r="2.469"/>
		<circle id="LI8-1" fill="#040000" stroke="#AF1E24" stroke-miterlimit="10" cx="139.5" cy="287.365" r="2.469"/>
		<circle id="LI9-1" fill="#040000" stroke="#AF1E24" stroke-miterlimit="10" cx="141.75" cy="295.865" r="2.469"/>
		<circle id="LI10-1" fill="#040000" stroke="#AF1E24" stroke-miterlimit="10" cx="144.25" cy="303.865" r="2.469"/>
		<circle id="LI11-1" fill="#040000" stroke="#AF1E24" stroke-miterlimit="10" cx="155" cy="341.365" r="2.469"/>
		<circle id="LI12-1" fill="#040000" stroke="#AF1E24" stroke-miterlimit="10" cx="157.5" cy="351.115" r="2.469"/>
		<circle id="LI13-1" fill="#040000" stroke="#AF1E24" stroke-miterlimit="10" cx="191" cy="360.115" r="2.469"/>
		<circle id="LI14-1" fill="#040000" stroke="#AF1E24" stroke-miterlimit="10" cx="257.75" cy="379.615" r="2.469"/>
		<circle id="LI15-1" fill="#040000" stroke="#AF1E24" stroke-miterlimit="10" cx="332.75" cy="373.615" r="2.469"/>
		<circle id="LU4-1" fill="#040000" stroke="#85B22F" stroke-miterlimit="10" cx="234.25" cy="346.115" r="2.469"/>
		<circle id="LU3-1" fill="#040000" stroke="#85B22F" stroke-miterlimit="10" cx="249.25" cy="349.865" r="2.469"/>
		<circle id="LU2-1" fill="#040000" stroke="#85B22F" stroke-miterlimit="10" cx="343.75" cy="368.115" r="2.469"/>
		<circle id="LU1-1" fill="#040000" stroke="#85B22F" stroke-miterlimit="10" cx="337" cy="352.365" r="2.469"/>
		<circle id="TE1-1" fill="#040000" stroke="#E3A72A" stroke-miterlimit="10" cx="80.5" cy="89.615" r="2.469"/>
		<circle id="TE2-1" fill="#040000" stroke="#E3A72A" stroke-miterlimit="10" cx="84" cy="143.865" r="2.469"/>
		<circle id="TE3-1" fill="#040000" stroke="#E3A72A" stroke-miterlimit="10" cx="88" cy="155.615" r="2.469"/>
		<circle id="TE4-1" fill="#040000" stroke="#E3A72A" stroke-miterlimit="10" cx="110.5" cy="195.615" r="2.469"/>
		<circle id="TE5-1" fill="#040000" stroke="#E3A72A" stroke-miterlimit="10" cx="112.5" cy="218.615" r="2.469"/>
		<circle id="TE6-1" fill="#040000" stroke="#E3A72A" stroke-miterlimit="10" cx="113.5" cy="231.865" r="2.469"/>
		<circle id="TE7-1" fill="#040000" stroke="#E3A72A" stroke-miterlimit="10" cx="105.5" cy="233.615" r="2.469"/>
		<circle id="TE8-1" fill="#040000" stroke="#E3A72A" stroke-miterlimit="10" cx="115.25" cy="244.865" r="2.469"/>
		<circle id="TE9-1" fill="#040000" stroke="#E3A72A" stroke-miterlimit="10" cx="123.5" cy="291.365" r="2.469"/>
		<circle id="TE10-1" fill="#040000" stroke="#E3A72A" stroke-miterlimit="10" cx="145" cy="374.115" r="2.469"/>
		<circle id="TE11-1" fill="#040000" stroke="#E3A72A" stroke-miterlimit="10" cx="156" cy="374.865" r="2.469"/>
		<circle id="TE12-1" fill="#040000" stroke="#E3A72A" stroke-miterlimit="10" cx="200.25" cy="386.615" r="2.469"/>
		<circle id="TE13-1" fill="#040000" stroke="#E3A72A" stroke-miterlimit="10" cx="257.75" cy="397.115" r="2.469"/>
		<circle id="TE14-1" fill="#040000" stroke="#E3A72A" stroke-miterlimit="10" cx="322.5" cy="392.115" r="2.469"/>
		<circle id="SI2-1" fill="#040000" stroke="#C51C6F" stroke-miterlimit="10" cx="66.833" cy="114.116" r="2.469"/>
		<circle id="SI2-1" fill="#040000" stroke="#C51C6F" stroke-miterlimit="10" cx="74.167" cy="148.116" r="2.469"/>
		<circle id="SI3-1" fill="#040000" stroke="#C51C6F" stroke-miterlimit="10" cx="77.833" cy="162.45" r="2.469"/>
		<circle id="SI4-1" fill="#040000" stroke="#C51C6F" stroke-miterlimit="10" cx="83.167" cy="179.45" r="2.469"/>
		<circle id="SI5-1" fill="#040000" stroke="#C51C6F" stroke-miterlimit="10" cx="88.5" cy="190.45" r="2.469"/>
		<circle id="SI6-1" fill="#040000" stroke="#C51C6F" stroke-miterlimit="10" cx="95.5" cy="204.116" r="2.469"/>
		<circle id="SI7-1" fill="#040000" stroke="#C51C6F" stroke-miterlimit="10" cx="103.833" cy="274.783" r="2.469"/>
		<circle id="HT9-1" fill="#040000" stroke="#278DC5" stroke-miterlimit="10" cx="74.167" cy="113.449" r="2.469"/>
		
			<circle id="EX-UE5-1" fill="#FFFFFF" stroke="#926034" stroke-width="0.75" stroke-miterlimit="10" cx="140.5" cy="133.834" r="1.891"/>
		
			<circle id="EX-UE9-1" fill="#FFFFFF" stroke="#926034" stroke-width="0.75" stroke-miterlimit="10" cx="127" cy="143.334" r="1.891"/>
		
			<circle id="EX-UE4-1" fill="#FFFFFF" stroke="#926034" stroke-width="0.75" stroke-miterlimit="10" cx="101" cy="102.725" r="1.891"/>
		
			<circle id="EX-UE9-2" fill="#FFFFFF" stroke="#926034" stroke-width="0.75" stroke-miterlimit="10" cx="111" cy="131.334" r="1.891"/>
		
			<circle id="EX-UE8-1" fill="#FFFFFF" stroke="#926034" stroke-width="0.75" stroke-miterlimit="10" cx="112" cy="139.834" r="1.891"/>
		
			<circle id="EX-UE7-1" fill="#FFFFFF" stroke="#926034" stroke-width="0.75" stroke-miterlimit="10" cx="112.609" cy="148.834" r="1.891"/>
		
			<circle id="EX-UE9-3" fill="#FFFFFF" stroke="#926034" stroke-width="0.75" stroke-miterlimit="10" cx="97.109" cy="135.334" r="1.891"/>
		
			<circle id="EX-UE7-2" fill="#FFFFFF" stroke="#926034" stroke-width="0.75" stroke-miterlimit="10" cx="94.109" cy="154.834" r="1.891"/>
		
			<circle id="EX-UE6-1" fill="#FFFFFF" stroke="#926034" stroke-width="0.75" stroke-miterlimit="10" cx="73.109" cy="131.334" r="1.891"/>
	</g>
</g>
</svg>
