<?xml version="1.0" encoding="utf-8"?>
<!-- Generator: Adobe Illustrator 16.0.0, SVG Export Plug-In . SVG Version: 6.00 Build 0)  -->
<!DOCTYPE svg PUBLIC "-//W3C//DTD SVG 1.1//EN" "http://www.w3.org/Graphics/SVG/1.1/DTD/svg11.dtd">
<svg version="1.1" xmlns="http://www.w3.org/2000/svg" xmlns:xlink="http://www.w3.org/1999/xlink" x="0px" y="0px"
	 width="543.44px" height="1248.419px" viewBox="0 0 543.44 1248.419" enable-background="new 0 0 543.44 1248.419"
	 xml:space="preserve">
<g id="svg-youtuinei">
	<g id="all">
		<g id="shenti">
			<path fill="#FFFFFF" stroke="#A5906A" stroke-miterlimit="10" stroke-dasharray="2" d="M106.255,1161.637c0,0,2-6.334,11-3.668
				C123.922,1167.969,106.255,1161.637,106.255,1161.637z"/>
			<path fill="#FFFFFF" stroke="#A5906A" stroke-miterlimit="10" stroke-dasharray="2" d="M95.922,1166.969
				c0,0,3.333-7.334,10.333-7c5,1,5,2.334,8,2.334s-3.333,6.334-3.333,6.334L95.922,1166.969z"/>
			<path fill="#FFFFFF" stroke="#A5906A" stroke-miterlimit="10" stroke-dasharray="2" d="M84.589,1169.969
				c0,0,0.333-5.332,5.333-6.332s13.667,4,20,2s-3,6.332-3,6.332L84.589,1169.969z"/>
			<path fill="#FFFFFF" stroke="#A5906A" stroke-miterlimit="10" stroke-dasharray="2" d="M418.1,662.566
				c-34.455,17.647-173.126,139.297-178.152,142.017s-9.2,0.003-13.446,3.361s-12.991,15.673-14.285,21.849
				c-1.294,6.177-0.387,12.855-0.84,21.85c-1.121,36.994-43.664,194.826-47.059,209.242
				c-24.729,83.084-59.698,107.057-65.547,108.404c-5.849,1.346-17.182-4.391-21.849-2.521
				c-12.667,11.201,5.21,22.176,12.604,22.689c7.396,0.512,15.928-5.555,19.328-2.521c24.067,8.367,28.577,3.285,38.656-0.84
				c10.078-4.127,27.495-33.533,34.453-39.496c6.958-5.965,34.465-13.18,45.378-28.572c12.913-18.725-7.401-39.391-9.243-47.059
				c0.823-31,37.933-80.876,45.378-112.604s2.403-63.56,10.925-77.311c19.188-24.418,166.385-121.849,166.385-121.849"/>
			<path fill="#FFFFFF" stroke="#A5906A" stroke-miterlimit="10" stroke-dasharray="2" d="M418.1,662.566
				c-34.455,17.647-173.126,139.297-178.152,142.017s-9.2,0.003-13.446,3.361s-12.991,15.673-14.285,21.849
				c-1.294,6.177-0.387,12.855-0.84,21.85c-1.121,36.994-43.664,194.826-47.059,209.242
				c-24.729,83.084-59.698,107.057-65.547,108.404c-5.849,1.346-17.182-4.391-21.849-2.521
				c-12.667,11.201,5.21,22.176,12.604,22.689c7.396,0.512,15.928-5.555,19.328-2.521c24.067,8.367,28.577,3.285,38.656-0.84
				c10.078-4.127,27.495-33.533,34.453-39.496c6.958-5.965,34.465-13.18,45.378-28.572c12.913-18.725-7.401-39.391-9.243-47.059
				c0.823-31,37.933-80.876,45.378-112.604s2.403-63.56,10.925-77.311c19.188-24.418,166.385-121.849,166.385-121.849"/>
			<path fill="#FFFFFF" stroke="#A5906A" stroke-width="0.5" stroke-miterlimit="10" stroke-dasharray="2" d="M197.255,1049.637
				c-3.666,10.666-1.666,21.334-9.666,30.666"/>
			<path fill="#FFFFFF" stroke="#A5906A" stroke-miterlimit="10" stroke-dasharray="2" d="M79.672,1166.469
				c-0.375,2.375-2.5,3.75-2.5,3.75s7.5,2.625,11,1.75s2-3.625,2-3.625S79.297,1165.844,79.672,1166.469z"/>
		</g>
		<g id="jingluo">
			<path id="Spleen-2" fill="none" stroke="#85B12E" stroke-miterlimit="10" d="M431.924,686.305
				c-46.666,19.333-158.667,121.333-158.667,121.333s-36.666,13.999-42,30.667c-5.334,16.666,2.666,36,2.666,36s-6,38.666-2,58
				c-25.333,47.333-30.666,98.666-32.666,113.332c-2.667,30-17.837,43.807-30.667,76.668c-7.261,18.598-16.194,38.121-28,48
				c-27.333,20.666-56,6.666-56,6.666"/>
			<path id="Liver-2" fill="none" stroke="#7F1C73" stroke-miterlimit="10" d="M441.924,721.637
				c-66.666,31.334-179.333,150-179.333,150l-13.334,11.334c0,0-39.333,64-50,92.666c-4,43.334-39.333,116.666-39.333,116.666
				s-9.333,34.668-25.333,48.668c-13.334,17.332-29.334,25.332-29.334,25.332"/>
			<path id="Kidney-2" fill="none" stroke="#1B96D4" stroke-miterlimit="10" d="M440.592,743.637c0,0-91.334,52.668-166.667,138
				c-8.667,4.001-13.333,18-13.333,18l-56,158l11.333-0.666c0,0-4,30-20.667,50.666c11.334,10.666,30-3.334,30-3.334l-10.666-20.666
				c0,0-36.667,27.334-51.334,61.334c0,4.666,1.334,20-4,30.666"/>
		</g>
		<g id="xuewei">
			
				<circle id="SP11-2_2_" fill="#040000" stroke="#8ABA29" stroke-width="0.75" stroke-miterlimit="10" cx="337.525" cy="751.969" r="2.469"/>
			
				<circle id="SP10-2_2_" fill="#040000" stroke="#8ABA29" stroke-width="0.75" stroke-miterlimit="10" cx="273.453" cy="807.469" r="2.469"/>
			
				<circle id="SP9-2_2_" fill="#040000" stroke="#8ABA29" stroke-width="0.75" stroke-miterlimit="10" cx="233.953" cy="874.969" r="2.469"/>
			
				<circle id="SP8-2_2_" fill="#040000" stroke="#8ABA29" stroke-width="0.75" stroke-miterlimit="10" cx="231.953" cy="932.469" r="2.469"/>
			
				<circle id="SP7-2_2_" fill="#040000" stroke="#8ABA29" stroke-width="0.75" stroke-miterlimit="10" cx="206.953" cy="1000.469" r="2.469"/>
			
				<circle id="SP6-2_2_" fill="#040000" stroke="#8ABA29" stroke-width="0.75" stroke-miterlimit="10" cx="199.453" cy="1042.969" r="2.469"/>
			
				<circle id="SP5-2_2_" fill="#040000" stroke="#8ABA29" stroke-width="0.75" stroke-miterlimit="10" cx="182.422" cy="1094" r="2.469"/>
			
				<circle id="SP4-2_2_" fill="#040000" stroke="#8ABA29" stroke-width="0.75" stroke-miterlimit="10" cx="149.453" cy="1160.469" r="2.469"/>
			
				<circle id="SP3-2_2_" fill="#040000" stroke="#8ABA29" stroke-width="0.75" stroke-miterlimit="10" cx="137.922" cy="1172.438" r="2.469"/>
			
				<circle id="SP2-2_2_" fill="#040000" stroke="#8ABA29" stroke-width="0.75" stroke-miterlimit="10" cx="105.422" cy="1180.938" r="2.469"/>
			
				<circle id="SP1-2_2_" fill="#040000" stroke="#8ABA29" stroke-width="0.75" stroke-miterlimit="10" cx="85.953" cy="1176.969" r="2.469"/>
			<circle id="LR9-2_2_" stroke="#7F1C73" stroke-miterlimit="10" cx="335.256" cy="800.938" r="2.469"/>
			<circle id="LR8-2_2_" stroke="#7F1C73" stroke-miterlimit="10" cx="262.921" cy="871.605" r="2.469"/>
			<circle id="LR7-2_2_" stroke="#7F1C73" stroke-miterlimit="10" cx="249.921" cy="882.605" r="2.469"/>
			<circle id="LR6-2_2_" stroke="#7F1C73" stroke-miterlimit="10" cx="198.921" cy="976.271" r="2.469"/>
			<circle id="LR5-2_2_" stroke="#7F1C73" stroke-miterlimit="10" cx="190.921" cy="1013.938" r="2.469"/>
			<circle id="LR4-2_2_" stroke="#7F1C73" stroke-miterlimit="10" cx="161.255" cy="1089.271" r="2.469"/>
			<circle id="LR3-2_2_" stroke="#7F1C73" stroke-miterlimit="10" cx="135.255" cy="1140.271" r="2.469"/>
			<circle id="LR2-2_2_" stroke="#7F1C73" stroke-miterlimit="10" cx="105.588" cy="1165.605" r="2.469"/>
			<circle id="KI10-2_2_" stroke="#1B96D4" stroke-miterlimit="10" cx="274.589" cy="881.271" r="2.469"/>
			<circle id="KI9-2_2_" stroke="#1B96D4" stroke-miterlimit="10" cx="223.589" cy="1004.605" r="2.469"/>
			<circle id="KI8-2_2_" stroke="#1B96D4" stroke-miterlimit="10" cx="204.922" cy="1057.271" r="2.469"/>
			<circle id="KI7-2_2_" stroke="#1B96D4" stroke-miterlimit="10" cx="215.922" cy="1056.605" r="2.469"/>
			<circle id="KI6-2_2_" stroke="#1B96D4" stroke-miterlimit="10" cx="195.589" cy="1107.938" r="2.469"/>
			<circle id="KI5-2_2_" stroke="#1B96D4" stroke-miterlimit="10" cx="225.255" cy="1103.938" r="2.469"/>
			<circle id="KI4-2_2_" stroke="#1B96D4" stroke-miterlimit="10" cx="220.255" cy="1094.271" r="2.469"/>
			<circle id="KI3-2_2_" stroke="#1B96D4" stroke-miterlimit="10" cx="214.589" cy="1083.938" r="2.469"/>
			<circle id="KI2-2_2_" stroke="#1B96D4" stroke-miterlimit="10" cx="163.255" cy="1144.938" r="2.469"/>
			<circle id="EX-LE3-2_2_" fill="#FFFFFF" stroke="#8E5E32" stroke-miterlimit="10" cx="287.453" cy="795.637" r="2.469"/>
			<circle id="EX-LE4-2_2_" fill="#FFFFFF" stroke="#8E5E32" stroke-miterlimit="10" cx="221.255" cy="846.502" r="2.469"/>
			<circle id="EX-LE8-2_2_" fill="#FFFFFF" stroke="#8E5E32" stroke-miterlimit="10" cx="200.119" cy="1084.303" r="2.469"/>
		</g>
	</g>
</g>
<g id="svg-zuotuinei">
	<g id="all_3_">
		<g id="shenti_2_">
			<path fill="#FFFFFF" stroke="#A5906A" stroke-miterlimit="10" stroke-dasharray="2" d="M407.586,582.666c0,0-2-6.334-11-3.668
				C389.92,588.998,407.586,582.666,407.586,582.666z"/>
			<path fill="#FFFFFF" stroke="#A5906A" stroke-miterlimit="10" stroke-dasharray="2" d="M417.92,587.998c0,0-3.334-7.334-10.334-7
				c-5,1-5,2.334-8,2.334s3.334,6.334,3.334,6.334L417.92,587.998z"/>
			<path fill="#FFFFFF" stroke="#A5906A" stroke-miterlimit="10" stroke-dasharray="2" d="M429.252,590.998
				c0,0-0.332-5.332-5.332-6.332s-13.668,4-20,2c-6.334-2,3,6.332,3,6.332L429.252,590.998z"/>
			<path fill="#FFFFFF" stroke="#A5906A" stroke-miterlimit="10" stroke-dasharray="2" d="M95.743,83.595
				c34.454,17.647,173.126,139.296,178.151,142.017s9.2,0.002,13.446,3.361s12.992,15.673,14.285,21.849
				c1.295,6.176,0.387,12.854,0.841,21.849c1.12,36.994,43.663,194.827,47.058,209.243c24.729,83.084,59.699,107.057,65.547,108.404
				c5.85,1.346,17.182-4.391,21.85-2.521c12.666,11.201-5.211,22.176-12.605,22.689c-7.395,0.512-15.928-5.555-19.328-2.521
				c-24.066,8.367-28.576,3.285-38.656-0.84c-10.078-4.127-27.494-33.533-34.453-39.496c-6.957-5.965-34.464-13.18-45.377-28.572
				c-12.914-18.725,7.401-39.391,9.244-47.059c-0.824-31-37.933-80.876-45.378-112.605s-2.403-63.56-10.924-77.311
				C220.252,277.665,73.054,180.234,73.054,180.234"/>
			<path fill="#FFFFFF" stroke="#A5906A" stroke-miterlimit="10" stroke-dasharray="2" d="M95.743,83.595
				c34.454,17.647,173.126,139.296,178.151,142.017s9.2,0.002,13.446,3.361s12.992,15.673,14.285,21.849
				c1.295,6.176,0.387,12.854,0.841,21.849c1.12,36.994,43.663,194.827,47.058,209.243c24.729,83.084,59.699,107.057,65.547,108.404
				c5.85,1.346,17.182-4.391,21.85-2.521c12.666,11.201-5.211,22.176-12.605,22.689c-7.395,0.512-15.928-5.555-19.328-2.521
				c-24.066,8.367-28.576,3.285-38.656-0.84c-10.078-4.127-27.494-33.533-34.453-39.496c-6.957-5.965-34.464-13.18-45.377-28.572
				c-12.914-18.725,7.401-39.391,9.244-47.059c-0.824-31-37.933-80.876-45.378-112.605s-2.403-63.56-10.924-77.311
				C220.252,277.665,73.054,180.234,73.054,180.234"/>
			<path fill="#FFFFFF" stroke="#A5906A" stroke-width="0.5" stroke-miterlimit="10" stroke-dasharray="2" d="M316.586,470.666
				c3.666,10.666,1.666,21.334,9.666,30.666"/>
			<path fill="#FFFFFF" stroke="#A5906A" stroke-miterlimit="10" stroke-dasharray="2" d="M434.17,587.498
				c0.375,2.375,2.5,3.75,2.5,3.75s-7.5,2.625-11,1.75s-2-3.625-2-3.625S434.545,586.873,434.17,587.498z"/>
		</g>
		<g id="jingluo_2_">
			<path id="Spleen-1" fill="none" stroke="#85B12E" stroke-miterlimit="10" d="M81.917,107.333
				c46.667,19.333,158.667,121.333,158.667,121.333s36.667,14,42,30.667s-2.667,36-2.667,36s6,38.667,2,58
				c25.334,47.333,30.666,98.667,32.666,113.333c2.668,30,17.838,43.807,30.668,76.668c7.26,18.598,16.193,38.121,28,48
				c27.332,20.666,56,6.666,56,6.666"/>
			<path id="Liver-1" fill="none" stroke="#7F1C73" stroke-miterlimit="10" d="M71.917,142.666
				c66.666,31.333,179.333,150,179.333,150L264.584,304c0,0,39.334,64,50,92.667c4,43.334,39.334,116.666,39.334,116.666
				S363.25,548,379.25,562c13.334,17.332,29.334,25.332,29.334,25.332"/>
			<path id="Kidney-1" fill="none" stroke="#1B96D4" stroke-miterlimit="10" d="M73.25,164.666c0,0,91.334,52.667,166.667,138
				c8.667,4,13.333,18,13.333,18l56,158L297.917,478c0,0,4,30,20.667,50.666c-11.334,10.666-30-3.334-30-3.334l10.666-20.666
				c0,0,36.668,27.334,51.334,61.334c0,4.666-1.334,20,4,30.666"/>
		</g>
		<g id="xuewei_2_">
			
				<circle id="SP11-1_1_" fill="#040000" stroke="#8ABA29" stroke-width="0.75" stroke-miterlimit="10" cx="176.316" cy="172.998" r="2.469"/>
			
				<circle id="SP10-1_1_" fill="#040000" stroke="#8ABA29" stroke-width="0.75" stroke-miterlimit="10" cx="240.389" cy="228.498" r="2.469"/>
			
				<circle id="SP9-1_1_" fill="#040000" stroke="#8ABA29" stroke-width="0.75" stroke-miterlimit="10" cx="279.889" cy="295.998" r="2.469"/>
			
				<circle id="SP8-1_1_" fill="#040000" stroke="#8ABA29" stroke-width="0.75" stroke-miterlimit="10" cx="281.889" cy="353.498" r="2.469"/>
			
				<circle id="SP7-1_1_" fill="#040000" stroke="#8ABA29" stroke-width="0.75" stroke-miterlimit="10" cx="306.889" cy="421.498" r="2.469"/>
			
				<circle id="SP6-1_1_" fill="#040000" stroke="#8ABA29" stroke-width="0.75" stroke-miterlimit="10" cx="314.389" cy="463.998" r="2.469"/>
			
				<circle id="SP5-1_1_" fill="#040000" stroke="#8ABA29" stroke-width="0.75" stroke-miterlimit="10" cx="331.42" cy="515.029" r="2.469"/>
			
				<circle id="SP4-1_1_" fill="#040000" stroke="#8ABA29" stroke-width="0.75" stroke-miterlimit="10" cx="364.389" cy="581.498" r="2.469"/>
			
				<circle id="SP3-1_1_" fill="#040000" stroke="#8ABA29" stroke-width="0.75" stroke-miterlimit="10" cx="375.92" cy="593.467" r="2.469"/>
			
				<circle id="SP2-1_1_" fill="#040000" stroke="#8ABA29" stroke-width="0.75" stroke-miterlimit="10" cx="408.42" cy="601.967" r="2.469"/>
			
				<circle id="SP1-1_1_" fill="#040000" stroke="#8ABA29" stroke-width="0.75" stroke-miterlimit="10" cx="427.889" cy="597.998" r="2.469"/>
			<circle id="LR9-1_1_" stroke="#7F1C73" stroke-miterlimit="10" cx="178.586" cy="221.967" r="2.469"/>
			<circle id="LR8-1_1_" stroke="#7F1C73" stroke-miterlimit="10" cx="250.92" cy="292.634" r="2.469"/>
			<circle id="LR7-1_1_" stroke="#7F1C73" stroke-miterlimit="10" cx="263.92" cy="303.634" r="2.469"/>
			<circle id="LR6-1_1_" stroke="#7F1C73" stroke-miterlimit="10" cx="314.92" cy="397.301" r="2.469"/>
			<circle id="LR5-1_1_" stroke="#7F1C73" stroke-miterlimit="10" cx="322.92" cy="434.967" r="2.469"/>
			<circle id="LR4-1_1_" stroke="#7F1C73" stroke-miterlimit="10" cx="352.586" cy="510.301" r="2.469"/>
			<circle id="LR3-1_1_" stroke="#7F1C73" stroke-miterlimit="10" cx="378.586" cy="561.301" r="2.469"/>
			<circle id="LR2-1_1_" stroke="#7F1C73" stroke-miterlimit="10" cx="408.254" cy="586.635" r="2.469"/>
			<circle id="KI10-1_1_" stroke="#1B96D4" stroke-miterlimit="10" cx="239.253" cy="302.301" r="2.469"/>
			<circle id="KI9-1_1_" stroke="#1B96D4" stroke-miterlimit="10" cx="290.253" cy="425.635" r="2.469"/>
			<circle id="KI8-1_1_" stroke="#1B96D4" stroke-miterlimit="10" cx="308.92" cy="478.301" r="2.469"/>
			<circle id="KI7-1_1_" stroke="#1B96D4" stroke-miterlimit="10" cx="297.919" cy="477.635" r="2.469"/>
			<circle id="KI6-1_1_" stroke="#1B96D4" stroke-miterlimit="10" cx="318.252" cy="528.967" r="2.469"/>
			<circle id="KI5-1_1_" stroke="#1B96D4" stroke-miterlimit="10" cx="288.586" cy="524.967" r="2.469"/>
			<circle id="KI4-1_1_" stroke="#1B96D4" stroke-miterlimit="10" cx="293.586" cy="515.301" r="2.469"/>
			<circle id="KI3-1_1_" stroke="#1B96D4" stroke-miterlimit="10" cx="299.253" cy="504.967" r="2.469"/>
			<circle id="KI2-1_1_" stroke="#1B96D4" stroke-miterlimit="10" cx="350.586" cy="565.967" r="2.469"/>
			<circle id="EX-LE3-1_1_" fill="#FFFFFF" stroke="#8E5E32" stroke-miterlimit="10" cx="226.39" cy="216.666" r="2.469"/>
			<circle id="EX-LE4-1_1_" fill="#FFFFFF" stroke="#8E5E32" stroke-miterlimit="10" cx="292.586" cy="267.531" r="2.469"/>
			<circle id="EX-LE8-1_1_" fill="#FFFFFF" stroke="#8E5E32" stroke-miterlimit="10" cx="313.723" cy="505.332" r="2.469"/>
		</g>
	</g>
</g>
</svg>
