<?xml version="1.0" encoding="utf-8"?>
<!-- Generator: Adobe Illustrator 16.0.0, SVG Export Plug-In . SVG Version: 6.00 Build 0)  -->
<!DOCTYPE svg PUBLIC "-//W3C//DTD SVG 1.1//EN" "http://www.w3.org/Graphics/SVG/1.1/DTD/svg11.dtd">
<svg version="1.1" xmlns="http://www.w3.org/2000/svg" xmlns:xlink="http://www.w3.org/1999/xlink" x="0px" y="0px"
	 width="469.079px" height="1307.545px" viewBox="0 0 469.079 1307.545" enable-background="new 0 0 469.079 1307.545"
	 xml:space="preserve">
<g id="svg-zuoshoubei">
	<g id="all_1_">
		<g id="shenti">
			<path fill="none" stroke="#AE9970" stroke-miterlimit="10" stroke-dasharray="2" d="M77.255,144.895
				c-2.689-6.204-34.12-49.629-23.574-56.453s28.537,49.01,41.564,44.667c9.926-1.86-18.611-70.722-3.103-73.203
				c15.511-2.481,16.751,66.999,24.815,66.999c11.787-0.62-5.894-80.027,9.926-79.406c15.819,0.62,5.583,76.305,13.027,75.684
				c10.753-0.621,4.343-65.138,18.611-63.897c14.269,1.241-3.723,78.787,9.306,91.194c6.823,1.24,12.854-4.963,17.991-11.166
				c-0.621-9.926,14.888-28.537,30.397-16.75c3.722,4.963-10.841,20.867-13.441,24.398c-0.716,0.972-10.438,9.091-11.82,13.443
				c-10.514,25.021-29.331,38.463-32.433,50.25s-0.412,57.488,0.62,69.48c1.033,11.993,14.232,43.127,17.99,69.48
				c15.508,2.273,54.593-29.362,91.195-39.703c36.601-10.34,80.026-15.509,80.026-15.509s32.673,77.961,14.889,94.296
				c-157.16,55.625-229.537,46.526-239.049,41.148c-9.512-5.375-18.195-47.557-19.644-75.27c-1.449-27.71,3.103-107.528-1.24-119.73
				c-4.344-12.201-1.861-14.68-1.241-23.572c0.62-8.895-12.614-21.508-15.097-30.814S79.944,151.1,77.255,144.895z"/>
			<path fill="none" stroke="#AE9970" stroke-miterlimit="10" stroke-dasharray="2" d="M124.713,60.215c0,0,3.412,2.636,5.893-0.31
				c1.045,0.829,0.311-10.546-3.411-9.926C123.472,50.6,124.713,60.215,124.713,60.215z"/>
			<path fill="none" stroke="#AE9970" stroke-miterlimit="10" stroke-dasharray="2" d="M154.955,71.848c0,0-0.775-7.91,3.257-8.065
				c4.033-0.155,3.412,6.979,2.637,8.53C156.972,74.174,154.955,71.848,154.955,71.848z"/>
			<path fill="none" stroke="#AE9970" stroke-miterlimit="10" stroke-dasharray="2" d="M91.833,74.328c0,0,4.188,2.326,6.514-1.24
				c-0.931-4.032-1.861-9.771-5.738-8.685C88.731,65.488,91.833,74.328,91.833,74.328z"/>
			<path fill="none" stroke="#AE9970" stroke-miterlimit="10" stroke-dasharray="2" d="M56.317,92.318
				c-3.102,2.793,2.326,10.082,2.326,10.082s4.343-0.466,5.273-3.257C63.297,96.816,59.419,89.527,56.317,92.318z"/>
			<path fill="none" stroke="#AE9970" stroke-miterlimit="10" stroke-dasharray="2" d="M208.152,124.889
				c2.326-0.621,5.428,2.637,5.428,2.637s-4.497,10.08-8.53,7.289C201.018,132.022,205.826,125.509,208.152,124.889z"/>
			<path fill="none" stroke="#AE9970" stroke-miterlimit="10" stroke-dasharray="2" d="M155.266,80.998c0,0,2.481,1.24,5.429,0"/>
			<path fill="none" stroke="#AE9970" stroke-miterlimit="10" stroke-dasharray="2" d="M154.18,93.561c0,0,2.481,1.705,4.653,0.154"
				/>
			<path fill="none" stroke="#AE9970" stroke-miterlimit="10" stroke-dasharray="2" d="M154.18,96.662c0,0,2.171,0.93,4.343,0.154"
				/>
			<path fill="none" stroke="#AE9970" stroke-miterlimit="10" stroke-dasharray="2" d="M125.799,69.986c0,0,3.257,1.24,5.117-0.311"
				/>
			<path fill="none" stroke="#AE9970" stroke-miterlimit="10" stroke-dasharray="2" d="M125.799,72.623c0,0,2.946,1.551,4.962-0.156
				"/>
			<path fill="none" stroke="#AE9970" stroke-miterlimit="10" stroke-dasharray="2" d="M125.799,89.993c0,0,2.637,0.62,4.962-0.155"
				/>
			<path fill="none" stroke="#AE9970" stroke-miterlimit="10" stroke-dasharray="2" d="M125.644,92.939c0,0,3.412,1.24,5.428-0.465"
				/>
			<path fill="none" stroke="#AE9970" stroke-miterlimit="10" stroke-dasharray="2" d="M96.796,88.598c0,0,2.947,0.465,4.343-1.086"
				/>
			<path fill="none" stroke="#AE9970" stroke-miterlimit="10" stroke-dasharray="2" d="M97.416,91.233c0,0,3.412,0.466,4.343-1.396"
				/>
			<path fill="none" stroke="#AE9970" stroke-miterlimit="10" stroke-dasharray="2" d="M99.743,104.105c0,0,3.722-0.154,4.343-1.396
				"/>
			<path fill="none" stroke="#AE9970" stroke-miterlimit="10" stroke-dasharray="2" d="M100.053,106.898
				c0,0,3.567,0.775,4.498-1.086"/>
			<path fill="none" stroke="#AE9970" stroke-miterlimit="10" stroke-dasharray="2" d="M62.676,106.898c0,0,2.482-0.775,3.258-2.482
				"/>
			<path fill="none" stroke="#AE9970" stroke-miterlimit="10" stroke-dasharray="2" d="M69.19,118.84c0,0,3.566-0.465,4.187-2.791"
				/>
			<path fill="none" stroke="#AE9970" stroke-miterlimit="10" stroke-dasharray="2" d="M70.74,121.477c0,0,4.343-1.086,3.878-2.947"
				/>
			<path fill="none" stroke="#AE9970" stroke-miterlimit="10" stroke-dasharray="2" d="M155.575,130.316
				c0,0,1.552,4.343-2.326,3.877"/>
			<path fill="none" stroke="#AE9970" stroke-miterlimit="10" stroke-dasharray="2" d="M131.536,129.541
				c0,0,2.017,4.032-2.791,3.257"/>
			<path fill="none" stroke="#AE9970" stroke-miterlimit="10" stroke-dasharray="2" d="M110.289,132.953c0,0,3.877,2.637,0,5.894"/>
			<path fill="none" stroke="#AE9970" stroke-miterlimit="10" stroke-dasharray="2" d="M90.127,138.847c0,0,3.567,3.567-0.62,4.963"
				/>
			<path fill="none" stroke="#AE9970" stroke-miterlimit="10" stroke-dasharray="2" d="M196.83,141.483c0,0,5.429-1.706,6.204,3.877
				"/>
			<path fill="none" stroke="#AE9970" stroke-miterlimit="10" stroke-dasharray="2" d="M195.744,143.654
				c0,0,5.584,0.621,5.273,4.809"/>
			<path fill="none" stroke="#AE9970" stroke-miterlimit="10" stroke-dasharray="2" d="M131.691,146.137
				c0,0,0.155,55.212-0.311,58.004"/>
			
				<line fill="none" stroke="#AE9970" stroke-miterlimit="10" stroke-dasharray="2" x1="112.46" y1="149.393" x2="122.387" y2="196.852"/>
		</g>
		<g id="jingluo_1_">
			<path id="LargeIntestine-1" fill="none" stroke="#B81C24" stroke-miterlimit="10" stroke-dasharray="5,5" d="M163.167,73.666
				l-2.833,55.5c0,0,5.5,34.667,6,42.667s-10.667,37.333-10.667,37.333L151,243.167l3.333,24c0,0,14.167,96.166,14.667,102.666
				c17.5,0.5,52-18.666,106-12c49.334,5.333,55.667-34.332,90-16.332"/>
			<path id="Lung-1" fill="none" stroke="#89BA28" stroke-miterlimit="10" stroke-dasharray="5,5" d="M193.697,345.203
				c0,0,53.303-24.703,76.636-24.703c12.5-0.038,92.557,15.145,109.334,1.333c-0.833-1.058-6.667-15.334-6.667-15.334"/>
			<g id="TripleEnergizer-1">
				<path id="TripleEnergizer" fill="none" stroke="#EBAB22" stroke-miterlimit="10" stroke-dasharray="5,5" d="M89.292,76.335
					c0,0,16.708,56.166,8.708,60.833c9,19,32,71.333,32,71.333l0.667,38.666l-8.5,1.5c0,0,7,6,10.5,12.5
					c8.5,27-10.667,162.001-6.667,164.667s26-4.5,34-2s101.334-4,101.334-4"/>
				<path id="TripleEnergizer_2_" fill="none" stroke="#EBAB22" stroke-miterlimit="10" stroke-dasharray="5,5" d="M297.334,409.834
					c7.333-0.667,31.666-24.5,38.666-24"/>
			</g>
			<path id="SmallIntestine-1" fill="none" stroke="#D31176" stroke-miterlimit="10" stroke-dasharray="5,5" d="M54.167,101.166
				c0,0,21.5,39.334,26.166,46.667s6,38.666,24,57.333c11.333,18-2.667,145.999,2,161.333"/>
		</g>
		<g id="xuewei_1_">
			<circle id="LI1-1_2_" stroke="#B81C24" stroke-miterlimit="10" cx="163.03" cy="74.5" r="2.469"/>
			<circle id="LI2-1_2_" stroke="#B81C24" stroke-miterlimit="10" cx="160.53" cy="124.5" r="2.469"/>
			<circle id="LI3-1_2_" stroke="#B81C24" stroke-miterlimit="10" cx="163" cy="147.531" r="2.469"/>
			<circle id="LI4-1_2_" stroke="#B81C24" stroke-miterlimit="10" cx="166.5" cy="175.469" r="2.469"/>
			<circle id="LI5-1_2_" stroke="#B81C24" stroke-miterlimit="10" cx="155.5" cy="211.469" r="2.469"/>
			<circle id="LI6-1_2_" stroke="#B81C24" stroke-miterlimit="10" cx="150.97" cy="242.5" r="2.469"/>
			<circle id="LI7-1_2_" stroke="#B81C24" stroke-miterlimit="10" cx="155.5" cy="276.031" r="2.469"/>
			<circle id="LI8-1_2_" stroke="#B81C24" stroke-miterlimit="10" cx="160" cy="306.531" r="2.469"/>
			<circle id="LI9-1_2_" stroke="#B81C24" stroke-miterlimit="10" cx="161.25" cy="316.531" r="2.469"/>
			<circle id="LI10-1_2_" stroke="#B81C24" stroke-miterlimit="10" cx="163.47" cy="327.5" r="2.469"/>
			<circle id="LI11-1_2_" stroke="#B81C24" stroke-miterlimit="10" cx="167" cy="355.031" r="2.469"/>
			<circle id="LI12-1_2_" stroke="#B81C24" stroke-miterlimit="10" cx="169.47" cy="370" r="2.469"/>
			<circle id="LI13-1_2_" stroke="#B81C24" stroke-miterlimit="10" cx="216.5" cy="359.781" r="2.469"/>
			<circle id="LI14-1_2_" stroke="#B81C24" stroke-miterlimit="10" cx="297.75" cy="356.281" r="2.469"/>
			<circle id="LI15-1_2_" stroke="#B81C24" stroke-miterlimit="10" cx="364.97" cy="341.5" r="2.469"/>
			<circle id="LU4-1_1_" stroke="#89BA28" stroke-miterlimit="10" cx="250.25" cy="324.281" r="2.469"/>
			<circle id="LU3-1_1_" stroke="#89BA28" stroke-miterlimit="10" cx="269" cy="320.031" r="2.469"/>
			<circle id="LU2-1_2_" stroke="#89BA28" stroke-miterlimit="10" cx="379.363" cy="322" r="2.469"/>
			<circle id="LU1-1_2_" stroke="#89BA28" stroke-miterlimit="10" cx="373.666" cy="308.864" r="2.469"/>
			<circle id="TE1-1_2_" stroke="#EBAB22" stroke-miterlimit="10" cx="89" cy="76.031" r="2.469"/>
			<circle id="TE2-1_2_" stroke="#EBAB22" stroke-miterlimit="10" cx="97.5" cy="138.031" r="2.469"/>
			<circle id="TE3-1_2_" stroke="#EBAB22" stroke-miterlimit="10" cx="103.03" cy="149" r="2.469"/>
			<circle id="TE4-1_2_" stroke="#EBAB22" stroke-miterlimit="10" cx="129.5" cy="207.781" r="2.469"/>
			<circle id="TE5-1_2_" stroke="#EBAB22" stroke-miterlimit="10" cx="130" cy="233.281" r="2.469"/>
			<circle id="TE6-1_2_" stroke="#EBAB22" stroke-miterlimit="10" cx="130.53" cy="247.5" r="2.469"/>
			<circle id="TE7-1_2_" stroke="#EBAB22" stroke-miterlimit="10" cx="122.5" cy="248.531" r="2.469"/>
			<circle id="TE8-1_2_" stroke="#EBAB22" stroke-miterlimit="10" cx="132.5" cy="260.469" r="2.469"/>
			<circle id="TE9-1_2_" stroke="#EBAB22" stroke-miterlimit="10" cx="132.5" cy="334.031" r="2.469"/>
			<circle id="TE10-1_2_" stroke="#EBAB22" stroke-miterlimit="10" cx="141.5" cy="424.781" r="2.469"/>
			<circle id="TE11-1_2_" stroke="#EBAB22" stroke-miterlimit="10" cx="154.53" cy="423.5" r="2.469"/>
			<circle id="TE12-1_2_" stroke="#EBAB22" stroke-miterlimit="10" cx="211" cy="423.531" r="2.469"/>
			<circle id="TE13-1_2_" stroke="#EBAB22" stroke-miterlimit="10" cx="278.03" cy="414" r="2.469"/>
			<circle id="TE14-1_2_" stroke="#EBAB22" stroke-miterlimit="10" cx="336" cy="386.281" r="2.469"/>
			<circle id="SI1-1_2_" stroke="#D31176" stroke-miterlimit="10" cx="55.5" cy="102.282" r="2.469"/>
			<circle id="SI2-1_2_" stroke="#D31176" stroke-miterlimit="10" cx="79.167" cy="145.282" r="2.469"/>
			<circle id="SI3-1_2_" stroke="#D31176" stroke-miterlimit="10" cx="84.53" cy="163.5" r="2.469"/>
			<circle id="SI4-1_2_" stroke="#D31176" stroke-miterlimit="10" cx="91.03" cy="183.5" r="2.469"/>
			<circle id="SI5-1_2_" stroke="#D31176" stroke-miterlimit="10" cx="102.5" cy="201.116" r="2.469"/>
			<circle id="SI6-1_2_" stroke="#D31176" stroke-miterlimit="10" cx="108.03" cy="223" r="2.469"/>
			<circle id="SI7-1_2_" stroke="#D31176" stroke-miterlimit="10" cx="107" cy="314.469" r="2.469"/>
			<circle id="HT9-1_2_" stroke="#1B96D4" stroke-miterlimit="10" cx="65.666" cy="97.366" r="2.469"/>
			
				<circle id="EX-UE6-1_2_" fill="#FFFFFF" stroke="#956134" stroke-width="0.75" stroke-miterlimit="10" cx="73" cy="121" r="1.891"/>
			
				<circle id="EX-UE9-4_2_" fill="#FFFFFF" stroke="#956134" stroke-width="0.75" stroke-miterlimit="10" cx="95.224" cy="132.833" r="1.891"/>
			
				<circle id="EX-UE9-3_2_" fill="#FFFFFF" stroke="#956134" stroke-width="0.75" stroke-miterlimit="10" cx="117.333" cy="126.832" r="1.891"/>
			
				<circle id="EX-UE4-1_2_" fill="#FFFFFF" stroke="#956134" stroke-width="0.75" stroke-miterlimit="10" cx="129" cy="95.167" r="1.891"/>
			
				<circle id="EX-UE9-2_2_" fill="#FFFFFF" stroke="#956134" stroke-width="0.75" stroke-miterlimit="10" cx="140.667" cy="123.499" r="1.891"/>
			
				<circle id="EX-UE8-1_4_" fill="#FFFFFF" stroke="#956134" stroke-width="0.75" stroke-miterlimit="10" cx="141" cy="134.499" r="1.891"/>
			
				<circle id="EX-UE7-1_2_" fill="#FFFFFF" stroke="#956134" stroke-width="0.75" stroke-miterlimit="10" cx="141.333" cy="144.499" r="1.891"/>
			
				<circle id="EX-UE7-2_2_" fill="#FFFFFF" stroke="#956134" stroke-width="0.75" stroke-miterlimit="10" cx="112.667" cy="149.499" r="1.891"/>
			
				<circle id="EX-UE9-1" fill="#FFFFFF" stroke="#956134" stroke-width="0.75" stroke-miterlimit="10" cx="168.333" cy="150.832" r="1.891"/>
			
				<circle id="EX-UE5-1_2_" fill="#FFFFFF" stroke="#956134" stroke-width="0.75" stroke-miterlimit="10" cx="197" cy="146.833" r="1.891"/>
		</g>
	</g>
</g>
<g id="svg-youshoubei">
	<g id="all_3_">
		<g id="shenti_3_">
			<path fill="none" stroke="#AE9970" stroke-miterlimit="10" stroke-dasharray="2" d="M355.961,535.484
				c2.689-6.204,34.12-49.629,23.573-56.453c-10.546-6.824-28.536,49.01-41.563,44.667c-9.926-1.86,18.611-70.722,3.103-73.203
				c-15.511-2.481-16.751,66.999-24.815,66.999c-11.787-0.62,5.894-80.027-9.926-79.406c-15.819,0.62-5.583,76.305-13.027,75.684
				c-10.753-0.621-4.343-65.138-18.611-63.896c-14.269,1.24,3.723,78.786-9.306,91.193c-6.823,1.24-12.854-4.963-17.991-11.166
				c0.621-9.926-14.888-28.537-30.397-16.75c-3.722,4.963,10.841,20.867,13.441,24.398c0.716,0.972,10.438,9.091,11.82,13.443
				c10.514,25.021,29.331,38.463,32.433,50.25s0.412,57.488-0.62,69.48c-1.033,11.993-14.232,43.127-17.99,69.48
				c-15.508,2.273-54.593-29.362-91.195-39.703c-36.601-10.34-80.026-15.509-80.026-15.509s-32.673,77.961-14.889,94.296
				c157.16,55.625,229.537,46.526,239.049,41.148c9.512-5.375,18.195-47.557,19.644-75.27c1.449-27.71-3.103-107.528,1.24-119.73
				c4.344-12.201,1.861-14.68,1.241-23.572c-0.62-8.895,12.614-21.508,15.097-30.814S353.271,541.689,355.961,535.484z"/>
			<path fill="none" stroke="#AE9970" stroke-miterlimit="10" stroke-dasharray="2" d="M308.503,450.805c0,0-3.412,2.637-5.893-0.31
				c-1.045,0.829-0.311-10.546,3.411-9.926C309.744,441.189,308.503,450.805,308.503,450.805z"/>
			<path fill="none" stroke="#AE9970" stroke-miterlimit="10" stroke-dasharray="2" d="M278.261,462.438c0,0,0.775-7.91-3.257-8.065
				c-4.033-0.155-3.412,6.979-2.637,8.53C276.244,464.764,278.261,462.438,278.261,462.438z"/>
			<path fill="none" stroke="#AE9970" stroke-miterlimit="10" stroke-dasharray="2" d="M341.383,464.918c0,0-4.188,2.326-6.514-1.24
				c0.931-4.032,1.861-9.771,5.738-8.686S341.383,464.918,341.383,464.918z"/>
			<path fill="none" stroke="#AE9970" stroke-miterlimit="10" stroke-dasharray="2" d="M376.898,482.908
				c3.102,2.793-2.326,10.082-2.326,10.082s-4.343-0.466-5.273-3.257C369.919,487.406,373.797,480.117,376.898,482.908z"/>
			<path fill="none" stroke="#AE9970" stroke-miterlimit="10" stroke-dasharray="2" d="M225.063,515.479
				c-2.326-0.621-5.428,2.637-5.428,2.637s4.497,10.08,8.53,7.289C232.198,522.612,227.39,516.099,225.063,515.479z"/>
			<path fill="none" stroke="#AE9970" stroke-miterlimit="10" stroke-dasharray="2" d="M277.95,471.588c0,0-2.481,1.24-5.429,0"/>
			<path fill="none" stroke="#AE9970" stroke-miterlimit="10" stroke-dasharray="2" d="M279.036,484.15c0,0-2.481,1.705-4.653,0.154
				"/>
			<path fill="none" stroke="#AE9970" stroke-miterlimit="10" stroke-dasharray="2" d="M279.036,487.252c0,0-2.171,0.93-4.343,0.154
				"/>
			<path fill="none" stroke="#AE9970" stroke-miterlimit="10" stroke-dasharray="2" d="M307.417,460.576c0,0-3.257,1.24-5.117-0.311
				"/>
			<path fill="none" stroke="#AE9970" stroke-miterlimit="10" stroke-dasharray="2" d="M307.417,463.213
				c0,0-2.946,1.551-4.962-0.156"/>
			<path fill="none" stroke="#AE9970" stroke-miterlimit="10" stroke-dasharray="2" d="M307.417,480.583c0,0-2.637,0.62-4.962-0.155
				"/>
			<path fill="none" stroke="#AE9970" stroke-miterlimit="10" stroke-dasharray="2" d="M307.572,483.529c0,0-3.412,1.24-5.428-0.465
				"/>
			<path fill="none" stroke="#AE9970" stroke-miterlimit="10" stroke-dasharray="2" d="M336.42,479.188c0,0-2.947,0.465-4.343-1.086
				"/>
			<path fill="none" stroke="#AE9970" stroke-miterlimit="10" stroke-dasharray="2" d="M335.8,481.823c0,0-3.412,0.466-4.343-1.396"
				/>
			<path fill="none" stroke="#AE9970" stroke-miterlimit="10" stroke-dasharray="2" d="M333.473,494.695
				c0,0-3.722-0.154-4.343-1.396"/>
			<path fill="none" stroke="#AE9970" stroke-miterlimit="10" stroke-dasharray="2" d="M333.163,497.488
				c0,0-3.567,0.775-4.498-1.086"/>
			<path fill="none" stroke="#AE9970" stroke-miterlimit="10" stroke-dasharray="2" d="M370.54,497.488c0,0-2.482-0.775-3.258-2.482
				"/>
			<path fill="none" stroke="#AE9970" stroke-miterlimit="10" stroke-dasharray="2" d="M364.025,509.43c0,0-3.566-0.465-4.187-2.791
				"/>
			<path fill="none" stroke="#AE9970" stroke-miterlimit="10" stroke-dasharray="2" d="M362.476,512.066
				c0,0-4.343-1.086-3.878-2.947"/>
			<path fill="none" stroke="#AE9970" stroke-miterlimit="10" stroke-dasharray="2" d="M277.641,520.906
				c0,0-1.552,4.343,2.326,3.877"/>
			<path fill="none" stroke="#AE9970" stroke-miterlimit="10" stroke-dasharray="2" d="M301.68,520.131c0,0-2.017,4.032,2.791,3.257
				"/>
			<path fill="none" stroke="#AE9970" stroke-miterlimit="10" stroke-dasharray="2" d="M322.927,523.543c0,0-3.877,2.637,0,5.894"/>
			<path fill="none" stroke="#AE9970" stroke-miterlimit="10" stroke-dasharray="2" d="M343.089,529.437c0,0-3.567,3.567,0.62,4.963
				"/>
			<path fill="none" stroke="#AE9970" stroke-miterlimit="10" stroke-dasharray="2" d="M236.386,532.073
				c0,0-5.429-1.706-6.204,3.877"/>
			<path fill="none" stroke="#AE9970" stroke-miterlimit="10" stroke-dasharray="2" d="M237.472,534.244
				c0,0-5.584,0.621-5.273,4.809"/>
			<path fill="none" stroke="#AE9970" stroke-miterlimit="10" stroke-dasharray="2" d="M301.524,536.727
				c0,0-0.155,55.212,0.311,58.004"/>
			
				<line fill="none" stroke="#AE9970" stroke-miterlimit="10" stroke-dasharray="2" x1="320.756" y1="539.982" x2="310.829" y2="587.441"/>
		</g>
		<g id="jingluo_3_">
			<path id="LargeIntestine-2_2_" fill="none" stroke="#B81C24" stroke-miterlimit="10" stroke-dasharray="5,5" d="M270.05,464.256
				l2.832,55.5c0,0-5.5,34.667-6,42.667s10.668,37.333,10.668,37.333l4.666,34.001l-3.333,24c0,0-14.167,96.166-14.667,102.666
				c-17.5,0.5-52-18.666-106-12c-49.334,5.333-55.667-34.332-90-16.332"/>
			<path id="Lung-2_1_" fill="none" stroke="#89BA28" stroke-miterlimit="10" stroke-dasharray="5,5" d="M239.519,735.793
				c0,0-53.303-24.703-76.636-24.703c-12.5-0.038-92.557,15.145-109.334,1.333c0.833-1.058,6.667-15.334,6.667-15.334"/>
			<g id="TripleEnergizer-2_2_">
				<path id="TripleEnergizer_3_" fill="none" stroke="#EBAB22" stroke-miterlimit="10" stroke-dasharray="5,5" d="M343.924,466.925
					c0,0-16.708,56.166-8.708,60.833c-9,19-32,71.333-32,71.333l-0.667,38.666l8.5,1.5c0,0-7,6-10.5,12.5
					c-8.5,27,10.667,162.001,6.667,164.667s-26-4.5-34-2s-101.334-4-101.334-4"/>
				<path id="TripleEnergizer_1_" fill="none" stroke="#EBAB22" stroke-miterlimit="10" stroke-dasharray="5,5" d="M135.882,800.424
					c-7.333-0.667-31.666-24.5-38.666-24"/>
			</g>
			<path id="SmallIntestine-2_1_" fill="none" stroke="#D31176" stroke-miterlimit="10" stroke-dasharray="5,5" d="M379.049,491.756
				c0,0-21.5,39.334-26.166,46.667c-4.667,7.333-6,38.666-24,57.333c-11.333,18,2.666,145.999-2,161.333"/>
		</g>
		<g id="xuewei_3_">
			<circle id="LI1-2" stroke="#B81C24" stroke-miterlimit="10" cx="270.186" cy="465.09" r="2.469"/>
			<circle id="LI2-2" stroke="#B81C24" stroke-miterlimit="10" cx="272.686" cy="515.09" r="2.469"/>
			<circle id="LI3-2" stroke="#B81C24" stroke-miterlimit="10" cx="270.216" cy="538.121" r="2.469"/>
			<circle id="LI4-2" stroke="#B81C24" stroke-miterlimit="10" cx="266.716" cy="566.059" r="2.469"/>
			<circle id="LI5-2" stroke="#B81C24" stroke-miterlimit="10" cx="277.716" cy="602.059" r="2.469"/>
			<circle id="LI6-2" stroke="#B81C24" stroke-miterlimit="10" cx="282.246" cy="633.09" r="2.469"/>
			<circle id="LI7-2" stroke="#B81C24" stroke-miterlimit="10" cx="277.716" cy="666.621" r="2.469"/>
			<circle id="LI8-2" stroke="#B81C24" stroke-miterlimit="10" cx="273.216" cy="697.121" r="2.469"/>
			<circle id="LI9-2" stroke="#B81C24" stroke-miterlimit="10" cx="271.966" cy="707.121" r="2.469"/>
			<circle id="LI10-2" stroke="#B81C24" stroke-miterlimit="10" cx="269.746" cy="718.09" r="2.469"/>
			<circle id="LI11-2" stroke="#B81C24" stroke-miterlimit="10" cx="266.216" cy="745.621" r="2.469"/>
			<circle id="LI12-2" stroke="#B81C24" stroke-miterlimit="10" cx="263.746" cy="760.59" r="2.469"/>
			<circle id="LI13-2" stroke="#B81C24" stroke-miterlimit="10" cx="216.716" cy="750.371" r="2.469"/>
			<circle id="LI14-2" stroke="#B81C24" stroke-miterlimit="10" cx="135.466" cy="746.871" r="2.469"/>
			<circle id="LI15-2" stroke="#B81C24" stroke-miterlimit="10" cx="68.246" cy="732.09" r="2.469"/>
			<circle id="LU4-2" stroke="#89BA28" stroke-miterlimit="10" cx="182.966" cy="714.871" r="2.469"/>
			<circle id="LU3-2" stroke="#89BA28" stroke-miterlimit="10" cx="164.216" cy="710.621" r="2.469"/>
			<circle id="LU2-2" stroke="#89BA28" stroke-miterlimit="10" cx="53.853" cy="712.59" r="2.469"/>
			<circle id="LU1-2" stroke="#89BA28" stroke-miterlimit="10" cx="59.55" cy="699.454" r="2.469"/>
			<circle id="TE1-2" stroke="#EBAB22" stroke-miterlimit="10" cx="344.216" cy="466.621" r="2.469"/>
			<circle id="TE2-2" stroke="#EBAB22" stroke-miterlimit="10" cx="335.716" cy="528.621" r="2.469"/>
			<circle id="TE3-2" stroke="#EBAB22" stroke-miterlimit="10" cx="330.186" cy="539.59" r="2.469"/>
			<circle id="TE4-2" stroke="#EBAB22" stroke-miterlimit="10" cx="303.716" cy="598.371" r="2.469"/>
			<circle id="TE5-2" stroke="#EBAB22" stroke-miterlimit="10" cx="303.216" cy="623.871" r="2.469"/>
			<circle id="TE6-2" stroke="#EBAB22" stroke-miterlimit="10" cx="302.686" cy="638.09" r="2.469"/>
			<circle id="TE7-2" stroke="#EBAB22" stroke-miterlimit="10" cx="310.716" cy="639.121" r="2.469"/>
			<circle id="TE8-2" stroke="#EBAB22" stroke-miterlimit="10" cx="300.716" cy="651.059" r="2.469"/>
			<circle id="TE9-2" stroke="#EBAB22" stroke-miterlimit="10" cx="300.716" cy="724.621" r="2.469"/>
			<circle id="TE10-2" stroke="#EBAB22" stroke-miterlimit="10" cx="291.716" cy="815.371" r="2.469"/>
			<circle id="TE11-2" stroke="#EBAB22" stroke-miterlimit="10" cx="278.686" cy="814.09" r="2.469"/>
			<circle id="TE12-2" stroke="#EBAB22" stroke-miterlimit="10" cx="222.216" cy="814.121" r="2.469"/>
			<circle id="TE13-2" stroke="#EBAB22" stroke-miterlimit="10" cx="155.186" cy="804.59" r="2.469"/>
			<circle id="TE14-2" stroke="#EBAB22" stroke-miterlimit="10" cx="97.216" cy="776.871" r="2.469"/>
			<circle id="SI1-2" stroke="#D31176" stroke-miterlimit="10" cx="377.716" cy="492.872" r="2.469"/>
			<circle id="SI2-2" stroke="#D31176" stroke-miterlimit="10" cx="354.049" cy="535.872" r="2.469"/>
			<circle id="SI3-2" stroke="#D31176" stroke-miterlimit="10" cx="348.686" cy="554.09" r="2.469"/>
			<circle id="SI4-2" stroke="#D31176" stroke-miterlimit="10" cx="342.186" cy="574.09" r="2.469"/>
			<circle id="SI5-2" stroke="#D31176" stroke-miterlimit="10" cx="330.716" cy="591.706" r="2.469"/>
			<circle id="SI6-2" stroke="#D31176" stroke-miterlimit="10" cx="325.186" cy="613.59" r="2.469"/>
			<circle id="SI7-2" stroke="#D31176" stroke-miterlimit="10" cx="326.216" cy="705.059" r="2.469"/>
			<circle id="HT9-2" stroke="#1B96D4" stroke-miterlimit="10" cx="367.55" cy="487.956" r="2.469"/>
			
				<circle id="EX-UE6-2" fill="#FFFFFF" stroke="#956134" stroke-width="0.75" stroke-miterlimit="10" cx="360.216" cy="511.59" r="1.891"/>
			
				<circle id="EX-UE9-8" fill="#FFFFFF" stroke="#956134" stroke-width="0.75" stroke-miterlimit="10" cx="337.991" cy="523.423" r="1.891"/>
			
				<circle id="EX-UE9-7" fill="#FFFFFF" stroke="#956134" stroke-width="0.75" stroke-miterlimit="10" cx="315.882" cy="517.422" r="1.891"/>
			
				<circle id="EX-UE4-2" fill="#FFFFFF" stroke="#956134" stroke-width="0.75" stroke-miterlimit="10" cx="304.216" cy="485.757" r="1.891"/>
			
				<circle id="EX-UE9-6" fill="#FFFFFF" stroke="#956134" stroke-width="0.75" stroke-miterlimit="10" cx="292.549" cy="514.089" r="1.891"/>
			
				<circle id="EX-UE8-2_1_" fill="#FFFFFF" stroke="#956134" stroke-width="0.75" stroke-miterlimit="10" cx="292.216" cy="525.089" r="1.891"/>
			
				<circle id="EX-UE7-3" fill="#FFFFFF" stroke="#956134" stroke-width="0.75" stroke-miterlimit="10" cx="291.882" cy="535.089" r="1.891"/>
			
				<circle id="EX-UE7-4" fill="#FFFFFF" stroke="#956134" stroke-width="0.75" stroke-miterlimit="10" cx="320.549" cy="540.089" r="1.891"/>
			
				<circle id="EX-UE9-5" fill="#FFFFFF" stroke="#956134" stroke-width="0.75" stroke-miterlimit="10" cx="264.882" cy="541.422" r="1.891"/>
			
				<circle id="EX-UE5-2" fill="#FFFFFF" stroke="#956134" stroke-width="0.75" stroke-miterlimit="10" cx="236.216" cy="537.423" r="1.891"/>
		</g>
	</g>
</g>
</svg>
