<?xml version="1.0" encoding="utf-8"?>
<!-- Generator: Adobe Illustrator 16.0.0, SVG Export Plug-In . SVG Version: 6.00 Build 0)  -->
<!DOCTYPE svg PUBLIC "-//W3C//DTD SVG 1.1//EN" "http://www.w3.org/Graphics/SVG/1.1/DTD/svg11.dtd">
<svg version="1.1" id="svg" xmlns="http://www.w3.org/2000/svg" xmlns:xlink="http://www.w3.org/1999/xlink" x="0px" y="0px"
	 width="469.079px" height="891.273px" viewBox="0 0 469.079 891.273" enable-background="new 0 0 469.079 891.273"
	 xml:space="preserve">
<g id="all">
	<g id="shenti">
		<g id="zuoshoubei">
			<path fill="none" stroke="#AE9970" stroke-miterlimit="10" stroke-dasharray="2" d="M102.255,157.895
				c-2.689-6.204-34.12-49.629-23.574-56.453c10.546-6.824,28.537,49.01,41.564,44.667c9.926-1.86-18.611-70.722-3.103-73.203
				c15.511-2.481,16.751,66.999,24.815,66.999c11.787-0.62-5.894-80.027,9.926-79.406c15.819,0.62,5.583,76.305,13.027,75.684
				c10.752-0.621,4.342-65.138,18.611-63.897c14.269,1.241-3.724,78.787,9.306,91.194c6.823,1.24,12.854-4.963,17.991-11.166
				c-0.621-9.926,14.888-28.537,30.397-16.75c3.722,4.963-10.842,20.867-13.441,24.398c-0.716,0.972-10.438,9.091-11.82,13.443
				c-10.514,25.021-29.33,38.463-32.433,50.25c-3.103,11.787-0.412,57.488,0.62,69.479c1.033,11.993,14.232,43.127,17.99,69.48
				c15.508,2.273,54.593-29.362,91.196-39.703c36.6-10.34,80.024-15.509,80.024-15.509s32.674,77.961,14.89,94.296
				c-157.16,55.625-229.538,46.524-239.05,41.146c-9.512-5.375-18.195-47.557-19.644-75.27c-1.449-27.71,3.103-107.528-1.24-119.73
				c-4.344-12.201-1.861-14.68-1.241-23.572c0.62-8.895-12.614-21.508-15.097-30.814C109.487,184.155,104.944,164.1,102.255,157.895
				z"/>
			<path fill="none" stroke="#AE9970" stroke-miterlimit="10" stroke-dasharray="2" d="M149.713,73.215c0,0,3.412,2.636,5.893-0.31
				c1.045,0.829,0.311-10.546-3.411-9.926C148.472,63.6,149.713,73.215,149.713,73.215z"/>
			<path fill="none" stroke="#AE9970" stroke-miterlimit="10" stroke-dasharray="2" d="M179.956,84.848c0,0-0.775-7.91,3.256-8.065
				c4.033-0.155,3.412,6.979,2.638,8.53C181.972,87.174,179.956,84.848,179.956,84.848z"/>
			<path fill="none" stroke="#AE9970" stroke-miterlimit="10" stroke-dasharray="2" d="M116.833,87.328c0,0,4.188,2.326,6.514-1.24
				c-0.931-4.032-1.861-9.771-5.738-8.685C113.731,78.488,116.833,87.328,116.833,87.328z"/>
			<path fill="none" stroke="#AE9970" stroke-miterlimit="10" stroke-dasharray="2" d="M81.317,105.318
				c-3.102,2.793,2.326,10.082,2.326,10.082s4.343-0.466,5.273-3.257C88.297,109.816,84.419,102.527,81.317,105.318z"/>
			<path fill="none" stroke="#AE9970" stroke-miterlimit="10" stroke-dasharray="2" d="M233.152,137.889
				c2.326-0.621,5.429,2.637,5.429,2.637s-4.498,10.08-8.531,7.289C226.018,145.022,230.827,138.509,233.152,137.889z"/>
			<path fill="none" stroke="#AE9970" stroke-miterlimit="10" stroke-dasharray="2" d="M180.266,93.998c0,0,2.48,1.24,5.429,0"/>
			<path fill="none" stroke="#AE9970" stroke-miterlimit="10" stroke-dasharray="2" d="M179.18,106.561c0,0,2.48,1.705,4.652,0.154"
				/>
			<path fill="none" stroke="#AE9970" stroke-miterlimit="10" stroke-dasharray="2" d="M179.18,109.662c0,0,2.171,0.93,4.343,0.154"
				/>
			<path fill="none" stroke="#AE9970" stroke-miterlimit="10" stroke-dasharray="2" d="M150.799,82.986c0,0,3.257,1.24,5.117-0.311"
				/>
			<path fill="none" stroke="#AE9970" stroke-miterlimit="10" stroke-dasharray="2" d="M150.799,85.623c0,0,2.946,1.551,4.962-0.156
				"/>
			<path fill="none" stroke="#AE9970" stroke-miterlimit="10" stroke-dasharray="2" d="M150.799,102.993c0,0,2.637,0.62,4.962-0.155
				"/>
			<path fill="none" stroke="#AE9970" stroke-miterlimit="10" stroke-dasharray="2" d="M150.644,105.939c0,0,3.412,1.24,5.428-0.465
				"/>
			<path fill="none" stroke="#AE9970" stroke-miterlimit="10" stroke-dasharray="2" d="M121.796,101.598
				c0,0,2.947,0.465,4.343-1.086"/>
			<path fill="none" stroke="#AE9970" stroke-miterlimit="10" stroke-dasharray="2" d="M122.416,104.233
				c0,0,3.412,0.466,4.343-1.396"/>
			<path fill="none" stroke="#AE9970" stroke-miterlimit="10" stroke-dasharray="2" d="M124.743,117.105
				c0,0,3.722-0.154,4.343-1.396"/>
			<path fill="none" stroke="#AE9970" stroke-miterlimit="10" stroke-dasharray="2" d="M125.053,119.898
				c0,0,3.567,0.775,4.498-1.086"/>
			<path fill="none" stroke="#AE9970" stroke-miterlimit="10" stroke-dasharray="2" d="M87.676,119.898c0,0,2.482-0.775,3.258-2.482
				"/>
			<path fill="none" stroke="#AE9970" stroke-miterlimit="10" stroke-dasharray="2" d="M94.19,131.84c0,0,3.566-0.465,4.187-2.791"
				/>
			<path fill="none" stroke="#AE9970" stroke-miterlimit="10" stroke-dasharray="2" d="M95.74,134.477c0,0,4.343-1.086,3.878-2.947"
				/>
			<path fill="none" stroke="#AE9970" stroke-miterlimit="10" stroke-dasharray="2" d="M180.575,143.316
				c0,0,1.553,4.343-2.326,3.877"/>
			<path fill="none" stroke="#AE9970" stroke-miterlimit="10" stroke-dasharray="2" d="M156.536,142.541
				c0,0,2.017,4.032-2.791,3.257"/>
			<path fill="none" stroke="#AE9970" stroke-miterlimit="10" stroke-dasharray="2" d="M135.289,145.953c0,0,3.877,2.637,0,5.894"/>
			<path fill="none" stroke="#AE9970" stroke-miterlimit="10" stroke-dasharray="2" d="M115.127,151.847c0,0,3.567,3.567-0.62,4.963
				"/>
			<path fill="none" stroke="#AE9970" stroke-miterlimit="10" stroke-dasharray="2" d="M221.831,154.483
				c0,0,5.427-1.706,6.203,3.877"/>
			<path fill="none" stroke="#AE9970" stroke-miterlimit="10" stroke-dasharray="2" d="M220.745,156.654
				c0,0,5.583,0.621,5.272,4.809"/>
			<path fill="none" stroke="#AE9970" stroke-miterlimit="10" stroke-dasharray="2" d="M156.691,159.137
				c0,0,0.155,55.212-0.311,58.004"/>
			
				<line fill="none" stroke="#AE9970" stroke-miterlimit="10" stroke-dasharray="2" x1="137.46" y1="162.393" x2="147.387" y2="209.852"/>
		</g>
		<g id="youshoubei">
			<path fill="none" stroke="#AE9970" stroke-miterlimit="10" stroke-dasharray="2" d="M380.961,548.484
				c2.688-6.203,34.119-49.629,23.572-56.453c-10.546-6.824-28.535,49.01-41.564,44.668c-9.926-1.861,18.611-70.725,3.105-73.203
				c-15.513-2.482-16.753,66.998-24.816,66.998c-11.787-0.619,5.895-80.027-9.926-79.406c-15.818,0.621-5.582,76.305-13.026,75.688
				c-10.753-0.621-4.343-65.141-18.611-63.896c-14.269,1.24,3.724,78.785-9.306,91.193c-6.823,1.236-12.854-4.963-17.991-11.166
				c0.621-9.93-14.888-28.537-30.397-16.75c-3.722,4.963,10.842,20.865,13.441,24.395c0.717,0.975,10.438,9.092,11.82,13.443
				c10.514,25.021,29.33,38.463,32.433,50.25s0.412,57.488-0.62,69.479c-1.033,11.994-14.232,43.127-17.99,69.48
				c-15.508,2.271-54.592-29.361-91.192-39.703c-36.601-10.34-80.026-15.508-80.026-15.508s-32.673,77.961-14.889,94.295
				c157.16,55.625,229.536,46.527,239.05,41.146c9.513-5.375,18.193-47.557,19.646-75.27c1.449-27.711-3.104-107.529,1.24-119.73
				c4.344-12.199,1.856-14.68,1.239-23.57c-0.618-8.896,12.611-21.508,15.099-30.814
				C373.729,574.744,378.272,554.689,380.961,548.484z"/>
			<path fill="none" stroke="#AE9970" stroke-miterlimit="10" stroke-dasharray="2" d="M333.502,463.804
				c0,0-3.412,2.641-5.894-0.309c-1.045,0.828-0.313-10.547,3.412-9.927C334.745,454.189,333.502,463.804,333.502,463.804z"/>
			<path fill="none" stroke="#AE9970" stroke-miterlimit="10" stroke-dasharray="2" d="M303.26,475.439c0,0,0.775-7.91-3.256-8.066
				c-4.033-0.154-3.412,6.979-2.637,8.531C301.245,477.763,303.26,475.439,303.26,475.439z"/>
			<path fill="none" stroke="#AE9970" stroke-miterlimit="10" stroke-dasharray="2" d="M366.383,477.917c0,0-4.188,2.326-6.514-1.24
				c0.93-4.031,1.86-9.77,5.737-8.686C369.484,469.078,366.383,477.917,366.383,477.917z"/>
			<path fill="none" stroke="#AE9970" stroke-miterlimit="10" stroke-dasharray="2" d="M401.899,495.908
				c3.102,2.793-2.326,10.082-2.326,10.082s-4.344-0.465-5.273-3.256C394.918,500.406,398.797,493.117,401.899,495.908z"/>
			<path fill="none" stroke="#AE9970" stroke-miterlimit="10" stroke-dasharray="2" d="M250.063,528.48
				c-2.326-0.621-5.428,2.637-5.428,2.637s4.496,10.08,8.529,7.289C257.198,535.613,252.39,529.099,250.063,528.48z"/>
			<path fill="none" stroke="#AE9970" stroke-miterlimit="10" stroke-dasharray="2" d="M302.95,484.587c0,0-2.479,1.24-5.429,0"/>
			<path fill="none" stroke="#AE9970" stroke-miterlimit="10" stroke-dasharray="2" d="M304.036,497.15c0,0-2.479,1.705-4.652,0.152
				"/>
			<path fill="none" stroke="#AE9970" stroke-miterlimit="10" stroke-dasharray="2" d="M304.036,500.251c0,0-2.17,0.93-4.343,0.154"
				/>
			<path fill="none" stroke="#AE9970" stroke-miterlimit="10" stroke-dasharray="2" d="M332.417,473.576c0,0-3.256,1.24-5.117-0.313
				"/>
			<path fill="none" stroke="#AE9970" stroke-miterlimit="10" stroke-dasharray="2" d="M332.417,476.212
				c0,0-2.944,1.551-4.961-0.156"/>
			<path fill="none" stroke="#AE9970" stroke-miterlimit="10" stroke-dasharray="2" d="M332.417,493.583
				c0,0-2.637,0.619-4.961-0.156"/>
			<path fill="none" stroke="#AE9970" stroke-miterlimit="10" stroke-dasharray="2" d="M332.573,496.529c0,0-3.412,1.238-5.43-0.465
				"/>
			<path fill="none" stroke="#AE9970" stroke-miterlimit="10" stroke-dasharray="2" d="M361.42,492.189c0,0-2.947,0.465-4.344-1.09"
				/>
			<path fill="none" stroke="#AE9970" stroke-miterlimit="10" stroke-dasharray="2" d="M360.799,494.824
				c0,0-3.412,0.465-4.342-1.396"/>
			<path fill="none" stroke="#AE9970" stroke-miterlimit="10" stroke-dasharray="2" d="M358.473,507.695
				c0,0-3.723-0.154-4.344-1.396"/>
			<path fill="none" stroke="#AE9970" stroke-miterlimit="10" stroke-dasharray="2" d="M358.163,510.488
				c0,0-3.565,0.773-4.498-1.086"/>
			<path fill="none" stroke="#AE9970" stroke-miterlimit="10" stroke-dasharray="2" d="M395.54,510.488c0,0-2.481-0.775-3.258-2.482
				"/>
			<path fill="none" stroke="#AE9970" stroke-miterlimit="10" stroke-dasharray="2" d="M389.026,522.429
				c0,0-3.566-0.465-4.188-2.791"/>
			<path fill="none" stroke="#AE9970" stroke-miterlimit="10" stroke-dasharray="2" d="M387.475,525.066
				c0,0-4.342-1.088-3.877-2.947"/>
			<path fill="none" stroke="#AE9970" stroke-miterlimit="10" stroke-dasharray="2" d="M302.641,533.906
				c0,0-1.553,4.344,2.326,3.877"/>
			<path fill="none" stroke="#AE9970" stroke-miterlimit="10" stroke-dasharray="2" d="M326.68,533.13c0,0-2.018,4.033,2.791,3.258"
				/>
			<path fill="none" stroke="#AE9970" stroke-miterlimit="10" stroke-dasharray="2" d="M347.926,536.542c0,0-3.877,2.637,0,5.895"/>
			<path fill="none" stroke="#AE9970" stroke-miterlimit="10" stroke-dasharray="2" d="M368.088,542.437
				c0,0-3.566,3.566,0.621,4.965"/>
			<path fill="none" stroke="#AE9970" stroke-miterlimit="10" stroke-dasharray="2" d="M261.386,545.074
				c0,0-5.429-1.707-6.204,3.877"/>
			<path fill="none" stroke="#AE9970" stroke-miterlimit="10" stroke-dasharray="2" d="M262.472,547.244
				c0,0-5.584,0.621-5.272,4.809"/>
			<path fill="none" stroke="#AE9970" stroke-miterlimit="10" stroke-dasharray="2" d="M326.524,549.726
				c0,0-0.154,55.213,0.311,58.008"/>
			
				<line fill="none" stroke="#AE9970" stroke-miterlimit="10" stroke-dasharray="2" x1="345.756" y1="552.982" x2="335.829" y2="600.441"/>
		</g>
	</g>
	<g id="jingluo">
		<path id="LargeIntestine-2" fill="none" stroke="#B81C24" stroke-miterlimit="10" stroke-dasharray="5,5" d="M295.049,477.255
			l2.832,55.5c0,0-5.5,34.668-6,42.668s10.668,37.332,10.668,37.332l4.666,34.002l-3.332,24c0,0-14.168,96.166-14.668,102.666
			c-17.5,0.5-52-18.666-106-12c-49.334,5.332-55.667-34.332-90-16.332"/>
		<path id="Lung-2" fill="none" stroke="#89BA28" stroke-miterlimit="10" stroke-dasharray="5,5" d="M264.519,748.792
			c0,0-53.304-24.703-76.636-24.703c-12.5-0.037-92.557,15.146-109.334,1.334c0.833-1.059,6.667-15.334,6.667-15.334"/>
		<g id="TripleEnergizer-2">
			<path fill="none" stroke="#EBAB22" stroke-miterlimit="10" stroke-dasharray="5,5" d="M368.924,479.925
				c0,0-16.709,56.166-8.709,60.832c-9,19-32,71.334-32,71.334l-0.666,38.666l8.5,1.5c0,0-7,6-10.5,12.5
				c-8.5,27,10.666,162,6.666,164.666s-26-4.5-34-2s-101.334-4-101.334-4"/>
			<path fill="none" stroke="#EBAB22" stroke-miterlimit="10" stroke-dasharray="5,5" d="M160.882,813.423
				c-7.333-0.666-31.666-24.5-38.666-24"/>
		</g>
		<path id="SmallIntestine-2" fill="none" stroke="#D31176" stroke-miterlimit="10" stroke-dasharray="5,5" d="M404.049,504.755
			c0,0-21.5,39.334-26.166,46.668c-4.668,7.332-6,38.666-24,57.332c-11.334,18,2.666,146-2,161.334"/>
		<path id="LargeIntestine-1" fill="none" stroke="#B81C24" stroke-miterlimit="10" stroke-dasharray="5,5" d="M188.167,86.666
			l-2.832,55.5c0,0,5.5,34.667,6,42.667s-10.668,37.333-10.668,37.333L176,256.167l3.332,24c0,0,14.168,96.166,14.668,102.666
			c17.5,0.5,52-18.666,106-12c49.334,5.333,55.666-34.332,90-16.332"/>
		<path id="Lung-1" fill="none" stroke="#89BA28" stroke-miterlimit="10" stroke-dasharray="5,5" d="M218.697,358.203
			c0,0,53.304-24.703,76.636-24.703c12.5-0.038,92.558,15.145,109.334,1.333c-0.832-1.058-6.666-15.334-6.666-15.334"/>
		<g id="TripleEnergizer-1">
			<path fill="none" stroke="#EBAB22" stroke-miterlimit="10" stroke-dasharray="5,5" d="M114.292,89.335
				c0,0,16.708,56.166,8.708,60.833c9,19,32,71.333,32,71.333l0.667,38.666l-8.5,1.5c0,0,7,6,10.5,12.5
				c8.5,27-10.667,162.001-6.667,164.667s26-4.5,34-2s101.334-4,101.334-4"/>
			<path fill="none" stroke="#EBAB22" stroke-miterlimit="10" stroke-dasharray="5,5" d="M322.334,422.834
				c7.332-0.667,31.666-24.5,38.666-24"/>
		</g>
		<path id="SmallIntestine-1" fill="none" stroke="#D31176" stroke-miterlimit="10" stroke-dasharray="5,5" d="M79.167,114.166
			c0,0,21.5,39.334,26.166,46.667s6,38.666,24,57.333c11.333,18-2.667,145.999,2,161.333"/>
	</g>
	<g id="xuewei">
		<circle id="LI1-2" stroke="#B81C24" stroke-miterlimit="10" cx="295.186" cy="478.089" r="2.469"/>
		<circle id="LI2-2" stroke="#B81C24" stroke-miterlimit="10" cx="297.686" cy="528.089" r="2.469"/>
		<circle id="LI3-2" stroke="#B81C24" stroke-miterlimit="10" cx="295.215" cy="551.121" r="2.469"/>
		<circle id="LI4-2" stroke="#B81C24" stroke-miterlimit="10" cx="291.715" cy="579.059" r="2.47"/>
		<circle id="LI5-2" stroke="#B81C24" stroke-miterlimit="10" cx="302.715" cy="615.059" r="2.47"/>
		<circle id="LI6-2" stroke="#B81C24" stroke-miterlimit="10" cx="307.247" cy="646.089" r="2.469"/>
		<circle id="LI7-2" stroke="#B81C24" stroke-miterlimit="10" cx="302.715" cy="679.621" r="2.469"/>
		<circle id="LI8-2" stroke="#B81C24" stroke-miterlimit="10" cx="298.215" cy="710.121" r="2.469"/>
		<circle id="LI9-2" stroke="#B81C24" stroke-miterlimit="10" cx="296.965" cy="720.121" r="2.469"/>
		<circle id="LI10-2" stroke="#B81C24" stroke-miterlimit="10" cx="294.747" cy="731.089" r="2.469"/>
		<circle id="LI11-2" stroke="#B81C24" stroke-miterlimit="10" cx="291.215" cy="758.621" r="2.469"/>
		<circle id="LI12-2" stroke="#B81C24" stroke-miterlimit="10" cx="288.747" cy="773.589" r="2.469"/>
		<circle id="LI13-2" stroke="#B81C24" stroke-miterlimit="10" cx="241.715" cy="763.371" r="2.469"/>
		<circle id="LI14-2" stroke="#B81C24" stroke-miterlimit="10" cx="160.466" cy="759.871" r="2.469"/>
		<circle id="LI15-2" stroke="#B81C24" stroke-miterlimit="10" cx="93.246" cy="745.089" r="2.469"/>
		<circle id="LU4-2" stroke="#89BA28" stroke-miterlimit="10" cx="207.965" cy="727.871" r="2.469"/>
		<circle id="LU3-2" stroke="#89BA28" stroke-miterlimit="10" cx="189.215" cy="723.621" r="2.469"/>
		<circle id="LU2-2" stroke="#89BA28" stroke-miterlimit="10" cx="78.853" cy="725.589" r="2.469"/>
		<circle id="LU1-2" stroke="#89BA28" stroke-miterlimit="10" cx="84.55" cy="712.455" r="2.469"/>
		<circle id="TE1-2" stroke="#EBAB22" stroke-miterlimit="10" cx="369.215" cy="479.621" r="2.469"/>
		<circle id="TE2-2" stroke="#EBAB22" stroke-miterlimit="10" cx="360.715" cy="541.621" r="2.469"/>
		<circle id="TE3-2" stroke="#EBAB22" stroke-miterlimit="10" cx="355.186" cy="552.589" r="2.469"/>
		<circle id="TE4-2" stroke="#EBAB22" stroke-miterlimit="10" cx="328.715" cy="611.371" r="2.469"/>
		<circle id="TE5-2" stroke="#EBAB22" stroke-miterlimit="10" cx="328.215" cy="636.871" r="2.469"/>
		<circle id="TE6-2" stroke="#EBAB22" stroke-miterlimit="10" cx="327.686" cy="651.089" r="2.469"/>
		<circle id="TE7-2" stroke="#EBAB22" stroke-miterlimit="10" cx="335.715" cy="652.121" r="2.469"/>
		<circle id="TE8-2" stroke="#EBAB22" stroke-miterlimit="10" cx="325.715" cy="664.059" r="2.47"/>
		<circle id="TE9-2" stroke="#EBAB22" stroke-miterlimit="10" cx="325.715" cy="737.621" r="2.469"/>
		<circle id="TE10-2" stroke="#EBAB22" stroke-miterlimit="10" cx="316.715" cy="828.371" r="2.469"/>
		<circle id="TE11-2" stroke="#EBAB22" stroke-miterlimit="10" cx="303.686" cy="827.089" r="2.469"/>
		<circle id="TE12-2" stroke="#EBAB22" stroke-miterlimit="10" cx="247.215" cy="827.121" r="2.469"/>
		<circle id="TE13-2" stroke="#EBAB22" stroke-miterlimit="10" cx="180.186" cy="817.589" r="2.469"/>
		<circle id="TE14-2" stroke="#EBAB22" stroke-miterlimit="10" cx="122.216" cy="789.871" r="2.469"/>
		<circle id="SI1-2" stroke="#D31176" stroke-miterlimit="10" cx="402.715" cy="505.873" r="2.469"/>
		<circle id="SI2-2" stroke="#D31176" stroke-miterlimit="10" cx="379.049" cy="548.873" r="2.469"/>
		<circle id="SI3-2" stroke="#D31176" stroke-miterlimit="10" cx="373.686" cy="567.089" r="2.469"/>
		<circle id="SI4-2" stroke="#D31176" stroke-miterlimit="10" cx="367.186" cy="587.089" r="2.469"/>
		<circle id="SI5-2" stroke="#D31176" stroke-miterlimit="10" cx="355.715" cy="604.707" r="2.469"/>
		<circle id="SI6-2" stroke="#D31176" stroke-miterlimit="10" cx="350.186" cy="626.589" r="2.469"/>
		<circle id="SI7-2" stroke="#D31176" stroke-miterlimit="10" cx="351.215" cy="718.059" r="2.47"/>
		<circle id="HT9-2" stroke="#1B96D4" stroke-miterlimit="10" cx="392.549" cy="500.957" r="2.469"/>
		
			<circle id="EX-UE6-2" fill="#FFFFFF" stroke="#956134" stroke-width="0.75" stroke-miterlimit="10" cx="385.215" cy="524.59" r="1.892"/>
		
			<circle id="EX-UE9-8" fill="#FFFFFF" stroke="#956134" stroke-width="0.75" stroke-miterlimit="10" cx="362.991" cy="536.423" r="1.891"/>
		
			<circle id="EX-UE9-7" fill="#FFFFFF" stroke="#956134" stroke-width="0.75" stroke-miterlimit="10" cx="340.881" cy="530.422" r="1.892"/>
		
			<circle id="EX-UE4-2" fill="#FFFFFF" stroke="#956134" stroke-width="0.75" stroke-miterlimit="10" cx="329.215" cy="498.757" r="1.891"/>
		
			<circle id="EX-UE9-6" fill="#FFFFFF" stroke="#956134" stroke-width="0.75" stroke-miterlimit="10" cx="317.549" cy="527.089" r="1.891"/>
		
			<circle id="EX-UE8-2" fill="#FFFFFF" stroke="#956134" stroke-width="0.75" stroke-miterlimit="10" cx="317.215" cy="538.089" r="1.891"/>
		
			<circle id="EX-UE7-3" fill="#FFFFFF" stroke="#956134" stroke-width="0.75" stroke-miterlimit="10" cx="316.881" cy="548.089" r="1.891"/>
		
			<circle id="EX-UE7-4" fill="#FFFFFF" stroke="#956134" stroke-width="0.75" stroke-miterlimit="10" cx="345.549" cy="553.089" r="1.891"/>
		
			<circle id="EX-UE9-5" fill="#FFFFFF" stroke="#956134" stroke-width="0.75" stroke-miterlimit="10" cx="289.881" cy="554.422" r="1.892"/>
		
			<circle id="EX-UE5-2" fill="#FFFFFF" stroke="#956134" stroke-width="0.75" stroke-miterlimit="10" cx="261.215" cy="550.423" r="1.891"/>
		<circle id="LI1-1" stroke="#B81C24" stroke-miterlimit="10" cx="188.03" cy="87.5" r="2.469"/>
		<circle id="LI2-1" stroke="#B81C24" stroke-miterlimit="10" cx="185.53" cy="137.5" r="2.469"/>
		<circle id="LI3-1" stroke="#B81C24" stroke-miterlimit="10" cx="188" cy="160.531" r="2.469"/>
		<circle id="LI4-1" stroke="#B81C24" stroke-miterlimit="10" cx="191.5" cy="188.469" r="2.469"/>
		<circle id="LI5-1" stroke="#B81C24" stroke-miterlimit="10" cx="180.5" cy="224.469" r="2.469"/>
		<circle id="LI6-1" stroke="#B81C24" stroke-miterlimit="10" cx="175.97" cy="255.5" r="2.469"/>
		<circle id="LI7-1" stroke="#B81C24" stroke-miterlimit="10" cx="180.5" cy="289.031" r="2.469"/>
		<circle id="LI8-1" stroke="#B81C24" stroke-miterlimit="10" cx="185" cy="319.531" r="2.469"/>
		<circle id="LI9-1" stroke="#B81C24" stroke-miterlimit="10" cx="186.25" cy="329.531" r="2.469"/>
		<circle id="LI10-1" stroke="#B81C24" stroke-miterlimit="10" cx="188.47" cy="340.5" r="2.469"/>
		<circle id="LI11-1" stroke="#B81C24" stroke-miterlimit="10" cx="192" cy="368.031" r="2.469"/>
		<circle id="LI12-1" stroke="#B81C24" stroke-miterlimit="10" cx="194.47" cy="383" r="2.469"/>
		<circle id="LI13-1" stroke="#B81C24" stroke-miterlimit="10" cx="241.5" cy="372.781" r="2.469"/>
		<circle id="LI14-1" stroke="#B81C24" stroke-miterlimit="10" cx="322.75" cy="369.281" r="2.469"/>
		<circle id="LI15-1" stroke="#B81C24" stroke-miterlimit="10" cx="389.969" cy="354.5" r="2.469"/>
		<circle id="LU4-1" stroke="#89BA28" stroke-miterlimit="10" cx="275.25" cy="337.281" r="2.469"/>
		<circle id="LU3-1" stroke="#89BA28" stroke-miterlimit="10" cx="294" cy="333.031" r="2.469"/>
		<circle id="LU2-1" stroke="#89BA28" stroke-miterlimit="10" cx="404.364" cy="335" r="2.469"/>
		<circle id="LU1-1" stroke="#89BA28" stroke-miterlimit="10" cx="398.667" cy="321.864" r="2.469"/>
		<circle id="TE1-1" stroke="#EBAB22" stroke-miterlimit="10" cx="114" cy="89.031" r="2.469"/>
		<circle id="TE2-1" stroke="#EBAB22" stroke-miterlimit="10" cx="122.5" cy="151.031" r="2.469"/>
		<circle id="TE3-1" stroke="#EBAB22" stroke-miterlimit="10" cx="128.03" cy="162" r="2.469"/>
		<circle id="TE4-1" stroke="#EBAB22" stroke-miterlimit="10" cx="154.5" cy="220.781" r="2.469"/>
		<circle id="TE5-1" stroke="#EBAB22" stroke-miterlimit="10" cx="155" cy="246.281" r="2.469"/>
		<circle id="TE6-1" stroke="#EBAB22" stroke-miterlimit="10" cx="155.53" cy="260.5" r="2.469"/>
		<circle id="TE7-1" stroke="#EBAB22" stroke-miterlimit="10" cx="147.5" cy="261.531" r="2.469"/>
		<circle id="TE8-1" stroke="#EBAB22" stroke-miterlimit="10" cx="157.5" cy="273.469" r="2.469"/>
		<circle id="TE9-1" stroke="#EBAB22" stroke-miterlimit="10" cx="157.5" cy="347.031" r="2.469"/>
		<circle id="TE10-1" stroke="#EBAB22" stroke-miterlimit="10" cx="166.5" cy="437.781" r="2.469"/>
		<circle id="TE11-1" stroke="#EBAB22" stroke-miterlimit="10" cx="179.53" cy="436.5" r="2.469"/>
		<circle id="TE12-1" stroke="#EBAB22" stroke-miterlimit="10" cx="236" cy="436.531" r="2.469"/>
		<circle id="TE13-1" stroke="#EBAB22" stroke-miterlimit="10" cx="303.03" cy="427" r="2.469"/>
		<circle id="TE14-1" stroke="#EBAB22" stroke-miterlimit="10" cx="361" cy="399.281" r="2.469"/>
		<circle id="SI1-1" stroke="#D31176" stroke-miterlimit="10" cx="80.5" cy="115.282" r="2.469"/>
		<circle id="SI2-1" stroke="#D31176" stroke-miterlimit="10" cx="104.167" cy="158.282" r="2.469"/>
		<circle id="SI3-1" stroke="#D31176" stroke-miterlimit="10" cx="109.53" cy="176.5" r="2.469"/>
		<circle id="SI4-1" stroke="#D31176" stroke-miterlimit="10" cx="116.03" cy="196.5" r="2.469"/>
		<circle id="SI5-1" stroke="#D31176" stroke-miterlimit="10" cx="127.5" cy="214.116" r="2.469"/>
		<circle id="SI6-1" stroke="#D31176" stroke-miterlimit="10" cx="133.03" cy="236" r="2.469"/>
		<circle id="SI7-1" stroke="#D31176" stroke-miterlimit="10" cx="132" cy="327.469" r="2.469"/>
		<circle id="HT9-1" stroke="#1B96D4" stroke-miterlimit="10" cx="90.666" cy="110.366" r="2.469"/>
		
			<circle id="EX-UE6-1" fill="#FFFFFF" stroke="#956134" stroke-width="0.75" stroke-miterlimit="10" cx="98" cy="134" r="1.891"/>
		
			<circle id="EX-UE9-4" fill="#FFFFFF" stroke="#956134" stroke-width="0.75" stroke-miterlimit="10" cx="120.224" cy="145.833" r="1.891"/>
		
			<circle id="EX-UE9-3" fill="#FFFFFF" stroke="#956134" stroke-width="0.75" stroke-miterlimit="10" cx="142.333" cy="139.832" r="1.891"/>
		
			<circle id="EX-UE4-1" fill="#FFFFFF" stroke="#956134" stroke-width="0.75" stroke-miterlimit="10" cx="154" cy="108.167" r="1.891"/>
		
			<circle id="EX-UE9-2" fill="#FFFFFF" stroke="#956134" stroke-width="0.75" stroke-miterlimit="10" cx="165.667" cy="136.499" r="1.891"/>
		
			<circle id="EX-UE8-1" fill="#FFFFFF" stroke="#956134" stroke-width="0.75" stroke-miterlimit="10" cx="166" cy="147.499" r="1.891"/>
		
			<circle id="EX-UE7-1" fill="#FFFFFF" stroke="#956134" stroke-width="0.75" stroke-miterlimit="10" cx="166.333" cy="157.499" r="1.891"/>
		
			<circle id="EX-UE7-2" fill="#FFFFFF" stroke="#956134" stroke-width="0.75" stroke-miterlimit="10" cx="137.667" cy="162.499" r="1.891"/>
		
			<circle id="EX-UE9-1" fill="#FFFFFF" stroke="#956134" stroke-width="0.75" stroke-miterlimit="10" cx="193.333" cy="163.832" r="1.891"/>
		
			<circle id="EX-UE5-1" fill="#FFFFFF" stroke="#956134" stroke-width="0.75" stroke-miterlimit="10" cx="222" cy="159.833" r="1.891"/>
	</g>
</g>
</svg>
