<?xml version="1.0" encoding="utf-8"?>
<!-- Generator: Adobe Illustrator 16.0.0, SVG Export Plug-In . SVG Version: 6.00 Build 0)  -->
<!DOCTYPE svg PUBLIC "-//W3C//DTD SVG 1.1//EN" "http://www.w3.org/Graphics/SVG/1.1/DTD/svg11.dtd">
<svg version="1.1" xmlns="http://www.w3.org/2000/svg" xmlns:xlink="http://www.w3.org/1999/xlink" x="0px" y="0px" width="409px"
	 height="828px" viewBox="0 0 409 828" enable-background="new 0 0 409 828" xml:space="preserve">
<g id="svg-youshouxin">
	<g id="all">
		<g id="shenti">
			<path fill="none" stroke="#A8936C" stroke-miterlimit="10" stroke-dasharray="2" d="M332,382.5c0,0-183.666-5.167-201.333-19.5
				c-27.833-25.667-31-176.333-39.167-183.5C80,171,61,86.333,69.5,85.5c8.5-2.167,10.5,41.167,14,40s-8.167-65.833,2-66.5
				C95,57.333,94,116,98,116.667s-9.667-71,2.5-71.167c6.5,0.167,8.167,67.5,11,67.5s-7.5-56.333,3-57s7.167,69,12.5,70.5
				c5.334,1.5,4-33.167,23.5-30.5c4.167,2-9.5,12-11.5,46.5c-1.334,22.833-7.334,18.833-11,34.5c-2,66.333,31.333,137.333,34.5,139
				s90.167,14.333,169.5,9"/>
			<path fill="none" stroke="#A8936C" stroke-width="0.5" stroke-miterlimit="10" stroke-dasharray="2" d="M117,125
				c0,0-14.667,13-28,15"/>
			<path fill="none" stroke="#A8936C" stroke-width="0.5" stroke-miterlimit="10" stroke-dasharray="2" d="M119,132
				c0,0-13.667,12-16.667,16"/>
			<path fill="none" stroke="#A8936C" stroke-width="0.5" stroke-miterlimit="10" stroke-dasharray="2" d="M123,136
				c0,0-14.333,13.333-12,26"/>
			<path fill="none" stroke="#A8936C" stroke-width="0.5" stroke-miterlimit="10" stroke-dasharray="2" d="M94,142.667
				c0,0,14,9.333,14.667,22"/>
			<path fill="none" stroke="#A8936C" stroke-width="0.5" stroke-miterlimit="10" stroke-dasharray="2" d="M130.667,168
				c0,0-7,9-14,10"/>
			<path fill="none" stroke="#A8936C" stroke-width="0.5" stroke-miterlimit="10" stroke-dasharray="2" d="M87.333,173.667
				c0,0,5.333,6.333,10.333,6"/>
			<path fill="none" stroke="#A8936C" stroke-width="0.5" stroke-miterlimit="10" stroke-dasharray="2" d="M134,109.333
				c0,0,3.666,2.333,4,4.667"/>
			<path fill="none" stroke="#A8936C" stroke-width="0.5" stroke-miterlimit="10" stroke-dasharray="2" d="M115.667,92.333
				c0,0,3.667-1.667,5-0.333"/>
			<path fill="none" stroke="#A8936C" stroke-width="0.5" stroke-miterlimit="10" stroke-dasharray="2" d="M113.667,77
				c0,0,3.333-2.667,5.333-0.667"/>
			<path fill="none" stroke="#A8936C" stroke-width="0.5" stroke-miterlimit="10" stroke-dasharray="2" d="M116,113.333
				c0,0,2.333-2.333,5-0.333"/>
			<path fill="none" stroke="#A8936C" stroke-width="0.5" stroke-miterlimit="10" stroke-dasharray="2" d="M101.667,115.667
				c0,0,2-2.667,5-0.333"/>
			<path fill="none" stroke="#A8936C" stroke-width="0.5" stroke-miterlimit="10" stroke-dasharray="2" d="M100.667,94c0,0,2-2,4-1"
				/>
			<path fill="none" stroke="#A8936C" stroke-width="0.5" stroke-miterlimit="10" stroke-dasharray="2" d="M100,74
				c0,0,1.667-2,3.667-0.667"/>
			<path fill="none" stroke="#A8936C" stroke-width="0.5" stroke-miterlimit="10" stroke-dasharray="2" d="M85,80.333
				c0,0,3.333-2.333,5-1"/>
			<path fill="none" stroke="#A8936C" stroke-width="0.5" stroke-miterlimit="10" stroke-dasharray="2" d="M86.667,101
				c0,0,2.333-2,4.333-1.333"/>
			<path fill="none" stroke="#A8936C" stroke-width="0.5" stroke-miterlimit="10" stroke-dasharray="2" d="M88.333,122.333
				c0,0,2-4,5-4"/>
			<path fill="none" stroke="#A8936C" stroke-width="0.5" stroke-miterlimit="10" stroke-dasharray="2" d="M72,102.333
				c0,0,1.333-2.333,4-1.333"/>
			<path fill="none" stroke="#A8936C" stroke-width="0.5" stroke-miterlimit="10" stroke-dasharray="2" d="M72.667,113.667
				c0,0,3.333-2.334,4.333-1.667"/>
			<path fill="none" stroke="#A8936C" stroke-width="0.5" stroke-miterlimit="10" stroke-dasharray="2" d="M76.333,131.333
				c0,0,2.333-2.667,3.333-2.333"/>
			<path fill="none" stroke="#A8936C" stroke-width="0.5" stroke-miterlimit="10" stroke-dasharray="2" d="M111.667,181.666
				c0,0,2,23.334,6,43.334"/>
		</g>
		<g id="jingluo">
			<path id="Pericardium-2_1_" fill="none" stroke="#88157B" stroke-miterlimit="10" stroke-dasharray="3,3" d="M100,46
				l11.333,133.333c0,0,18,130,45.333,150S300,346.667,300,346.667l53.333,2"/>
			<path id="Heart-2_1_" fill="none" stroke="#1B96D4" stroke-miterlimit="10" stroke-dasharray="3,3" d="M77.333,102.667
				c1.667,29.333,17.333,44,17.333,44S93.667,169,95.333,180s23.834,145.834,52,166.667S351.333,366,351.333,366"/>
			<path id="Lung-2_1_" fill="none" stroke="#89BA28" stroke-miterlimit="10" stroke-dasharray="3,3" d="M147.5,105
				c0,0-10,19-9.5,35.5S125.5,172,125.5,172l-0.5,12l2,5.5c0,0-1,48.499,21.334,96.832"/>
			<path id="SmallIntestine-2_1_" fill="none" stroke="#D31176" stroke-miterlimit="10" stroke-dasharray="3,3" d="M119,339.5
				c0,0,8,26,32,29"/>
		</g>
		<g id="xuewei">
			<circle id="HT8-2" stroke="#1B96D4" stroke-miterlimit="10" cx="94.28" cy="146" r="2.469"/>
			<circle id="HT7-2" stroke="#1B96D4" stroke-miterlimit="10" cx="95.03" cy="180" r="2.469"/>
			<circle id="HT6-2" stroke="#1B96D4" stroke-miterlimit="10" cx="96.53" cy="187" r="2.469"/>
			<circle id="HT5-2" stroke="#1B96D4" stroke-miterlimit="10" cx="97.53" cy="193.5" r="2.469"/>
			<circle id="HT4-2" stroke="#1B96D4" stroke-miterlimit="10" cx="98.53" cy="200" r="2.469"/>
			<circle id="HT3-2" stroke="#1B96D4" stroke-miterlimit="10" cx="147.78" cy="347" r="2.469"/>
			<circle id="HT2-2" stroke="#1B96D4" stroke-miterlimit="10" cx="238.03" cy="363" r="2.469"/>
			<circle id="HT1-2" stroke="#1B96D4" stroke-miterlimit="10" cx="351.137" cy="366.667" r="2.469"/>
			<circle id="PC9-2" stroke="#88157B" stroke-miterlimit="10" cx="99.78" cy="45.75" r="2.469"/>
			<circle id="EX-UE11-8" stroke="#88157B" stroke-miterlimit="10" cx="99.78" cy="45.75" r="2.469"/>
			<circle id="PC8-2" stroke="#88157B" stroke-miterlimit="10" cx="106.78" cy="129" r="2.469"/>
			<circle id="PC7-2" stroke="#88157B" stroke-miterlimit="10" cx="111.28" cy="179.5" r="2.469"/>
			<circle id="PC6-2" stroke="#88157B" stroke-miterlimit="10" cx="116.03" cy="208.5" r="2.469"/>
			<circle id="PC5-2" stroke="#88157B" stroke-miterlimit="10" cx="118.53" cy="223" r="2.469"/>
			<circle id="PC4-2" stroke="#88157B" stroke-miterlimit="10" cx="125.03" cy="253.75" r="2.469"/>
			<circle id="PC3-2" stroke="#88157B" stroke-miterlimit="10" cx="157.28" cy="329.75" r="2.469"/>
			<circle id="PC2-2" stroke="#88157B" stroke-miterlimit="10" cx="305.28" cy="347.25" r="2.469"/>
			<circle id="LU11-2" stroke="#89BA28" stroke-miterlimit="10" cx="147.614" cy="105.25" r="2.469"/>
			<circle id="LU10-2" stroke="#89BA28" stroke-miterlimit="10" cx="133.281" cy="158.917" r="2.469"/>
			<circle id="LU9-2" stroke="#89BA28" stroke-miterlimit="10" cx="125.281" cy="175.583" r="2.469"/>
			<circle id="LU8-2" stroke="#89BA28" stroke-miterlimit="10" cx="124.614" cy="184.583" r="2.469"/>
			<circle id="LU7-2" stroke="#89BA28" stroke-miterlimit="10" cx="127.281" cy="191.583" r="2.469"/>
			<circle id="LU6-2" stroke="#89BA28" stroke-miterlimit="10" cx="141.449" cy="270.25" r="2.469"/>
			<circle id="SI8-2" stroke="#D31176" stroke-miterlimit="10" cx="148.282" cy="367.75" r="2.469"/>
			<circle id="EX-UE2-3" fill="#FFFFFF" stroke="#8E5E32" stroke-miterlimit="10" cx="121.53" cy="238" r="2.469"/>
			<circle id="EX-UE2-4" fill="#FFFFFF" stroke="#8E5E32" stroke-miterlimit="10" cx="129.28" cy="238" r="2.469"/>
			
				<circle id="EX-UE11-6" fill="#FFFFFF" stroke="#956134" stroke-width="0.75" stroke-miterlimit="10" cx="149.336" cy="96.333" r="1.891"/>
			
				<circle id="EX-UE10-5" fill="#FFFFFF" stroke="#956134" stroke-width="0.75" stroke-miterlimit="10" cx="117.894" cy="92" r="1.891"/>
			
				<circle id="EX-UE11-7" fill="#FFFFFF" stroke="#956134" stroke-width="0.75" stroke-miterlimit="10" cx="114.336" cy="57" r="1.891"/>
			
				<circle id="EX-UE10-6" fill="#FFFFFF" stroke="#956134" stroke-width="0.75" stroke-miterlimit="10" cx="102.669" cy="93.333" r="1.891"/>
			
				<circle id="EX-UE11-9" fill="#FFFFFF" stroke="#956134" stroke-width="0.75" stroke-miterlimit="10" cx="85.003" cy="59.667" r="1.891"/>
			
				<circle id="EX-UE10-7" fill="#FFFFFF" stroke="#956134" stroke-width="0.75" stroke-miterlimit="10" cx="88.446" cy="100" r="1.891"/>
			
				<circle id="EX-UE11-10" fill="#FFFFFF" stroke="#956134" stroke-width="0.75" stroke-miterlimit="10" cx="70.112" cy="86.667" r="1.891"/>
			
				<circle id="EX-UE10-8" fill="#FFFFFF" stroke="#956134" stroke-width="0.75" stroke-miterlimit="10" cx="74.779" cy="111.667" r="1.891"/>
		</g>
	</g>
</g>
<g id="svg-zuoshouxin">
	<g id="all_3_">
		<g id="shenti_3_">
			<g>
				<g>
					<path fill="none" stroke="#A8936C" stroke-miterlimit="10" d="M81.334,774.833c0,0,0.341-0.01,0.995-0.029"/>
					<path fill="none" stroke="#A8936C" stroke-miterlimit="10" stroke-dasharray="1.9983,1.9983" d="M84.322,774.743
						c23.788-0.742,182.011-6.159,198.345-19.41c27.833-25.667,31-176.333,39.167-183.5c11.5-8.5,30.5-93.167,22-94
						c-8.5-2.167-10.5,41.167-14,40s8.166-65.833-2-66.5c-9.5-1.667-8.5,56.999-12.5,57.667c-4,0.666,9.666-71-2.5-71.167
						c-6.5,0.167-8.167,67.5-11,67.5c-2.834,0,7.5-56.333-3-57s-7.167,69-12.5,70.5c-5.334,1.5-4-33.167-23.5-30.5
						c-4.167,2,9.5,12,11.5,46.5c1.334,22.833,7.334,18.833,11,34.5c2,66.333-31.333,137.333-34.5,139
						c-3.141,1.653-88.709,14.12-167.496,9.131"/>
					<path fill="none" stroke="#A8936C" stroke-miterlimit="10" d="M82.332,717.399c-0.333-0.022-0.665-0.044-0.998-0.066"/>
				</g>
			</g>
			<g>
				<g>
					<path fill="none" stroke="#A8936C" stroke-width="0.5" stroke-miterlimit="10" d="M296.334,517.333
						c0,0,0.266,0.235,0.758,0.647"/>
					<path fill="none" stroke="#A8936C" stroke-width="0.5" stroke-miterlimit="10" stroke-dasharray="2.0079,2.0079" d="
						M298.645,519.245c4.348,3.452,14.169,10.565,23.713,12.716"/>
					<path fill="none" stroke="#A8936C" stroke-width="0.5" stroke-miterlimit="10" d="M323.35,532.166
						c0.329,0.063,0.657,0.118,0.984,0.167"/>
				</g>
			</g>
			<g>
				<g>
					<path fill="none" stroke="#A8936C" stroke-width="0.5" stroke-miterlimit="10" d="M294.334,524.333c0,0,0.271,0.238,0.747,0.66
						"/>
					<path fill="none" stroke="#A8936C" stroke-width="0.5" stroke-miterlimit="10" stroke-dasharray="1.9201,1.9201" d="
						M296.514,526.269c3.429,3.065,10.018,9.048,13.223,12.569"/>
					<path fill="none" stroke="#A8936C" stroke-width="0.5" stroke-miterlimit="10" d="M310.372,539.557
						c0.242,0.283,0.453,0.544,0.628,0.776"/>
				</g>
			</g>
			<g>
				<g>
					<path fill="none" stroke="#A8936C" stroke-width="0.5" stroke-miterlimit="10" d="M290.334,528.333
						c0,0,0.263,0.244,0.711,0.698"/>
					<path fill="none" stroke="#A8936C" stroke-width="0.5" stroke-miterlimit="10" stroke-dasharray="2.1293,2.1293" d="
						M292.505,530.579c3.631,4.014,10.5,12.833,10.066,21.695"/>
					<path fill="none" stroke="#A8936C" stroke-width="0.5" stroke-miterlimit="10" d="M302.482,553.343
						c-0.038,0.33-0.088,0.66-0.148,0.99"/>
				</g>
			</g>
			<g>
				<g>
					<path fill="none" stroke="#A8936C" stroke-width="0.5" stroke-miterlimit="10" d="M319.334,535c0,0-0.299,0.199-0.812,0.579"/>
					<path fill="none" stroke="#A8936C" stroke-width="0.5" stroke-miterlimit="10" stroke-dasharray="1.945,1.945" d="
						M316.991,536.774c-3.73,3.051-10.741,9.79-12.112,18.258"/>
					<path fill="none" stroke="#A8936C" stroke-width="0.5" stroke-miterlimit="10" d="M304.747,556.001
						c-0.035,0.331-0.063,0.664-0.08,0.999"/>
				</g>
			</g>
			<g>
				<g>
					<path fill="none" stroke="#A8936C" stroke-width="0.5" stroke-miterlimit="10" d="M282.667,560.333c0,0,0.225,0.289,0.635,0.77
						"/>
					<path fill="none" stroke="#A8936C" stroke-width="0.5" stroke-miterlimit="10" stroke-dasharray="2.2204,2.2204" d="
						M284.786,562.751c2.217,2.337,5.915,5.717,9.831,7.074"/>
					<path fill="none" stroke="#A8936C" stroke-width="0.5" stroke-miterlimit="10" d="M295.688,570.143
						c0.326,0.08,0.652,0.144,0.979,0.19"/>
				</g>
			</g>
			<g>
				<g>
					<path fill="none" stroke="#A8936C" stroke-width="0.5" stroke-miterlimit="10" d="M326,566c0,0-0.242,0.288-0.672,0.737"/>
					<path fill="none" stroke="#A8936C" stroke-width="0.5" stroke-miterlimit="10" stroke-dasharray="2.0618,2.0618" d="
						M323.847,568.169c-1.566,1.399-3.816,3.062-6.161,3.636"/>
					<path fill="none" stroke="#A8936C" stroke-width="0.5" stroke-miterlimit="10" d="M316.666,571.982
						c-0.333,0.032-0.667,0.04-0.999,0.018"/>
				</g>
			</g>
			<g>
				<g>
					<path fill="none" stroke="#A8936C" stroke-width="0.5" stroke-miterlimit="10" d="M279.334,501.666
						c0,0-0.336,0.214-0.813,0.576"/>
					<path fill="none" stroke="#A8936C" stroke-width="0.5" stroke-miterlimit="10" stroke-dasharray="1.4308,1.4308" d="
						M277.423,503.158c-0.51,0.469-1.028,1.019-1.424,1.606"/>
					<path fill="none" stroke="#A8936C" stroke-width="0.5" stroke-miterlimit="10" d="M275.64,505.383
						c-0.152,0.313-0.26,0.631-0.306,0.95"/>
				</g>
			</g>
			<g>
				<g>
					<path fill="none" stroke="#A8936C" stroke-width="0.5" stroke-miterlimit="10" d="M297.667,484.666
						c0,0-0.376-0.171-0.931-0.359"/>
					<path fill="none" stroke="#A8936C" stroke-width="0.5" stroke-miterlimit="10" stroke-dasharray="1.0825,1.0825" d="
						M295.696,484.006c-0.524-0.122-1.09-0.207-1.61-0.187"/>
					<path fill="none" stroke="#A8936C" stroke-width="0.5" stroke-miterlimit="10" d="M293.55,483.884
						c-0.345,0.074-0.649,0.216-0.883,0.449"/>
				</g>
			</g>
			<g>
				<g>
					<path fill="none" stroke="#A8936C" stroke-width="0.5" stroke-miterlimit="10" d="M299.667,469.333
						c0,0-0.323-0.259-0.829-0.555"/>
					<path fill="none" stroke="#A8936C" stroke-width="0.5" stroke-miterlimit="10" stroke-dasharray="1.2869,1.2869" d="
						M297.678,468.222c-0.591-0.218-1.25-0.358-1.887-0.275"/>
					<path fill="none" stroke="#A8936C" stroke-width="0.5" stroke-miterlimit="10" d="M295.161,468.11
						c-0.291,0.119-0.57,0.299-0.827,0.556"/>
				</g>
			</g>
			<g>
				<g>
					<path fill="none" stroke="#A8936C" stroke-width="0.5" stroke-miterlimit="10" d="M297.334,505.666c0,0-0.298-0.298-0.803-0.59
						"/>
					<path fill="none" stroke="#A8936C" stroke-width="0.5" stroke-miterlimit="10" stroke-dasharray="1.1579,1.1579" d="
						M295.466,504.636c-0.507-0.13-1.09-0.168-1.719-0.005"/>
					<path fill="none" stroke="#A8936C" stroke-width="0.5" stroke-miterlimit="10" d="M293.196,504.822
						c-0.281,0.124-0.57,0.291-0.862,0.511"/>
				</g>
			</g>
			<g>
				<g>
					<path fill="none" stroke="#A8936C" stroke-width="0.5" stroke-miterlimit="10" d="M311.667,508c0,0-0.258-0.344-0.728-0.677"/>
					<path fill="none" stroke="#A8936C" stroke-width="0.5" stroke-miterlimit="10" stroke-dasharray="1.2082,1.2082" d="
						M309.857,506.808c-0.508-0.134-1.109-0.151-1.787,0.076"/>
					<path fill="none" stroke="#A8936C" stroke-width="0.5" stroke-miterlimit="10" d="M307.508,507.123
						c-0.271,0.139-0.551,0.317-0.841,0.543"/>
				</g>
			</g>
			<g>
				<g>
					<path fill="none" stroke="#A8936C" stroke-width="0.5" stroke-miterlimit="10" d="M312.667,486.333
						c0,0-0.302-0.302-0.788-0.612"/>
					<path fill="none" stroke="#A8936C" stroke-width="0.5" stroke-miterlimit="10" d="M309.626,485.063
						c-0.313,0.026-0.637,0.109-0.959,0.271"/>
				</g>
			</g>
			<g>
				<g>
					<path fill="none" stroke="#A8936C" stroke-width="0.5" stroke-miterlimit="10" d="M313.334,466.333
						c0,0-0.283-0.341-0.758-0.646"/>
					<path fill="none" stroke="#A8936C" stroke-width="0.5" stroke-miterlimit="10" d="M310.578,465.264
						c-0.292,0.066-0.598,0.193-0.911,0.402"/>
				</g>
			</g>
			<g>
				<g>
					<path fill="none" stroke="#A8936C" stroke-width="0.5" stroke-miterlimit="10" d="M328.334,472.666
						c0,0-0.338-0.236-0.852-0.516"/>
					<path fill="none" stroke="#A8936C" stroke-width="0.5" stroke-miterlimit="10" stroke-dasharray="1.1318,1.1318" d="
						M326.458,471.666c-0.522-0.209-1.097-0.376-1.646-0.406"/>
					<path fill="none" stroke="#A8936C" stroke-width="0.5" stroke-miterlimit="10" d="M324.245,471.282
						c-0.333,0.05-0.644,0.17-0.911,0.384"/>
				</g>
			</g>
			<g>
				<g>
					<path fill="none" stroke="#A8936C" stroke-width="0.5" stroke-miterlimit="10" d="M326.667,493.333
						c0,0-0.315-0.271-0.813-0.579"/>
					<path fill="none" stroke="#A8936C" stroke-width="0.5" stroke-miterlimit="10" d="M323.324,491.866
						c-0.331-0.013-0.665,0.025-0.99,0.134"/>
				</g>
			</g>
			<g>
				<g>
					<path fill="none" stroke="#A8936C" stroke-width="0.5" stroke-miterlimit="10" d="M325,514.666c0,0-0.179-0.357-0.51-0.858"/>
					<path fill="none" stroke="#A8936C" stroke-width="0.5" stroke-miterlimit="10" stroke-dasharray="1.5652,1.5652" d="
						M323.537,512.567c-0.5-0.556-1.115-1.101-1.823-1.464"/>
					<path fill="none" stroke="#A8936C" stroke-width="0.5" stroke-miterlimit="10" d="M320.991,510.812
						c-0.316-0.093-0.647-0.146-0.991-0.146"/>
				</g>
			</g>
			<g>
				<g>
					<path fill="none" stroke="#A8936C" stroke-width="0.5" stroke-miterlimit="10" d="M341.334,494.666
						c0,0-0.215-0.375-0.644-0.761"/>
					<path fill="none" stroke="#A8936C" stroke-width="0.5" stroke-miterlimit="10" d="M338.305,493.1
						c-0.301,0.03-0.625,0.104-0.971,0.233"/>
				</g>
			</g>
			<g>
				<g>
					<path fill="none" stroke="#A8936C" stroke-width="0.5" stroke-miterlimit="10" d="M340.667,506c0,0-0.341-0.239-0.838-0.542"/>
					<path fill="none" stroke="#A8936C" stroke-width="0.5" stroke-miterlimit="10" d="M337.308,504.28
						c-0.4-0.096-0.747-0.099-0.974,0.053"/>
				</g>
			</g>
			<g>
				<g>
					<path fill="none" stroke="#A8936C" stroke-width="0.5" stroke-miterlimit="10" d="M337,523.666c0,0-0.28-0.32-0.688-0.726"/>
					<path fill="none" stroke="#A8936C" stroke-width="0.5" stroke-miterlimit="10" d="M334.614,521.56
						c-0.361-0.205-0.696-0.311-0.947-0.227"/>
				</g>
			</g>
			<g>
				<g>
					<path fill="none" stroke="#A8936C" stroke-width="0.5" stroke-miterlimit="10" d="M301.667,573.999
						c0,0-0.029,0.347-0.089,0.991"/>
					<path fill="none" stroke="#A8936C" stroke-width="0.5" stroke-miterlimit="10" stroke-dasharray="1.9887,1.9887" d="
						M301.39,576.968c-0.646,6.62-2.426,23.208-5.338,38.4"/>
					<path fill="none" stroke="#A8936C" stroke-width="0.5" stroke-miterlimit="10" d="M295.861,616.353
						c-0.064,0.328-0.129,0.654-0.194,0.98"/>
				</g>
			</g>
		</g>
		<g id="jingluo_3_">
			<path id="Pericardium-1_2_" fill="none" stroke="#88157B" stroke-miterlimit="10" stroke-dasharray="3,3" d="M313.334,438.333
				L302,571.666c0,0-18,130-45.333,150S113.334,739,113.334,739l-53.333,2"/>
			<path id="Heart-1_2_" fill="none" stroke="#1B96D4" stroke-miterlimit="10" stroke-dasharray="3,3" d="M336,495
				c-1.666,29.333-17.333,44-17.333,44s1,22.333-0.667,33.333c-1.666,11-23.834,145.834-52,166.667S62.001,758.333,62.001,758.333"
				/>
			<path id="Lung-1_2_" fill="none" stroke="#89BA28" stroke-miterlimit="10" stroke-dasharray="3,3" d="M265.834,497.333
				c0,0,10,19,9.5,35.5s12.5,31.5,12.5,31.5l0.5,12l-2,5.5c0,0,1,48.499-21.334,96.832"/>
			<path id="SmallIntestine-1_2_" fill="none" stroke="#D31176" stroke-miterlimit="10" stroke-dasharray="3,3" d="M294.334,731.833
				c0,0-8,26-32,29"/>
		</g>
		<g id="xuewei_3_">
			<circle id="HT8-1_2_" stroke="#1B96D4" stroke-miterlimit="10" cx="319.054" cy="538.333" r="2.469"/>
			<circle id="HT7-1_2_" stroke="#1B96D4" stroke-miterlimit="10" cx="318.304" cy="572.333" r="2.469"/>
			<circle id="HT6-1_2_" stroke="#1B96D4" stroke-miterlimit="10" cx="316.804" cy="579.333" r="2.469"/>
			<circle id="HT5-1_2_" stroke="#1B96D4" stroke-miterlimit="10" cx="315.804" cy="585.833" r="2.469"/>
			<circle id="HT4-1_2_" stroke="#1B96D4" stroke-miterlimit="10" cx="314.804" cy="592.333" r="2.469"/>
			<circle id="HT3-1_2_" stroke="#1B96D4" stroke-miterlimit="10" cx="265.554" cy="739.333" r="2.469"/>
			<circle id="HT2-1_2_" stroke="#1B96D4" stroke-miterlimit="10" cx="175.304" cy="755.333" r="2.469"/>
			<circle id="HT1-1_2_" stroke="#1B96D4" stroke-miterlimit="10" cx="62.197" cy="759" r="2.469"/>
			<circle id="PC9-1" stroke="#88157B" stroke-miterlimit="10" cx="313.554" cy="438.083" r="2.469"/>
			<circle id="EX-UE11-3" stroke="#88157B" stroke-miterlimit="10" cx="313.554" cy="438.083" r="2.469"/>
			<circle id="PC8-1_1_" stroke="#88157B" stroke-miterlimit="10" cx="306.554" cy="521.333" r="2.469"/>
			<circle id="PC7-1_2_" stroke="#88157B" stroke-miterlimit="10" cx="302.054" cy="571.833" r="2.469"/>
			<circle id="PC6-1_2_" stroke="#88157B" stroke-miterlimit="10" cx="297.304" cy="600.833" r="2.469"/>
			<circle id="PC5-1_2_" stroke="#88157B" stroke-miterlimit="10" cx="294.804" cy="615.333" r="2.469"/>
			<circle id="PC4-1_2_" stroke="#88157B" stroke-miterlimit="10" cx="288.304" cy="646.083" r="2.469"/>
			<circle id="PC3-1_2_" stroke="#88157B" stroke-miterlimit="10" cx="256.054" cy="722.083" r="2.469"/>
			<circle id="PC2-1_2_" stroke="#88157B" stroke-miterlimit="10" cx="108.054" cy="739.583" r="2.469"/>
			<circle id="LU11-1_2_" stroke="#89BA28" stroke-miterlimit="10" cx="265.72" cy="497.583" r="2.469"/>
			<circle id="LU10-1_2_" stroke="#89BA28" stroke-miterlimit="10" cx="280.053" cy="551.25" r="2.469"/>
			<circle id="LU9-1_2_" stroke="#89BA28" stroke-miterlimit="10" cx="288.053" cy="567.916" r="2.469"/>
			<circle id="LU8-1_2_" stroke="#89BA28" stroke-miterlimit="10" cx="288.72" cy="576.916" r="2.469"/>
			<circle id="LU7-1_2_" stroke="#89BA28" stroke-miterlimit="10" cx="286.053" cy="583.916" r="2.469"/>
			<circle id="LU6-1_2_" stroke="#89BA28" stroke-miterlimit="10" cx="271.885" cy="662.583" r="2.469"/>
			<circle id="SI8-1_2_" stroke="#D31176" stroke-miterlimit="10" cx="265.052" cy="760.083" r="2.469"/>
			<circle id="EX-UE2-1_2_" fill="#FFFFFF" stroke="#8E5E32" stroke-miterlimit="10" cx="291.804" cy="630.333" r="2.469"/>
			<circle id="EX-UE2-2_2_" fill="#FFFFFF" stroke="#8E5E32" stroke-miterlimit="10" cx="284.054" cy="630.333" r="2.469"/>
			
				<circle id="EX-UE11-2_2_" fill="#FFFFFF" stroke="#956134" stroke-width="0.75" stroke-miterlimit="10" cx="298.365" cy="448.335" r="1.891"/>
			
				<circle id="EX-UE11-4_1_" fill="#FFFFFF" stroke="#956134" stroke-width="0.75" stroke-miterlimit="10" cx="327.365" cy="452.002" r="1.891"/>
			
				<circle id="EX-UE10-4_2_" fill="#FFFFFF" stroke="#956134" stroke-width="0.75" stroke-miterlimit="10" cx="338.698" cy="505.335" r="1.891"/>
			
				<circle id="EX-UE11-5_2_" fill="#FFFFFF" stroke="#956134" stroke-width="0.75" stroke-miterlimit="10" cx="343.698" cy="478.002" r="1.891"/>
			
				<circle id="EX-UE11-1_1_" fill="#FFFFFF" stroke="#956134" stroke-width="0.75" stroke-miterlimit="10" cx="262.808" cy="488.335" r="1.891"/>
			
				<circle id="EX-UE10-2_2_" fill="#FFFFFF" stroke="#956134" stroke-width="0.75" stroke-miterlimit="10" cx="310.032" cy="485.668" r="1.891"/>
			
				<circle id="EX-UE10-1_2_" fill="#FFFFFF" stroke="#956134" stroke-width="0.75" stroke-miterlimit="10" cx="295.699" cy="484.668" r="1.891"/>
			
				<circle id="EX-UE10-3_2_" fill="#FFFFFF" stroke="#956134" stroke-width="0.75" stroke-miterlimit="10" cx="324.365" cy="492.111" r="1.891"/>
		</g>
	</g>
</g>
</svg>
