<?xml version="1.0" encoding="utf-8"?>
<!-- Generator: Adobe Illustrator 16.0.0, SVG Export Plug-In . SVG Version: 6.00 Build 0)  -->
<!DOCTYPE svg PUBLIC "-//W3C//DTD SVG 1.1//EN" "http://www.w3.org/Graphics/SVG/1.1/DTD/svg11.dtd">
<svg version="1.1" id="svg" xmlns="http://www.w3.org/2000/svg" xmlns:xlink="http://www.w3.org/1999/xlink" x="0px" y="0px"
	 width="543.441px" height="1248.418px" viewBox="0 0 543.441 1248.418" enable-background="new 0 0 543.441 1248.418"
	 xml:space="preserve">
<g id="all">
	<g id="shenti">
		<g id="youtui">
			<path fill="#FFFFFF" stroke="#A5906A" stroke-miterlimit="10" stroke-dasharray="2" d="M106.255,1161.637c0,0,2-6.334,11-3.668
				C123.922,1167.969,106.255,1161.637,106.255,1161.637z"/>
			<path fill="#FFFFFF" stroke="#A5906A" stroke-miterlimit="10" stroke-dasharray="2" d="M95.922,1166.969
				c0,0,3.333-7.334,10.333-7c5,1,5,2.334,8,2.334s-3.333,6.334-3.333,6.334L95.922,1166.969z"/>
			<path fill="#FFFFFF" stroke="#A5906A" stroke-miterlimit="10" stroke-dasharray="2" d="M84.589,1169.969
				c0,0,0.333-5.332,5.333-6.332s13.667,4,20,2s-3,6.332-3,6.332L84.589,1169.969z"/>
			<path fill="#FFFFFF" stroke="#A5906A" stroke-miterlimit="10" stroke-dasharray="2" d="M418.099,662.567
				c-34.455,17.646-173.125,139.297-178.151,142.016c-5.026,2.721-9.2,0.004-13.446,3.361s-12.991,15.674-14.285,21.85
				c-1.294,6.176-0.387,12.855-0.84,21.85c-1.121,36.994-43.664,194.826-47.059,209.242
				c-24.729,83.084-59.698,107.057-65.547,108.404c-5.849,1.346-17.182-4.391-21.849-2.521
				c-12.667,11.201,5.21,22.176,12.604,22.689c7.396,0.512,15.928-5.555,19.328-2.521c24.067,8.367,28.577,3.285,38.656-0.84
				c10.078-4.127,27.495-33.533,34.453-39.496c6.958-5.965,34.465-13.18,45.378-28.572c12.913-18.725-7.401-39.391-9.243-47.059
				c0.823-31,37.933-80.877,45.378-112.604c7.445-31.729,2.403-63.561,10.925-77.313c19.188-24.418,166.386-121.848,166.386-121.848
				"/>
			<path fill="#FFFFFF" stroke="#A5906A" stroke-miterlimit="10" stroke-dasharray="2" d="M418.099,662.567
				c-34.455,17.646-173.125,139.297-178.151,142.016c-5.026,2.721-9.2,0.004-13.446,3.361s-12.991,15.674-14.285,21.85
				c-1.294,6.176-0.387,12.855-0.84,21.85c-1.121,36.994-43.664,194.826-47.059,209.242
				c-24.729,83.084-59.698,107.057-65.547,108.404c-5.849,1.346-17.182-4.391-21.849-2.521
				c-12.667,11.201,5.21,22.176,12.604,22.689c7.396,0.512,15.928-5.555,19.328-2.521c24.067,8.367,28.577,3.285,38.656-0.84
				c10.078-4.127,27.495-33.533,34.453-39.496c6.958-5.965,34.465-13.18,45.378-28.572c12.913-18.725-7.401-39.391-9.243-47.059
				c0.823-31,37.933-80.877,45.378-112.604c7.445-31.729,2.403-63.561,10.925-77.313c19.188-24.418,166.386-121.848,166.386-121.848
				"/>
			<path fill="#FFFFFF" stroke="#A5906A" stroke-width="0.5" stroke-miterlimit="10" stroke-dasharray="2" d="M197.255,1049.637
				c-3.666,10.666-1.666,21.334-9.666,30.666"/>
			<path fill="#FFFFFF" stroke="#A5906A" stroke-miterlimit="10" stroke-dasharray="2" d="M79.672,1166.469
				c-0.375,2.375-2.5,3.75-2.5,3.75s7.5,2.625,11,1.75s2-3.625,2-3.625S79.297,1165.844,79.672,1166.469z"/>
		</g>
		<g id="zuotui">
			<path fill="#FFFFFF" stroke="#A5906A" stroke-miterlimit="10" stroke-dasharray="2" d="M407.585,582.666c0,0-2-6.334-11-3.668
				C389.919,588.998,407.585,582.666,407.585,582.666z"/>
			<path fill="#FFFFFF" stroke="#A5906A" stroke-miterlimit="10" stroke-dasharray="2" d="M417.919,587.998
				c0,0-3.334-7.334-10.334-7c-5,1-5,2.334-8,2.334s3.334,6.334,3.334,6.334L417.919,587.998z"/>
			<path fill="#FFFFFF" stroke="#A5906A" stroke-miterlimit="10" stroke-dasharray="2" d="M429.251,590.998
				c0,0-0.332-5.332-5.332-6.332s-13.668,4-20,2c-6.334-2,3,6.332,3,6.332L429.251,590.998z"/>
			<path fill="#FFFFFF" stroke="#A5906A" stroke-miterlimit="10" stroke-dasharray="2" d="M95.743,83.595
				c34.454,17.647,173.126,139.296,178.151,142.017c5.025,2.721,9.199,0.002,13.445,3.361s12.992,15.673,14.285,21.849
				c1.295,6.176,0.387,12.854,0.842,21.849c1.119,36.994,43.662,194.827,47.059,209.243
				c24.729,83.084,59.697,107.057,65.547,108.404c5.85,1.346,17.182-4.392,21.85-2.521c12.666,11.201-5.211,22.176-12.605,22.689
				c-7.395,0.512-15.928-5.556-19.328-2.521c-24.066,8.367-28.576,3.285-38.656-0.84c-10.078-4.127-27.494-33.533-34.453-39.496
				c-6.957-5.965-34.463-13.18-45.377-28.572c-12.914-18.725,7.401-39.391,9.244-47.059c-0.824-31-37.933-80.876-45.377-112.605
				c-7.445-31.729-2.403-63.56-10.924-77.311c-19.192-24.417-166.39-121.848-166.39-121.848"/>
			<path fill="#FFFFFF" stroke="#A5906A" stroke-miterlimit="10" stroke-dasharray="2" d="M95.743,83.595
				c34.454,17.647,173.126,139.296,178.151,142.017c5.025,2.721,9.199,0.002,13.445,3.361s12.992,15.673,14.285,21.849
				c1.295,6.176,0.387,12.854,0.842,21.849c1.119,36.994,43.662,194.827,47.059,209.243
				c24.729,83.084,59.697,107.057,65.547,108.404c5.85,1.346,17.182-4.392,21.85-2.521c12.666,11.201-5.211,22.176-12.605,22.689
				c-7.395,0.512-15.928-5.556-19.328-2.521c-24.066,8.367-28.576,3.285-38.656-0.84c-10.078-4.127-27.494-33.533-34.453-39.496
				c-6.957-5.965-34.463-13.18-45.377-28.572c-12.914-18.725,7.401-39.391,9.244-47.059c-0.824-31-37.933-80.876-45.377-112.605
				c-7.445-31.729-2.403-63.56-10.924-77.311c-19.192-24.417-166.39-121.848-166.39-121.848"/>
			<path fill="#FFFFFF" stroke="#A5906A" stroke-width="0.5" stroke-miterlimit="10" stroke-dasharray="2" d="M316.585,470.666
				c3.666,10.666,1.666,21.334,9.666,30.666"/>
			<path fill="#FFFFFF" stroke="#A5906A" stroke-miterlimit="10" stroke-dasharray="2" d="M434.169,587.498
				c0.375,2.375,2.5,3.75,2.5,3.75s-7.5,2.625-11,1.75s-2-3.625-2-3.625S434.544,586.873,434.169,587.498z"/>
		</g>
	</g>
	<g id="jingluo">
		<path id="Spleen-1" fill="none" stroke="#85B12E" stroke-miterlimit="10" d="M81.917,107.333
			c46.667,19.333,158.667,121.333,158.667,121.333s36.667,14,42,30.667c5.334,16.667-2.666,36-2.666,36s6,38.667,2,58
			c25.334,47.333,30.666,98.667,32.666,113.333c2.668,30,17.838,43.807,30.668,76.668c7.26,18.598,16.193,38.121,28,48
			c27.332,20.666,56,6.666,56,6.666"/>
		<path id="Liver-1" fill="none" stroke="#7F1C73" stroke-miterlimit="10" d="M71.917,142.666
			c66.666,31.333,179.333,150,179.333,150L264.584,304c0,0,39.333,64,50,92.667c4,43.334,39.334,116.666,39.334,116.666
			S363.25,548,379.25,562c13.334,17.332,29.334,25.332,29.334,25.332"/>
		<path id="Kidney-1" fill="none" stroke="#1B96D4" stroke-miterlimit="10" d="M73.25,164.666c0,0,91.334,52.667,166.667,138
			c8.667,4,13.333,18,13.333,18l56,158L297.917,478c0,0,4,30,20.666,50.666c-11.334,10.666-30-3.334-30-3.334l10.666-20.666
			c0,0,36.668,27.334,51.334,61.334c0,4.666-1.334,20,4,30.666"/>
		<path id="Spleen-2" fill="none" stroke="#85B12E" stroke-miterlimit="10" d="M431.923,686.305
			c-46.666,19.332-158.666,121.332-158.666,121.332s-36.667,14-42,30.668c-5.334,16.666,2.666,36,2.666,36s-6,38.666-2,58
			c-25.333,47.332-30.666,98.666-32.666,113.332c-2.667,30-17.837,43.807-30.667,76.668c-7.261,18.598-16.194,38.121-28,48
			c-27.333,20.666-56,6.666-56,6.666"/>
		<path id="Liver-2" fill="none" stroke="#7F1C73" stroke-miterlimit="10" d="M441.923,721.637
			c-66.666,31.334-179.333,150-179.333,150l-13.334,11.334c0,0-39.333,64-50,92.666c-4,43.334-39.333,116.666-39.333,116.666
			s-9.333,34.668-25.333,48.668c-13.334,17.332-29.334,25.332-29.334,25.332"/>
		<path id="Kidney-2" fill="none" stroke="#1B96D4" stroke-miterlimit="10" d="M440.591,743.637c0,0-91.334,52.668-166.666,138
			c-8.667,4-13.333,18-13.333,18l-56,158l11.333-0.666c0,0-4,30-20.667,50.666c11.334,10.666,30-3.334,30-3.334l-10.666-20.666
			c0,0-36.667,27.334-51.334,61.334c0,4.666,1.334,20-4,30.666"/>
	</g>
	<g id="xuewei">
		
			<circle id="SP11-1" fill="#040000" stroke="#8ABA29" stroke-width="0.75" stroke-miterlimit="10" cx="176.316" cy="172.998" r="2.469"/>
		
			<circle id="SP10-1" fill="#040000" stroke="#8ABA29" stroke-width="0.75" stroke-miterlimit="10" cx="240.389" cy="228.498" r="2.469"/>
		
			<circle id="SP9-1" fill="#040000" stroke="#8ABA29" stroke-width="0.75" stroke-miterlimit="10" cx="279.889" cy="295.998" r="2.469"/>
		
			<circle id="SP8-1" fill="#040000" stroke="#8ABA29" stroke-width="0.75" stroke-miterlimit="10" cx="281.889" cy="353.498" r="2.469"/>
		
			<circle id="SP7-1" fill="#040000" stroke="#8ABA29" stroke-width="0.75" stroke-miterlimit="10" cx="306.888" cy="421.498" r="2.469"/>
		
			<circle id="SP6-1" fill="#040000" stroke="#8ABA29" stroke-width="0.75" stroke-miterlimit="10" cx="314.388" cy="463.998" r="2.469"/>
		
			<circle id="SP5-1" fill="#040000" stroke="#8ABA29" stroke-width="0.75" stroke-miterlimit="10" cx="331.419" cy="515.029" r="2.469"/>
		
			<circle id="SP4-1" fill="#040000" stroke="#8ABA29" stroke-width="0.75" stroke-miterlimit="10" cx="364.388" cy="581.498" r="2.469"/>
		
			<circle id="SP3-1" fill="#040000" stroke="#8ABA29" stroke-width="0.75" stroke-miterlimit="10" cx="375.919" cy="593.467" r="2.469"/>
		
			<circle id="SP2-1" fill="#040000" stroke="#8ABA29" stroke-width="0.75" stroke-miterlimit="10" cx="408.419" cy="601.967" r="2.469"/>
		
			<circle id="SP1-1" fill="#040000" stroke="#8ABA29" stroke-width="0.75" stroke-miterlimit="10" cx="427.888" cy="597.998" r="2.469"/>
		<circle id="LR9-1" stroke="#7F1C73" stroke-miterlimit="10" cx="178.586" cy="221.967" r="2.469"/>
		<circle id="LR8-1" stroke="#7F1C73" stroke-miterlimit="10" cx="250.92" cy="292.634" r="2.469"/>
		<circle id="LR7-1" stroke="#7F1C73" stroke-miterlimit="10" cx="263.92" cy="303.634" r="2.469"/>
		<circle id="LR6-1" stroke="#7F1C73" stroke-miterlimit="10" cx="314.919" cy="397.301" r="2.469"/>
		<circle id="LR5-1" stroke="#7F1C73" stroke-miterlimit="10" cx="322.919" cy="434.967" r="2.469"/>
		<circle id="LR4-1" stroke="#7F1C73" stroke-miterlimit="10" cx="352.585" cy="510.301" r="2.469"/>
		<circle id="LR3-1" stroke="#7F1C73" stroke-miterlimit="10" cx="378.585" cy="561.301" r="2.469"/>
		<circle id="LR2-1" stroke="#7F1C73" stroke-miterlimit="10" cx="408.253" cy="586.635" r="2.469"/>
		<circle id="KI10-1" stroke="#1B96D4" stroke-miterlimit="10" cx="239.253" cy="302.301" r="2.469"/>
		<circle id="KI9-1" stroke="#1B96D4" stroke-miterlimit="10" cx="290.253" cy="425.635" r="2.469"/>
		<circle id="KI8-1" stroke="#1B96D4" stroke-miterlimit="10" cx="308.919" cy="478.301" r="2.469"/>
		<circle id="KI7-1" stroke="#1B96D4" stroke-miterlimit="10" cx="297.919" cy="477.635" r="2.469"/>
		<circle id="KI6-1" stroke="#1B96D4" stroke-miterlimit="10" cx="318.251" cy="528.967" r="2.469"/>
		<circle id="KI5-1" stroke="#1B96D4" stroke-miterlimit="10" cx="288.585" cy="524.967" r="2.469"/>
		<circle id="KI4-1" stroke="#1B96D4" stroke-miterlimit="10" cx="293.585" cy="515.301" r="2.469"/>
		<circle id="KI3-1" stroke="#1B96D4" stroke-miterlimit="10" cx="299.253" cy="504.967" r="2.469"/>
		<circle id="KI2-1" stroke="#1B96D4" stroke-miterlimit="10" cx="350.585" cy="565.967" r="2.469"/>
		<circle id="EX-LE3-1" fill="#FFFFFF" stroke="#8E5E32" stroke-miterlimit="10" cx="226.39" cy="216.666" r="2.469"/>
		<circle id="EX-LE4-1" fill="#FFFFFF" stroke="#8E5E32" stroke-miterlimit="10" cx="292.585" cy="267.531" r="2.469"/>
		<circle id="EX-LE8-1" fill="#FFFFFF" stroke="#8E5E32" stroke-miterlimit="10" cx="313.722" cy="505.332" r="2.469"/>
		
			<circle id="SP11-2" fill="#040000" stroke="#8ABA29" stroke-width="0.75" stroke-miterlimit="10" cx="337.525" cy="751.969" r="2.469"/>
		
			<circle id="SP10-2" fill="#040000" stroke="#8ABA29" stroke-width="0.75" stroke-miterlimit="10" cx="273.453" cy="807.469" r="2.469"/>
		
			<circle id="SP9-2" fill="#040000" stroke="#8ABA29" stroke-width="0.75" stroke-miterlimit="10" cx="233.953" cy="874.969" r="2.469"/>
		
			<circle id="SP8-2" fill="#040000" stroke="#8ABA29" stroke-width="0.75" stroke-miterlimit="10" cx="231.953" cy="932.469" r="2.469"/>
		
			<circle id="SP7-2" fill="#040000" stroke="#8ABA29" stroke-width="0.75" stroke-miterlimit="10" cx="206.953" cy="1000.469" r="2.469"/>
		
			<circle id="SP6-2" fill="#040000" stroke="#8ABA29" stroke-width="0.75" stroke-miterlimit="10" cx="199.453" cy="1042.969" r="2.469"/>
		
			<circle id="SP5-2" fill="#040000" stroke="#8ABA29" stroke-width="0.75" stroke-miterlimit="10" cx="182.422" cy="1094" r="2.469"/>
		
			<circle id="SP4-2" fill="#040000" stroke="#8ABA29" stroke-width="0.75" stroke-miterlimit="10" cx="149.453" cy="1160.469" r="2.469"/>
		
			<circle id="SP3-2" fill="#040000" stroke="#8ABA29" stroke-width="0.75" stroke-miterlimit="10" cx="137.922" cy="1172.438" r="2.469"/>
		
			<circle id="SP2-2" fill="#040000" stroke="#8ABA29" stroke-width="0.75" stroke-miterlimit="10" cx="105.422" cy="1180.938" r="2.469"/>
		
			<circle id="SP1-2" fill="#040000" stroke="#8ABA29" stroke-width="0.75" stroke-miterlimit="10" cx="85.953" cy="1176.969" r="2.469"/>
		<circle id="LR9-2" stroke="#7F1C73" stroke-miterlimit="10" cx="335.255" cy="800.938" r="2.469"/>
		<circle id="LR8-2" stroke="#7F1C73" stroke-miterlimit="10" cx="262.921" cy="871.605" r="2.47"/>
		<circle id="LR7-2" stroke="#7F1C73" stroke-miterlimit="10" cx="249.921" cy="882.605" r="2.47"/>
		<circle id="LR6-2" stroke="#7F1C73" stroke-miterlimit="10" cx="198.921" cy="976.271" r="2.47"/>
		<circle id="LR5-2" stroke="#7F1C73" stroke-miterlimit="10" cx="190.921" cy="1013.938" r="2.469"/>
		<circle id="LR4-2" stroke="#7F1C73" stroke-miterlimit="10" cx="161.255" cy="1089.271" r="2.47"/>
		<circle id="LR3-2" stroke="#7F1C73" stroke-miterlimit="10" cx="135.255" cy="1140.271" r="2.47"/>
		<circle id="LR2-2" stroke="#7F1C73" stroke-miterlimit="10" cx="105.588" cy="1165.605" r="2.47"/>
		<circle id="KI10-2" stroke="#1B96D4" stroke-miterlimit="10" cx="274.589" cy="881.271" r="2.47"/>
		<circle id="KI9-2" stroke="#1B96D4" stroke-miterlimit="10" cx="223.589" cy="1004.605" r="2.47"/>
		<circle id="KI8-2" stroke="#1B96D4" stroke-miterlimit="10" cx="204.922" cy="1057.271" r="2.47"/>
		<circle id="KI7-2" stroke="#1B96D4" stroke-miterlimit="10" cx="215.922" cy="1056.605" r="2.47"/>
		<circle id="KI6-2" stroke="#1B96D4" stroke-miterlimit="10" cx="195.589" cy="1107.938" r="2.469"/>
		<circle id="KI5-2" stroke="#1B96D4" stroke-miterlimit="10" cx="225.255" cy="1103.938" r="2.469"/>
		<circle id="KI4-2" stroke="#1B96D4" stroke-miterlimit="10" cx="220.255" cy="1094.271" r="2.47"/>
		<circle id="KI3-2" stroke="#1B96D4" stroke-miterlimit="10" cx="214.589" cy="1083.938" r="2.469"/>
		<circle id="KI2-2" stroke="#1B96D4" stroke-miterlimit="10" cx="163.255" cy="1144.938" r="2.469"/>
		<circle id="EX-LE3-2" fill="#FFFFFF" stroke="#8E5E32" stroke-miterlimit="10" cx="287.453" cy="795.637" r="2.469"/>
		<circle id="EX-LE4-2" fill="#FFFFFF" stroke="#8E5E32" stroke-miterlimit="10" cx="221.255" cy="846.502" r="2.469"/>
		<circle id="EX-LE8-2" fill="#FFFFFF" stroke="#8E5E32" stroke-miterlimit="10" cx="200.119" cy="1084.303" r="2.469"/>
	</g>
</g>
</svg>
