<?xml version="1.0" encoding="utf-8"?>
<!-- Generator: Adobe Illustrator 16.0.0, SVG Export Plug-In . SVG Version: 6.00 Build 0)  -->
<!DOCTYPE svg PUBLIC "-//W3C//DTD SVG 1.1//EN" "http://www.w3.org/Graphics/SVG/1.1/DTD/svg11.dtd">
<svg version="1.1" xmlns="http://www.w3.org/2000/svg" xmlns:xlink="http://www.w3.org/1999/xlink" x="0px" y="0px"
	 width="570.438px" height="1359.413px" viewBox="0 0 570.438 1359.413" enable-background="new 0 0 570.438 1359.413"
	 xml:space="preserve">
<g id="svg-zuotuiwai">
	<g id="all_1_">
		<g id="shenti_1_">
			<path fill="#FFFFFF" stroke="#A5906A" stroke-miterlimit="10" stroke-dasharray="2" d="M428.111,688.872
				c-165.333,131.333-185.333,156.667-188.667,168s1.334,20.667,2.667,24.999c3.333,83-28.216,197.273-41.216,227.607
				c-5.333,20-19.367,29.93-31.333,47.332c-16.906,24.586-32.535,48.326-38,50.668c-3.842,6.287-20.487,12.914-30.667,19.332
				c-9.249,5.832-12.396,11.367-10.333,18.668c1,8.666,16.666,9.666,19,8.666c2,7.334,12.667,5.334,12.667,5.334
				s5.667,7.166,11,4.332c2.333,6.168,17.333,4,17.333,4s5,11.168,25.334-3.666c18.666-8.666,29-13,43.166-42.666
				c14.166-29.668,37.666-16.5,43.833-49c1.667-14.5-5.666-26-3.833-49.5s43.667-105.668,51.833-142.834
				c8.166-37.168-7.117-52.273,0.549-67.273s132.666-111.332,132.666-111.332"/>
			<path fill="#FFFFFF" stroke="#A5906A" stroke-miterlimit="10" stroke-dasharray="2" d="M428.111,688.872
				c-165.333,131.333-185.333,156.667-188.667,168s1.334,20.667,2.667,24.999c3.333,83-28.216,197.273-41.216,227.607
				c-5.333,20-19.367,29.93-31.333,47.332c-16.906,24.586-32.535,48.326-38,50.668c-3.842,6.287-20.487,12.914-30.667,19.332
				c-9.249,5.832-12.396,11.367-10.333,18.668c1,8.666,16.666,9.666,19,8.666c2,7.334,12.667,5.334,12.667,5.334
				s5.667,7.166,11,4.332c2.333,6.168,17.333,4,17.333,4s5,11.168,25.334-3.666c18.666-8.666,29-13,43.166-42.666
				c14.166-29.668,37.666-16.5,43.833-49c1.667-14.5-5.666-26-3.833-49.5s43.667-105.668,51.833-142.834
				c8.166-37.168-7.117-52.273,0.549-67.273s132.666-111.332,132.666-111.332"/>
			<path fill="#FFFFFF" stroke="#A5906A" stroke-width="0.5" stroke-miterlimit="10" stroke-dasharray="2" d="M248.063,1111.979
				c-1.5,7.5,5,24.5-5.5,34.5"/>
			<path fill="#FFFFFF" stroke="#A5906A" stroke-miterlimit="10" stroke-dasharray="2" d="M129.313,1230.479
				c0.917,6.332-14.584,15-16.75,15.666s-4.166,4.916-2.666,9.166"/>
			<path fill="#FFFFFF" stroke="#A5906A" stroke-miterlimit="10" stroke-dasharray="2" d="M140.229,1237.479
				c2.334,4.5-8,10.832-13,13.166s-6.666,5.5-4.332,9.5"/>
			<path fill="#FFFFFF" stroke="#A5906A" stroke-miterlimit="10" stroke-dasharray="2" d="M151.73,1242.645
				c0,0-2.501,9.666-10.167,11.334c-7.666,1.666-9.666,5.5-7.833,10.5"/>
			<path fill="#FFFFFF" stroke="#A5906A" stroke-miterlimit="10" stroke-dasharray="2" d="M163.897,1248.811
				c0,0-0.501,5.334-6.834,8.834s-7.833,7.334-6.166,10.5"/>
			<path fill="#FFFFFF" stroke="#A5906A" stroke-miterlimit="10" stroke-dasharray="2" d="M101.813,1245.729
				c-0.75-3.625-5.5-5.375-6.5-5.25c-0.125-2.25,7.875-5.875,9.875-6s5,2.5,5.625,3.75S103.688,1245.729,101.813,1245.729z"/>
			<path fill="#FFFFFF" stroke="#A5906A" stroke-miterlimit="10" stroke-dasharray="2" d="M118.218,1252.27
				c-0.437-2.107-3.199-3.127-3.78-3.053c-0.073-1.309,4.58-3.418,5.743-3.49s2.908,1.453,3.272,2.182
				C123.817,1248.635,119.309,1252.27,118.218,1252.27z"/>
			<path fill="#FFFFFF" stroke="#A5906A" stroke-miterlimit="10" stroke-dasharray="2" d="M130.582,1256.77
				c-0.406-1.963-2.978-2.91-3.519-2.842c-0.068-1.219,4.264-3.182,5.346-3.25c1.083-0.066,2.707,1.354,3.046,2.031
				C135.792,1253.385,131.596,1256.77,130.582,1256.77z"/>
			<path fill="#FFFFFF" stroke="#A5906A" stroke-miterlimit="10" stroke-dasharray="2" d="M142.273,1260.645
				c-0.355-1.721-2.61-2.553-3.085-2.492c-0.061-1.068,3.739-2.789,4.688-2.85c0.95-0.059,2.374,1.188,2.671,1.781
				S143.164,1260.645,142.273,1260.645z"/>
			<path fill="#FFFFFF" stroke="#A5906A" stroke-miterlimit="10" stroke-dasharray="2" d="M158.198,1265.145
				c-0.289-1.6-2.124-2.373-2.51-2.318c-0.05-0.992,3.042-2.592,3.813-2.648c0.773-0.055,1.932,1.104,2.173,1.656
				C161.917,1262.385,158.922,1265.145,158.198,1265.145z"/>
		</g>
		<g id="jingluo_1_">
			<path id="Stomach-1_1_" fill="none" stroke="#AE1E24" stroke-miterlimit="10" d="M424.896,689.813c-8.666,8-11.332,20-11.332,20
				s-48,36.666-56.668,52.666c-8.666,16-102,96-104,114.666c-2,18.668-22.667,151.334-22.667,151.334s8-10,11.333-15.334
				c-6,48.668-42,111.336-42,111.336s-52,107.998-55.333,112.666c-3.333,4.666-1.669,10.895-17.167,16.781"/>
			<path id="Gallbladder-1_1_" fill="none" stroke="#E2A62A" stroke-miterlimit="10" d="M492.896,751.145
				c-41.332-25.333-122.666,47.334-122.666,47.334l-73.333,70c0,0-32,25.334-33.333,50.666
				c-0.667,7.334-4.667,112.668-4.667,112.668l-11.333-3.334c0,0-1.334,29.334-13.334,52.002c0.667,2,2.667,7.998,4,12.666
				c-6,29.334-31.333,64-38,81.334c-6.667,17.332-27.333,72-60,85.332"/>
			<path id="Bladder-1_1_" fill="none" stroke="#C31A6E" stroke-miterlimit="10" d="M295.563,1024.479
				c-22,10.666-44.667,110-44.667,110s-7.334,34.002-0.667,43.334c-0.666,1.334-18-11.334-18-11.334s-19.334,42-20.666,48.668
				c-8.667,26.666-49.334,49.332-49.334,49.332"/>
		</g>
		<g id="xuewei_1_">
			<circle id="ST31-1" stroke="#AE1E24" stroke-miterlimit="10" cx="413.344" cy="710.227" r="2.469"/>
			<circle id="ST32-1" stroke="#AE1E24" stroke-miterlimit="10" cx="356.344" cy="763.977" r="2.469"/>
			<circle id="ST33-1" stroke="#AE1E24" stroke-miterlimit="10" cx="319.094" cy="801.977" r="2.469"/>
			<circle id="ST34-1" stroke="#AE1E24" stroke-miterlimit="10" cx="305.344" cy="815.727" r="2.469"/>
			<circle id="ST35-1" stroke="#AE1E24" stroke-miterlimit="10" cx="252.593" cy="878.227" r="2.469"/>
			<circle id="ST36-1" stroke="#AE1E24" stroke-miterlimit="10" cx="245.843" cy="926.977" r="2.469"/>
			<circle id="ST37-1" stroke="#AE1E24" stroke-miterlimit="10" cx="239.093" cy="971.227" r="2.469"/>
			<circle id="ST38-1" stroke="#AE1E24" stroke-miterlimit="10" cx="232.593" cy="1011.477" r="2.469"/>
			<circle id="ST39-1" stroke="#AE1E24" stroke-miterlimit="10" cx="230.093" cy="1028.477" r="2.469"/>
			<circle id="ST40-1" stroke="#AE1E24" stroke-miterlimit="10" cx="241.843" cy="1012.477" r="2.469"/>
			<circle id="ST41-1" stroke="#AE1E24" stroke-miterlimit="10" cx="198.843" cy="1126.229" r="2.469"/>
			<circle id="ST42-1" stroke="#AE1E24" stroke-miterlimit="10" cx="181.593" cy="1161.229" r="2.469"/>
			<circle id="ST43-1" stroke="#AE1E24" stroke-miterlimit="10" cx="163.093" cy="1199.479" r="2.469"/>
			<circle id="ST44-1" stroke="#AE1E24" stroke-miterlimit="10" cx="146.093" cy="1233.729" r="2.469"/>
			<circle id="ST45-1" stroke="#AE1E24" stroke-miterlimit="10" cx="127.593" cy="1254.479" r="2.469"/>
			<circle id="GB30-1" stroke="#E2A62A" stroke-miterlimit="10" cx="494.23" cy="752.279" r="2.469"/>
			<circle id="GB31-1" stroke="#E2A62A" stroke-miterlimit="10" cx="378.23" cy="791.612" r="2.469"/>
			<circle id="GB32-1" stroke="#E2A62A" stroke-miterlimit="10" cx="346.896" cy="820.945" r="2.469"/>
			<circle id="GB33-1" stroke="#E2A62A" stroke-miterlimit="10" cx="293.896" cy="870.945" r="2.469"/>
			<circle id="GB34-1" stroke="#E2A62A" stroke-miterlimit="10" cx="263.896" cy="916.279" r="2.469"/>
			<circle id="GB35-1" stroke="#E2A62A" stroke-miterlimit="10" cx="258.896" cy="1031.945" r="2.469"/>
			<circle id="GB36-1" stroke="#E2A62A" stroke-miterlimit="10" cx="247.563" cy="1028.279" r="2.469"/>
			<circle id="GB37-1" stroke="#E2A62A" stroke-miterlimit="10" cx="240.897" cy="1064.279" r="2.469"/>
			<circle id="GB38-1" stroke="#E2A62A" stroke-miterlimit="10" cx="233.897" cy="1080.613" r="2.469"/>
			<circle id="GB39-1" stroke="#E2A62A" stroke-miterlimit="10" cx="237.897" cy="1093.281" r="2.469"/>
			<circle id="GB40-1" stroke="#E2A62A" stroke-miterlimit="10" cx="215.23" cy="1146.281" r="2.469"/>
			<circle id="GB41-1" stroke="#E2A62A" stroke-miterlimit="10" cx="193.23" cy="1191.947" r="2.469"/>
			<circle id="GB42-1" stroke="#E2A62A" stroke-miterlimit="10" cx="185.563" cy="1208.615" r="2.469"/>
			<circle id="GB43-1" stroke="#E2A62A" stroke-miterlimit="10" cx="168.563" cy="1235.947" r="2.469"/>
			<circle id="GB44-1" stroke="#E2A62A" stroke-miterlimit="10" cx="140.897" cy="1259.947" r="2.469"/>
			<circle id="EX-LE1-1" fill="#FFFFFF" stroke="#8E5E32" stroke-miterlimit="10" cx="318.896" cy="822.01" r="2.469"/>
			<circle id="EX-LE6-1" fill="#FFFFFF" stroke="#8E5E32" stroke-miterlimit="10" cx="262.426" cy="951.145" r="2.469"/>
			<circle id="EX-LE7-1" fill="#FFFFFF" stroke="#8E5E32" stroke-miterlimit="10" cx="241.563" cy="956.279" r="2.469"/>
			<circle id="EX-LE9-1" fill="#FFFFFF" stroke="#8E5E32" stroke-miterlimit="10" cx="242.896" cy="1131.342" r="2.469"/>
			<circle id="BL58-1" stroke="#C31A6E" stroke-miterlimit="10" cx="281.563" cy="1042.008" r="2.469"/>
			<circle id="BL59-1" stroke="#C31A6E" stroke-miterlimit="10" cx="261.563" cy="1095.51" r="2.469"/>
			<circle id="BL60-1" stroke="#C31A6E" stroke-miterlimit="10" cx="249.563" cy="1140.947" r="2.469"/>
			<circle id="BL61-1" stroke="#C31A6E" stroke-miterlimit="10" cx="249.563" cy="1177.51" r="2.469"/>
			<circle id="BL62-1" stroke="#C31A6E" stroke-miterlimit="10" cx="232.563" cy="1167.01" r="2.469"/>
			<circle id="BL63-1" stroke="#C31A6E" stroke-miterlimit="10" cx="220.063" cy="1193.01" r="2.469"/>
			<circle id="BL64-1" stroke="#C31A6E" stroke-miterlimit="10" cx="210.563" cy="1218.01" r="2.469"/>
			<circle id="BL65-1" stroke="#C31A6E" stroke-miterlimit="10" cx="193.094" cy="1241.479" r="2.469"/>
			<circle id="BL66-1" stroke="#C31A6E" stroke-miterlimit="10" cx="178.063" cy="1253.51" r="2.469"/>
			<circle id="BL67-1" stroke="#C31A6E" stroke-miterlimit="10" cx="163.063" cy="1263.51" r="2.469"/>
		</g>
	</g>
</g>
<g id="svg-youtuiwai">
	<g id="all_2_">
		<g id="shenti_3_">
			<path fill="#FFFFFF" stroke="#A5906A" stroke-miterlimit="10" stroke-dasharray="2" d="M143.485,55.904
				c165.334,131.333,185.334,156.667,188.667,168s-1.334,20.667-2.667,25c-3.333,83,28.216,197.272,41.216,227.606
				c5.333,20,19.367,29.93,31.333,47.332c16.906,24.586,32.534,48.326,38,50.668c3.842,6.287,20.487,12.914,30.667,19.332
				c9.249,5.832,12.396,11.367,10.333,18.668c-1,8.666-16.667,9.666-19,8.666c-2,7.334-12.667,5.334-12.667,5.334
				s-5.667,7.166-11,4.332c-2.333,6.168-17.333,4-17.333,4s-5,11.168-25.334-3.666c-18.666-8.666-29-13-43.166-42.666
				c-14.166-29.668-37.666-16.5-43.833-49c-1.667-14.5,5.666-26,3.833-49.5S268.866,384.343,260.7,347.176
				s7.117-52.272-0.549-67.272S127.485,168.571,127.485,168.571"/>
			<path fill="#FFFFFF" stroke="#A5906A" stroke-miterlimit="10" stroke-dasharray="2" d="M143.485,55.904
				c165.334,131.333,185.334,156.667,188.667,168s-1.334,20.667-2.667,25c-3.333,83,28.216,197.272,41.216,227.606
				c5.333,20,19.367,29.93,31.333,47.332c16.906,24.586,32.534,48.326,38,50.668c3.842,6.287,20.487,12.914,30.667,19.332
				c9.249,5.832,12.396,11.367,10.333,18.668c-1,8.666-16.667,9.666-19,8.666c-2,7.334-12.667,5.334-12.667,5.334
				s-5.667,7.166-11,4.332c-2.333,6.168-17.333,4-17.333,4s-5,11.168-25.334-3.666c-18.666-8.666-29-13-43.166-42.666
				c-14.166-29.668-37.666-16.5-43.833-49c-1.667-14.5,5.666-26,3.833-49.5S268.866,384.343,260.7,347.176
				s7.117-52.272-0.549-67.272S127.485,168.571,127.485,168.571"/>
			<path fill="#FFFFFF" stroke="#A5906A" stroke-width="0.5" stroke-miterlimit="10" stroke-dasharray="2" d="M323.534,479.01
				c1.5,7.5-5,24.5,5.5,34.5"/>
			<path fill="#FFFFFF" stroke="#A5906A" stroke-miterlimit="10" stroke-dasharray="2" d="M442.284,597.51
				c-0.917,6.332,14.583,15,16.75,15.666c2.166,0.666,4.166,4.916,2.666,9.166"/>
			<path fill="#FFFFFF" stroke="#A5906A" stroke-miterlimit="10" stroke-dasharray="2" d="M431.367,604.51
				c-2.333,4.5,8,10.832,13,13.166s6.666,5.5,4.333,9.5"/>
			<path fill="#FFFFFF" stroke="#A5906A" stroke-miterlimit="10" stroke-dasharray="2" d="M419.867,609.676
				c0,0,2.501,9.666,10.167,11.334c7.666,1.666,9.666,5.5,7.833,10.5"/>
			<path fill="#FFFFFF" stroke="#A5906A" stroke-miterlimit="10" stroke-dasharray="2" d="M407.7,615.842
				c0,0,0.501,5.334,6.834,8.834s7.833,7.334,6.166,10.5"/>
			<path fill="#FFFFFF" stroke="#A5906A" stroke-miterlimit="10" stroke-dasharray="2" d="M469.784,612.76
				c0.75-3.625,5.5-5.375,6.5-5.25c0.125-2.25-7.875-5.875-9.875-6s-5,2.5-5.625,3.75S467.909,612.76,469.784,612.76z"/>
			<path fill="#FFFFFF" stroke="#A5906A" stroke-miterlimit="10" stroke-dasharray="2" d="M453.379,619.301
				c0.437-2.107,3.199-3.127,3.78-3.053c0.073-1.309-4.58-3.418-5.743-3.49s-2.908,1.453-3.272,2.182
				C447.78,615.666,452.288,619.301,453.379,619.301z"/>
			<path fill="#FFFFFF" stroke="#A5906A" stroke-miterlimit="10" stroke-dasharray="2" d="M441.016,623.801
				c0.406-1.963,2.978-2.91,3.519-2.842c0.068-1.219-4.264-3.182-5.346-3.25c-1.083-0.066-2.707,1.354-3.046,2.031
				C435.805,620.416,440,623.801,441.016,623.801z"/>
			<path fill="#FFFFFF" stroke="#A5906A" stroke-miterlimit="10" stroke-dasharray="2" d="M429.324,627.676
				c0.355-1.721,2.61-2.553,3.085-2.492c0.06-1.068-3.739-2.789-4.688-2.85c-0.95-0.059-2.374,1.188-2.671,1.781
				S428.434,627.676,429.324,627.676z"/>
			<path fill="#FFFFFF" stroke="#A5906A" stroke-miterlimit="10" stroke-dasharray="2" d="M413.399,632.176
				c0.289-1.6,2.124-2.373,2.51-2.318c0.05-0.992-3.042-2.592-3.813-2.648c-0.773-0.055-1.932,1.104-2.173,1.656
				C409.681,629.416,412.675,632.176,413.399,632.176z"/>
		</g>
		<g id="jingluo_3_">
			<path id="Stomach-2_1_" fill="none" stroke="#AE1E24" stroke-miterlimit="10" d="M146.7,56.844c8.667,8,11.333,20,11.333,20
				s48,36.667,56.667,52.667s102,96,104,114.667s22.667,151.334,22.667,151.334s-8-10.001-11.334-15.334
				c6,48.667,42,111.334,42,111.334s52.001,107.998,55.334,112.666c3.333,4.666,1.668,10.895,17.167,16.781"/>
			<path id="Gallbladder-2_1_" fill="none" stroke="#E2A62A" stroke-miterlimit="10" d="M78.7,118.177
				c41.333-25.333,122.667,47.333,122.667,47.333l73.333,70c0,0,32,25.333,33.333,50.667c0.667,7.334,4.667,112.667,4.667,112.667
				l11.333-3.333c0,0,1.334,29.333,13.334,52c-0.667,2-2.667,7.998-4,12.666c6,29.334,31.333,64,38,81.334
				c6.666,17.332,27.333,72,60,85.332"/>
			<path id="Bladder-2_1_" fill="none" stroke="#C31A6E" stroke-miterlimit="10" d="M276.034,391.51
				c22,10.667,44.667,110,44.667,110s7.334,34.002,0.667,43.334c0.666,1.334,17.999-11.334,17.999-11.334s19.334,42,20.667,48.668
				c8.667,26.666,49.333,49.332,49.333,49.332"/>
		</g>
		<g id="xuewei_3_">
			<circle id="ST31-2" stroke="#AE1E24" stroke-miterlimit="10" cx="158.254" cy="77.259" r="2.469"/>
			<circle id="ST32-2" stroke="#AE1E24" stroke-miterlimit="10" cx="215.254" cy="131.009" r="2.469"/>
			<circle id="ST33-2" stroke="#AE1E24" stroke-miterlimit="10" cx="252.504" cy="169.009" r="2.469"/>
			<circle id="ST34-2" stroke="#AE1E24" stroke-miterlimit="10" cx="266.254" cy="182.759" r="2.469"/>
			<circle id="ST35-2" stroke="#AE1E24" stroke-miterlimit="10" cx="319.004" cy="245.259" r="2.469"/>
			<circle id="ST36-2" stroke="#AE1E24" stroke-miterlimit="10" cx="325.754" cy="294.009" r="2.469"/>
			<circle id="ST37-2" stroke="#AE1E24" stroke-miterlimit="10" cx="332.504" cy="338.259" r="2.469"/>
			<circle id="ST38-2" stroke="#AE1E24" stroke-miterlimit="10" cx="339.004" cy="378.509" r="2.469"/>
			<circle id="ST39-2" stroke="#AE1E24" stroke-miterlimit="10" cx="341.504" cy="395.509" r="2.469"/>
			<circle id="ST40-2" stroke="#AE1E24" stroke-miterlimit="10" cx="329.754" cy="379.509" r="2.469"/>
			<circle id="ST41-2" stroke="#AE1E24" stroke-miterlimit="10" cx="372.754" cy="493.26" r="2.469"/>
			<circle id="ST42-2" stroke="#AE1E24" stroke-miterlimit="10" cx="390.004" cy="528.26" r="2.469"/>
			<circle id="ST43-2" stroke="#AE1E24" stroke-miterlimit="10" cx="408.504" cy="566.51" r="2.469"/>
			<circle id="ST44-2" stroke="#AE1E24" stroke-miterlimit="10" cx="425.504" cy="600.76" r="2.469"/>
			<circle id="ST45-2" stroke="#AE1E24" stroke-miterlimit="10" cx="444.004" cy="621.51" r="2.469"/>
			<circle id="GB30-2" stroke="#E2A62A" stroke-miterlimit="10" cx="77.367" cy="119.311" r="2.469"/>
			<circle id="GB31-2" stroke="#E2A62A" stroke-miterlimit="10" cx="193.367" cy="158.645" r="2.469"/>
			<circle id="GB32-2" stroke="#E2A62A" stroke-miterlimit="10" cx="224.701" cy="187.978" r="2.469"/>
			<circle id="GB33-2" stroke="#E2A62A" stroke-miterlimit="10" cx="277.701" cy="237.978" r="2.469"/>
			<circle id="GB34-2" stroke="#E2A62A" stroke-miterlimit="10" cx="307.701" cy="283.311" r="2.469"/>
			<circle id="GB35-2" stroke="#E2A62A" stroke-miterlimit="10" cx="312.701" cy="398.978" r="2.469"/>
			<circle id="GB36-2" stroke="#E2A62A" stroke-miterlimit="10" cx="324.034" cy="395.311" r="2.469"/>
			<circle id="GB37-2" stroke="#E2A62A" stroke-miterlimit="10" cx="330.7" cy="431.311" r="2.469"/>
			<circle id="GB38-2" stroke="#E2A62A" stroke-miterlimit="10" cx="337.7" cy="447.645" r="2.469"/>
			<circle id="GB39-2" stroke="#E2A62A" stroke-miterlimit="10" cx="333.7" cy="460.313" r="2.469"/>
			<circle id="GB40-2" stroke="#E2A62A" stroke-miterlimit="10" cx="356.367" cy="513.313" r="2.469"/>
			<circle id="GB41-2" stroke="#E2A62A" stroke-miterlimit="10" cx="378.367" cy="558.979" r="2.469"/>
			<circle id="GB42-2" stroke="#E2A62A" stroke-miterlimit="10" cx="386.033" cy="575.646" r="2.469"/>
			<circle id="GB43-2" stroke="#E2A62A" stroke-miterlimit="10" cx="403.033" cy="602.979" r="2.469"/>
			<circle id="GB44-2" stroke="#E2A62A" stroke-miterlimit="10" cx="430.7" cy="626.979" r="2.469"/>
			<circle id="EX-LE1-4" fill="#FFFFFF" stroke="#8E5E32" stroke-miterlimit="10" cx="252.701" cy="189.042" r="2.469"/>
			<circle id="EX-LE6-2" fill="#FFFFFF" stroke="#8E5E32" stroke-miterlimit="10" cx="309.171" cy="318.177" r="2.469"/>
			<circle id="EX-LE7-2" fill="#FFFFFF" stroke="#8E5E32" stroke-miterlimit="10" cx="330.034" cy="323.312" r="2.469"/>
			<circle id="EX-LE9-2" fill="#FFFFFF" stroke="#8E5E32" stroke-miterlimit="10" cx="328.701" cy="498.373" r="2.469"/>
			<circle id="BL58-2" stroke="#C31A6E" stroke-miterlimit="10" cx="290.034" cy="409.041" r="2.469"/>
			<circle id="BL59-2" stroke="#C31A6E" stroke-miterlimit="10" cx="310.034" cy="462.541" r="2.469"/>
			<circle id="BL60-2" stroke="#C31A6E" stroke-miterlimit="10" cx="322.034" cy="507.979" r="2.469"/>
			<circle id="BL61-2" stroke="#C31A6E" stroke-miterlimit="10" cx="322.034" cy="544.541" r="2.469"/>
			<circle id="BL62-2" stroke="#C31A6E" stroke-miterlimit="10" cx="339.034" cy="534.041" r="2.469"/>
			<circle id="BL63-2" stroke="#C31A6E" stroke-miterlimit="10" cx="351.534" cy="560.041" r="2.469"/>
			<circle id="BL64-2" stroke="#C31A6E" stroke-miterlimit="10" cx="361.034" cy="585.041" r="2.469"/>
			<circle id="BL65-2" stroke="#C31A6E" stroke-miterlimit="10" cx="378.503" cy="608.51" r="2.469"/>
			<circle id="BL66-2" stroke="#C31A6E" stroke-miterlimit="10" cx="393.534" cy="620.541" r="2.469"/>
			<circle id="BL67-2" stroke="#C31A6E" stroke-miterlimit="10" cx="408.534" cy="630.541" r="2.469"/>
		</g>
	</g>
</g>
</svg>
