<?xml version="1.0" encoding="utf-8"?>
<!-- Generator: Adobe Illustrator 16.0.0, SVG Export Plug-In . SVG Version: 6.00 Build 0)  -->
<!DOCTYPE svg PUBLIC "-//W3C//DTD SVG 1.1//EN" "http://www.w3.org/Graphics/SVG/1.1/DTD/svg11.dtd">
<svg version="1.1" id="svg" xmlns="http://www.w3.org/2000/svg" xmlns:xlink="http://www.w3.org/1999/xlink" x="0px" y="0px"
	 width="200px" height="200px" viewBox="0 0 830 497" enable-background="new 0 0 830 497" xml:space="preserve">
<g id="svg-zuoshoubei">
	<g id="all_1_">
		<g id="shenti">
			<path fill="#FDF2DD" stroke="#AE9970" stroke-miterlimit="10" d="M100.255,147.395c-2.689-6.204-34.12-49.629-23.574-56.453
				c10.546-6.824,28.537,49.01,41.564,44.667c9.926-1.86-18.611-70.722-3.103-73.203c15.511-2.481,16.751,66.999,24.815,66.999
				c11.787-0.62-5.894-80.027,9.926-79.406c15.819,0.62,5.583,76.306,13.027,75.685c10.753-0.621,4.343-65.139,18.611-63.897
				c14.269,1.241-3.723,78.787,9.306,91.194c6.823,1.24,12.854-4.963,17.991-11.166c-0.621-9.926,14.888-28.537,30.397-16.75
				c3.722,4.963-10.841,20.867-13.441,24.397c-0.716,0.973-10.438,9.092-11.82,13.443c-10.514,25.021-29.331,38.463-32.433,50.25
				s-0.412,57.488,0.62,69.48c1.033,11.992,14.232,43.127,17.99,69.479c15.508,2.273,54.593-29.362,91.195-39.703
				c36.601-10.34,80.025-15.509,80.025-15.509s32.674,77.961,14.89,94.296c-157.16,55.625-229.537,46.526-239.049,41.148
				c-9.512-5.375-18.195-47.558-19.644-75.271c-1.449-27.71,3.103-107.528-1.24-119.729c-4.344-12.201-1.861-14.681-1.241-23.572
				c0.62-8.896-12.614-21.508-15.097-30.814C107.487,173.655,102.944,153.6,100.255,147.395z"/>
			<g id="图层_7">
				
			</g>
			<path fill="none" stroke="#AE9970" stroke-miterlimit="10" d="M147.713,62.715c0,0,3.412,2.637,5.893-0.31
				c1.045,0.829,0.311-10.546-3.411-9.926C146.472,53.1,147.713,62.715,147.713,62.715z"/>
			<path fill="none" stroke="#AE9970" stroke-miterlimit="10" d="M177.955,74.348c0,0-0.775-7.91,3.257-8.065
				c4.033-0.155,3.412,6.979,2.637,8.53C179.972,76.674,177.955,74.348,177.955,74.348z"/>
			<path fill="none" stroke="#AE9970" stroke-miterlimit="10" d="M114.833,76.828c0,0,4.188,2.326,6.514-1.24
				c-0.931-4.031-1.861-9.771-5.738-8.685C111.731,67.988,114.833,76.828,114.833,76.828z"/>
			<path fill="none" stroke="#AE9970" stroke-miterlimit="10" d="M79.317,94.818c-3.102,2.793,2.326,10.082,2.326,10.082
				s4.343-0.466,5.273-3.257C86.297,99.316,82.419,92.027,79.317,94.818z"/>
			<path fill="none" stroke="#AE9970" stroke-miterlimit="10" d="M231.152,127.389c2.326-0.621,5.428,2.637,5.428,2.637
				s-4.497,10.08-8.53,7.289C224.018,134.522,228.826,128.01,231.152,127.389z"/>
			<path fill="none" stroke="#AE9970" stroke-miterlimit="10" d="M178.266,83.498c0,0,2.481,1.24,5.429,0"/>
			<path fill="none" stroke="#AE9970" stroke-miterlimit="10" d="M177.18,96.061c0,0,2.481,1.705,4.653,0.153"/>
			<path fill="none" stroke="#AE9970" stroke-miterlimit="10" d="M177.18,99.162c0,0,2.171,0.93,4.343,0.154"/>
			<path fill="none" stroke="#AE9970" stroke-miterlimit="10" d="M148.799,72.486c0,0,3.257,1.24,5.117-0.312"/>
			<path fill="none" stroke="#AE9970" stroke-miterlimit="10" d="M148.799,75.123c0,0,2.946,1.551,4.962-0.156"/>
			<path fill="none" stroke="#AE9970" stroke-miterlimit="10" d="M148.799,92.493c0,0,2.637,0.62,4.962-0.155"/>
			<path fill="none" stroke="#AE9970" stroke-miterlimit="10" d="M148.644,95.439c0,0,3.412,1.24,5.428-0.465"/>
			<path fill="none" stroke="#AE9970" stroke-miterlimit="10" d="M119.796,91.098c0,0,2.947,0.465,4.343-1.086"/>
			<path fill="none" stroke="#AE9970" stroke-miterlimit="10" d="M120.416,93.733c0,0,3.412,0.466,4.343-1.396"/>
			<path fill="none" stroke="#AE9970" stroke-miterlimit="10" d="M122.743,106.605c0,0,3.722-0.154,4.343-1.396"/>
			<path fill="none" stroke="#AE9970" stroke-miterlimit="10" d="M123.053,109.398c0,0,3.567,0.774,4.498-1.086"/>
			<path fill="none" stroke="#AE9970" stroke-miterlimit="10" d="M85.676,109.398c0,0,2.482-0.775,3.258-2.482"/>
			<path fill="none" stroke="#AE9970" stroke-miterlimit="10" d="M92.19,121.34c0,0,3.566-0.465,4.187-2.791"/>
			<path fill="none" stroke="#AE9970" stroke-miterlimit="10" d="M93.74,123.977c0,0,4.343-1.086,3.878-2.947"/>
			<path fill="none" stroke="#AE9970" stroke-miterlimit="10" d="M178.575,132.816c0,0,1.552,4.343-2.326,3.877"/>
			<path fill="none" stroke="#AE9970" stroke-miterlimit="10" d="M154.536,132.041c0,0,2.017,4.032-2.791,3.257"/>
			<path fill="none" stroke="#AE9970" stroke-miterlimit="10" d="M133.289,135.453c0,0,3.877,2.637,0,5.895"/>
			<path fill="none" stroke="#AE9970" stroke-miterlimit="10" d="M113.127,141.347c0,0,3.567,3.566-0.62,4.963"/>
			<path fill="none" stroke="#AE9970" stroke-miterlimit="10" d="M219.83,143.983c0,0,5.429-1.706,6.204,3.877"/>
			<path fill="none" stroke="#AE9970" stroke-miterlimit="10" d="M218.744,146.154c0,0,5.584,0.621,5.273,4.809"/>
			<path fill="none" stroke="#AE9970" stroke-miterlimit="10" d="M154.691,148.637c0,0,0.155,55.212-0.311,58.004"/>
			<line fill="none" stroke="#AE9970" stroke-miterlimit="10" x1="135.46" y1="151.893" x2="145.387" y2="199.352"/>
		</g>
		<g id="jingluo" display="none">
			<path id="LargeIntestine-1" fill="none" stroke="#B81C24" stroke-miterlimit="10" stroke-dasharray="5,5" d="M186.167,76.166
				l-2.833,55.5c0,0,5.5,34.667,6,42.667s-10.667,37.333-10.667,37.333L174,245.667l3.333,24c0,0,14.167,96.166,14.667,102.666
				c17.5,0.5,52-18.666,106-12c49.334,5.333,55.667-34.332,90-16.332"/>
			<path id="Lung-1" fill="none" stroke="#89BA28" stroke-miterlimit="10" stroke-dasharray="5,5" d="M216.697,347.703
				c0,0,53.303-24.703,76.636-24.703c12.5-0.038,92.557,15.146,109.334,1.333c-0.833-1.058-6.667-15.334-6.667-15.334"/>
			<g id="TripleEnergizer-1">
				<path id="TripleEnergizer" fill="none" stroke="#EBAB22" stroke-miterlimit="10" stroke-dasharray="5,5" d="M112.292,78.835
					c0,0,16.708,56.166,8.708,60.833c9,19,32,71.333,32,71.333l0.667,38.666l-8.5,1.5c0,0,7,6,10.5,12.5
					c8.5,27-10.667,162.002-6.667,164.667c4,2.666,26-4.5,34-2s101.334-4,101.334-4"/>
				<path id="TripleEnergizer" fill="none" stroke="#EBAB22" stroke-miterlimit="10" stroke-dasharray="5,5" d="M320.334,412.334
					c7.333-0.667,31.666-24.5,38.666-24"/>
			</g>
			<path id="SmallIntestine-1" fill="none" stroke="#D31176" stroke-miterlimit="10" stroke-dasharray="5,5" d="M77.167,103.666
				c0,0,21.5,39.334,26.166,46.667s6,38.666,24,57.333c11.333,18-2.667,145.999,2,161.333"/>
		</g>
		<g id="xuewei_2">
			<circle id="LI1-1" stroke="#B81C24" stroke-miterlimit="10" cx="186.03" cy="77" r="2.469"/>
			<circle id="LI2-1" stroke="#B81C24" stroke-miterlimit="10" cx="183.53" cy="127" r="2.469"/>
			<circle id="LI3-1" stroke="#B81C24" stroke-miterlimit="10" cx="186" cy="150.031" r="2.469"/>
			<circle id="LI4-1" stroke="#B81C24" stroke-miterlimit="10" cx="189.5" cy="177.969" r="2.469"/>
			<circle id="LI5-1" stroke="#B81C24" stroke-miterlimit="10" cx="178.5" cy="213.969" r="2.469"/>
			<circle id="LI6-1" stroke="#B81C24" stroke-miterlimit="10" cx="173.97" cy="245" r="2.469"/>
			<circle id="LI7-1" stroke="#B81C24" stroke-miterlimit="10" cx="178.5" cy="278.531" r="2.469"/>
			<circle id="LI8-1" stroke="#B81C24" stroke-miterlimit="10" cx="183" cy="309.031" r="2.469"/>
			<circle id="LI9-1" stroke="#B81C24" stroke-miterlimit="10" cx="184.25" cy="319.031" r="2.469"/>
			<circle id="LI10-1" stroke="#B81C24" stroke-miterlimit="10" cx="186.47" cy="330" r="2.469"/>
			<circle id="LI11-1" stroke="#B81C24" stroke-miterlimit="10" cx="190" cy="357.531" r="2.469"/>
			<circle id="LI12-1" stroke="#B81C24" stroke-miterlimit="10" cx="192.47" cy="372.5" r="2.469"/>
			<circle id="LI13-1" stroke="#B81C24" stroke-miterlimit="10" cx="239.5" cy="362.281" r="2.469"/>
			<circle id="LI14-1" stroke="#B81C24" stroke-miterlimit="10" cx="320.75" cy="358.781" r="2.469"/>
			<circle id="LI15-1" stroke="#B81C24" stroke-miterlimit="10" cx="387.97" cy="344" r="2.469"/>
			<circle id="LU4-1" stroke="#89BA28" stroke-miterlimit="10" cx="273.25" cy="326.781" r="2.469"/>
			<circle id="LU3-1" stroke="#89BA28" stroke-miterlimit="10" cx="292" cy="322.531" r="2.469"/>
			<circle id="LU2-1" stroke="#89BA28" stroke-miterlimit="10" cx="402.363" cy="324.5" r="2.469"/>
			<circle id="LU1-1" stroke="#89BA28" stroke-miterlimit="10" cx="396.666" cy="311.364" r="2.469"/>
			<circle id="TE1-1" stroke="#EBAB22" stroke-miterlimit="10" cx="112" cy="78.531" r="2.469"/>
			<circle id="TE2-1" stroke="#EBAB22" stroke-miterlimit="10" cx="120.5" cy="140.531" r="2.469"/>
			<circle id="TE3-1" stroke="#EBAB22" stroke-miterlimit="10" cx="126.03" cy="151.5" r="2.469"/>
			<circle id="TE4-1" stroke="#EBAB22" stroke-miterlimit="10" cx="152.5" cy="210.281" r="2.469"/>
			<circle id="TE5-1" stroke="#EBAB22" stroke-miterlimit="10" cx="153" cy="235.781" r="2.469"/>
			<circle id="TE6-1" stroke="#EBAB22" stroke-miterlimit="10" cx="153.53" cy="250" r="2.469"/>
			<circle id="TE7-1" stroke="#EBAB22" stroke-miterlimit="10" cx="145.5" cy="251.031" r="2.469"/>
			<circle id="TE8-1" stroke="#EBAB22" stroke-miterlimit="10" cx="155.5" cy="262.969" r="2.469"/>
			<circle id="TE9-1" stroke="#EBAB22" stroke-miterlimit="10" cx="155.5" cy="336.531" r="2.469"/>
			<circle id="TE10-1" stroke="#EBAB22" stroke-miterlimit="10" cx="164.5" cy="427.281" r="2.469"/>
			<circle id="TE11-1" stroke="#EBAB22" stroke-miterlimit="10" cx="177.53" cy="426" r="2.469"/>
			<circle id="TE12-1" stroke="#EBAB22" stroke-miterlimit="10" cx="234" cy="426.031" r="2.469"/>
			<circle id="TE13-1" stroke="#EBAB22" stroke-miterlimit="10" cx="301.03" cy="416.5" r="2.469"/>
			<circle id="TE14-1" stroke="#EBAB22" stroke-miterlimit="10" cx="359" cy="388.781" r="2.469"/>
			<circle id="SI1-1" stroke="#D31176" stroke-miterlimit="10" cx="78.5" cy="104.782" r="2.469"/>
			<circle id="SI2-1" stroke="#D31176" stroke-miterlimit="10" cx="102.167" cy="147.782" r="2.469"/>
			<circle id="SI3-1" stroke="#D31176" stroke-miterlimit="10" cx="107.53" cy="166" r="2.469"/>
			<circle id="SI4-1" stroke="#D31176" stroke-miterlimit="10" cx="114.03" cy="186" r="2.469"/>
			<circle id="SI5-1" stroke="#D31176" stroke-miterlimit="10" cx="125.5" cy="203.616" r="2.469"/>
			<circle id="SI6-1" stroke="#D31176" stroke-miterlimit="10" cx="131.03" cy="225.5" r="2.469"/>
			<circle id="SI7-1" stroke="#D31176" stroke-miterlimit="10" cx="130" cy="316.969" r="2.469"/>
			<circle id="HT9-1" stroke="#1B96D4" stroke-miterlimit="10" cx="88.666" cy="99.866" r="2.469"/>
			
				<circle id="EX-UE6-1" fill="#FFFFFF" stroke="#956134" stroke-width="0.75" stroke-miterlimit="10" cx="96" cy="123.5" r="1.891"/>
			
				<circle id="EX-UE9-4" fill="#FFFFFF" stroke="#956134" stroke-width="0.75" stroke-miterlimit="10" cx="118.224" cy="135.333" r="1.891"/>
			
				<circle id="EX-UE9-3" fill="#FFFFFF" stroke="#956134" stroke-width="0.75" stroke-miterlimit="10" cx="140.333" cy="129.332" r="1.891"/>
			
				<circle id="EX-UE4-1" fill="#FFFFFF" stroke="#956134" stroke-width="0.75" stroke-miterlimit="10" cx="152" cy="97.667" r="1.891"/>
			
				<circle id="EX-UE9-2" fill="#FFFFFF" stroke="#956134" stroke-width="0.75" stroke-miterlimit="10" cx="163.667" cy="125.999" r="1.891"/>
			
				<circle id="EX-UE8-1" fill="#FFFFFF" stroke="#956134" stroke-width="0.75" stroke-miterlimit="10" cx="164" cy="136.999" r="1.891"/>
			
				<circle id="EX-UE7-1" fill="#FFFFFF" stroke="#956134" stroke-width="0.75" stroke-miterlimit="10" cx="164.333" cy="146.999" r="1.891"/>
			
				<circle id="EX-UE7-2" fill="#FFFFFF" stroke="#956134" stroke-width="0.75" stroke-miterlimit="10" cx="135.667" cy="151.999" r="1.891"/>
			
				<circle id="EX-UE8-1" fill="#FFFFFF" stroke="#956134" stroke-width="0.75" stroke-miterlimit="10" cx="191.333" cy="153.332" r="1.891"/>
			
				<circle id="EX-UE5-1" fill="#FFFFFF" stroke="#956134" stroke-width="0.75" stroke-miterlimit="10" cx="220" cy="149.333" r="1.891"/>
		</g>
	</g>
</g>
<g id="svg-youshoubei">
	<g id="all_3_">
		<g id="shenti_3_">
			<path fill="#FDF2DD" stroke="#AE9970" stroke-miterlimit="10" d="M727.294,147.484c2.689-6.204,34.12-49.629,23.573-56.453
				c-10.546-6.824-28.536,49.01-41.563,44.667c-9.926-1.86,18.611-70.722,3.104-73.203c-15.511-2.48-16.751,66.999-24.815,66.999
				c-11.787-0.62,5.895-80.027-9.926-79.406c-15.819,0.62-5.583,76.306-13.027,75.685c-10.753-0.621-4.343-65.139-18.61-63.897
				c-14.269,1.241,3.723,78.787-9.307,91.194c-6.822,1.24-12.854-4.963-17.99-11.166c0.62-9.926-14.889-28.537-30.397-16.75
				c-3.722,4.963,10.841,20.867,13.441,24.397c0.716,0.973,10.438,9.092,11.819,13.443c10.515,25.021,29.331,38.463,32.434,50.25
				c3.102,11.787,0.412,57.488-0.62,69.48c-1.033,11.992-14.232,43.127-17.99,69.479c-15.508,2.273-54.593-29.362-91.195-39.703
				c-36.601-10.34-80.025-15.509-80.025-15.509s-32.673,77.961-14.89,94.296c157.16,55.625,229.537,46.526,239.05,41.148
				c9.512-5.375,18.194-47.558,19.644-75.271c1.449-27.71-3.104-107.527,1.24-119.729c4.344-12.201,1.86-14.681,1.241-23.572
				c-0.62-8.895,12.613-21.508,15.097-30.814C720.062,173.744,724.604,153.689,727.294,147.484z"/>
			
			<path fill="none" stroke="#AE9970" stroke-miterlimit="10" d="M679.836,62.805c0,0-3.412,2.637-5.893-0.311
				c-1.045,0.829-0.312-10.546,3.411-9.926S679.836,62.805,679.836,62.805z"/>
			<path fill="none" stroke="#AE9970" stroke-miterlimit="10" d="M649.594,74.438c0,0,0.775-7.91-3.257-8.065
				c-4.033-0.154-3.412,6.979-2.637,8.53C647.577,76.764,649.594,74.438,649.594,74.438z"/>
			<path fill="none" stroke="#AE9970" stroke-miterlimit="10" d="M712.716,76.918c0,0-4.188,2.326-6.514-1.239
				c0.931-4.032,1.861-9.771,5.738-8.687S712.716,76.918,712.716,76.918z"/>
			<path fill="none" stroke="#AE9970" stroke-miterlimit="10" d="M748.231,94.908c3.102,2.793-2.326,10.082-2.326,10.082
				s-4.344-0.466-5.273-3.257C741.252,99.406,745.13,92.117,748.231,94.908z"/>
			<path fill="none" stroke="#AE9970" stroke-miterlimit="10" d="M596.396,127.479c-2.325-0.621-5.428,2.637-5.428,2.637
				s4.497,10.08,8.53,7.289C603.531,134.612,598.723,128.099,596.396,127.479z"/>
			<path fill="none" stroke="#AE9970" stroke-miterlimit="10" d="M649.283,83.588c0,0-2.481,1.24-5.429,0"/>
			<path fill="none" stroke="#AE9970" stroke-miterlimit="10" d="M650.369,96.15c0,0-2.481,1.705-4.653,0.154"/>
			<path fill="none" stroke="#AE9970" stroke-miterlimit="10" d="M650.369,99.252c0,0-2.171,0.931-4.343,0.154"/>
			<path fill="none" stroke="#AE9970" stroke-miterlimit="10" d="M678.75,72.576c0,0-3.257,1.24-5.117-0.311"/>
			<path fill="none" stroke="#AE9970" stroke-miterlimit="10" d="M678.75,75.213c0,0-2.946,1.552-4.962-0.155"/>
			<path fill="none" stroke="#AE9970" stroke-miterlimit="10" d="M678.75,92.583c0,0-2.637,0.62-4.962-0.154"/>
			<path fill="none" stroke="#AE9970" stroke-miterlimit="10" d="M678.905,95.529c0,0-3.412,1.24-5.428-0.465"/>
			<path fill="none" stroke="#AE9970" stroke-miterlimit="10" d="M707.753,91.188c0,0-2.947,0.465-4.343-1.086"/>
			<path fill="none" stroke="#AE9970" stroke-miterlimit="10" d="M707.133,93.823c0,0-3.412,0.466-4.343-1.396"/>
			<path fill="none" stroke="#AE9970" stroke-miterlimit="10" d="M704.806,106.695c0,0-3.722-0.154-4.343-1.396"/>
			<path fill="none" stroke="#AE9970" stroke-miterlimit="10" d="M704.496,109.488c0,0-3.567,0.775-4.498-1.086"/>
			<path fill="none" stroke="#AE9970" stroke-miterlimit="10" d="M741.873,109.488c0,0-2.482-0.775-3.258-2.482"/>
			<path fill="none" stroke="#AE9970" stroke-miterlimit="10" d="M735.358,121.43c0,0-3.566-0.466-4.188-2.791"/>
			<path fill="none" stroke="#AE9970" stroke-miterlimit="10" d="M733.809,124.066c0,0-4.343-1.086-3.878-2.947"/>
			<path fill="none" stroke="#AE9970" stroke-miterlimit="10" d="M648.974,132.906c0,0-1.552,4.343,2.326,3.877"/>
			<path fill="none" stroke="#AE9970" stroke-miterlimit="10" d="M673.013,132.131c0,0-2.017,4.032,2.791,3.258"/>
			<path fill="none" stroke="#AE9970" stroke-miterlimit="10" d="M694.26,135.543c0,0-3.877,2.638,0,5.895"/>
			<path fill="none" stroke="#AE9970" stroke-miterlimit="10" d="M714.422,141.437c0,0-3.567,3.566,0.62,4.963"/>
			<path fill="none" stroke="#AE9970" stroke-miterlimit="10" d="M607.719,144.073c0,0-5.429-1.706-6.204,3.877"/>
			<path fill="none" stroke="#AE9970" stroke-miterlimit="10" d="M608.805,146.244c0,0-5.584,0.621-5.272,4.81"/>
			<path fill="none" stroke="#AE9970" stroke-miterlimit="10" d="M672.857,148.727c0,0-0.155,55.212,0.311,58.004"/>
			<line fill="none" stroke="#AE9970" stroke-miterlimit="10" x1="692.089" y1="151.982" x2="682.162" y2="199.441"/>
		</g>
		<g id="jingluo_3_" display="none">
			<path id="LargeIntestine-2_1_" fill="none" stroke="#B81C24" stroke-miterlimit="10" stroke-dasharray="5,5" d="M641.383,76.256
				l2.832,55.5c0,0-5.5,34.667-6,42.667s10.668,37.333,10.668,37.333l4.666,34.001l-3.333,24c0,0-14.167,96.166-14.667,102.666
				c-17.5,0.5-52-18.666-106-12c-49.334,5.333-55.667-34.331-90-16.332"/>
			<path id="Lung-2" fill="none" stroke="#89BA28" stroke-miterlimit="10" stroke-dasharray="5,5" d="M610.852,347.793
				c0,0-53.303-24.703-76.636-24.703c-12.5-0.037-92.557,15.146-109.334,1.333c0.833-1.058,6.667-15.334,6.667-15.334"/>
			<g id="TripleEnergizer-2_1_">
				<path id="TripleEnergizer_5_" fill="none" stroke="#EBAB22" stroke-miterlimit="10" stroke-dasharray="5,5" d="M715.257,78.925
					c0,0-16.708,56.166-8.708,60.833c-9,19-32,71.333-32,71.333l-0.667,38.666l8.5,1.5c0,0-7,6-10.5,12.5
					c-8.5,27,10.667,162.002,6.667,164.668s-26-4.5-34-2s-101.334-4-101.334-4"/>
				<path id="TripleEnergizer_4_" fill="none" stroke="#EBAB22" stroke-miterlimit="10" stroke-dasharray="5,5" d="M507.215,412.424
					c-7.333-0.667-31.666-24.5-38.666-24"/>
			</g>
			<path id="SmallIntestine-2" fill="none" stroke="#D31176" stroke-miterlimit="10" stroke-dasharray="5,5" d="M750.382,103.756
				c0,0-21.5,39.334-26.166,46.667c-4.667,7.333-6,38.666-24,57.333c-11.333,18,2.666,145.999-2,161.333"/>
		</g>
		<g id="xuewei_1">
			<circle id="LI1-2" stroke="#B81C24" stroke-miterlimit="10" cx="641.519" cy="77.09" r="2.469"/>
			<circle id="LI2-2" stroke="#B81C24" stroke-miterlimit="10" cx="644.019" cy="127.09" r="2.469"/>
			<circle id="LI3-2" stroke="#B81C24" stroke-miterlimit="10" cx="641.549" cy="150.121" r="2.469"/>
			<circle id="LI4-2" stroke="#B81C24" stroke-miterlimit="10" cx="638.049" cy="178.059" r="2.469"/>
			<circle id="LI5-2" stroke="#B81C24" stroke-miterlimit="10" cx="649.049" cy="214.059" r="2.469"/>
			<circle id="LI6-2" stroke="#B81C24" stroke-miterlimit="10" cx="653.579" cy="245.09" r="2.469"/>
			<circle id="LI7-2" stroke="#B81C24" stroke-miterlimit="10" cx="649.049" cy="278.621" r="2.469"/>
			<circle id="LI8-2" stroke="#B81C24" stroke-miterlimit="10" cx="644.549" cy="309.121" r="2.469"/>
			<circle id="LI9-2" stroke="#B81C24" stroke-miterlimit="10" cx="643.299" cy="319.121" r="2.469"/>
			<circle id="LI10-2" stroke="#B81C24" stroke-miterlimit="10" cx="641.079" cy="330.09" r="2.469"/>
			<circle id="LI11-2" stroke="#B81C24" stroke-miterlimit="10" cx="637.549" cy="357.621" r="2.469"/>
			<circle id="LI12-2" stroke="#B81C24" stroke-miterlimit="10" cx="635.079" cy="372.59" r="2.469"/>
			<circle id="LI13-2" stroke="#B81C24" stroke-miterlimit="10" cx="588.049" cy="362.371" r="2.469"/>
			<circle id="LI14-2" stroke="#B81C24" stroke-miterlimit="10" cx="506.799" cy="358.871" r="2.469"/>
			<circle id="LI15-2" stroke="#B81C24" stroke-miterlimit="10" cx="439.579" cy="344.09" r="2.469"/>
			<circle id="LU4-2" stroke="#89BA28" stroke-miterlimit="10" cx="554.299" cy="326.871" r="2.469"/>
			<circle id="LU3-2" stroke="#89BA28" stroke-miterlimit="10" cx="535.549" cy="322.621" r="2.469"/>
			<circle id="LU2-2" stroke="#89BA28" stroke-miterlimit="10" cx="425.186" cy="324.59" r="2.469"/>
			<circle id="LU1-2" stroke="#89BA28" stroke-miterlimit="10" cx="430.883" cy="311.454" r="2.469"/>
			<circle id="TE1-2" stroke="#EBAB22" stroke-miterlimit="10" cx="715.549" cy="78.621" r="2.469"/>
			<circle id="TE2-2" stroke="#EBAB22" stroke-miterlimit="10" cx="707.049" cy="140.621" r="2.469"/>
			<circle id="TE3-2" stroke="#EBAB22" stroke-miterlimit="10" cx="701.519" cy="151.59" r="2.469"/>
			<circle id="TE4-2" stroke="#EBAB22" stroke-miterlimit="10" cx="675.049" cy="210.371" r="2.469"/>
			<circle id="TE5-2" stroke="#EBAB22" stroke-miterlimit="10" cx="674.549" cy="235.871" r="2.469"/>
			<circle id="TE6-2" stroke="#EBAB22" stroke-miterlimit="10" cx="674.019" cy="250.09" r="2.469"/>
			<circle id="TE7-2" stroke="#EBAB22" stroke-miterlimit="10" cx="682.049" cy="251.121" r="2.469"/>
			<circle id="TE8-2" stroke="#EBAB22" stroke-miterlimit="10" cx="672.049" cy="263.059" r="2.469"/>
			<circle id="TE9-2" stroke="#EBAB22" stroke-miterlimit="10" cx="672.049" cy="336.621" r="2.469"/>
			<circle id="TE10-2" stroke="#EBAB22" stroke-miterlimit="10" cx="663.049" cy="427.371" r="2.469"/>
			<circle id="TE11-2" stroke="#EBAB22" stroke-miterlimit="10" cx="650.019" cy="426.09" r="2.469"/>
			<circle id="TE12-2" stroke="#EBAB22" stroke-miterlimit="10" cx="593.549" cy="426.121" r="2.469"/>
			<circle id="TE13-2" stroke="#EBAB22" stroke-miterlimit="10" cx="526.519" cy="416.59" r="2.469"/>
			<circle id="TE14-2" stroke="#EBAB22" stroke-miterlimit="10" cx="468.549" cy="388.871" r="2.469"/>
			<circle id="SI1-2" stroke="#D31176" stroke-miterlimit="10" cx="749.049" cy="104.872" r="2.469"/>
			<circle id="SI2-2" stroke="#D31176" stroke-miterlimit="10" cx="725.382" cy="147.872" r="2.469"/>
			<circle id="SI3-2" stroke="#D31176" stroke-miterlimit="10" cx="720.019" cy="166.09" r="2.469"/>
			<circle id="SI4-2" stroke="#D31176" stroke-miterlimit="10" cx="713.519" cy="186.09" r="2.469"/>
			<circle id="SI5-2" stroke="#D31176" stroke-miterlimit="10" cx="702.049" cy="203.706" r="2.469"/>
			<circle id="SI6-2" stroke="#D31176" stroke-miterlimit="10" cx="696.519" cy="225.59" r="2.469"/>
			<circle id="SI7-2" stroke="#D31176" stroke-miterlimit="10" cx="697.549" cy="317.059" r="2.469"/>
			<circle id="HT9-2" stroke="#1B96D4" stroke-miterlimit="10" cx="738.883" cy="99.956" r="2.469"/>
			
				<circle id="EX-UE6-2" fill="#FFFFFF" stroke="#956134" stroke-width="0.75" stroke-miterlimit="10" cx="731.549" cy="123.59" r="1.891"/>
			
				<circle id="EX-UE9-8" fill="#FFFFFF" stroke="#956134" stroke-width="0.75" stroke-miterlimit="10" cx="709.324" cy="135.423" r="1.891"/>
			
				<circle id="EX-UE9-7" fill="#FFFFFF" stroke="#956134" stroke-width="0.75" stroke-miterlimit="10" cx="687.215" cy="129.422" r="1.891"/>
			
				<circle id="EX-UE4-2" fill="#FFFFFF" stroke="#956134" stroke-width="0.75" stroke-miterlimit="10" cx="675.549" cy="97.757" r="1.891"/>
			
				<circle id="EX-UE9-6" fill="#FFFFFF" stroke="#956134" stroke-width="0.75" stroke-miterlimit="10" cx="663.882" cy="126.089" r="1.891"/>
			
				<circle id="EX-UE8-2_1_" fill="#FFFFFF" stroke="#956134" stroke-width="0.75" stroke-miterlimit="10" cx="663.549" cy="137.089" r="1.891"/>
			
				<circle id="EX-UE7-3" fill="#FFFFFF" stroke="#956134" stroke-width="0.75" stroke-miterlimit="10" cx="663.215" cy="147.089" r="1.891"/>
			
				<circle id="EX-UE7-4" fill="#FFFFFF" stroke="#956134" stroke-width="0.75" stroke-miterlimit="10" cx="691.882" cy="152.089" r="1.891"/>
			
				<circle id="EX-UE9-5" fill="#FFFFFF" stroke="#956134" stroke-width="0.75" stroke-miterlimit="10" cx="636.215" cy="153.422" r="1.891"/>
			
				<circle id="EX-UE5-2" fill="#FFFFFF" stroke="#956134" stroke-width="0.75" stroke-miterlimit="10" cx="607.549" cy="149.423" r="1.891"/>
		</g>
	</g>
</g>
</svg>
