<?xml version="1.0" encoding="utf-8"?>
<!-- Generator: Adobe Illustrator 16.0.0, SVG Export Plug-In . SVG Version: 6.00 Build 0)  -->
<!DOCTYPE svg PUBLIC "-//W3C//DTD SVG 1.1//EN" "http://www.w3.org/Graphics/SVG/1.1/DTD/svg11.dtd">
<svg version="1.1" id="svg" xmlns="http://www.w3.org/2000/svg" xmlns:xlink="http://www.w3.org/1999/xlink" x="0px" y="0px"
	 width="50px" height="50px" style="width:50px;height:50px" viewBox="0 0 751 479" enable-background="new 0 0 751 479" xml:space="preserve">
<g id="svg-zuoshoubei">
	<g id="all_1_">
		<g id="shenti_1_">
			<path fill="#F9EED9" stroke="#A8936C" stroke-miterlimit="10" d="M331,405.5c0,0-183.667-5.167-201.333-19.5
				c-27.833-25.667-31-176.333-39.167-183.5c-11.5-8.5-30.5-93.167-22-94c8.5-2.167,10.5,41.166,14,40s-8.167-65.833,2-66.5
				C94,80.333,93,139,97,139.666c4,0.668-9.667-71,2.5-71.166c6.5,0.167,8.167,67.5,11,67.5s-7.5-56.333,3-57s7.167,69,12.5,70.5
				s4-33.166,23.5-30.5c4.167,2-9.5,12-11.5,46.5c-1.333,22.834-7.333,18.834-11,34.5c-2,66.333,31.333,137.333,34.5,139
				s90.167,14.333,169.5,9"/>
			
			
			
			
			
			<path fill="none" stroke="#A8936C" stroke-miterlimit="10" d="M331,405.5c0,0-183.667-5.167-201.333-19.5
				c-27.833-25.667-31-176.333-39.167-183.5c-11.5-8.5-30.5-93.167-22-94c8.5-2.167,10.5,41.166,14,40s-8.167-65.833,2-66.5
				C94,80.333,93,139,97,139.666c4,0.668-9.667-71,2.5-71.166c6.5,0.167,8.167,67.5,11,67.5s-7.5-56.333,3-57s7.167,69,12.5,70.5
				s4-33.166,23.5-30.5c4.167,2-9.5,12-11.5,46.5c-1.333,22.834-7.333,18.834-11,34.5c-2,66.333,31.333,137.333,34.5,139
				s90.167,14.333,169.5,9"/>
			<path fill="#F9D0C3" stroke="#A8936C" stroke-width="0.5" stroke-miterlimit="10" d="M111.833,90c1,1.5,4.667-0.333,4.667-0.333
				s0.5-7.667-3.167-7.5C111,82.5,110.833,88.5,111.833,90z"/>
			<path fill="#F9D0C3" stroke="#A8936C" stroke-width="0.5" stroke-miterlimit="10" d="M97,80c1,1.5,4.667-0.333,4.667-0.333
				s0.5-7.667-3.167-7.5C96.167,72.5,96,78.5,97,80z"/>
			<path fill="#F9D0C3" stroke="#A8936C" stroke-width="0.5" stroke-miterlimit="10" d="M82.833,93c1,1.5,4.667-0.333,4.667-0.333
				s0.5-7.667-3.167-7.5C82,85.5,81.833,91.5,82.833,93z"/>
			<path fill="#F9D0C3" stroke="#A8936C" stroke-width="0.5" stroke-miterlimit="10" d="M68.62,117.864
				c0.972,1.168,3.88-0.697,3.88-0.697s-0.267-6.469-3.325-6.001C67.25,111.654,67.647,116.697,68.62,117.864z"/>
			<g>
				<path fill="none" stroke="#A8936C" stroke-width="0.25" stroke-miterlimit="10" d="M85.833,116.167c0,0,2.333-1.667,4.167-0.833
					"/>
				<path fill="none" stroke="#A8936C" stroke-width="0.25" stroke-miterlimit="10" d="M85.833,117.334c0,0,3.5-1.668,4.333-0.334"
					/>
			</g>
			<g>
				<path fill="none" stroke="#A8936C" stroke-width="0.25" stroke-miterlimit="10" d="M98.833,107.833c0,0,2.333-1.667,4.167-0.833
					"/>
				<path fill="none" stroke="#A8936C" stroke-width="0.25" stroke-miterlimit="10" d="M98.833,109c0,0,3.5-1.668,4.333-0.334"/>
			</g>
			<g>
				<path fill="none" stroke="#A8936C" stroke-width="0.25" stroke-miterlimit="10" d="M139.18,137.707c0,0,2.86-0.199,3.986,1.471"
					/>
				<path fill="none" stroke="#A8936C" stroke-width="0.25" stroke-miterlimit="10" d="M138.568,138.702c0,0,3.855,0.41,3.868,1.982
					"/>
			</g>
			<g>
				<path fill="none" stroke="#A8936C" stroke-width="0.25" stroke-miterlimit="10" d="M135.289,152.998c0,0,2.734-0.86,4.219,0.499
					"/>
				<path fill="none" stroke="#A8936C" stroke-width="0.25" stroke-miterlimit="10" d="M134.927,154.108
					c0,0,3.844-0.501,4.224,1.024"/>
			</g>
			<g>
				<path fill="none" stroke="#A8936C" stroke-width="0.25" stroke-miterlimit="10" d="M113.5,112.833c0,0,2.333-1.667,4.167-0.833"
					/>
				<path fill="none" stroke="#A8936C" stroke-width="0.25" stroke-miterlimit="10" d="M113.5,114c0,0,3.5-1.668,4.333-0.334"/>
			</g>
			<g>
				<path fill="none" stroke="#A8936C" stroke-width="0.25" stroke-miterlimit="10" d="M71.5,134.834c0,0,2.333-1.667,4.167-0.834"
					/>
				<path fill="none" stroke="#A8936C" stroke-width="0.25" stroke-miterlimit="10" d="M71.5,136.001c0,0,3.5-1.668,4.333-0.334"/>
			</g>
			<g>
				<path fill="none" stroke="#A8936C" stroke-width="0.25" stroke-miterlimit="10" d="M69.5,124.834c0,0,2.333-1.667,4.167-0.834"
					/>
				<path fill="none" stroke="#A8936C" stroke-width="0.25" stroke-miterlimit="10" d="M69.5,126.001c0,0,3.5-1.668,4.333-0.334"/>
			</g>
			<g>
				<path fill="none" stroke="#A8936C" stroke-width="0.25" stroke-miterlimit="10" d="M83.834,100.834c0,0,2.333-1.667,4.167-0.834
					"/>
				<path fill="none" stroke="#A8936C" stroke-width="0.25" stroke-miterlimit="10" d="M83.834,102.001c0,0,3.5-1.668,4.333-0.334"
					/>
			</g>
			<g>
				<path fill="none" stroke="#A8936C" stroke-width="0.25" stroke-miterlimit="10" d="M97.167,89.167c0,0,2.333-1.667,4.167-0.834"
					/>
				<path fill="none" stroke="#A8936C" stroke-width="0.25" stroke-miterlimit="10" d="M97.167,90.334c0,0,3.5-1.668,4.333-0.334"/>
			</g>
			<g>
				<path fill="none" stroke="#A8936C" stroke-width="0.25" stroke-miterlimit="10" d="M112.167,96.834c0,0,2.333-1.667,4.167-0.834
					"/>
				<path fill="none" stroke="#A8936C" stroke-width="0.25" stroke-miterlimit="10" d="M112.167,98.001c0,0,3.5-1.668,4.333-0.334"
					/>
			</g>
			<path fill="none" stroke="#A8936C" stroke-width="0.25" stroke-miterlimit="10" d="M77.333,149.334c1,2-0.667,4.166,0.667,5.333
				S80.333,157,80.333,157"/>
			<path fill="none" stroke="#A8936C" stroke-width="0.25" stroke-miterlimit="10" d="M89.667,141.501c1,2-0.667,4.166,0.667,5.333
				s2.333,2.333,2.333,2.333"/>
			<path fill="none" stroke="#A8936C" stroke-width="0.25" stroke-miterlimit="10" d="M105.008,135.58
				c0.468,2.188-1.688,3.867-0.69,5.33c0.999,1.464,1.675,2.844,1.675,2.844"/>
			<path fill="none" stroke="#A8936C" stroke-width="0.25" stroke-miterlimit="10" d="M119.038,135.226
				c-0.34,2.21,1.91,3.763,0.998,5.28c-0.912,1.521-1.507,2.937-1.507,2.937"/>
			<path fill="#F9D0C3" stroke="#A8936C" stroke-width="0.5" stroke-miterlimit="10" d="M149.417,121.958
				c-2.167-1.834-7.083,3.043-7.25,5.209s3.167,3.333,3.167,3.333L149.417,121.958z"/>
		</g>
		<g id="jingluo" display="none">
			<path id="LargeIntestine-1_1_" fill="none" stroke="#B81C24" stroke-miterlimit="10" stroke-dasharray="5,5" d="M117.5,85.5l4,53
				c0,0,4,26,4.5,34s-3,30-3,30l-0.5,30L129,256c0,0,27.5,93,28,99.5c17.5,0.5,63.5,22.5,95.5,28s68.5-14,79.5-6.5s0.5,25,0.5,25"/>
			<path id="SmallIntestine-1" fill="none" stroke="#D31176" stroke-miterlimit="10" stroke-dasharray="5,5" d="M66.5,118
				c0,0,13.5,74,27,84.5c3.5,6,14,114,14,114"/>
			<path id="Lung-1" fill="none" stroke="#89BA28" stroke-miterlimit="10" stroke-dasharray="5,5" d="M174,341
				c0,0,55.5,8,67.5,11.5s82.25,29,102.25,20.5c-0.5-1.25-6.75-15.75-6.75-15.75"/>
			<g id="TripleEnergizer-1_1_">
				<path id="TripleEnergizer_6_" fill="none" stroke="#EBAB22" stroke-miterlimit="10" stroke-dasharray="5,5" d="M80.625,93.167
					c0,0,5.375,53.333,2.875,57.833c9,19,27,48.5,27,48.5l3,37L105,238c0,0,7,6,10.5,12.5c8.5,27,17,129,17,129s16.5-2.5,24.5,0
					s81.5,22.5,81.5,22.5"/>
				<path id="TripleEnergizer_5_" fill="none" stroke="#EBAB22" stroke-miterlimit="10" stroke-dasharray="5,5" d="M278.5,403.5
					c11,2,35.5-7.5,42.5-7s13.5,4,15,9.5"/>
			</g>
		</g>
		<g id="xuewei_1">
			<circle id="LI1-1" stroke="#B81C24" stroke-miterlimit="10" cx="117.782" cy="87.25" r="2.469"/>
			<circle id="LI2-1" stroke="#B81C24" stroke-miterlimit="10" cx="121" cy="134.531" r="2.469"/>
			<circle id="LI3-1" stroke="#B81C24" stroke-miterlimit="10" cx="122.5" cy="149.031" r="2.469"/>
			<circle id="LI4-1" stroke="#B81C24" stroke-miterlimit="10" cx="126" cy="171.469" r="2.469"/>
			<circle id="LI5-1" stroke="#B81C24" stroke-miterlimit="10" cx="123.5" cy="199.469" r="2.469"/>
			<circle id="LI6-1" stroke="#B81C24" stroke-miterlimit="10" cx="123.03" cy="235.5" r="2.469"/>
			<circle id="LI7-1" stroke="#B81C24" stroke-miterlimit="10" cx="130.5" cy="260.531" r="2.469"/>
			<circle id="LI8-1" stroke="#B81C24" stroke-miterlimit="10" cx="139.5" cy="292.031" r="2.469"/>
			<circle id="LI9-1" stroke="#B81C24" stroke-miterlimit="10" cx="141.75" cy="300.531" r="2.469"/>
			<circle id="LI10-1" stroke="#B81C24" stroke-miterlimit="10" cx="144.25" cy="308.531" r="2.469"/>
			<circle id="LI11-1" stroke="#B81C24" stroke-miterlimit="10" cx="155" cy="346.031" r="2.469"/>
			<circle id="LI12-1" stroke="#B81C24" stroke-miterlimit="10" cx="157.5" cy="355.781" r="2.469"/>
			<circle id="LI13-1" stroke="#B81C24" stroke-miterlimit="10" cx="191" cy="364.781" r="2.469"/>
			<circle id="LI14-1" stroke="#B81C24" stroke-miterlimit="10" cx="257.75" cy="384.281" r="2.469"/>
			<circle id="LI15-1" stroke="#B81C24" stroke-miterlimit="10" cx="332.75" cy="378.281" r="2.469"/>
			<circle id="LU4-1" stroke="#89BA28" stroke-miterlimit="10" cx="234.25" cy="350.781" r="2.469"/>
			<circle id="LU3-1" stroke="#89BA28" stroke-miterlimit="10" cx="249.25" cy="354.531" r="2.469"/>
			<circle id="LU2-1" stroke="#89BA28" stroke-miterlimit="10" cx="343.75" cy="372.781" r="2.469"/>
			<circle id="LU1-1" stroke="#89BA28" stroke-miterlimit="10" cx="337" cy="357.031" r="2.469"/>
			<circle id="TE1-1" stroke="#EBAB22" stroke-miterlimit="10" cx="80.5" cy="94.281" r="2.469"/>
			<circle id="TE2-1" stroke="#EBAB22" stroke-miterlimit="10" cx="84" cy="148.531" r="2.469"/>
			<circle id="TE3-1" stroke="#EBAB22" stroke-miterlimit="10" cx="88" cy="160.281" r="2.469"/>
			<circle id="TE4-1" stroke="#EBAB22" stroke-miterlimit="10" cx="110.5" cy="200.281" r="2.469"/>
			<circle id="TE5-1" stroke="#EBAB22" stroke-miterlimit="10" cx="112.5" cy="223.281" r="2.469"/>
			<circle id="TE6-1" stroke="#EBAB22" stroke-miterlimit="10" cx="113.5" cy="236.531" r="2.469"/>
			<circle id="TE7-1" stroke="#EBAB22" stroke-miterlimit="10" cx="105.5" cy="238.281" r="2.469"/>
			<circle id="TE8-1" stroke="#EBAB22" stroke-miterlimit="10" cx="115.25" cy="249.531" r="2.469"/>
			<circle id="TE9-1" stroke="#EBAB22" stroke-miterlimit="10" cx="123.5" cy="296.031" r="2.469"/>
			<circle id="TE10-1" stroke="#EBAB22" stroke-miterlimit="10" cx="145" cy="378.781" r="2.469"/>
			<circle id="TE11-1" stroke="#EBAB22" stroke-miterlimit="10" cx="156" cy="379.531" r="2.469"/>
			<circle id="TE12-1" stroke="#EBAB22" stroke-miterlimit="10" cx="200.25" cy="391.281" r="2.469"/>
			<circle id="TE13-1" stroke="#EBAB22" stroke-miterlimit="10" cx="257.75" cy="401.781" r="2.469"/>
			<circle id="TE14-1" stroke="#EBAB22" stroke-miterlimit="10" cx="322.5" cy="396.781" r="2.469"/>
			<circle id="SI2-1_1_" stroke="#D31176" stroke-miterlimit="10" cx="66.833" cy="118.782" r="2.469"/>
			<circle id="SI2-1" stroke="#D31176" stroke-miterlimit="10" cx="74.167" cy="152.782" r="2.469"/>
			<circle id="SI3-1" stroke="#D31176" stroke-miterlimit="10" cx="77.833" cy="167.116" r="2.469"/>
			<circle id="SI4-1" stroke="#D31176" stroke-miterlimit="10" cx="83.167" cy="184.116" r="2.469"/>
			<circle id="SI5-1" stroke="#D31176" stroke-miterlimit="10" cx="88.5" cy="195.116" r="2.469"/>
			<circle id="SI6-1" stroke="#D31176" stroke-miterlimit="10" cx="95.5" cy="208.782" r="2.469"/>
			<circle id="SI7-1" stroke="#D31176" stroke-miterlimit="10" cx="103.833" cy="279.449" r="2.469"/>
			<circle id="HT9-1" stroke="#1B96D4" stroke-miterlimit="10" cx="74.167" cy="118.115" r="2.469"/>
			
				<circle id="EX-UE5-1_7_" fill="#FFFFFF" stroke="#956134" stroke-width="0.75" stroke-miterlimit="10" cx="140.5" cy="138.5" r="1.891"/>
			
				<circle id="EX-UE8-1_1_" fill="#FFFFFF" stroke="#956134" stroke-width="0.75" stroke-miterlimit="10" cx="127" cy="148" r="1.891"/>
			
				<circle id="EX-UE4-1" fill="#FFFFFF" stroke="#956134" stroke-width="0.75" stroke-miterlimit="10" cx="101" cy="107.391" r="1.891"/>
			
				<circle id="EX-UE9-2" fill="#FFFFFF" stroke="#956134" stroke-width="0.75" stroke-miterlimit="10" cx="111" cy="136" r="1.891"/>
			
				<circle id="EX-UE8-1" fill="#FFFFFF" stroke="#956134" stroke-width="0.75" stroke-miterlimit="10" cx="112" cy="144.5" r="1.891"/>
			
				<circle id="EX-UE7-1" fill="#FFFFFF" stroke="#956134" stroke-width="0.75" stroke-miterlimit="10" cx="112.609" cy="153.5" r="1.891"/>
			
				<circle id="EX-UE9-3" fill="#FFFFFF" stroke="#956134" stroke-width="0.75" stroke-miterlimit="10" cx="97.109" cy="140" r="1.891"/>
			
				<circle id="EX-UE7-2" fill="#FFFFFF" stroke="#956134" stroke-width="0.75" stroke-miterlimit="10" cx="94.109" cy="159.5" r="1.891"/>
			
				<circle id="EX-UE6-1" fill="#FFFFFF" stroke="#956134" stroke-width="0.75" stroke-miterlimit="10" cx="73.109" cy="136" r="1.891"/>
		</g>
	</g>
</g>
<g id="svg-youshoubei">
	<g id="all">
		<g id="shenti">
			<path fill="#F9EED9" stroke="#A8936C" stroke-miterlimit="10" d="M422.03,406.469c0,0,183.666-5.167,201.333-19.5
				c27.833-25.667,31-176.333,39.167-183.5c11.5-8.5,30.5-93.167,22-94c-8.5-2.167-10.5,41.166-14,40s8.166-65.833-2-66.5
				c-9.5-1.667-8.5,57-12.5,57.666c-4,0.668,9.666-71-2.5-71.166c-6.5,0.167-8.167,67.5-11,67.5c-2.834,0,7.5-56.333-3-57
				s-7.167,69-12.5,70.5c-5.334,1.5-4-33.166-23.5-30.5c-4.167,2,9.5,12,11.5,46.5c1.333,22.834,7.333,18.834,11,34.5
				c2,66.333-31.333,137.333-34.5,139s-90.167,14.333-169.5,9"/>
			
			
			
			<path fill="none" stroke="#A8936C" stroke-miterlimit="10" d="M422.03,406.469c0,0,183.666-5.167,201.333-19.5
				c27.833-25.667,31-176.333,39.167-183.5c11.5-8.5,30.5-93.167,22-94c-8.5-2.167-10.5,41.166-14,40s8.166-65.833-2-66.5
				c-9.5-1.667-8.5,57-12.5,57.666c-4,0.668,9.666-71-2.5-71.166c-6.5,0.167-8.167,67.5-11,67.5c-2.834,0,7.5-56.333-3-57
				s-7.167,69-12.5,70.5c-5.334,1.5-4-33.166-23.5-30.5c-4.167,2,9.5,12,11.5,46.5c1.333,22.834,7.333,18.834,11,34.5
				c2,66.333-31.333,137.333-34.5,139s-90.167,14.333-169.5,9"/>
			<path fill="#F9D0C3" stroke="#A8936C" stroke-width="0.5" stroke-miterlimit="10" d="M641.196,90.969
				c-1,1.5-4.666-0.333-4.666-0.333s-0.5-7.667,3.166-7.5C642.03,83.469,642.196,89.469,641.196,90.969z"/>
			<path fill="#F9D0C3" stroke="#A8936C" stroke-width="0.5" stroke-miterlimit="10" d="M656.029,80.969
				c-1,1.5-4.666-0.333-4.666-0.333s-0.5-7.667,3.166-7.5C656.863,73.469,657.029,79.469,656.029,80.969z"/>
			<path fill="#F9D0C3" stroke="#A8936C" stroke-width="0.5" stroke-miterlimit="10" d="M670.196,93.969
				c-1,1.5-4.666-0.333-4.666-0.333s-0.5-7.667,3.166-7.5C671.03,86.469,671.196,92.469,670.196,93.969z"/>
			<path fill="#F9D0C3" stroke="#A8936C" stroke-width="0.5" stroke-miterlimit="10" d="M684.41,118.833
				c-0.972,1.168-3.88-0.696-3.88-0.696s0.267-6.47,3.323-6.001C685.78,112.623,685.383,117.666,684.41,118.833z"/>
			<g>
				<path fill="none" stroke="#A8936C" stroke-width="0.25" stroke-miterlimit="10" d="M667.196,117.136
					c0,0-2.333-1.667-4.166-0.833"/>
				<path fill="none" stroke="#A8936C" stroke-width="0.25" stroke-miterlimit="10" d="M667.196,118.303
					c0,0-3.499-1.668-4.333-0.334"/>
			</g>
			<g>
				<path fill="none" stroke="#A8936C" stroke-width="0.25" stroke-miterlimit="10" d="M654.196,108.802
					c0,0-2.333-1.667-4.166-0.833"/>
				<path fill="none" stroke="#A8936C" stroke-width="0.25" stroke-miterlimit="10" d="M654.196,109.969
					c0,0-3.499-1.668-4.333-0.334"/>
			</g>
			<g>
				<path fill="none" stroke="#A8936C" stroke-width="0.25" stroke-miterlimit="10" d="M613.851,138.677c0,0-2.859-0.199-3.985,1.47
					"/>
				<path fill="none" stroke="#A8936C" stroke-width="0.25" stroke-miterlimit="10" d="M614.462,139.671c0,0-3.854,0.41-3.868,1.982
					"/>
			</g>
			<g>
				<path fill="none" stroke="#A8936C" stroke-width="0.25" stroke-miterlimit="10" d="M617.741,153.967c0,0-2.734-0.86-4.219,0.499
					"/>
				<path fill="none" stroke="#A8936C" stroke-width="0.25" stroke-miterlimit="10" d="M618.104,155.077
					c0,0-3.846-0.501-4.225,1.025"/>
			</g>
			<g>
				<path fill="none" stroke="#A8936C" stroke-width="0.25" stroke-miterlimit="10" d="M639.529,113.802
					c0,0-2.333-1.667-4.166-0.833"/>
				<path fill="none" stroke="#A8936C" stroke-width="0.25" stroke-miterlimit="10" d="M639.529,114.969
					c0,0-3.499-1.668-4.333-0.334"/>
			</g>
			<g>
				<path fill="none" stroke="#A8936C" stroke-width="0.25" stroke-miterlimit="10" d="M681.529,135.803
					c0,0-2.333-1.667-4.166-0.834"/>
				<path fill="none" stroke="#A8936C" stroke-width="0.25" stroke-miterlimit="10" d="M681.529,136.97c0,0-3.499-1.668-4.333-0.334
					"/>
			</g>
			<g>
				<path fill="none" stroke="#A8936C" stroke-width="0.25" stroke-miterlimit="10" d="M683.529,125.803
					c0,0-2.333-1.667-4.166-0.834"/>
				<path fill="none" stroke="#A8936C" stroke-width="0.25" stroke-miterlimit="10" d="M683.529,126.97c0,0-3.499-1.668-4.333-0.334
					"/>
			</g>
			<g>
				<path fill="none" stroke="#A8936C" stroke-width="0.25" stroke-miterlimit="10" d="M669.196,101.803
					c0,0-2.333-1.667-4.167-0.834"/>
				<path fill="none" stroke="#A8936C" stroke-width="0.25" stroke-miterlimit="10" d="M669.196,102.97c0,0-3.5-1.668-4.333-0.334"
					/>
			</g>
			<g>
				<path fill="none" stroke="#A8936C" stroke-width="0.25" stroke-miterlimit="10" d="M655.863,90.136c0,0-2.333-1.667-4.167-0.834
					"/>
				<path fill="none" stroke="#A8936C" stroke-width="0.25" stroke-miterlimit="10" d="M655.863,91.303c0,0-3.5-1.668-4.333-0.334"
					/>
			</g>
			<g>
				<path fill="none" stroke="#A8936C" stroke-width="0.25" stroke-miterlimit="10" d="M640.863,97.803c0,0-2.333-1.667-4.167-0.834
					"/>
				<path fill="none" stroke="#A8936C" stroke-width="0.25" stroke-miterlimit="10" d="M640.863,98.97c0,0-3.5-1.668-4.333-0.334"/>
			</g>
			<path fill="none" stroke="#A8936C" stroke-width="0.25" stroke-miterlimit="10" d="M675.696,150.303
				c-1,2,0.667,4.166-0.666,5.333c-1.334,1.167-2.334,2.333-2.334,2.333"/>
			<path fill="none" stroke="#A8936C" stroke-width="0.25" stroke-miterlimit="10" d="M663.363,142.47c-1,2,0.667,4.166-0.667,5.333
				c-1.333,1.167-2.333,2.333-2.333,2.333"/>
			<path fill="none" stroke="#A8936C" stroke-width="0.25" stroke-miterlimit="10" d="M648.022,136.549
				c-0.469,2.188,1.688,3.867,0.688,5.33c-0.999,1.465-1.675,2.845-1.675,2.845"/>
			<path fill="none" stroke="#A8936C" stroke-width="0.25" stroke-miterlimit="10" d="M633.992,136.194
				c0.34,2.21-1.91,3.763-0.997,5.281c0.912,1.52,1.507,2.936,1.507,2.936"/>
			<path fill="#F9D0C3" stroke="#A8936C" stroke-width="0.5" stroke-miterlimit="10" d="M603.613,122.927
				c2.167-1.834,7.084,3.043,7.25,5.209c0.167,2.166-3.167,3.333-3.167,3.333L603.613,122.927z"/>
		</g>
		<g id="jingluo" display="none">
			<path id="LargeIntestine-2_1_" fill="none" stroke="#B81C24" stroke-miterlimit="10" stroke-dasharray="5,5" d="M635.53,86.469
				l-4,53c0,0-4,26-4.5,34s3,30,3,30l0.5,30l-6.5,23.5c0,0-27.5,93-28,99.5c-17.5,0.5-63.5,22.5-95.5,28s-68.5-14-79.5-6.5
				s-0.5,25-0.5,25"/>
			<path id="SmallIntestine-2" fill="none" stroke="#D31176" stroke-miterlimit="10" stroke-dasharray="5,5" d="M686.53,118.969
				c0,0-13.5,74-27,84.5c-3.5,6-14,114-14,114"/>
			<path id="Lung-2" fill="none" stroke="#89BA28" stroke-miterlimit="10" stroke-dasharray="5,5" d="M579.03,341.969
				c0,0-55.5,8-67.5,11.5s-82.25,29-102.25,20.5c0.5-1.25,6.75-15.75,6.75-15.75"/>
			<g id="TripleEnergizer-2_1_">
				<path id="TripleEnergizer_3_" fill="none" stroke="#EBAB22" stroke-miterlimit="10" stroke-dasharray="5,5" d="M672.405,94.136
					c0,0-5.375,53.333-2.875,57.833c-9,19-27,48.5-27,48.5l-3,37l8.5,1.5c0,0-7,6-10.5,12.5c-8.5,27-17,129-17,129s-16.5-2.5-24.5,0
					s-81.5,22.5-81.5,22.5"/>
				<path id="TripleEnergizer_2_" fill="none" stroke="#EBAB22" stroke-miterlimit="10" stroke-dasharray="5,5" d="M474.53,404.469
					c-11,2-35.5-7.5-42.5-7s-13.5,4-15,9.5"/>
			</g>
		</g>
		<g id="xuewei_2">
			<circle id="LI1-2" stroke="#B81C24" stroke-miterlimit="10" cx="635.248" cy="88.219" r="2.469"/>
			<circle id="LI2-2" stroke="#B81C24" stroke-miterlimit="10" cx="632.03" cy="135.5" r="2.469"/>
			<circle id="LI3-2" stroke="#B81C24" stroke-miterlimit="10" cx="630.53" cy="150" r="2.469"/>
			<circle id="LI4-2" stroke="#B81C24" stroke-miterlimit="10" cx="627.03" cy="172.438" r="2.469"/>
			<circle id="LI5-2" stroke="#B81C24" stroke-miterlimit="10" cx="629.53" cy="200.438" r="2.469"/>
			<circle id="LI6-2" stroke="#B81C24" stroke-miterlimit="10" cx="630" cy="236.469" r="2.469"/>
			<circle id="LI7-2" stroke="#B81C24" stroke-miterlimit="10" cx="622.53" cy="261.5" r="2.469"/>
			<circle id="LI8-2" stroke="#B81C24" stroke-miterlimit="10" cx="613.53" cy="293" r="2.469"/>
			<circle id="LI9-2" stroke="#B81C24" stroke-miterlimit="10" cx="611.28" cy="301.5" r="2.469"/>
			<circle id="LI10-2" stroke="#B81C24" stroke-miterlimit="10" cx="608.78" cy="309.5" r="2.469"/>
			<circle id="LI11-2" stroke="#B81C24" stroke-miterlimit="10" cx="598.03" cy="347" r="2.469"/>
			<circle id="LI12-2" stroke="#B81C24" stroke-miterlimit="10" cx="595.53" cy="356.75" r="2.469"/>
			<circle id="LI13-2" stroke="#B81C24" stroke-miterlimit="10" cx="562.03" cy="365.75" r="2.469"/>
			<circle id="LI14-2" stroke="#B81C24" stroke-miterlimit="10" cx="495.28" cy="385.25" r="2.469"/>
			<circle id="LI15-2" stroke="#B81C24" stroke-miterlimit="10" cx="420.28" cy="379.25" r="2.469"/>
			<circle id="LU4-2" stroke="#89BA28" stroke-miterlimit="10" cx="518.78" cy="351.75" r="2.469"/>
			<circle id="LU3-2" stroke="#89BA28" stroke-miterlimit="10" cx="503.78" cy="355.5" r="2.469"/>
			<circle id="LU2-2" stroke="#89BA28" stroke-miterlimit="10" cx="409.28" cy="373.75" r="2.469"/>
			<circle id="LU1-2" stroke="#89BA28" stroke-miterlimit="10" cx="416.03" cy="358" r="2.469"/>
			<circle id="TE1-2" stroke="#EBAB22" stroke-miterlimit="10" cx="672.53" cy="95.25" r="2.469"/>
			<circle id="TE2-2" stroke="#EBAB22" stroke-miterlimit="10" cx="669.03" cy="149.5" r="2.469"/>
			<circle id="TE3-2" stroke="#EBAB22" stroke-miterlimit="10" cx="665.03" cy="161.25" r="2.469"/>
			<circle id="TE4-2" stroke="#EBAB22" stroke-miterlimit="10" cx="642.53" cy="201.25" r="2.469"/>
			<circle id="TE5-2" stroke="#EBAB22" stroke-miterlimit="10" cx="640.53" cy="224.25" r="2.469"/>
			<circle id="TE6-2" stroke="#EBAB22" stroke-miterlimit="10" cx="639.53" cy="237.5" r="2.469"/>
			<circle id="TE7-2" stroke="#EBAB22" stroke-miterlimit="10" cx="647.53" cy="239.25" r="2.469"/>
			<circle id="TE8-2" stroke="#EBAB22" stroke-miterlimit="10" cx="637.78" cy="250.5" r="2.469"/>
			<circle id="TE9-2" stroke="#EBAB22" stroke-miterlimit="10" cx="629.53" cy="297" r="2.469"/>
			<circle id="TE10-2" stroke="#EBAB22" stroke-miterlimit="10" cx="608.03" cy="379.75" r="2.469"/>
			<circle id="TE11-2" stroke="#EBAB22" stroke-miterlimit="10" cx="597.03" cy="380.5" r="2.469"/>
			<circle id="TE12-2" stroke="#EBAB22" stroke-miterlimit="10" cx="552.78" cy="392.25" r="2.469"/>
			<circle id="TE13-2" stroke="#EBAB22" stroke-miterlimit="10" cx="495.28" cy="402.75" r="2.469"/>
			<circle id="TE14-2" stroke="#EBAB22" stroke-miterlimit="10" cx="430.53" cy="397.75" r="2.469"/>
			<circle id="SI2-2" stroke="#D31176" stroke-miterlimit="10" cx="686.196" cy="119.751" r="2.469"/>
			<circle id="SI2-2" stroke="#D31176" stroke-miterlimit="10" cx="678.863" cy="153.751" r="2.469"/>
			<circle id="SI3-2" stroke="#D31176" stroke-miterlimit="10" cx="675.196" cy="168.085" r="2.469"/>
			<circle id="SI4-2" stroke="#D31176" stroke-miterlimit="10" cx="669.863" cy="185.085" r="2.469"/>
			<circle id="SI5-2" stroke="#D31176" stroke-miterlimit="10" cx="664.53" cy="196.085" r="2.469"/>
			<circle id="SI6-2" stroke="#D31176" stroke-miterlimit="10" cx="657.529" cy="209.751" r="2.469"/>
			<circle id="SI7-2" stroke="#D31176" stroke-miterlimit="10" cx="649.196" cy="280.418" r="2.469"/>
			<circle id="HT9-2" stroke="#1B96D4" stroke-miterlimit="10" cx="678.863" cy="119.084" r="2.469"/>
			
				<circle id="EX-UE5-2" fill="#FFFFFF" stroke="#956134" stroke-width="0.75" stroke-miterlimit="10" cx="611.446" cy="138.969" r="1.891"/>
			
				<circle id="EX-UE9-5" fill="#FFFFFF" stroke="#956134" stroke-width="0.75" stroke-miterlimit="10" cx="626.946" cy="150.219" r="1.891"/>
			
				<circle id="EX-UE9-6" fill="#FFFFFF" stroke="#956134" stroke-width="0.75" stroke-miterlimit="10" cx="642.446" cy="136.719" r="1.891"/>
			
				<circle id="EX-UE8-2" fill="#FFFFFF" stroke="#956134" stroke-width="0.75" stroke-miterlimit="10" cx="641.946" cy="144.969" r="1.891"/>
			
				<circle id="EX-UE7-3" fill="#FFFFFF" stroke="#956134" stroke-width="0.75" stroke-miterlimit="10" cx="641.446" cy="153.719" r="1.891"/>
			
				<circle id="EX-UE4-2" fill="#FFFFFF" stroke="#956134" stroke-width="0.75" stroke-miterlimit="10" cx="652.304" cy="109.386" r="1.891"/>
			
				<circle id="EX-UE9-7" fill="#FFFFFF" stroke="#956134" stroke-width="0.75" stroke-miterlimit="10" cx="656.446" cy="140.219" r="1.891"/>
			
				<circle id="EX-UE9-8" fill="#FFFFFF" stroke="#956134" stroke-width="0.75" stroke-miterlimit="10" cx="671.196" cy="146.719" r="1.891"/>
			
				<circle id="EX-UE7-4" fill="#FFFFFF" stroke="#956134" stroke-width="0.75" stroke-miterlimit="10" cx="659.196" cy="158.969" r="1.891"/>
			
				<circle id="EX-UE6-2" fill="#FFFFFF" stroke="#956134" stroke-width="0.75" stroke-miterlimit="10" cx="679.946" cy="135.719" r="1.891"/>
		</g>
	</g>
</g>
</svg>
