<?xml version="1.0" encoding="utf-8"?>
<!-- Generator: Adobe Illustrator 16.0.0, SVG Export Plug-In . SVG Version: 6.00 Build 0)  -->
<!DOCTYPE svg PUBLIC "-//W3C//DTD SVG 1.1//EN" "http://www.w3.org/Graphics/SVG/1.1/DTD/svg11.dtd">
<svg version="1.1" id="svg" xmlns="http://www.w3.org/2000/svg" xmlns:xlink="http://www.w3.org/1999/xlink" x="0px" y="0px"
	 width="200px" height="200px" viewBox="0 0 1000.055 685.076" enable-background="new 0 0 1000.055 685.076"
	 xml:space="preserve">
<g id="svg-zuotuiwai">
	<g id="all_1_">
		<g id="shenti_1_">
			<path fill="#F7ECD7" stroke="#A5906A" stroke-miterlimit="10" d="M866.09,60.404c-165.334,131.333-185.334,156.667-188.667,168
				s1.334,20.667,2.667,25c3.333,83-28.216,197.272-41.216,227.606c-5.333,20-19.367,29.93-31.333,47.332
				c-16.906,24.586-32.535,48.326-38,50.668c-3.842,6.287-20.487,12.914-30.667,19.332c-9.249,5.832-12.396,11.367-10.333,18.668
				c1,8.666,16.666,9.666,19,8.666c2,7.334,12.667,5.334,12.667,5.334s5.667,7.166,11,4.332c2.333,6.168,17.333,4,17.333,4
				s5,11.168,25.334-3.666c18.666-8.666,29-13,43.166-42.666c14.166-29.668,37.666-16.5,43.833-49c1.667-14.5-5.666-26-3.833-49.5
				s43.668-105.667,51.834-142.834s-7.117-52.272,0.549-67.272S882.09,173.07,882.09,173.07"/>
			<g id="图层_9">
				
			</g>
			<g id="图层_10">
				
			</g>
			<path fill="none" stroke="#A5906A" stroke-miterlimit="10" d="M866.09,60.404c-165.334,131.333-185.334,156.667-188.667,168
				s1.334,20.667,2.667,25c3.333,83-28.216,197.272-41.216,227.606c-5.333,20-19.367,29.93-31.333,47.332
				c-16.906,24.586-32.535,48.326-38,50.668c-3.842,6.287-20.487,12.914-30.667,19.332c-9.249,5.832-12.396,11.367-10.333,18.668
				c1,8.666,16.666,9.666,19,8.666c2,7.334,12.667,5.334,12.667,5.334s5.667,7.166,11,4.332c2.333,6.168,17.333,4,17.333,4
				s5,11.168,25.334-3.666c18.666-8.666,29-13,43.166-42.666c14.166-29.668,37.666-16.5,43.833-49c1.667-14.5-5.666-26-3.833-49.5
				s43.668-105.667,51.834-142.834s-7.117-52.272,0.549-67.272S882.09,173.07,882.09,173.07"/>
			<path fill="none" stroke="#A5906A" stroke-width="0.5" stroke-miterlimit="10" d="M686.041,483.51c-1.5,7.5,5,24.5-5.5,34.5"/>
			<path fill="none" stroke="#A5906A" stroke-miterlimit="10" d="M567.291,602.01c0.917,6.332-14.584,15-16.75,15.666
				s-4.166,4.916-2.666,9.166"/>
			<path fill="none" stroke="#A5906A" stroke-miterlimit="10" d="M578.207,609.01c2.334,4.5-8,10.832-13,13.166
				s-6.666,5.5-4.332,9.5"/>
			<path fill="none" stroke="#A5906A" stroke-miterlimit="10" d="M589.708,614.176c0,0-2.501,9.666-10.167,11.334
				c-7.666,1.666-9.666,5.5-7.833,10.5"/>
			<path fill="none" stroke="#A5906A" stroke-miterlimit="10" d="M601.875,620.342c0,0-0.501,5.334-6.834,8.834
				s-7.833,7.334-6.166,10.5"/>
			<path fill="#F5CEC1" stroke="#A5906A" stroke-miterlimit="10" d="M539.791,617.26c-0.75-3.625-5.5-5.375-6.5-5.25
				c-0.125-2.25,7.875-5.875,9.875-6s5,2.5,5.625,3.75S541.666,617.26,539.791,617.26z"/>
			<path fill="#F5CEC1" stroke="#A5906A" stroke-miterlimit="10" d="M556.196,623.801c-0.438-2.107-3.199-3.127-3.78-3.054
				c-0.073-1.309,4.58-3.418,5.743-3.489c1.163-0.072,2.908,1.453,3.271,2.182C561.795,620.165,557.287,623.801,556.196,623.801z"/>
			<path fill="#F5CEC1" stroke="#A5906A" stroke-miterlimit="10" d="M568.56,628.301c-0.405-1.963-2.978-2.91-3.519-2.842
				c-0.068-1.22,4.264-3.183,5.346-3.25c1.083-0.066,2.707,1.354,3.046,2.03C573.771,624.915,569.574,628.301,568.56,628.301z"/>
			<path fill="#F5CEC1" stroke="#A5906A" stroke-miterlimit="10" d="M580.251,632.176c-0.355-1.722-2.61-2.554-3.085-2.492
				c-0.062-1.068,3.739-2.789,4.688-2.85c0.95-0.06,2.374,1.188,2.672,1.78C584.822,629.208,581.142,632.176,580.251,632.176z"/>
			<path fill="#F5CEC1" stroke="#A5906A" stroke-miterlimit="10" d="M596.176,636.676c-0.289-1.601-2.124-2.373-2.51-2.318
				c-0.05-0.992,3.042-2.592,3.813-2.647c0.772-0.056,1.932,1.104,2.173,1.655C599.896,633.915,596.9,636.676,596.176,636.676z"/>
		</g>
		<g id="jingluo_1_" display="none">
			<path id="Stomach-1_2_" fill="none" stroke="#AE1E24" stroke-miterlimit="10" d="M862.875,61.344c-8.667,8-11.333,20-11.333,20
				s-48,36.667-56.667,52.667s-102,96-104,114.667s-22.667,151.334-22.667,151.334s8-10.001,11.333-15.334
				c-6,48.667-42,111.335-42,111.335s-52,107.998-55.333,112.666c-3.333,4.666-1.669,10.895-17.167,16.781"/>
			<path id="Gallbladder-1_2_" fill="none" stroke="#E2A62A" stroke-miterlimit="10" d="M930.875,122.677
				c-41.333-25.333-122.667,47.333-122.667,47.333l-73.333,70c0,0-32,25.333-33.333,50.667
				c-0.667,7.334-4.667,112.667-4.667,112.667l-11.333-3.333c0,0-1.334,29.333-13.334,52.001c0.667,2,2.667,7.998,4,12.666
				c-6,29.334-31.333,64-38,81.334c-6.667,17.332-27.333,72-60,85.332"/>
			<path id="Bladder-1_2_" fill="none" stroke="#C31A6E" stroke-miterlimit="10" d="M733.541,396.01
				c-22,10.667-44.667,110-44.667,110s-7.334,34.002-0.667,43.334c-0.666,1.334-18-11.334-18-11.334s-19.334,42-20.666,48.668
				c-8.667,26.666-49.334,49.332-49.334,49.332"/>
		</g>
		<g id="xuewei_1">
			<circle id="ST31-1" stroke="#AE1E24" stroke-miterlimit="10" cx="851.321" cy="81.759" r="2.469"/>
			<circle id="ST32-1" stroke="#AE1E24" stroke-miterlimit="10" cx="794.321" cy="135.509" r="2.469"/>
			<circle id="ST33-1" stroke="#AE1E24" stroke-miterlimit="10" cx="757.071" cy="173.509" r="2.469"/>
			<circle id="ST34-1" stroke="#AE1E24" stroke-miterlimit="10" cx="743.321" cy="187.259" r="2.469"/>
			<circle id="ST35-1" stroke="#AE1E24" stroke-miterlimit="10" cx="690.571" cy="249.759" r="2.469"/>
			<circle id="ST36-1" stroke="#AE1E24" stroke-miterlimit="10" cx="683.821" cy="298.509" r="2.469"/>
			<circle id="ST37-1" stroke="#AE1E24" stroke-miterlimit="10" cx="677.071" cy="342.759" r="2.469"/>
			<circle id="ST38-1" stroke="#AE1E24" stroke-miterlimit="10" cx="670.571" cy="383.009" r="2.469"/>
			<circle id="ST39-1" stroke="#AE1E24" stroke-miterlimit="10" cx="668.071" cy="400.009" r="2.469"/>
			<circle id="ST40-1" stroke="#AE1E24" stroke-miterlimit="10" cx="679.821" cy="384.009" r="2.469"/>
			<circle id="ST41-1" stroke="#AE1E24" stroke-miterlimit="10" cx="636.821" cy="497.76" r="2.469"/>
			<circle id="ST42-1" stroke="#AE1E24" stroke-miterlimit="10" cx="619.571" cy="532.76" r="2.469"/>
			<circle id="ST43-1" stroke="#AE1E24" stroke-miterlimit="10" cx="601.071" cy="571.01" r="2.469"/>
			<circle id="ST44-1" stroke="#AE1E24" stroke-miterlimit="10" cx="584.071" cy="605.26" r="2.469"/>
			<circle id="ST45-1" stroke="#AE1E24" stroke-miterlimit="10" cx="565.571" cy="626.01" r="2.469"/>
			<circle id="GB30-1" stroke="#E2A62A" stroke-miterlimit="10" cx="932.208" cy="123.811" r="2.469"/>
			<circle id="GB31-1" stroke="#E2A62A" stroke-miterlimit="10" cx="816.208" cy="163.144" r="2.469"/>
			<circle id="GB32-1" stroke="#E2A62A" stroke-miterlimit="10" cx="784.874" cy="192.477" r="2.469"/>
			<circle id="GB33-1" stroke="#E2A62A" stroke-miterlimit="10" cx="731.874" cy="242.477" r="2.469"/>
			<circle id="GB34-1" stroke="#E2A62A" stroke-miterlimit="10" cx="701.874" cy="287.811" r="2.469"/>
			<circle id="GB35-1" stroke="#E2A62A" stroke-miterlimit="10" cx="696.874" cy="403.478" r="2.469"/>
			<circle id="GB36-1" stroke="#E2A62A" stroke-miterlimit="10" cx="685.541" cy="399.811" r="2.469"/>
			<circle id="GB37-1" stroke="#E2A62A" stroke-miterlimit="10" cx="678.875" cy="435.811" r="2.469"/>
			<circle id="GB38-1" stroke="#E2A62A" stroke-miterlimit="10" cx="671.875" cy="452.145" r="2.469"/>
			<circle id="GB39-1" stroke="#E2A62A" stroke-miterlimit="10" cx="675.875" cy="464.813" r="2.469"/>
			<circle id="GB40-1" stroke="#E2A62A" stroke-miterlimit="10" cx="653.208" cy="517.813" r="2.469"/>
			<circle id="GB41-1" stroke="#E2A62A" stroke-miterlimit="10" cx="631.208" cy="563.479" r="2.469"/>
			<circle id="GB42-1" stroke="#E2A62A" stroke-miterlimit="10" cx="623.541" cy="580.146" r="2.469"/>
			<circle id="GB43-1" stroke="#E2A62A" stroke-miterlimit="10" cx="606.541" cy="607.479" r="2.469"/>
			<circle id="GB44-1" stroke="#E2A62A" stroke-miterlimit="10" cx="578.875" cy="631.479" r="2.469"/>
			<circle id="EX-LE1-1" fill="#FFFFFF" stroke="#8E5E32" stroke-miterlimit="10" cx="756.874" cy="193.541" r="2.469"/>
			<circle id="EX-LE6-1" fill="#FFFFFF" stroke="#8E5E32" stroke-miterlimit="10" cx="700.404" cy="322.677" r="2.469"/>
			<circle id="EX-LE7-1" fill="#FFFFFF" stroke="#8E5E32" stroke-miterlimit="10" cx="679.541" cy="327.812" r="2.469"/>
			<circle id="EX-LE9-1" fill="#FFFFFF" stroke="#8E5E32" stroke-miterlimit="10" cx="680.874" cy="502.873" r="2.469"/>
			<circle id="BL58-1" stroke="#C31A6E" stroke-miterlimit="10" cx="719.541" cy="413.54" r="2.469"/>
			<circle id="BL59-1" stroke="#C31A6E" stroke-miterlimit="10" cx="699.541" cy="467.041" r="2.469"/>
			<circle id="BL60-1" stroke="#C31A6E" stroke-miterlimit="10" cx="687.541" cy="512.479" r="2.469"/>
			<circle id="BL61-1" stroke="#C31A6E" stroke-miterlimit="10" cx="687.541" cy="549.041" r="2.469"/>
			<circle id="BL62-1" stroke="#C31A6E" stroke-miterlimit="10" cx="670.541" cy="538.541" r="2.469"/>
			<circle id="BL63-1" stroke="#C31A6E" stroke-miterlimit="10" cx="658.041" cy="564.541" r="2.469"/>
			<circle id="BL64-1" stroke="#C31A6E" stroke-miterlimit="10" cx="648.541" cy="589.541" r="2.469"/>
			<circle id="BL65-1" stroke="#C31A6E" stroke-miterlimit="10" cx="631.072" cy="613.01" r="2.469"/>
			<circle id="BL66-1" stroke="#C31A6E" stroke-miterlimit="10" cx="616.041" cy="625.041" r="2.469"/>
			<circle id="BL67-1" stroke="#C31A6E" stroke-miterlimit="10" cx="601.041" cy="635.041" r="2.469"/>
		</g>
	</g>
</g>
<g id="svg-youtuiwai">
	<g id="all_2_">
		<g id="shenti_3_">
			<path fill="#F7ECD7" stroke="#A5906A" stroke-miterlimit="10" d="M143.485,55.904c165.334,131.333,185.334,156.667,188.667,168
				s-1.334,20.667-2.667,25c-3.333,83,28.216,197.272,41.216,227.606c5.333,20,19.367,29.93,31.333,47.332
				c16.906,24.586,32.534,48.326,38,50.668c3.842,6.287,20.487,12.914,30.667,19.332c9.249,5.832,12.396,11.367,10.333,18.668
				c-1,8.666-16.667,9.666-19,8.666c-2,7.334-12.667,5.334-12.667,5.334s-5.667,7.166-11,4.332c-2.333,6.168-17.333,4-17.333,4
				s-5,11.168-25.334-3.666c-18.666-8.666-29-13-43.166-42.666c-14.166-29.668-37.666-16.5-43.833-49
				c-1.667-14.5,5.666-26,3.833-49.5S268.866,384.343,260.7,347.176s7.117-52.272-0.549-67.272S127.485,168.571,127.485,168.571"/>
			<g id="图层_9_x5F_复制">
				
			</g>
			<g id="图层_10_x5F_复制">
				
			</g>
			<path fill="none" stroke="#A5906A" stroke-miterlimit="10" d="M143.485,55.904c165.334,131.333,185.334,156.667,188.667,168
				s-1.334,20.667-2.667,25c-3.333,83,28.216,197.272,41.216,227.606c5.333,20,19.367,29.93,31.333,47.332
				c16.906,24.586,32.534,48.326,38,50.668c3.842,6.287,20.487,12.914,30.667,19.332c9.249,5.832,12.396,11.367,10.333,18.668
				c-1,8.666-16.667,9.666-19,8.666c-2,7.334-12.667,5.334-12.667,5.334s-5.667,7.166-11,4.332c-2.333,6.168-17.333,4-17.333,4
				s-5,11.168-25.334-3.666c-18.666-8.666-29-13-43.166-42.666c-14.166-29.668-37.666-16.5-43.833-49
				c-1.667-14.5,5.666-26,3.833-49.5S268.866,384.343,260.7,347.176s7.117-52.272-0.549-67.272S127.485,168.571,127.485,168.571"/>
			<path fill="none" stroke="#A5906A" stroke-width="0.5" stroke-miterlimit="10" d="M323.534,479.01c1.5,7.5-5,24.5,5.5,34.5"/>
			<path fill="none" stroke="#A5906A" stroke-miterlimit="10" d="M442.284,597.51c-0.917,6.332,14.583,15,16.75,15.666
				c2.166,0.666,4.166,4.916,2.666,9.166"/>
			<path fill="none" stroke="#A5906A" stroke-miterlimit="10" d="M431.367,604.51c-2.333,4.5,8,10.832,13,13.166
				s6.666,5.5,4.333,9.5"/>
			<path fill="none" stroke="#A5906A" stroke-miterlimit="10" d="M419.867,609.676c0,0,2.501,9.666,10.167,11.334
				c7.666,1.666,9.666,5.5,7.833,10.5"/>
			<path fill="none" stroke="#A5906A" stroke-miterlimit="10" d="M407.7,615.842c0,0,0.501,5.334,6.834,8.834
				s7.833,7.334,6.166,10.5"/>
			<path fill="#F5CEC1" stroke="#A5906A" stroke-miterlimit="10" d="M469.784,612.76c0.75-3.625,5.5-5.375,6.5-5.25
				c0.125-2.25-7.875-5.875-9.875-6s-5,2.5-5.625,3.75S467.909,612.76,469.784,612.76z"/>
			<path fill="#F5CEC1" stroke="#A5906A" stroke-miterlimit="10" d="M453.379,619.301c0.438-2.107,3.199-3.127,3.78-3.054
				c0.073-1.309-4.58-3.418-5.743-3.489c-1.163-0.072-2.908,1.453-3.272,2.182C447.78,615.665,452.288,619.301,453.379,619.301z"/>
			<path fill="#F5CEC1" stroke="#A5906A" stroke-miterlimit="10" d="M441.016,623.801c0.406-1.963,2.979-2.91,3.52-2.842
				c0.067-1.22-4.265-3.183-5.346-3.25c-1.083-0.066-2.707,1.354-3.047,2.03C435.805,620.415,440,623.801,441.016,623.801z"/>
			<path fill="#F5CEC1" stroke="#A5906A" stroke-miterlimit="10" d="M429.324,627.676c0.354-1.722,2.609-2.554,3.085-2.492
				c0.06-1.068-3.739-2.789-4.688-2.85c-0.95-0.06-2.374,1.188-2.671,1.78C424.753,624.708,428.434,627.676,429.324,627.676z"/>
			<path fill="#F5CEC1" stroke="#A5906A" stroke-miterlimit="10" d="M413.399,632.176c0.289-1.601,2.124-2.373,2.51-2.318
				c0.05-0.992-3.042-2.592-3.813-2.647c-0.772-0.056-1.932,1.104-2.173,1.655C409.681,629.415,412.675,632.176,413.399,632.176z"/>
		</g>
		<g id="jingluo_3_" display="none">
			<path id="Stomach-2_1_" fill="none" stroke="#AE1E24" stroke-miterlimit="10" d="M146.7,56.844c8.667,8,11.333,20,11.333,20
				s48,36.667,56.667,52.667s102,96,104,114.667s22.667,151.334,22.667,151.334s-8-10.001-11.334-15.334
				c6,48.667,42,111.334,42,111.334s52.001,107.998,55.334,112.666c3.333,4.666,1.668,10.895,17.167,16.781"/>
			<path id="Gallbladder-2_1_" fill="none" stroke="#E2A62A" stroke-miterlimit="10" d="M78.7,118.177
				c41.333-25.333,122.667,47.333,122.667,47.333l73.333,70c0,0,32,25.333,33.333,50.667c0.667,7.334,4.667,112.667,4.667,112.667
				l11.333-3.333c0,0,1.334,29.333,13.334,52c-0.667,2-2.667,7.998-4,12.666c6,29.334,31.333,64,38,81.334
				c6.666,17.332,27.333,72,60,85.332"/>
			<path id="Bladder-2_1_" fill="none" stroke="#C31A6E" stroke-miterlimit="10" d="M276.034,391.51
				c22,10.667,44.667,110,44.667,110s7.334,34.002,0.667,43.334c0.666,1.334,17.999-11.334,17.999-11.334s19.334,42,20.667,48.668
				c8.667,26.666,49.333,49.332,49.333,49.332"/>
		</g>
		<g id="xuewei_2">
			<circle id="ST31-2" stroke="#AE1E24" stroke-miterlimit="10" cx="158.254" cy="77.259" r="2.469"/>
			<circle id="ST32-2" stroke="#AE1E24" stroke-miterlimit="10" cx="215.254" cy="131.009" r="2.469"/>
			<circle id="ST33-2" stroke="#AE1E24" stroke-miterlimit="10" cx="252.504" cy="169.009" r="2.469"/>
			<circle id="ST34-2" stroke="#AE1E24" stroke-miterlimit="10" cx="266.254" cy="182.759" r="2.469"/>
			<circle id="ST35-2" stroke="#AE1E24" stroke-miterlimit="10" cx="319.004" cy="245.259" r="2.469"/>
			<circle id="ST36-2" stroke="#AE1E24" stroke-miterlimit="10" cx="325.754" cy="294.009" r="2.469"/>
			<circle id="ST37-2" stroke="#AE1E24" stroke-miterlimit="10" cx="332.504" cy="338.259" r="2.469"/>
			<circle id="ST38-2" stroke="#AE1E24" stroke-miterlimit="10" cx="339.004" cy="378.509" r="2.469"/>
			<circle id="ST39-2" stroke="#AE1E24" stroke-miterlimit="10" cx="341.504" cy="395.509" r="2.469"/>
			<circle id="ST40-2" stroke="#AE1E24" stroke-miterlimit="10" cx="329.754" cy="379.509" r="2.469"/>
			<circle id="ST41-2" stroke="#AE1E24" stroke-miterlimit="10" cx="372.754" cy="493.26" r="2.469"/>
			<circle id="ST42-2" stroke="#AE1E24" stroke-miterlimit="10" cx="390.004" cy="528.26" r="2.469"/>
			<circle id="ST43-2" stroke="#AE1E24" stroke-miterlimit="10" cx="408.504" cy="566.51" r="2.469"/>
			<circle id="ST44-2" stroke="#AE1E24" stroke-miterlimit="10" cx="425.504" cy="600.76" r="2.469"/>
			<circle id="ST45-2" stroke="#AE1E24" stroke-miterlimit="10" cx="444.004" cy="621.51" r="2.469"/>
			<circle id="GB30-2" stroke="#E2A62A" stroke-miterlimit="10" cx="77.367" cy="119.311" r="2.469"/>
			<circle id="GB31-2" stroke="#E2A62A" stroke-miterlimit="10" cx="193.367" cy="158.645" r="2.469"/>
			<circle id="GB32-2" stroke="#E2A62A" stroke-miterlimit="10" cx="224.701" cy="187.978" r="2.469"/>
			<circle id="GB33-2" stroke="#E2A62A" stroke-miterlimit="10" cx="277.701" cy="237.978" r="2.469"/>
			<circle id="GB34-2" stroke="#E2A62A" stroke-miterlimit="10" cx="307.701" cy="283.311" r="2.469"/>
			<circle id="GB35-2" stroke="#E2A62A" stroke-miterlimit="10" cx="312.701" cy="398.978" r="2.469"/>
			<circle id="GB36-2" stroke="#E2A62A" stroke-miterlimit="10" cx="324.034" cy="395.311" r="2.469"/>
			<circle id="GB37-2" stroke="#E2A62A" stroke-miterlimit="10" cx="330.7" cy="431.311" r="2.469"/>
			<circle id="GB38-2" stroke="#E2A62A" stroke-miterlimit="10" cx="337.7" cy="447.645" r="2.469"/>
			<circle id="GB39-2" stroke="#E2A62A" stroke-miterlimit="10" cx="333.7" cy="460.313" r="2.469"/>
			<circle id="GB40-2" stroke="#E2A62A" stroke-miterlimit="10" cx="356.367" cy="513.313" r="2.469"/>
			<circle id="GB41-2" stroke="#E2A62A" stroke-miterlimit="10" cx="378.367" cy="558.979" r="2.469"/>
			<circle id="GB42-2" stroke="#E2A62A" stroke-miterlimit="10" cx="386.033" cy="575.646" r="2.469"/>
			<circle id="GB43-2" stroke="#E2A62A" stroke-miterlimit="10" cx="403.033" cy="602.979" r="2.469"/>
			<circle id="GB44-2" stroke="#E2A62A" stroke-miterlimit="10" cx="430.7" cy="626.979" r="2.469"/>
			<circle id="EX-LE1-4" fill="#FFFFFF" stroke="#8E5E32" stroke-miterlimit="10" cx="252.701" cy="189.042" r="2.469"/>
			<circle id="EX-LE6-2" fill="#FFFFFF" stroke="#8E5E32" stroke-miterlimit="10" cx="309.171" cy="318.177" r="2.469"/>
			<circle id="EX-LE7-2" fill="#FFFFFF" stroke="#8E5E32" stroke-miterlimit="10" cx="330.034" cy="323.312" r="2.469"/>
			<circle id="EX-LE9-2" fill="#FFFFFF" stroke="#8E5E32" stroke-miterlimit="10" cx="328.701" cy="498.373" r="2.469"/>
			<circle id="BL58-2" stroke="#C31A6E" stroke-miterlimit="10" cx="290.034" cy="409.041" r="2.469"/>
			<circle id="BL59-2" stroke="#C31A6E" stroke-miterlimit="10" cx="310.034" cy="462.541" r="2.469"/>
			<circle id="BL60-2" stroke="#C31A6E" stroke-miterlimit="10" cx="322.034" cy="507.979" r="2.469"/>
			<circle id="BL61-2" stroke="#C31A6E" stroke-miterlimit="10" cx="322.034" cy="544.541" r="2.469"/>
			<circle id="BL62-2" stroke="#C31A6E" stroke-miterlimit="10" cx="339.034" cy="534.041" r="2.469"/>
			<circle id="BL63-2" stroke="#C31A6E" stroke-miterlimit="10" cx="351.534" cy="560.041" r="2.469"/>
			<circle id="BL64-2" stroke="#C31A6E" stroke-miterlimit="10" cx="361.034" cy="585.041" r="2.469"/>
			<circle id="BL65-2" stroke="#C31A6E" stroke-miterlimit="10" cx="378.503" cy="608.51" r="2.469"/>
			<circle id="BL66-2" stroke="#C31A6E" stroke-miterlimit="10" cx="393.534" cy="620.541" r="2.469"/>
			<circle id="BL67-2" stroke="#C31A6E" stroke-miterlimit="10" cx="408.534" cy="630.541" r="2.469"/>
		</g>
	</g>
</g>
</svg>
