<?xml version="1.0" encoding="utf-8"?>
<!-- Generator: Adobe Illustrator 16.0.0, SVG Export Plug-In . SVG Version: 6.00 Build 0)  -->
<!DOCTYPE svg PUBLIC "-//W3C//DTD SVG 1.1//EN" "http://www.w3.org/Graphics/SVG/1.1/DTD/svg11.dtd">
<svg version="1.1" id="svg" xmlns="http://www.w3.org/2000/svg" xmlns:xlink="http://www.w3.org/1999/xlink" x="0px" y="0px"
	 width="200px" height="200px" viewBox="0 0 769 506" enable-background="new 0 0 769 506" xml:space="preserve">
<g id="svg-youtui-wai">
	<g id="all">
		<g id="shenti">
			<path fill="#FBF0DB" stroke="#AB966E" stroke-miterlimit="10" d="M506.583,49.167c0,0,122.417,112.333,124.917,143.333
				c4.25,38.75-33.417,154.001-17.584,186.668c3.083,8.416,29.938,19.771,45.834,30.832c15.896,11.063,22,20.5,29,23
				c12,7,24.5-6.5,33,4.5c11.166,19.668-13.834,23.002-13.834,23.002S702.75,462.5,699.5,460c1.417,9.834-10.75,6-10.75,6
				s-3.5,8.834-14.167,3.5c-2.333,8-14.166-0.166-18.583-0.25c-4.083,6.584-19.083,4.585-28.75-0.082
				c-9.667-4.668-15.333-10.668-27-12.668s-41.667,1.834-45.5-19.25c-3.833-21.083,10.667-32.917,9.25-54
				c-0.85-12.639,0.582-44.082-6.751-66.749s-6.001-62.667-0.667-72.667s12.884-16.365,10.667-24.667
				c-20.667-6-130.665-66.834-137.499-89.917S506.583,49.167,506.583,49.167z"/>
			<g id="图层_5">
				
			</g>
			<path fill="none" stroke="#AB966E" stroke-miterlimit="10" d="M506.583,49.167c0,0,122.417,112.333,124.917,143.333
				c4.25,38.75-33.417,154.001-17.584,186.668c3.083,8.416,29.938,19.771,45.834,30.832c15.896,11.063,22,20.5,29,23
				c12,7,24.5-6.5,33,4.5c11.166,19.668-13.834,23.002-13.834,23.002S702.75,462.5,699.5,460c1.417,9.834-10.75,6-10.75,6
				s-3.167,8.5-14.167,3.834c-3.666,7.666-14.166-0.5-18.583-0.584c-4.083,6.584-19.083,4.585-28.75-0.082
				c-9.667-4.668-15.333-10.668-27-12.668s-41.667,1.834-45.5-19.25c-3.833-21.083,10.667-32.917,9.25-54
				c-0.85-12.639,0.582-44.082-6.751-66.749s-6.001-62.667-0.667-72.667s12.884-16.365,10.667-24.667
				c-20.667-6-130.665-66.834-137.499-89.917"/>
			<path fill="none" stroke="#AB966E" stroke-miterlimit="10" d="M578.582,369.835c0,0-0.666,13.668-4.666,18.667s4.666,14,4.666,14
				"/>
			<path fill="none" stroke="#AB966E" stroke-miterlimit="10" d="M689.25,441.502c1.639,1.196,4.332,1.33,6.166,2.164
				c7-0.5,13.095,0.572,15.167,6.168c3.333,8.998-7.834,10.835-10.167,10.832"/>
			<path fill="none" stroke="#AB966E" stroke-miterlimit="10" d="M680.416,447.834c15,4,22.668,13.998,17.334,17.832
				c-3.833,2.835-9.833-0.5-9.833-0.5"/>
			<path fill="none" stroke="#AB966E" stroke-miterlimit="10" d="M667.416,451.666c5.5-0.333,19.666,5,20.5,13.167s-10.667,7-13,4.5
				"/>
			<path fill="none" stroke="#AB966E" stroke-miterlimit="10" d="M658.25,456.834C667.416,455,676.916,464,674.583,469.5
				s-8.5,3.166-9.667,2.166s-10.332-3.666-14.999-2.833"/>
			<path fill="none" stroke="#AB966E" stroke-miterlimit="10" d="M717.875,437.125c0.5,1.25-4.5,5.5-6.125,5.375
				s-6.375-1.625-6.25-3.875s3.375-3.75,6.375-3.5S717.375,435.875,717.875,437.125z"/>
			<path fill="none" stroke="#AB966E" stroke-miterlimit="10" d="M706.875,448c-0.25,1.125-3.375,3.375-4.25,3.5
				s-2.5-0.875-2.375-2.5s2.5-2.5,3.625-2.375S707.125,446.875,706.875,448z"/>
			<path fill="none" stroke="#AB966E" stroke-miterlimit="10" d="M694,457.875c0-1.25-2.5-2.875-4-1.875s-2.75,3.875-0.25,4.375
				S694,459.125,694,457.875z"/>
			<path fill="none" stroke="#AB966E" stroke-miterlimit="10" d="M683,463c1-2.75-3.75-2.875-5.875-1.625
				C674.625,464.25,682,465.75,683,463z"/>
			<path fill="none" stroke="#AB966E" stroke-miterlimit="10" d="M671.875,465.5c-1.5,3.25-7.75,2.625-6-0.25
				S671.625,464.75,671.875,465.5z"/>
		</g>
		<g id="jingluo" display="none">
			<path id="Stomach-2" fill="none" stroke="#AE1E24" stroke-miterlimit="10" d="M506.202,48.5c6.083,5.615,9.048,18.5,9.048,18.5
				s28.917,30.771,35,42c6.083,11.23,70.5,67,71,97.5c1.404,13.104-10.045,102.764-10.045,102.764s-5.615-7.021-7.955-10.764
				c-2,36,6.5,78.5,7,85c8.5,28,65,62.5,65,62.5s17.5,7.398,18.5,12.449"/>
			<path id="Gallbladder-2" fill="none" stroke="#E2A62A" stroke-miterlimit="10" d="M399.25,95c46.5-27,131,44.5,131,44.5l54,48
				c0,0,26,14,20,35c-1,5.5-12.5,82.5-12.5,82.5l7.173,0.414c0,0-7.673,16.086-4.146,34.009c-0.506,1.514-2.018,6.05-3.025,9.577
				c0,21.5,4.458,38.896,9.5,52c9,21.5,69.5,52.5,81.833,63.836"/>
			<path id="Bladder-2" fill="none" stroke="#C31A6E" stroke-miterlimit="10" d="M555.75,311
				c14.666,7.111,14.055,71.61,14.055,71.61s-2.609,49.167-7.055,55.39c0.443,0.89,20-12.5,20-12.5l29,24.5l55.834,19.002"/>
		</g>
		<g id="xuewei_1">
			<circle id="ST31-2" stroke="#AE1E24" stroke-miterlimit="10" cx="514.97" cy="66.75" r="2.469"/>
			<circle id="ST32-2" stroke="#AE1E24" stroke-miterlimit="10" cx="551.47" cy="111.5" r="2.469"/>
			<circle id="ST33-2" stroke="#AE1E24" stroke-miterlimit="10" cx="580.75" cy="142.531" r="2.469"/>
			<circle id="ST34-2" stroke="#AE1E24" stroke-miterlimit="10" cx="591.75" cy="155.531" r="2.469"/>
			<circle id="ST35-2" stroke="#AE1E24" stroke-miterlimit="10" cx="621.25" cy="211.969" r="2.469"/>
			<circle id="ST36-2" stroke="#AE1E24" stroke-miterlimit="10" cx="618.97" cy="245.5" r="2.469"/>
			<circle id="ST37-2" stroke="#AE1E24" stroke-miterlimit="10" cx="615.22" cy="275.75" r="2.469"/>
			<circle id="ST38-2" stroke="#AE1E24" stroke-miterlimit="10" cx="612.72" cy="297" r="2.469"/>
			<circle id="ST39-2" stroke="#AE1E24" stroke-miterlimit="10" cx="611.22" cy="309" r="2.469"/>
			<circle id="ST40-2" stroke="#AE1E24" stroke-miterlimit="10" cx="603.97" cy="296.5" r="2.469"/>
			<circle id="ST41-2" stroke="#AE1E24" stroke-miterlimit="10" cx="610.47" cy="384.25" r="2.469"/>
			<circle id="ST42-2" stroke="#AE1E24" stroke-miterlimit="10" cx="621.72" cy="402.25" r="2.469"/>
			<circle id="ST43-2" stroke="#AE1E24" stroke-miterlimit="10" cx="643.22" cy="423" r="2.469"/>
			<circle id="ST44-2" stroke="#AE1E24" stroke-miterlimit="10" cx="674.75" cy="445.469" r="2.469"/>
			<circle id="ST45-2" stroke="#AE1E24" stroke-miterlimit="10" cx="693.72" cy="457.5" r="2.469"/>
			<circle id="GB30-2" stroke="#E2A62A" stroke-miterlimit="10" cx="398.25" cy="95.469" r="2.469"/>
			<circle id="GB31-2" stroke="#E2A62A" stroke-miterlimit="10" cx="526.72" cy="136.5" r="2.469"/>
			<circle id="GB32-2" stroke="#E2A62A" stroke-miterlimit="10" cx="546.917" cy="154.469" r="2.469"/>
			<circle id="GB33-2" stroke="#E2A62A" stroke-miterlimit="10" cx="583.75" cy="187.031" r="2.469"/>
			<circle id="GB34-2" stroke="#E2A62A" stroke-miterlimit="10" cx="604.917" cy="219.302" r="2.469"/>
			<circle id="GB35-2" stroke="#E2A62A" stroke-miterlimit="10" cx="592.417" cy="304.969" r="2.469"/>
			<circle id="GB36-2" stroke="#E2A62A" stroke-miterlimit="10" cx="599.25" cy="305.302" r="2.469"/>
			<circle id="GB37-2" stroke="#E2A62A" stroke-miterlimit="10" cx="593.779" cy="329.5" r="2.469"/>
			<circle id="GB38-2" stroke="#E2A62A" stroke-miterlimit="10" cx="594.666" cy="339.636" r="2.469"/>
			<circle id="GB39-2" stroke="#E2A62A" stroke-miterlimit="10" cx="591.666" cy="349.303" r="2.469"/>
			<circle id="GB40-2" stroke="#E2A62A" stroke-miterlimit="10" cx="602.583" cy="403.636" r="2.469"/>
			<circle id="GB41-2" stroke="#E2A62A" stroke-miterlimit="10" cx="622.583" cy="423.72" r="2.469"/>
			<circle id="GB42-2" stroke="#E2A62A" stroke-miterlimit="10" cx="635.25" cy="432.387" r="2.469"/>
			<circle id="GB43-2" stroke="#E2A62A" stroke-miterlimit="10" cx="657.5" cy="447.72" r="2.469"/>
			<circle id="GB44-2" stroke="#E2A62A" stroke-miterlimit="10" cx="682.666" cy="464.22" r="2.469"/>
			<circle id="EX-LE1-4" fill="#FFFFFF" stroke="#8E5E32" stroke-miterlimit="10" cx="577.053" cy="163.167" r="2.469"/>
			<circle id="EX-LE6-2" fill="#FFFFFF" stroke="#8E5E32" stroke-miterlimit="10" cx="599.917" cy="247.636" r="2.469"/>
			<circle id="EX-LE7-2" fill="#FFFFFF" stroke="#8E5E32" stroke-miterlimit="10" cx="616.583" cy="264.698" r="2.469"/>
			<circle id="EX-LE9-2" fill="#FFFFFF" stroke="#8E5E32" stroke-miterlimit="10" cx="583.053" cy="401.834" r="2.469"/>
			<circle id="BL58-2" stroke="#C31A6E" stroke-miterlimit="10" cx="563.75" cy="324.031" r="2.469"/>
			<circle id="BL59-2" stroke="#C31A6E" stroke-miterlimit="10" cx="569.25" cy="363.531" r="2.469"/>
			<circle id="BL60-2" stroke="#C31A6E" stroke-miterlimit="10" cx="568.5" cy="401.719" r="2.469"/>
			<circle id="BL61-2" stroke="#C31A6E" stroke-miterlimit="10" cx="563" cy="437.781" r="2.469"/>
			<circle id="BL62-2" stroke="#C31A6E" stroke-miterlimit="10" cx="582.75" cy="425.531" r="2.469"/>
			<circle id="BL63-2" stroke="#C31A6E" stroke-miterlimit="10" cx="599" cy="439.031" r="2.469"/>
			<circle id="BL64-2" stroke="#C31A6E" stroke-miterlimit="10" cx="611.5" cy="449.531" r="2.469"/>
			<circle id="BL65-2" stroke="#C31A6E" stroke-miterlimit="10" cx="630.219" cy="456.25" r="2.469"/>
			<circle id="BL66-2" stroke="#C31A6E" stroke-miterlimit="10" cx="648" cy="462.031" r="2.469"/>
			<circle id="BL67-2" stroke="#C31A6E" stroke-miterlimit="10" cx="667" cy="469.031" r="2.469"/>
		</g>
	</g>
</g>
<g id="svg-zuotui-wai">
	<g id="all_3_">
		<g id="shenti_3_">
			<path fill="#FBF0DB" stroke="#AB966E" stroke-miterlimit="10" d="M262.667,47.667c0,0-122.417,112.333-124.917,143.333
				c-4.25,38.75,33.417,154.001,17.584,186.668c-3.083,8.416-29.938,19.771-45.834,30.832c-15.896,11.063-22,20.5-29,23
				c-12,7-24.5-6.5-33,4.5c-11.167,19.668,13.833,23.002,13.833,23.002S66.5,461,69.75,458.5c-1.417,9.834,10.75,6,10.75,6
				s3.5,8.834,14.167,3.5c2.333,8,14.166-0.166,18.583-0.25c4.083,6.584,19.083,4.585,28.75-0.082C151.667,463,157.333,457,169,455
				s41.667,1.834,45.5-19.25c3.833-21.083-10.667-32.917-9.25-54c0.85-12.639-0.582-44.082,6.751-66.749s6.001-62.667,0.667-72.667
				s-12.884-16.365-10.667-24.667c20.667-6,130.665-66.834,137.499-89.917S262.667,47.667,262.667,47.667z"/>
			
			<path fill="none" stroke="#AB966E" stroke-miterlimit="10" d="M262.667,47.667c0,0-122.417,112.333-124.917,143.333
				c-4.25,38.75,33.417,154.001,17.584,186.668c-3.083,8.416-29.938,19.771-45.834,30.832c-15.896,11.063-22,20.5-29,23
				c-12,7-24.5-6.5-33,4.5c-11.167,19.668,13.833,23.002,13.833,23.002S66.5,461,69.75,458.5c-1.417,9.834,10.75,6,10.75,6
				s3.167,8.5,14.167,3.834c3.666,7.666,14.166-0.5,18.583-0.584c4.083,6.584,19.083,4.585,28.75-0.082
				C151.667,463,157.333,457,169,455s41.667,1.834,45.5-19.25c3.833-21.083-10.667-32.917-9.25-54
				c0.85-12.639-0.582-44.082,6.751-66.749s6.001-62.667,0.667-72.667s-12.884-16.365-10.667-24.667
				c20.667-6,130.665-66.834,137.499-89.917"/>
			<path fill="none" stroke="#AB966E" stroke-miterlimit="10" d="M190.668,368.335c0,0,0.666,13.668,4.666,18.667
				s-4.666,14-4.666,14"/>
			<path fill="none" stroke="#AB966E" stroke-miterlimit="10" d="M80,440.002c-1.639,1.196-4.332,1.33-6.166,2.164
				c-7-0.5-13.095,0.572-15.167,6.168c-3.333,8.998,7.834,10.835,10.167,10.832"/>
			<path fill="none" stroke="#AB966E" stroke-miterlimit="10" d="M88.834,446.334c-15,4-22.668,13.998-17.334,17.832
				c3.833,2.835,9.833-0.5,9.833-0.5"/>
			<path fill="none" stroke="#AB966E" stroke-miterlimit="10" d="M101.834,450.166c-5.5-0.333-19.666,5-20.5,13.167s10.667,7,13,4.5
				"/>
			<path fill="none" stroke="#AB966E" stroke-miterlimit="10" d="M111,455.334C101.834,453.5,92.334,462.5,94.667,468
				s8.5,3.166,9.667,2.166s10.332-3.666,14.999-2.833"/>
			<path fill="none" stroke="#AB966E" stroke-miterlimit="10" d="M51.375,435.625c-0.5,1.25,4.5,5.5,6.125,5.375
				s6.375-1.625,6.25-3.875s-3.375-3.75-6.375-3.5S51.875,434.375,51.375,435.625z"/>
			<path fill="none" stroke="#AB966E" stroke-miterlimit="10" d="M62.375,446.5c0.25,1.125,3.375,3.375,4.25,3.5
				s2.5-0.875,2.375-2.5s-2.5-2.5-3.625-2.375S62.125,445.375,62.375,446.5z"/>
			<path fill="none" stroke="#AB966E" stroke-miterlimit="10" d="M75.25,456.375c0-1.25,2.5-2.875,4-1.875s2.75,3.875,0.25,4.375
				S75.25,457.625,75.25,456.375z"/>
			<path fill="none" stroke="#AB966E" stroke-miterlimit="10" d="M86.25,461.5c-1-2.75,3.75-2.875,5.875-1.625
				C94.625,462.75,87.25,464.25,86.25,461.5z"/>
			<path fill="none" stroke="#AB966E" stroke-miterlimit="10" d="M97.375,464c1.5,3.25,7.75,2.625,6-0.25S97.625,463.25,97.375,464z
				"/>
		</g>
		<g id="jingluo_3_" display="none">
			<path id="Stomach-1" fill="none" stroke="#AE1E24" stroke-miterlimit="10" d="M263.048,47C256.965,52.615,254,65.5,254,65.5
				s-28.917,30.771-35,42c-6.083,11.23-70.5,67-71,97.5c-1.404,13.104,10.045,102.764,10.045,102.764S163.66,300.743,166,297
				c2,36-6.5,78.5-7,85c-8.5,28-65,62.5-65,62.5s-17.5,7.398-18.5,12.449"/>
			<path id="Gallbladder-1" fill="none" stroke="#E2A62A" stroke-miterlimit="10" d="M370,93.5c-46.5-27-131,44.5-131,44.5
				l-54,48c0,0-26,14-20,35c1,5.5,12.5,82.5,12.5,82.5l-7.173,0.414c0,0,7.673,16.086,4.147,34.009
				c0.505,1.514,2.017,6.05,3.025,9.577c0,21.5-4.458,38.896-9.5,52c-9,21.5-69.5,52.5-81.833,63.836"/>
			<path id="Bladder-1" fill="none" stroke="#C31A6E" stroke-miterlimit="10" d="M213.5,309.5
				c-14.666,7.111-14.055,71.61-14.055,71.61s2.61,49.167,7.055,55.39c-0.443,0.89-20-12.5-20-12.5l-29,24.5l-55.834,19.002"/>
		</g>
		<g id="xuewei_2">
			<circle id="ST31-1" stroke="#AE1E24" stroke-miterlimit="10" cx="254.28" cy="65.25" r="2.469"/>
			<circle id="ST32-1" stroke="#AE1E24" stroke-miterlimit="10" cx="217.78" cy="110" r="2.469"/>
			<circle id="ST33-1" stroke="#AE1E24" stroke-miterlimit="10" cx="188.5" cy="141.031" r="2.469"/>
			<circle id="ST34-1" stroke="#AE1E24" stroke-miterlimit="10" cx="177.5" cy="154.031" r="2.469"/>
			<circle id="ST35-1" stroke="#AE1E24" stroke-miterlimit="10" cx="148" cy="210.469" r="2.469"/>
			<circle id="ST36-1" stroke="#AE1E24" stroke-miterlimit="10" cx="150.28" cy="244" r="2.469"/>
			<circle id="ST37-1" stroke="#AE1E24" stroke-miterlimit="10" cx="154.03" cy="274.25" r="2.469"/>
			<circle id="ST38-1" stroke="#AE1E24" stroke-miterlimit="10" cx="156.53" cy="295.5" r="2.469"/>
			<circle id="ST39-1" stroke="#AE1E24" stroke-miterlimit="10" cx="158.03" cy="307.5" r="2.469"/>
			<circle id="ST40-1" stroke="#AE1E24" stroke-miterlimit="10" cx="165.28" cy="295" r="2.469"/>
			<circle id="ST41-1" stroke="#AE1E24" stroke-miterlimit="10" cx="158.78" cy="382.75" r="2.469"/>
			<circle id="ST42-1" stroke="#AE1E24" stroke-miterlimit="10" cx="147.53" cy="400.75" r="2.469"/>
			<circle id="ST43-1" stroke="#AE1E24" stroke-miterlimit="10" cx="126.03" cy="421.5" r="2.469"/>
			<circle id="ST44-1" stroke="#AE1E24" stroke-miterlimit="10" cx="94.5" cy="443.969" r="2.469"/>
			<circle id="ST45-1" stroke="#AE1E24" stroke-miterlimit="10" cx="75.53" cy="456" r="2.469"/>
			<circle id="GB30-1" stroke="#E2A62A" stroke-miterlimit="10" cx="371" cy="93.969" r="2.469"/>
			<circle id="GB31-1" stroke="#E2A62A" stroke-miterlimit="10" cx="242.53" cy="135" r="2.469"/>
			<circle id="GB32-1" stroke="#E2A62A" stroke-miterlimit="10" cx="222.333" cy="152.969" r="2.469"/>
			<circle id="GB33-1" stroke="#E2A62A" stroke-miterlimit="10" cx="185.5" cy="185.531" r="2.469"/>
			<circle id="GB34-1" stroke="#E2A62A" stroke-miterlimit="10" cx="164.333" cy="217.802" r="2.469"/>
			<circle id="GB35-1" stroke="#E2A62A" stroke-miterlimit="10" cx="176.833" cy="303.469" r="2.469"/>
			<circle id="GB36-1" stroke="#E2A62A" stroke-miterlimit="10" cx="170" cy="303.802" r="2.469"/>
			<circle id="GB37-1" stroke="#E2A62A" stroke-miterlimit="10" cx="175.471" cy="328" r="2.469"/>
			<circle id="GB38-1" stroke="#E2A62A" stroke-miterlimit="10" cx="174.584" cy="338.136" r="2.469"/>
			<circle id="GB39-1" stroke="#E2A62A" stroke-miterlimit="10" cx="177.584" cy="347.803" r="2.469"/>
			<circle id="GB40-1" stroke="#E2A62A" stroke-miterlimit="10" cx="166.667" cy="402.136" r="2.469"/>
			<circle id="GB41-1" stroke="#E2A62A" stroke-miterlimit="10" cx="146.667" cy="422.22" r="2.469"/>
			<circle id="GB42-1" stroke="#E2A62A" stroke-miterlimit="10" cx="134" cy="430.887" r="2.469"/>
			<circle id="GB43-1" stroke="#E2A62A" stroke-miterlimit="10" cx="111.75" cy="446.22" r="2.469"/>
			<circle id="GB44-1" stroke="#E2A62A" stroke-miterlimit="10" cx="86.584" cy="462.72" r="2.469"/>
			<circle id="EX-LE1-1" fill="#FFFFFF" stroke="#8E5E32" stroke-miterlimit="10" cx="192.197" cy="161.667" r="2.469"/>
			<circle id="EX-LE6-1" fill="#FFFFFF" stroke="#8E5E32" stroke-miterlimit="10" cx="169.333" cy="246.136" r="2.469"/>
			<circle id="EX-LE7-1" fill="#FFFFFF" stroke="#8E5E32" stroke-miterlimit="10" cx="152.667" cy="263.198" r="2.469"/>
			<circle id="EX-LE9-1" fill="#FFFFFF" stroke="#8E5E32" stroke-miterlimit="10" cx="186.197" cy="400.334" r="2.469"/>
			<circle id="BL58-1" stroke="#C31A6E" stroke-miterlimit="10" cx="205.5" cy="322.531" r="2.469"/>
			<circle id="BL59-1" stroke="#C31A6E" stroke-miterlimit="10" cx="200" cy="362.031" r="2.469"/>
			<circle id="BL60-1" stroke="#C31A6E" stroke-miterlimit="10" cx="200.75" cy="400.219" r="2.469"/>
			<circle id="BL61-1" stroke="#C31A6E" stroke-miterlimit="10" cx="206.25" cy="436.281" r="2.469"/>
			<circle id="BL62-1" stroke="#C31A6E" stroke-miterlimit="10" cx="186.5" cy="424.031" r="2.469"/>
			<circle id="BL63-1" stroke="#C31A6E" stroke-miterlimit="10" cx="170.25" cy="437.531" r="2.469"/>
			<circle id="BL64-1" stroke="#C31A6E" stroke-miterlimit="10" cx="157.75" cy="448.031" r="2.469"/>
			<circle id="BL65-1" stroke="#C31A6E" stroke-miterlimit="10" cx="139.031" cy="454.75" r="2.469"/>
			<circle id="BL66-1" stroke="#C31A6E" stroke-miterlimit="10" cx="121.25" cy="460.531" r="2.469"/>
			<circle id="BL67-1" stroke="#C31A6E" stroke-miterlimit="10" cx="102.25" cy="467.531" r="2.469"/>
		</g>
	</g>
</g>
</svg>
