<?xml version="1.0" encoding="utf-8"?>
<!-- Generator: Adobe Illustrator 16.0.0, SVG Export Plug-In . SVG Version: 6.00 Build 0)  -->
<!DOCTYPE svg PUBLIC "-//W3C//DTD SVG 1.1//EN" "http://www.w3.org/Graphics/SVG/1.1/DTD/svg11.dtd">
<svg version="1.1" id="svg" xmlns="http://www.w3.org/2000/svg" xmlns:xlink="http://www.w3.org/1999/xlink" x="0px" y="0px"
	 width="200px" height="200px" viewBox="0 0 1000.055 685.076" enable-background="new 0 0 1000.055 685.076"
	 xml:space="preserve">
<g id="svg-youtuinei">
	<g id="all">
		<g id="shenti">
			<g id="图层_6_x5F_复制_2">
				
			</g>
			<path fill="none" stroke="#A5906A" stroke-miterlimit="10" d="M556.233,578.165c0,0,2-6.334,11-3.668
				C573.9,584.497,556.233,578.165,556.233,578.165z"/>
			<g id="图层_6_x5F_复制">
				
			</g>
			<path fill="none" stroke="#A5906A" stroke-miterlimit="10" d="M545.9,583.497c0,0,3.333-7.334,10.333-7c5,1,5,2.334,8,2.334
				s-3.333,6.334-3.333,6.334L545.9,583.497z"/>
			<g id="图层_6">
				
			</g>
			<path fill="none" stroke="#A5906A" stroke-miterlimit="10" d="M534.567,586.497c0,0,0.333-5.332,5.333-6.332s13.667,4,20,2
				s-3,6.332-3,6.332L534.567,586.497z"/>
			<path fill="#F7ECD7" stroke="#A5906A" stroke-miterlimit="10" d="M868.077,79.095
				c-34.454,17.647-173.126,139.296-178.151,142.017c-5.024,2.722-9.2,0.002-13.445,3.361c-4.246,3.359-12.991,15.673-14.285,21.849
				c-1.294,6.177-0.388,12.854-0.84,21.85c-1.121,36.994-43.664,194.826-47.06,209.242
				c-24.729,83.084-59.698,107.058-65.547,108.404c-5.849,1.346-17.182-4.391-21.849-2.521c-12.667,11.2,5.21,22.176,12.604,22.688
				c7.396,0.512,15.928-5.555,19.328-2.521c24.067,8.366,28.577,3.284,38.656-0.841c10.078-4.127,27.495-33.532,34.453-39.495
				c6.958-5.966,34.465-13.181,45.378-28.572c12.913-18.726-7.401-39.392-9.243-47.06c0.823-31,37.933-80.875,45.378-112.604
				c7.445-31.729,2.403-63.56,10.925-77.311c19.188-24.418,166.386-121.849,166.386-121.849"/>
			<g id="图层_4">
				
			</g>
			<g id="图层_5">
				
			</g>
			<path fill="none" stroke="#A5906A" stroke-miterlimit="10" d="M868.077,79.095c-34.454,17.647-173.126,139.296-178.151,142.017
				c-5.024,2.722-9.2,0.002-13.445,3.361c-4.246,3.359-12.991,15.673-14.285,21.849c-1.294,6.177-0.388,12.854-0.84,21.85
				c-1.121,36.994-43.664,194.826-47.06,209.242c-24.729,83.084-59.698,107.058-65.547,108.404
				c-5.849,1.346-17.182-4.391-21.849-2.521c-12.667,11.2,5.21,22.176,12.604,22.688c7.396,0.512,15.928-5.555,19.328-2.521
				c24.067,8.366,28.577,3.284,38.656-0.841c10.078-4.127,27.495-33.532,34.453-39.495c6.958-5.966,34.465-13.181,45.378-28.572
				c12.913-18.726-7.401-39.392-9.243-47.06c0.823-31,37.933-80.875,45.378-112.604c7.445-31.729,2.403-63.56,10.925-77.311
				c19.188-24.418,166.386-121.849,166.386-121.849"/>
			<path fill="none" stroke="#A5906A" stroke-width="0.5" stroke-miterlimit="10" d="M647.233,466.165
				c-3.666,10.666-1.666,21.334-9.666,30.666"/>
			<path fill="#F5CEC1" stroke="#A5906A" stroke-miterlimit="10" d="M529.65,582.997c-0.375,2.375-2.5,3.75-2.5,3.75
				s7.5,2.625,11,1.75s2-3.625,2-3.625S529.275,582.372,529.65,582.997z"/>
		</g>
		<g id="jingluo" display="none">
			<path id="Spleen-2" fill="none" stroke="#85B12E" stroke-miterlimit="10" d="M881.902,102.833
				c-46.667,19.333-158.667,121.333-158.667,121.333s-36.666,14-42,30.667s2.666,36,2.666,36s-6,38.667-2,58
				c-25.333,47.333-30.666,98.666-32.666,113.332c-2.667,30-17.837,43.808-30.667,76.668c-7.262,18.599-16.194,38.121-28,48
				c-27.333,20.666-56,6.666-56,6.666"/>
			<path id="Liver-2" fill="none" stroke="#7F1C73" stroke-miterlimit="10" d="M891.902,138.166
				c-66.666,31.333-179.333,150-179.333,150L699.235,299.5c0,0-39.333,64-50,92.667c-4,43.334-39.333,116.666-39.333,116.666
				s-9.333,34.668-25.333,48.668c-13.334,17.332-29.334,25.332-29.334,25.332"/>
			<path id="Kidney-2" fill="none" stroke="#1B96D4" stroke-miterlimit="10" d="M890.569,160.166c0,0-91.334,52.667-166.667,138
				c-8.667,4-13.333,18-13.333,18l-56,157.999l11.333-0.665c0,0-4,30-20.667,50.665c11.334,10.666,30-3.334,30-3.334l-10.666-20.666
				c0,0-36.667,27.334-51.334,61.334c0,4.666,1.334,20-4,30.666"/>
		</g>
		<g id="xuewei_1">
			
				<circle id="SP11-2" fill="#040000" stroke="#8ABA29" stroke-width="0.75" stroke-miterlimit="10" cx="787.504" cy="168.498" r="2.469"/>
			
				<circle id="SP10-2" fill="#040000" stroke="#8ABA29" stroke-width="0.75" stroke-miterlimit="10" cx="723.431" cy="223.998" r="2.469"/>
			
				<circle id="SP9-2" fill="#040000" stroke="#8ABA29" stroke-width="0.75" stroke-miterlimit="10" cx="683.931" cy="291.498" r="2.469"/>
			
				<circle id="SP8-2" fill="#040000" stroke="#8ABA29" stroke-width="0.75" stroke-miterlimit="10" cx="681.931" cy="348.998" r="2.469"/>
			
				<circle id="SP7-2" fill="#040000" stroke="#8ABA29" stroke-width="0.75" stroke-miterlimit="10" cx="656.931" cy="416.998" r="2.469"/>
			
				<circle id="SP6-2" fill="#040000" stroke="#8ABA29" stroke-width="0.75" stroke-miterlimit="10" cx="649.431" cy="459.498" r="2.469"/>
			
				<circle id="SP5-2" fill="#040000" stroke="#8ABA29" stroke-width="0.75" stroke-miterlimit="10" cx="632.4" cy="510.529" r="2.469"/>
			
				<circle id="SP4-2" fill="#040000" stroke="#8ABA29" stroke-width="0.75" stroke-miterlimit="10" cx="599.431" cy="576.998" r="2.469"/>
			
				<circle id="SP3-2" fill="#040000" stroke="#8ABA29" stroke-width="0.75" stroke-miterlimit="10" cx="587.9" cy="588.967" r="2.469"/>
			
				<circle id="SP2-2" fill="#040000" stroke="#8ABA29" stroke-width="0.75" stroke-miterlimit="10" cx="555.4" cy="597.467" r="2.469"/>
			
				<circle id="SP1-2" fill="#040000" stroke="#8ABA29" stroke-width="0.75" stroke-miterlimit="10" cx="535.931" cy="593.498" r="2.469"/>
			<circle id="LR9-2" stroke="#7F1C73" stroke-miterlimit="10" cx="785.233" cy="217.467" r="2.469"/>
			<circle id="LR8-2" stroke="#7F1C73" stroke-miterlimit="10" cx="712.899" cy="288.134" r="2.469"/>
			<circle id="LR7-2" stroke="#7F1C73" stroke-miterlimit="10" cx="699.899" cy="299.134" r="2.469"/>
			<circle id="LR6-2" stroke="#7F1C73" stroke-miterlimit="10" cx="648.899" cy="392.801" r="2.469"/>
			<circle id="LR5-2" stroke="#7F1C73" stroke-miterlimit="10" cx="640.899" cy="430.467" r="2.469"/>
			<circle id="LR4-2" stroke="#7F1C73" stroke-miterlimit="10" cx="611.233" cy="505.801" r="2.469"/>
			<circle id="LR3-2" stroke="#7F1C73" stroke-miterlimit="10" cx="585.233" cy="556.801" r="2.469"/>
			<circle id="LR2-2" stroke="#7F1C73" stroke-miterlimit="10" cx="555.566" cy="582.135" r="2.469"/>
			<circle id="KI10-2" stroke="#1B96D4" stroke-miterlimit="10" cx="724.567" cy="297.801" r="2.469"/>
			<circle id="KI9-2" stroke="#1B96D4" stroke-miterlimit="10" cx="673.567" cy="421.135" r="2.469"/>
			<circle id="KI8-2" stroke="#1B96D4" stroke-miterlimit="10" cx="654.9" cy="473.801" r="2.469"/>
			<circle id="KI7-2" stroke="#1B96D4" stroke-miterlimit="10" cx="665.9" cy="473.135" r="2.469"/>
			<circle id="KI6-2" stroke="#1B96D4" stroke-miterlimit="10" cx="645.567" cy="524.467" r="2.469"/>
			<circle id="KI5-2" stroke="#1B96D4" stroke-miterlimit="10" cx="675.233" cy="520.467" r="2.469"/>
			<circle id="KI4-2" stroke="#1B96D4" stroke-miterlimit="10" cx="670.233" cy="510.801" r="2.469"/>
			<circle id="KI3-2" stroke="#1B96D4" stroke-miterlimit="10" cx="664.567" cy="500.467" r="2.469"/>
			<circle id="KI2-2" stroke="#1B96D4" stroke-miterlimit="10" cx="613.233" cy="561.467" r="2.469"/>
			<circle id="EX-LE3-2" fill="#FFFFFF" stroke="#8E5E32" stroke-miterlimit="10" cx="737.431" cy="212.166" r="2.469"/>
			<circle id="EX-LE4-2" fill="#FFFFFF" stroke="#8E5E32" stroke-miterlimit="10" cx="671.233" cy="263.031" r="2.469"/>
			<circle id="EX-LE8-2" fill="#FFFFFF" stroke="#8E5E32" stroke-miterlimit="10" cx="650.097" cy="500.832" r="2.469"/>
		</g>
	</g>
</g>
<g id="svg-zuotuinei">
	<g id="all_3_">
		<g id="shenti_2_">
			<g id="图层_6_x5F_复制_3">
				
			</g>
			<path fill="none" stroke="#A5906A" stroke-miterlimit="10" d="M407.586,582.665c0,0-2-6.334-11-3.668
				C389.92,588.997,407.586,582.665,407.586,582.665z"/>
			<g id="图层_6_x5F_复制_3">
				
			</g>
			<path fill="none" stroke="#A5906A" stroke-miterlimit="10" d="M417.92,587.997c0,0-3.334-7.334-10.334-7c-5,1-5,2.334-8,2.334
				s3.334,6.334,3.334,6.334L417.92,587.997z"/>
			<g id="图层_6_x5F_复制_x5F_2">
				
			</g>
			<path fill="none" stroke="#A5906A" stroke-miterlimit="10" d="M429.252,590.997c0,0-0.332-5.332-5.332-6.332s-13.668,4-20,2
				c-6.334-2,3,6.332,3,6.332L429.252,590.997z"/>
			<path fill="#F7ECD7" stroke="#A5906A" stroke-miterlimit="10" d="M95.743,83.595c34.454,17.647,173.126,139.296,178.151,142.017
				c5.025,2.722,9.2,0.002,13.446,3.361s12.992,15.673,14.285,21.849c1.295,6.177,0.387,12.854,0.841,21.85
				c1.12,36.994,43.663,194.826,47.059,209.242c24.729,83.084,59.698,107.058,65.547,108.404c5.85,1.346,17.182-4.391,21.85-2.521
				c12.666,11.2-5.211,22.176-12.604,22.688c-7.396,0.512-15.929-5.555-19.328-2.521c-24.066,8.366-28.576,3.284-38.656-0.841
				c-10.078-4.127-27.494-33.532-34.453-39.495c-6.957-5.966-34.464-13.181-45.377-28.572c-12.914-18.726,7.401-39.392,9.244-47.06
				c-0.824-31-37.933-80.875-45.378-112.604c-7.445-31.729-2.403-63.56-10.924-77.311c-19.192-24.417-166.39-121.849-166.39-121.849
				"/>
			<g id="图层_4_x5F_复制">
				
			</g>
			<g id="图层_5_x5F_复制">
				
			</g>
			<path fill="none" stroke="#A5906A" stroke-miterlimit="10" d="M95.743,83.595c34.454,17.647,173.126,139.296,178.151,142.017
				c5.025,2.722,9.2,0.002,13.446,3.361s12.992,15.673,14.285,21.849c1.295,6.177,0.387,12.854,0.841,21.85
				c1.12,36.994,43.663,194.826,47.059,209.242c24.729,83.084,59.698,107.058,65.547,108.404c5.85,1.346,17.182-4.391,21.85-2.521
				c12.666,11.2-5.211,22.176-12.604,22.688c-7.396,0.512-15.929-5.555-19.328-2.521c-24.066,8.366-28.576,3.284-38.656-0.841
				c-10.078-4.127-27.494-33.532-34.453-39.495c-6.957-5.966-34.464-13.181-45.377-28.572c-12.914-18.726,7.401-39.392,9.244-47.06
				c-0.824-31-37.933-80.875-45.378-112.604c-7.445-31.729-2.403-63.56-10.924-77.311c-19.192-24.417-166.39-121.849-166.39-121.849
				"/>
			<path fill="none" stroke="#A5906A" stroke-width="0.5" stroke-miterlimit="10" d="M316.586,470.665
				c3.666,10.666,1.666,21.334,9.666,30.666"/>
			<path fill="#F5CEC1" stroke="#A5906A" stroke-miterlimit="10" d="M434.17,587.497c0.375,2.375,2.5,3.75,2.5,3.75
				s-7.5,2.625-11,1.75s-2-3.625-2-3.625S434.545,586.872,434.17,587.497z"/>
		</g>
		<g id="jingluo_2_" display="none">
			<path id="Spleen-1" fill="none" stroke="#85B12E" stroke-miterlimit="10" d="M81.917,107.333
				c46.667,19.333,158.667,121.333,158.667,121.333s36.667,14,42,30.667s-2.667,36-2.667,36s6,38.667,2,58
				c25.334,47.333,30.666,98.666,32.666,113.332c2.668,30,17.838,43.808,30.668,76.668c7.26,18.599,16.193,38.121,28,48
				c27.332,20.666,56,6.666,56,6.666"/>
			<path id="Liver-1" fill="none" stroke="#7F1C73" stroke-miterlimit="10" d="M71.917,142.666
				c66.666,31.333,179.333,150,179.333,150L264.584,304c0,0,39.334,64,50,92.667c4,43.334,39.334,116.666,39.334,116.666
				s9.332,34.666,25.332,48.666c13.334,17.332,29.334,25.332,29.334,25.332"/>
			<path id="Kidney-1" fill="none" stroke="#1B96D4" stroke-miterlimit="10" d="M73.25,164.666c0,0,91.334,52.667,166.667,138
				c8.667,4,13.333,18,13.333,18l56,157.999l-11.333-0.666c0,0,4,30,20.667,50.666c-11.334,10.666-30-3.334-30-3.334l10.666-20.666
				c0,0,36.668,27.334,51.334,61.334c0,4.666-1.334,20,4,30.666"/>
		</g>
		<g id="xuewei_2">
			
				<circle id="SP11-1" fill="#040000" stroke="#8ABA29" stroke-width="0.75" stroke-miterlimit="10" cx="176.316" cy="172.998" r="2.469"/>
			
				<circle id="SP10-1" fill="#040000" stroke="#8ABA29" stroke-width="0.75" stroke-miterlimit="10" cx="240.389" cy="228.498" r="2.469"/>
			
				<circle id="SP9-1" fill="#040000" stroke="#8ABA29" stroke-width="0.75" stroke-miterlimit="10" cx="279.889" cy="295.998" r="2.469"/>
			
				<circle id="SP8-1" fill="#040000" stroke="#8ABA29" stroke-width="0.75" stroke-miterlimit="10" cx="281.889" cy="353.498" r="2.469"/>
			
				<circle id="SP7-1" fill="#040000" stroke="#8ABA29" stroke-width="0.75" stroke-miterlimit="10" cx="306.889" cy="421.498" r="2.469"/>
			
				<circle id="SP6-1" fill="#040000" stroke="#8ABA29" stroke-width="0.75" stroke-miterlimit="10" cx="314.389" cy="463.998" r="2.469"/>
			
				<circle id="SP5-1" fill="#040000" stroke="#8ABA29" stroke-width="0.75" stroke-miterlimit="10" cx="331.42" cy="515.029" r="2.469"/>
			
				<circle id="SP4-1" fill="#040000" stroke="#8ABA29" stroke-width="0.75" stroke-miterlimit="10" cx="364.389" cy="581.498" r="2.469"/>
			
				<circle id="SP3-1" fill="#040000" stroke="#8ABA29" stroke-width="0.75" stroke-miterlimit="10" cx="375.92" cy="593.467" r="2.469"/>
			
				<circle id="SP2-1" fill="#040000" stroke="#8ABA29" stroke-width="0.75" stroke-miterlimit="10" cx="408.42" cy="601.967" r="2.469"/>
			
				<circle id="SP1-1" fill="#040000" stroke="#8ABA29" stroke-width="0.75" stroke-miterlimit="10" cx="427.889" cy="597.998" r="2.469"/>
			<circle id="LR9-1" stroke="#7F1C73" stroke-miterlimit="10" cx="178.586" cy="221.967" r="2.469"/>
			<circle id="LR8-1" stroke="#7F1C73" stroke-miterlimit="10" cx="250.92" cy="292.634" r="2.469"/>
			<circle id="LR7-1" stroke="#7F1C73" stroke-miterlimit="10" cx="263.92" cy="303.634" r="2.469"/>
			<circle id="LR6-1" stroke="#7F1C73" stroke-miterlimit="10" cx="314.92" cy="397.301" r="2.469"/>
			<circle id="LR5-1" stroke="#7F1C73" stroke-miterlimit="10" cx="322.92" cy="434.967" r="2.469"/>
			<circle id="LR4-1" stroke="#7F1C73" stroke-miterlimit="10" cx="352.586" cy="510.301" r="2.469"/>
			<circle id="LR3-1" stroke="#7F1C73" stroke-miterlimit="10" cx="378.586" cy="561.301" r="2.469"/>
			<circle id="LR2-1" stroke="#7F1C73" stroke-miterlimit="10" cx="408.254" cy="586.635" r="2.469"/>
			<circle id="KI10-1" stroke="#1B96D4" stroke-miterlimit="10" cx="239.253" cy="302.301" r="2.469"/>
			<circle id="KI9-1" stroke="#1B96D4" stroke-miterlimit="10" cx="290.253" cy="425.635" r="2.469"/>
			<circle id="KI8-1" stroke="#1B96D4" stroke-miterlimit="10" cx="308.92" cy="478.301" r="2.469"/>
			<circle id="KI7-1" stroke="#1B96D4" stroke-miterlimit="10" cx="297.919" cy="477.635" r="2.469"/>
			<circle id="KI6-1" stroke="#1B96D4" stroke-miterlimit="10" cx="318.252" cy="528.967" r="2.469"/>
			<circle id="KI5-1" stroke="#1B96D4" stroke-miterlimit="10" cx="288.586" cy="524.967" r="2.469"/>
			<circle id="KI4-1" stroke="#1B96D4" stroke-miterlimit="10" cx="293.586" cy="515.301" r="2.469"/>
			<circle id="KI3-1" stroke="#1B96D4" stroke-miterlimit="10" cx="299.253" cy="504.967" r="2.469"/>
			<circle id="KI2-1" stroke="#1B96D4" stroke-miterlimit="10" cx="350.586" cy="565.967" r="2.469"/>
			<circle id="EX-LE3-1" fill="#FFFFFF" stroke="#8E5E32" stroke-miterlimit="10" cx="226.39" cy="216.666" r="2.469"/>
			<circle id="EX-LE4-1" fill="#FFFFFF" stroke="#8E5E32" stroke-miterlimit="10" cx="292.586" cy="267.531" r="2.469"/>
			<circle id="EX-LE8-1" fill="#FFFFFF" stroke="#8E5E32" stroke-miterlimit="10" cx="313.723" cy="505.332" r="2.469"/>
		</g>
	</g>
</g>
</svg>
