<?xml version="1.0" encoding="utf-8"?>
<!-- Generator: Adobe Illustrator 16.0.0, SVG Export Plug-In . SVG Version: 6.00 Build 0)  -->
<!DOCTYPE svg PUBLIC "-//W3C//DTD SVG 1.1//EN" "http://www.w3.org/Graphics/SVG/1.1/DTD/svg11.dtd">
<svg version="1.1" id="svg" xmlns="http://www.w3.org/2000/svg" xmlns:xlink="http://www.w3.org/1999/xlink" x="0px" y="0px"
	 width="200px" height="200px" viewBox="0 0 830 497" enable-background="new 0 0 830 497" xml:space="preserve">
<g id="svg-zuoshouxin">
	<g id="all">
		<g id="shenti">
			<path fill="#FDF2DD" stroke="#AE9970" stroke-miterlimit="10" d="M758.014,151.892c2.806-10.659,33.099-48.807,22.439-57.781
				c-10.659-8.976-26.927,43.196-37.586,42.635c-14.024-2.244,15.146-73.489-2.244-75.732
				c-17.391-2.244-14.586,65.635-26.927,65.073c-12.342-0.561,11.779-76.294-6.171-77.977
				c-17.952-1.683-10.099,75.733-21.317,75.733c-7.293-0.562-3.366-70.123-20.757-66.196c-17.392,3.927,10.659,95.928-3.365,97.05
				c-8.415-0.561-13.464-10.098-16.271-16.83c-2.242-16.829-21.315-17.951-25.805-13.463s20.195,36.464,21.878,43.757
				c10.099,25.244,24.685,28.049,27.488,34.22c7.854,77.978-37.586,131.832-35.342,145.856c-6.171-2.805-14.024-2.805-24.122-10.097
				c-63.392-44.879-121.733-40.392-143.051-49.929c-23.563,6.17-23,77.977-12.902,91.44
				c10.098,13.463,202.515,65.635,217.661,60.586c15.146-5.049,43.194-70.123,45.438-113.879s12.343-90.879,15.147-98.172
				s-1.122-7.293-0.563-20.196C746.794,197.893,755.209,162.552,758.014,151.892z"/>
			<g id="图层_6">
				
			</g>
			<path fill="none" stroke="#AE9970" stroke-miterlimit="10" d="M670.024,157.732c0,0,20.473,3.56,33.379,24.477"/>
			<path fill="none" stroke="#AE9970" stroke-miterlimit="10" d="M682.932,146.161c0,0,28.482,12.907,39.609,26.258"/>
			<path fill="none" stroke="#AE9970" stroke-miterlimit="10" d="M682.932,133.7c0,0,25.813,19.582,50.735,22.697"/>
			<path fill="none" stroke="#AE9970" stroke-miterlimit="10" d="M672.25,106.997c0,0-2.226,0.891-7.565,0.445"/>
			<path fill="none" stroke="#AE9970" stroke-miterlimit="10" d="M669.135,85.635c0,0-4.45,1.779-8.011,0.444"/>
			<path fill="none" stroke="#AE9970" stroke-miterlimit="10" d="M709.189,180.43c0,0-12.018,3.56-17.804,24.478"/>
			<path fill="none" stroke="#AE9970" stroke-miterlimit="10" d="M655.562,154.172c0,0-2.003,5.341-5.341,7.788"/>
			<path fill="none" stroke="#AE9970" stroke-miterlimit="10" d="M645.103,138.372c0,0,0.223,5.563-4.673,7.566"/>
			<path fill="none" stroke="#AE9970" stroke-miterlimit="10" d="M706.074,104.326c0,0-4.45,1.335-7.788-0.89"/>
			<path fill="none" stroke="#AE9970" stroke-miterlimit="10" d="M708.299,80.071c0,0-3.115,1.781-7.12-0.445"/>
			<path fill="none" stroke="#AE9970" stroke-miterlimit="10" d="M739.229,89.195c0,0-4.896,1.557-6.676-1.558"/>
			<path fill="none" stroke="#AE9970" stroke-miterlimit="10" d="M735.225,109.889c0,0-4.449,1.558-7.564-1.78"/>
			<path fill="none" stroke="#AE9970" stroke-miterlimit="10" d="M770.828,115.675c0,0-4.673,0.224-5.785-3.114"/>
			<path fill="none" stroke="#AE9970" stroke-miterlimit="10" d="M760.593,134.144c0,0-5.563-0.223-6.009-3.783"/>
			<path fill="none" stroke="#AE9970" stroke-miterlimit="10" d="M715.454,213.903c0,0-24.097,5.906-38.987-6.988"/>
		</g>
		<g id="jingluo" display="none">
			<path id="SmallIntestine-1" fill="none" stroke="#D31176" stroke-miterlimit="10" stroke-dasharray="3,3" d="M690.576,416
				c0,0-14,26.668-36,22.668"/>
			<path id="Heart-1_2_" fill="none" stroke="#1B96D4" stroke-miterlimit="10" stroke-dasharray="3,3" d="M765.242,105
				c-5.333,21.666-37.333,61.666-37.333,61.666s-0.334,34.333-2,45.333c1.333,28.667-27.408,185.5-73.409,197.5
				c-46,12-208.5-55.833-208.5-55.833L426,349"/>
			<path id="Pericardium-1" fill="none" stroke="#88157B" stroke-miterlimit="10" stroke-dasharray="3,3" d="M706.908,48.667
				c0,0-10.999,159.333-8.999,168C698.575,265.333,670.333,363.5,643,383.5c-17.333,14-147.091-52.167-147.091-52.167
				S457,317,441,322"/>
			<path id="Lung-1" fill="none" stroke="#89BA28" stroke-miterlimit="10" stroke-dasharray="3,3" d="M627.409,140.333
				l26.5,44.333l20,16.667L675.242,214c0,0-1.592,2.5-2.667,6c-2.575,17.5,0.722,29.286-5.242,63
				c-6.563,37.108-20.408,78.984-33.333,79.333C609.333,363,555.334,329,519.334,315.667S445.75,301.75,445.75,301.75"/>
		</g>
		<g id="xuewei_1">
			<circle id="HT8-1" stroke="#1B96D4" stroke-miterlimit="10" cx="728.379" cy="166" r="2.469"/>
			<circle id="HT7-1" stroke="#1B96D4" stroke-miterlimit="10" cx="726.63" cy="211.75" r="2.469"/>
			<circle id="HT6-1" stroke="#1B96D4" stroke-miterlimit="10" cx="725.712" cy="219.334" r="2.469"/>
			<circle id="HT5-1" stroke="#1B96D4" stroke-miterlimit="10" cx="725.242" cy="227.532" r="2.469"/>
			<circle id="HT4-1" stroke="#1B96D4" stroke-miterlimit="10" cx="723.712" cy="235.334" r="2.469"/>
			<circle id="HT3-1" stroke="#1B96D4" stroke-miterlimit="10" cx="645.439" cy="405.333" r="2.469"/>
			<circle id="HT2-1" stroke="#1B96D4" stroke-miterlimit="10" cx="556.104" cy="393.333" r="2.469"/>
			<circle id="HT1-1" stroke="#1B96D4" stroke-miterlimit="10" cx="426" cy="349.198" r="2.469"/>
			<circle id="PC9-1_x28_EX-UE11-3_x29_" stroke="#88157B" stroke-miterlimit="10" cx="707.213" cy="50.167" r="2.469"/>
			<circle id="PC8-1" stroke="#88157B" stroke-miterlimit="10" cx="700.576" cy="148.865" r="2.469"/>
			<circle id="PC7-1" stroke="#88157B" stroke-miterlimit="10" cx="698.379" cy="216.667" r="2.469"/>
			<circle id="PC6-1" stroke="#88157B" stroke-miterlimit="10" cx="695.712" cy="245" r="2.469"/>
			<circle id="PC5-1" stroke="#88157B" stroke-miterlimit="10" cx="693.242" cy="259.803" r="2.469"/>
			<circle id="PC4-1" stroke="#88157B" stroke-miterlimit="10" cx="688.5" cy="284.031" r="2.469"/>
			<circle id="PC3-1" stroke="#88157B" stroke-miterlimit="10" cx="638.379" cy="372" r="2.469"/>
			<circle id="PC2-1" stroke="#88157B" stroke-miterlimit="10" cx="497.045" cy="332.667" r="2.469"/>
			<circle id="LU11-1" stroke="#89BA28" stroke-miterlimit="10" cx="627.242" cy="140.865" r="2.469"/>
			<circle id="LU10-1" stroke="#89BA28" stroke-miterlimit="10" cx="655.712" cy="186.667" r="2.469"/>
			<circle id="LU9-1" stroke="#89BA28" stroke-miterlimit="10" cx="673.242" cy="200.199" r="2.469"/>
			<circle id="LU8-1" stroke="#89BA28" stroke-miterlimit="10" cx="675.242" cy="214.199" r="2.469"/>
			<circle id="LU7-1" stroke="#89BA28" stroke-miterlimit="10" cx="673.242" cy="220.865" r="2.469"/>
			<circle id="LU6-1" stroke="#89BA28" stroke-miterlimit="10" cx="665.826" cy="291.136" r="2.469"/>
			<circle id="LU5-1" stroke="#89BA28" stroke-miterlimit="10" cx="636.576" cy="361.636" r="2.469"/>
			<circle id="LU4-1_3_" stroke="#89BA28" stroke-miterlimit="10" cx="524.576" cy="317.636" r="2.469"/>
			<circle id="LU3-1_3_" stroke="#89BA28" stroke-miterlimit="10" cx="502.076" cy="310.636" r="2.469"/>
			<circle id="SI8-1" stroke="#D31176" stroke-miterlimit="10" cx="657.712" cy="438.667" r="2.469"/>
			<circle id="EX-UE2-1" fill="#FFFFFF" stroke="#8E5E32" stroke-miterlimit="10" cx="691.296" cy="272" r="2.469"/>
			<circle id="EX-UE2-2" fill="#FFFFFF" stroke="#8E5E32" stroke-miterlimit="10" cx="674.38" cy="270.75" r="2.469"/>
			
				<circle id="EX-UE11-1" fill="#FFFFFF" stroke="#956134" stroke-width="0.75" stroke-miterlimit="10" cx="621" cy="124.333" r="1.891"/>
			
				<circle id="EX-UE10-1" fill="#FFFFFF" stroke="#956134" stroke-width="0.75" stroke-miterlimit="10" cx="668.334" cy="107" r="1.891"/>
			
				<circle id="EX-UE11-2" fill="#FFFFFF" stroke="#956134" stroke-width="0.75" stroke-miterlimit="10" cx="666" cy="58" r="1.891"/>
			
				<circle id="EX-UE10-2" fill="#FFFFFF" stroke="#956134" stroke-width="0.75" stroke-miterlimit="10" cx="702.334" cy="104.667" r="1.891"/>
			
				<circle id="EX-UE10-3" fill="#FFFFFF" stroke="#956134" stroke-width="0.75" stroke-miterlimit="10" cx="731.334" cy="110" r="1.891"/>
			
				<circle id="EX-UE11-4" fill="#FFFFFF" stroke="#956134" stroke-width="0.75" stroke-miterlimit="10" cx="741.334" cy="61.667" r="1.891"/>
			
				<circle id="EX-UE10-4" fill="#FFFFFF" stroke="#956134" stroke-width="0.75" stroke-miterlimit="10" cx="757.667" cy="133" r="1.891"/>
			
				<circle id="EX-UE11-5" fill="#FFFFFF" stroke="#956134" stroke-width="0.75" stroke-miterlimit="10" cx="779.667" cy="94.333" r="1.891"/>
		</g>
	</g>
</g>
<g id="svg-youshouxin">
	<g id="all_2_">
		<g id="shenti_2_">
			<path fill="#FDF2DD" stroke="#AE9970" stroke-miterlimit="10" d="M71.354,151.767c-2.805-10.659-33.098-48.807-22.439-57.781
				c10.659-8.976,26.927,43.196,37.586,42.635c14.024-2.244-15.146-73.489,2.244-75.732c17.391-2.244,14.586,65.635,26.927,65.073
				c12.342-0.561-11.78-76.294,6.171-77.977c17.952-1.683,10.098,75.733,21.317,75.733c7.293-0.562,3.366-70.123,20.757-66.196
				s-10.659,95.928,3.365,97.05c8.415-0.561,13.464-10.098,16.27-16.83c2.243-16.829,21.316-17.951,25.805-13.463
				c4.489,4.488-20.195,36.464-21.878,43.757c-10.098,25.244-24.684,28.049-27.488,34.22
				c-7.854,77.978,37.586,131.832,35.342,145.856c6.171-2.805,14.024-2.805,24.122-10.098
				c63.391-44.879,121.733-40.392,143.051-49.929c23.563,6.171,23,77.978,12.902,91.44
				c-10.099,13.463-202.515,65.635-217.661,60.586s-43.195-70.122-45.439-113.88c-2.244-43.756-12.342-90.878-15.147-98.171
				c-2.805-7.293,1.122-7.293,0.562-20.196C82.573,197.768,74.158,162.427,71.354,151.767z"/>
			
			<path fill="none" stroke="#AE9970" stroke-miterlimit="10" d="M159.343,157.607c0,0-20.473,3.56-33.379,24.477"/>
			<path fill="none" stroke="#AE9970" stroke-miterlimit="10" d="M146.436,146.036c0,0-28.482,12.907-39.609,26.258"/>
			<path fill="none" stroke="#AE9970" stroke-miterlimit="10" d="M146.436,133.575c0,0-25.813,19.582-50.735,22.697"/>
			<path fill="none" stroke="#AE9970" stroke-miterlimit="10" d="M157.117,106.872c0,0,2.226,0.891,7.565,0.445"/>
			<path fill="none" stroke="#AE9970" stroke-miterlimit="10" d="M160.232,85.51c0,0,4.45,1.779,8.011,0.444"/>
			<path fill="none" stroke="#AE9970" stroke-miterlimit="10" d="M120.178,180.305c0,0,12.017,3.56,17.803,24.478"/>
			<path fill="none" stroke="#AE9970" stroke-miterlimit="10" d="M173.806,154.047c0,0,2.003,5.341,5.341,7.788"/>
			<path fill="none" stroke="#AE9970" stroke-miterlimit="10" d="M184.265,138.247c0,0-0.222,5.563,4.673,7.566"/>
			<path fill="none" stroke="#AE9970" stroke-miterlimit="10" d="M123.293,104.201c0,0,4.45,1.335,7.788-0.89"/>
			<path fill="none" stroke="#AE9970" stroke-miterlimit="10" d="M121.068,79.946c0,0,3.115,1.781,7.12-0.445"/>
			<path fill="none" stroke="#AE9970" stroke-miterlimit="10" d="M90.137,89.07c0,0,4.896,1.557,6.676-1.558"/>
			<path fill="none" stroke="#AE9970" stroke-miterlimit="10" d="M94.143,109.764c0,0,4.45,1.558,7.565-1.78"/>
			<path fill="none" stroke="#AE9970" stroke-miterlimit="10" d="M58.539,115.55c0,0,4.673,0.224,5.785-3.114"/>
			<path fill="none" stroke="#AE9970" stroke-miterlimit="10" d="M68.774,134.019c0,0,5.563-0.223,6.009-3.783"/>
			<path fill="none" stroke="#AE9970" stroke-miterlimit="10" d="M113.913,213.778c0,0,24.097,5.906,38.987-6.988"/>
		</g>
		<g id="jingluo_2_" display="none">
			<path id="SmallIntestine-2" fill="none" stroke="#D31176" stroke-miterlimit="10" stroke-dasharray="3,3" d="M138.791,415.875
				c0,0,14,26.668,36,22.668"/>
			<path id="Heart-2" fill="none" stroke="#1B96D4" stroke-miterlimit="10" stroke-dasharray="3,3" d="M64.125,104.875
				c5.333,21.666,37.333,61.666,37.333,61.666s0.334,34.333,2,45.333c-1.333,28.667,27.408,185.5,73.409,197.5
				c46,12,205.8-54.375,205.8-54.375s8.903-5.473,18.667-5.333"/>
			<path id="Pericardium-2_2_" fill="none" stroke="#88157B" stroke-miterlimit="10" stroke-dasharray="3,3" d="M122.459,48.542
				c0,0,10.999,159.333,8.999,168c-0.666,48.667,27.576,146.833,54.909,166.833c17.333,14,147.091-52.166,147.091-52.166
				s38.909-14.334,54.909-9.334"/>
			<path id="Lung-2" fill="none" stroke="#89BA28" stroke-miterlimit="10" stroke-dasharray="3,3" d="M201.958,140.208
				l-26.5,44.333l-20,16.667l-1.333,12.667c0,0,1.592,2.5,2.667,6c2.575,17.5-0.722,29.286,5.242,63
				c6.563,37.107,20.408,78.984,33.333,79.334c24.667,0.666,78.666-33.334,114.666-46.668c36-13.333,73.584-13.916,73.584-13.916"/>
		</g>
		<g id="xuewei_2">
			<circle id="HT8-2" stroke="#1B96D4" stroke-miterlimit="10" cx="100.988" cy="165.875" r="2.469"/>
			<circle id="HT7-2" stroke="#1B96D4" stroke-miterlimit="10" cx="102.737" cy="211.625" r="2.469"/>
			<circle id="HT6-2" stroke="#1B96D4" stroke-miterlimit="10" cx="103.655" cy="219.209" r="2.469"/>
			<circle id="HT5-2" stroke="#1B96D4" stroke-miterlimit="10" cx="104.125" cy="227.407" r="2.469"/>
			<circle id="HT4-2" stroke="#1B96D4" stroke-miterlimit="10" cx="105.655" cy="235.209" r="2.469"/>
			<circle id="HT3-2" stroke="#1B96D4" stroke-miterlimit="10" cx="183.928" cy="405.209" r="2.469"/>
			<circle id="HT2-2" stroke="#1B96D4" stroke-miterlimit="10" cx="273.262" cy="393.209" r="2.469"/>
			<circle id="HT1-2" stroke="#1B96D4" stroke-miterlimit="10" cx="401.334" cy="348.532" r="2.469"/>
			<circle id="PC9-2" stroke="#88157B" stroke-miterlimit="10" cx="122.154" cy="50.042" r="2.469"/>
			<circle id="PC8-2" stroke="#88157B" stroke-miterlimit="10" cx="128.791" cy="148.74" r="2.469"/>
			<circle id="PC7-2" stroke="#88157B" stroke-miterlimit="10" cx="130.988" cy="216.542" r="2.469"/>
			<circle id="PC6-2" stroke="#88157B" stroke-miterlimit="10" cx="133.655" cy="244.875" r="2.469"/>
			<circle id="PC5-2" stroke="#88157B" stroke-miterlimit="10" cx="136.125" cy="259.678" r="2.469"/>
			<circle id="PC4-2" stroke="#88157B" stroke-miterlimit="10" cx="140.867" cy="283.906" r="2.469"/>
			<circle id="PC3-2" stroke="#88157B" stroke-miterlimit="10" cx="190.988" cy="371.875" r="2.469"/>
			<circle id="PC2-2" stroke="#88157B" stroke-miterlimit="10" cx="332.322" cy="332.543" r="2.469"/>
			<circle id="LU11-2" stroke="#89BA28" stroke-miterlimit="10" cx="202.125" cy="140.74" r="2.469"/>
			<circle id="LU10-2" stroke="#89BA28" stroke-miterlimit="10" cx="173.655" cy="186.542" r="2.469"/>
			<circle id="LU9-2" stroke="#89BA28" stroke-miterlimit="10" cx="156.125" cy="200.074" r="2.469"/>
			<circle id="LU8-2" stroke="#89BA28" stroke-miterlimit="10" cx="154.125" cy="214.074" r="2.469"/>
			<circle id="LU7-2" stroke="#89BA28" stroke-miterlimit="10" cx="156.125" cy="220.74" r="2.469"/>
			<circle id="LU6-2" stroke="#89BA28" stroke-miterlimit="10" cx="163.541" cy="291.012" r="2.469"/>
			<circle id="LU5-2" stroke="#89BA28" stroke-miterlimit="10" cx="192.791" cy="361.512" r="2.469"/>
			<circle id="LU4-2" stroke="#89BA28" stroke-miterlimit="10" cx="304.791" cy="317.512" r="2.469"/>
			<circle id="LU3-2" stroke="#89BA28" stroke-miterlimit="10" cx="327.291" cy="310.512" r="2.469"/>
			<circle id="SI8-2" stroke="#D31176" stroke-miterlimit="10" cx="171.655" cy="438.542" r="2.469"/>
			<circle id="EX-UE2-3" fill="#FFFFFF" stroke="#8E5E32" stroke-miterlimit="10" cx="138.071" cy="271.875" r="2.469"/>
			<circle id="EX-UE2-4" fill="#FFFFFF" stroke="#8E5E32" stroke-miterlimit="10" cx="154.987" cy="270.625" r="2.469"/>
			
				<circle id="EX-UE11-6" fill="#FFFFFF" stroke="#956134" stroke-width="0.75" stroke-miterlimit="10" cx="208.367" cy="124.208" r="1.891"/>
			
				<circle id="EX-UE10-5" fill="#FFFFFF" stroke="#956134" stroke-width="0.75" stroke-miterlimit="10" cx="161.033" cy="106.875" r="1.891"/>
			
				<circle id="EX-UE11-7" fill="#FFFFFF" stroke="#956134" stroke-width="0.75" stroke-miterlimit="10" cx="163.367" cy="57.875" r="1.891"/>
			
				<circle id="EX-UE10-6" fill="#FFFFFF" stroke="#956134" stroke-width="0.75" stroke-miterlimit="10" cx="127.033" cy="104.542" r="1.891"/>
			
				<circle id="EX-UE10-7" fill="#FFFFFF" stroke="#956134" stroke-width="0.75" stroke-miterlimit="10" cx="98.033" cy="109.875" r="1.891"/>
			
				<circle id="EX-UE11-9" fill="#FFFFFF" stroke="#956134" stroke-width="0.75" stroke-miterlimit="10" cx="88.033" cy="61.542" r="1.891"/>
			
				<circle id="EX-UE10-8" fill="#FFFFFF" stroke="#956134" stroke-width="0.75" stroke-miterlimit="10" cx="71.7" cy="132.875" r="1.891"/>
			
				<circle id="EX-UE11-10" fill="#FFFFFF" stroke="#956134" stroke-width="0.75" stroke-miterlimit="10" cx="49.7" cy="94.208" r="1.891"/>
		</g>
	</g>
</g>
</svg>
