<?xml version="1.0" encoding="utf-8"?>
<!-- Generator: Adobe Illustrator 16.0.0, SVG Export Plug-In . SVG Version: 6.00 Build 0)  -->
<!DOCTYPE svg PUBLIC "-//W3C//DTD SVG 1.1//EN" "http://www.w3.org/Graphics/SVG/1.1/DTD/svg11.dtd">
<svg version="1.1" id="svg" xmlns="http://www.w3.org/2000/svg" xmlns:xlink="http://www.w3.org/1999/xlink" x="0px" y="0px"
	 width="469.079px" height="955.063px" viewBox="0 0 469.079 955.063" enable-background="new 0 0 469.079 955.063"
	 xml:space="preserve">
<g id="all">
	<g id="shenti">
		<g id="youtui">
			<g>
				<path fill="#FFFFFF" d="M94.583,437.916c0,0-3.25-4.25,0.25-6.25s8.5,3.5,8.5,3.5L94.583,437.916z"/>
				<g>
					<path fill="none" stroke="#A9946E" stroke-miterlimit="10" d="M95.537,437.616l-0.954,0.3c0,0-0.25-0.327-0.537-0.842"/>
					<path fill="none" stroke="#A9946E" stroke-miterlimit="10" stroke-dasharray="2.1411,2.1411" d="M93.286,435.082
						c-0.229-1.204-0.002-2.53,1.547-3.416c2.299-1.314,5.246,0.609,6.997,2.083"/>
					<path fill="none" stroke="#A9946E" stroke-miterlimit="10" d="M102.629,434.462c0.443,0.418,0.704,0.705,0.704,0.705
						l-0.954,0.3"/>
					
						<line fill="none" stroke="#A9946E" stroke-miterlimit="10" stroke-dasharray="2.3907,2.3907" x1="100.098" y1="436.183" x2="96.677" y2="437.258"/>
				</g>
			</g>
			<g>
				<path fill="#FFFFFF" d="M83.833,441.166c-2-0.75,1-13.75,12.5-4.25S85.833,441.916,83.833,441.166z"/>
				<path fill="none" stroke="#A9946E" stroke-miterlimit="10" stroke-dasharray="2.0766,2.0766" d="M83.833,441.166
					c-2-0.75,1-13.75,12.5-4.25S85.833,441.916,83.833,441.166z"/>
			</g>
			<g>
				<path fill="#FFFFFF" d="M72.583,444.416l1-6.25c0,0,2.75-2.25,6.5-2s11,7.25,11,7.25S76.583,449.416,72.583,444.416z"/>
				<g>
					<path fill="none" stroke="#A9946E" stroke-miterlimit="10" d="M73.297,445.115c-0.265-0.204-0.504-0.438-0.714-0.699
						l0.158-0.987"/>
					<path fill="none" stroke="#A9946E" stroke-miterlimit="10" stroke-dasharray="1.8924,1.8924" d="M73.04,441.56l0.543-3.394
						c0,0,2.75-2.25,6.5-2c2.715,0.181,7.266,3.901,9.57,5.94"/>
					<path fill="none" stroke="#A9946E" stroke-miterlimit="10" d="M90.355,442.738c0.46,0.42,0.728,0.679,0.728,0.679
						s-0.34,0.141-0.93,0.361"/>
					<path fill="none" stroke="#A9946E" stroke-miterlimit="10" stroke-dasharray="1.9386,1.9386" d="M88.327,444.419
						c-3.783,1.254-10.534,3.027-14.206,1.208"/>
				</g>
			</g>
			<g>
				<path fill="#FFFFFF" d="M269.309,47.223c0,0-114.639,116.34-116.807,157.143c-2.168,40.805,33.105,151.396,15.832,185.304
					c-7.118,13.973-28.662,16.076-44,24.5c-21.885,12.021-36,30-41,29.5s-11.5-9.5-11.5-9.5s-14-7.5-19.5,9s17.5,25.5,26,20.5
					c6,3,11.5-1.5,11.5-1.5s11,6.5,21.5,5.5s32-17.5,43-17.5s50.5,23.5,66.5-3c7-13-7.5-32-5.5-50.5
					c-0.727-17.909-1.555-47.354,8.973-67.93c10.528-20.573,9.027-71.07-2.473-84.57c-6-10.5-7.5-18-7.5-24
					c0-1.956,31.665-16.841,43-25.5c35.026-26.755,82.5-66,82.5-66L269.309,47.223z"/>
				<g>
					<path fill="none" stroke="#A9946E" stroke-miterlimit="10" d="M269.963,47.979l-0.654-0.756c0,0-0.239,0.243-0.696,0.711"/>
					<path fill="none" stroke="#A9946E" stroke-miterlimit="10" stroke-dasharray="2.0011,2.0011" d="M267.217,49.364
						c-15.555,16.014-112.721,117.467-114.715,155.001c-2.168,40.805,33.105,151.396,15.832,185.304
						c-7.118,13.973-28.662,16.076-44,24.5c-21.885,12.021-36,30-41,29.5s-11.5-9.5-11.5-9.5s-14-7.5-19.5,9
						c-5.142,15.426,14.626,24.297,24.168,21.3"/>
					<path fill="none" stroke="#A9946E" stroke-miterlimit="10" d="M77.446,464.119c0.311-0.135,0.607-0.285,0.888-0.45
						c0.307,0.153,0.612,0.287,0.916,0.403"/>
					<path fill="none" stroke="#A9946E" stroke-miterlimit="10" stroke-dasharray="2.0435,2.0435" d="M81.225,464.593
						c2.837,0.43,5.347-0.512,6.914-1.343"/>
					<path fill="none" stroke="#A9946E" stroke-miterlimit="10" d="M89.017,462.74c0.524-0.332,0.817-0.571,0.817-0.571
						s0.309,0.183,0.872,0.481"/>
					<path fill="none" stroke="#A9946E" stroke-miterlimit="10" stroke-dasharray="1.9952,1.9952" d="M92.488,463.544
						c3.894,1.848,11.493,4.826,18.846,4.125c10.5-1,32-17.5,43-17.5s50.5,23.5,66.5-3c7-13-7.5-32-5.5-50.5
						c-0.727-17.909-1.555-47.354,8.973-67.93c10.528-20.573,9.027-71.07-2.473-84.57c-6-10.5-7.5-18-7.5-24
						c0-1.956,31.665-16.841,43-25.5c31.303-23.91,72.545-57.796,80.961-64.731"/>
					<path fill="none" stroke="#A9946E" stroke-miterlimit="10" d="M339.067,129.303c0.504-0.416,0.768-0.634,0.768-0.634
						l-0.654-0.756"/>
					
						<line fill="none" stroke="#A9946E" stroke-miterlimit="10" stroke-dasharray="1.995,1.995" x1="337.874" y1="126.405" x2="270.618" y2="48.733"/>
				</g>
			</g>
			<g>
				<path fill="#FFFFFF" d="M269.309,47.223c0,0-114.639,116.34-116.807,157.143c-2.168,40.805,33.105,151.396,15.832,185.304
					c-7.118,13.973-28.662,16.076-44,24.5c-21.885,12.021-36,30-41,29.5s-11.5-9.5-11.5-9.5s-14-7.5-19.5,9s17.5,25.5,26,20.5
					c6,3,11.5-1.5,11.5-1.5s11,6.5,21.5,5.5s32-17.5,43-17.5s50.5,23.5,66.5-3c7-13-7.5-32-5.5-50.5
					c-0.727-17.909-1.555-47.354,8.973-67.93c10.528-20.573,9.027-71.07-2.473-84.57c-6-10.5-7.5-18-7.5-24
					c0-1.956,31.665-16.841,43-25.5c35.026-26.755,82.5-66,82.5-66"/>
				<g>
					<path fill="none" stroke="#A9946E" stroke-miterlimit="10" d="M269.309,47.223c0,0-0.239,0.243-0.696,0.711"/>
					<path fill="none" stroke="#A9946E" stroke-miterlimit="10" stroke-dasharray="2.0011,2.0011" d="M267.217,49.364
						c-15.555,16.014-112.721,117.467-114.715,155.001c-2.168,40.805,33.105,151.396,15.832,185.304
						c-7.118,13.973-28.662,16.076-44,24.5c-21.885,12.021-36,30-41,29.5s-11.5-9.5-11.5-9.5s-14-7.5-19.5,9
						c-5.142,15.426,14.626,24.297,24.168,21.3"/>
					<path fill="none" stroke="#A9946E" stroke-miterlimit="10" d="M77.446,464.119c0.311-0.135,0.607-0.285,0.888-0.45
						c0.307,0.153,0.612,0.287,0.916,0.403"/>
					<path fill="none" stroke="#A9946E" stroke-miterlimit="10" stroke-dasharray="2.0435,2.0435" d="M81.225,464.593
						c2.837,0.43,5.347-0.512,6.914-1.343"/>
					<path fill="none" stroke="#A9946E" stroke-miterlimit="10" d="M89.017,462.74c0.524-0.332,0.817-0.571,0.817-0.571
						s0.309,0.183,0.872,0.481"/>
					<path fill="none" stroke="#A9946E" stroke-miterlimit="10" stroke-dasharray="1.9952,1.9952" d="M92.488,463.544
						c3.894,1.848,11.493,4.826,18.846,4.125c10.5-1,32-17.5,43-17.5s50.5,23.5,66.5-3c7-13-7.5-32-5.5-50.5
						c-0.727-17.909-1.555-47.354,8.973-67.93c10.528-20.573,9.027-71.07-2.473-84.57c-6-10.5-7.5-18-7.5-24
						c0-1.956,31.665-16.841,43-25.5c31.303-23.91,72.545-57.796,80.961-64.731"/>
					<path fill="none" stroke="#A9946E" stroke-miterlimit="10" d="M339.067,129.303c0.504-0.416,0.768-0.634,0.768-0.634"/>
				</g>
			</g>
			<g>
				<path fill="#FFFFFF" d="M197.333,382.166c0,0,4,9,2.5,14s-6,8.5-8.5,10.5"/>
				<g>
					<path fill="none" stroke="#A9946E" stroke-miterlimit="10" d="M197.333,382.166c0,0,0.15,0.338,0.381,0.919"/>
					<path fill="none" stroke="#A9946E" stroke-miterlimit="10" stroke-dasharray="2.0127,2.0127" d="M198.415,384.97
						c1.061,3.064,2.388,7.965,1.418,11.196c-1.222,4.074-4.437,7.152-6.938,9.235"/>
					<path fill="none" stroke="#A9946E" stroke-miterlimit="10" d="M192.111,406.043c-0.275,0.222-0.536,0.429-0.778,0.623"/>
				</g>
			</g>
			<g>
				<path fill="#FFFFFF" d="M71.667,435.669c-1-1.5-2-2.334-5.167-0.667s1.5,10.165,4,9.333c2.5-0.833,4.333-3,4.333-3
					S72.667,437.169,71.667,435.669z"/>
				<g>
					<path fill="none" stroke="#A9946E" stroke-miterlimit="10" d="M74.137,442.05c0.444-0.417,0.696-0.715,0.696-0.715
						s-0.182-0.35-0.464-0.883"/>
					<path fill="none" stroke="#A9946E" stroke-miterlimit="10" stroke-dasharray="2.139,2.139" d="M73.354,438.568
						c-0.601-1.097-1.253-2.248-1.687-2.898c-1-1.5-2-2.334-5.167-0.667s1.5,10.165,4,9.333c1.107-0.369,2.084-1,2.829-1.588"/>
				</g>
			</g>
			<g>
				<path fill="#FFFFFF" d="M78.333,463.666c0,0-3.667-3-3.667-4.664"/>
				<g>
					<path fill="none" stroke="#A9946E" stroke-miterlimit="10" d="M78.333,463.666c0,0-0.31-0.254-0.75-0.655"/>
					<path fill="none" stroke="#A9946E" stroke-miterlimit="10" stroke-dasharray="1.3485,1.3485" d="M76.613,462.075
						c-0.467-0.479-0.944-1.021-1.31-1.548"/>
					<path fill="none" stroke="#A9946E" stroke-miterlimit="10" d="M74.954,459.957c-0.179-0.343-0.288-0.668-0.288-0.955"/>
				</g>
			</g>
		</g>
		<g id="zuotui">
			<path fill="#FFFFFF" stroke="#A9946E" stroke-miterlimit="10" stroke-dasharray="2" d="M299.098,883.915c0,0,3.25-4.25-0.25-6.25
				s-8.5,3.5-8.5,3.5L299.098,883.915z"/>
			<path fill="#FFFFFF" stroke="#A9946E" stroke-miterlimit="10" stroke-dasharray="2" d="M309.848,887.165
				c2-0.75-1-13.75-12.5-4.25S307.848,887.915,309.848,887.165z"/>
			<path fill="#FFFFFF" stroke="#A9946E" stroke-miterlimit="10" stroke-dasharray="2" d="M321.098,890.415l-1-6.25
				c0,0-2.75-2.25-6.5-2s-11,7.25-11,7.25S317.098,895.415,321.098,890.415z"/>
			<path fill="#FFFFFF" stroke="#A9946E" stroke-miterlimit="10" stroke-dasharray="2" d="M124.374,493.221
				c0,0,114.639,116.34,116.807,157.145c2.168,40.803-33.105,151.395-15.832,185.303c7.117,13.973,28.661,16.076,44,24.5
				c21.887,12.021,35.999,30,40.999,29.5s11.5-9.5,11.5-9.5s14-7.5,19.5,9s-17.5,25.5-26,20.5c-6,3-11.5-1.5-11.5-1.5
				s-10.999,6.5-21.499,5.5s-32-17.5-43-17.5s-50.5,23.5-66.5-3c-7-13,7.5-32,5.5-50.5c0.728-17.908,1.555-47.354-8.973-67.93
				c-10.527-20.57-9.027-71.07,2.473-84.57c6-10.5,7.5-18,7.5-24c0-1.955-31.664-16.842-43-25.5c-35.028-26.756-82.5-66-82.5-66"/>
			<path fill="#FFFFFF" stroke="#A9946E" stroke-miterlimit="10" stroke-dasharray="2" d="M196.348,828.165c0,0-4,9-2.5,14
				s6,8.5,8.5,10.5"/>
			<path fill="#FFFFFF" stroke="#A9946E" stroke-miterlimit="10" stroke-dasharray="2" d="M322.014,881.668
				c1-1.5,2-2.334,5.168-0.668c3.166,1.668-1.5,10.164-4,9.334c-2.5-0.834-4.334-3-4.334-3S321.014,883.168,322.014,881.668z"/>
			<path fill="#FFFFFF" stroke="#A9946E" stroke-miterlimit="10" stroke-dasharray="2" d="M315.348,909.665c0,0,3.666-3,3.666-4.664
				"/>
		</g>
	</g>
	<g id="jingluo">
		<path id="Spleen-1" fill="none" stroke="#82AB32" stroke-miterlimit="10" d="M90.348,505.665
			c34.574,14.324,113,107.5,113,107.5s20,14,23,31.5s-10.5,34.5-10.5,34.5s3.5,29.5-15.5,38c6.5,30.5-1.48,73.635,0,84.5
			c-1.5,22.5,17,51,17,51s25.5,38,52.5,45s49.668,8.736,67.834-4.133"/>
		<path id="Liver-1" fill="none" stroke="#791F6D" stroke-miterlimit="10" d="M59.348,536.165c50.726,23.842,131,126.5,131,126.5
			l11,15.5c0,0,12.5,49.5,9.5,76c-12.5,45,6.5,81,14.5,90.5s48,25,48,25l32.164,18.834"/>
		<path id="Kidney-1" fill="none" stroke="#278DC5" stroke-miterlimit="10" d="M53.848,553.665c0,0,68.688,48.145,125.5,112.5
			c6.536,3.02,5,12.5,4,15.5c-11.5,53.5,10.5,133.5,10.5,133.5l-8.547-0.504c0,0,6.047,43.504,27.547,60.004
			c-8.547,8.045-35,11-35,11s9.089-32.17,8.044-28.086c22.956,3.086,53.956,25.086,53.956,25.086s3.5,10.5,11.164,17.67"/>
		<path id="Spleen-2" fill="none" stroke="#82AB32" stroke-miterlimit="10" d="M303.334,59.667c-34.576,14.322-113,107.5-113,107.5
			s-20,14-23,31.5s10.5,34.5,10.5,34.5s-3.5,29.5,15.5,38c-6.5,30.499,1.48,73.634,0,84.499c1.5,22.5-17,51-17,51s-25.5,38-52.5,45
			S74.166,460.403,56,447.533"/>
		<path id="Liver-2" fill="none" stroke="#791F6D" stroke-miterlimit="10" d="M334.334,90.167c-50.728,23.841-131,126.5-131,126.5
			l-11,15.5c0,0-12.5,49.5-9.5,75.999c12.5,45-6.5,81-14.5,90.5s-48,25-48,25L88.169,442.5"/>
		<path id="Kidney-2" fill="none" stroke="#278DC5" stroke-miterlimit="10" d="M339.834,107.667c0,0-68.688,48.146-125.5,112.5
			c-6.536,3.018-5,12.5-4,15.5c11.5,53.5-10.5,133.499-10.5,133.499l8.546-0.503c0,0-6.046,43.503-27.546,60.003
			c8.547,8.045,35,11,35,11s-9.088-32.17-8.044-28.085c-22.956,3.085-53.956,25.085-53.956,25.085s-3.5,10.5-11.165,17.67"/>
	</g>
	<g id="xuewei">
		
			<circle id="SP11-1" fill="#070001" stroke="#86B330" stroke-width="0.75" stroke-miterlimit="10" cx="157.348" cy="561.808" r="2.47"/>
		
			<circle id="SP10-1" fill="#070001" stroke="#86B330" stroke-width="0.75" stroke-miterlimit="10" cx="203.151" cy="612.833" r="2.469"/>
		
			<circle id="SP9-1" fill="#070001" stroke="#86B330" stroke-width="0.75" stroke-miterlimit="10" cx="215.651" cy="679.333" r="2.469"/>
		
			<circle id="SP8-1" fill="#070001" stroke="#86B330" stroke-width="0.75" stroke-miterlimit="10" cx="200.651" cy="717.5" r="2.469"/>
		
			<circle id="SP7-1" fill="#070001" stroke="#86B330" stroke-width="0.75" stroke-miterlimit="10" cx="202.651" cy="762.167" r="2.469"/>
		
			<circle id="SP6-1" fill="#070001" stroke="#86B330" stroke-width="0.75" stroke-miterlimit="10" cx="200.485" cy="802" r="2.469"/>
		
			<circle id="SP5-1" fill="#070001" stroke="#86B330" stroke-width="0.75" stroke-miterlimit="10" cx="217.848" cy="853.697" r="2.47"/>
		
			<circle id="SP4-1" fill="#070001" stroke="#86B330" stroke-width="0.75" stroke-miterlimit="10" cx="274.484" cy="898.833" r="2.469"/>
		
			<circle id="SP3-1" fill="#070001" stroke="#86B330" stroke-width="0.75" stroke-miterlimit="10" cx="292.016" cy="902.135" r="2.469"/>
		
			<circle id="SP2-1" fill="#070001" stroke="#86B330" stroke-width="0.75" stroke-miterlimit="10" cx="317.516" cy="901.635" r="2.469"/>
		
			<circle id="SP1-1" fill="#070001" stroke="#86B330" stroke-width="0.75" stroke-miterlimit="10" cx="336.651" cy="893.667" r="2.469"/>
		<circle id="LR9-1" fill="#040000" stroke="#791F6D" stroke-miterlimit="10" cx="140.349" cy="604.301" r="2.469"/>
		<circle id="LR8-1" fill="#040000" stroke="#791F6D" stroke-miterlimit="10" cx="190.016" cy="661.969" r="2.469"/>
		<circle id="LR7-1" fill="#040000" stroke="#791F6D" stroke-miterlimit="10" cx="201.016" cy="678.301" r="2.469"/>
		<circle id="LR6-1" fill="#040000" stroke="#791F6D" stroke-miterlimit="10" cx="211.016" cy="753.969" r="2.469"/>
		<circle id="LR5-1" fill="#040000" stroke="#791F6D" stroke-miterlimit="10" cx="207.348" cy="771.635" r="2.469"/>
		<circle id="LR4-1" fill="#040000" stroke="#791F6D" stroke-miterlimit="10" cx="227.016" cy="846.635" r="2.469"/>
		<circle id="LR3-1" fill="#040000" stroke="#791F6D" stroke-miterlimit="10" cx="274.016" cy="869.637" r="2.469"/>
		<circle id="LR2-1" fill="#040000" stroke="#791F6D" stroke-miterlimit="10" cx="304.682" cy="888.635" r="2.469"/>
		<circle id="KI10-1" fill="#040000" stroke="#278DC5" stroke-miterlimit="10" cx="178.485" cy="665.667" r="2.469"/>
		<circle id="KI9-1" fill="#040000" stroke="#278DC5" stroke-miterlimit="10" cx="184.848" cy="771.697" r="2.47"/>
		<circle id="KI8-1" fill="#040000" stroke="#278DC5" stroke-miterlimit="10" cx="193.848" cy="814.969" r="2.469"/>
		<circle id="KI7-1" fill="#040000" stroke="#278DC5" stroke-miterlimit="10" cx="185.818" cy="814.667" r="2.469"/>
		<circle id="KI6-1" fill="#040000" stroke="#278DC5" stroke-miterlimit="10" cx="212.848" cy="874.697" r="2.47"/>
		<circle id="KI5-1" fill="#040000" stroke="#278DC5" stroke-miterlimit="10" cx="178.348" cy="884.697" r="2.47"/>
		<circle id="KI4-1" fill="#040000" stroke="#278DC5" stroke-miterlimit="10" cx="182.014" cy="870.469" r="2.469"/>
		<circle id="KI3-1" fill="#040000" stroke="#278DC5" stroke-miterlimit="10" cx="186.319" cy="857.667" r="2.469"/>
		<circle id="KI2-1" fill="#040000" stroke="#278DC5" stroke-miterlimit="10" cx="238.545" cy="883" r="2.469"/>
		<circle id="EX-LE3-1" fill="#FFFFFF" stroke="#8B5D32" stroke-miterlimit="10" cx="193.152" cy="601.333" r="2.469"/>
		<circle id="EX-LE4-1" fill="#FFFFFF" stroke="#8B5D32" stroke-miterlimit="10" cx="233.016" cy="664.531" r="2.47"/>
		<circle id="EX-LE8-1" fill="#FFFFFF" stroke="#8B5D32" stroke-miterlimit="10" cx="203.819" cy="853.667" r="2.469"/>
		
			<circle id="SP11-2" fill="#070001" stroke="#86B330" stroke-width="0.75" stroke-miterlimit="10" cx="236.333" cy="115.809" r="2.469"/>
		
			<circle id="SP10-2" fill="#070001" stroke="#86B330" stroke-width="0.75" stroke-miterlimit="10" cx="190.531" cy="166.833" r="2.469"/>
		
			<circle id="SP9-2" fill="#070001" stroke="#86B330" stroke-width="0.75" stroke-miterlimit="10" cx="178.031" cy="233.333" r="2.469"/>
		
			<circle id="SP8-2" fill="#070001" stroke="#86B330" stroke-width="0.75" stroke-miterlimit="10" cx="193.031" cy="271.5" r="2.469"/>
		
			<circle id="SP7-2" fill="#070001" stroke="#86B330" stroke-width="0.75" stroke-miterlimit="10" cx="191.031" cy="316.167" r="2.469"/>
		
			<circle id="SP6-2" fill="#070001" stroke="#86B330" stroke-width="0.75" stroke-miterlimit="10" cx="193.197" cy="356" r="2.469"/>
		
			<circle id="SP5-2" fill="#070001" stroke="#86B330" stroke-width="0.75" stroke-miterlimit="10" cx="175.833" cy="407.698" r="2.469"/>
		
			<circle id="SP4-2" fill="#070001" stroke="#86B330" stroke-width="0.75" stroke-miterlimit="10" cx="119.196" cy="452.833" r="2.469"/>
		
			<circle id="SP3-2" fill="#070001" stroke="#86B330" stroke-width="0.75" stroke-miterlimit="10" cx="101.667" cy="456.135" r="2.469"/>
		
			<circle id="SP2-2" fill="#070001" stroke="#86B330" stroke-width="0.75" stroke-miterlimit="10" cx="76.167" cy="455.635" r="2.469"/>
		
			<circle id="SP1-2" fill="#070001" stroke="#86B330" stroke-width="0.75" stroke-miterlimit="10" cx="57.03" cy="447.667" r="2.469"/>
		<circle id="LR9-2" fill="#040000" stroke="#791F6D" stroke-miterlimit="10" cx="253.333" cy="158.302" r="2.469"/>
		<circle id="LR8-2" fill="#040000" stroke="#791F6D" stroke-miterlimit="10" cx="203.666" cy="215.97" r="2.469"/>
		<circle id="LR7-2" fill="#040000" stroke="#791F6D" stroke-miterlimit="10" cx="192.667" cy="232.303" r="2.469"/>
		<circle id="LR6-2" fill="#040000" stroke="#791F6D" stroke-miterlimit="10" cx="182.667" cy="307.969" r="2.469"/>
		<circle id="LR5-2" fill="#040000" stroke="#791F6D" stroke-miterlimit="10" cx="186.333" cy="325.635" r="2.469"/>
		<circle id="LR4-2" fill="#040000" stroke="#791F6D" stroke-miterlimit="10" cx="166.667" cy="400.637" r="2.469"/>
		<circle id="LR3-2" fill="#040000" stroke="#791F6D" stroke-miterlimit="10" cx="119.667" cy="423.638" r="2.469"/>
		<circle id="LR2-2" fill="#040000" stroke="#791F6D" stroke-miterlimit="10" cx="89" cy="442.635" r="2.469"/>
		<circle id="KI10-2" fill="#040000" stroke="#278DC5" stroke-miterlimit="10" cx="215.197" cy="219.668" r="2.469"/>
		<circle id="KI9-2" fill="#040000" stroke="#278DC5" stroke-miterlimit="10" cx="208.833" cy="325.698" r="2.469"/>
		<circle id="KI8-2" fill="#040000" stroke="#278DC5" stroke-miterlimit="10" cx="199.833" cy="368.97" r="2.469"/>
		<circle id="KI7-2" fill="#040000" stroke="#278DC5" stroke-miterlimit="10" cx="207.863" cy="368.667" r="2.469"/>
		<circle id="KI6-2" fill="#040000" stroke="#278DC5" stroke-miterlimit="10" cx="180.833" cy="428.698" r="2.469"/>
		<circle id="KI5-2" fill="#040000" stroke="#278DC5" stroke-miterlimit="10" cx="215.333" cy="438.698" r="2.469"/>
		<circle id="KI4-2" fill="#040000" stroke="#278DC5" stroke-miterlimit="10" cx="211.667" cy="424.47" r="2.469"/>
		<circle id="KI3-2" fill="#040000" stroke="#278DC5" stroke-miterlimit="10" cx="207.363" cy="411.667" r="2.469"/>
		<circle id="KI2-2" fill="#040000" stroke="#278DC5" stroke-miterlimit="10" cx="155.137" cy="437" r="2.469"/>
		<circle id="EX-LE3-2" fill="#FFFFFF" stroke="#8B5D32" stroke-miterlimit="10" cx="200.529" cy="155.334" r="2.469"/>
		<circle id="EX-LE4-2" fill="#FFFFFF" stroke="#8B5D32" stroke-miterlimit="10" cx="160.667" cy="218.532" r="2.469"/>
		<circle id="EX-LE8-2" fill="#FFFFFF" stroke="#8B5D32" stroke-miterlimit="10" cx="189.863" cy="407.668" r="2.469"/>
	</g>
</g>
</svg>
