<?xml version="1.0" encoding="utf-8"?>
<!-- Generator: Adobe Illustrator 16.0.0, SVG Export Plug-In . SVG Version: 6.00 Build 0)  -->
<!DOCTYPE svg PUBLIC "-//W3C//DTD SVG 1.1//EN" "http://www.w3.org/Graphics/SVG/1.1/DTD/svg11.dtd">
<svg version="1.1" id="svg" xmlns="http://www.w3.org/2000/svg" xmlns:xlink="http://www.w3.org/1999/xlink" x="0px" y="0px"
	 width="595.281px" height="841.89px" viewBox="0 0 595.281 841.89" enable-background="new 0 0 595.281 841.89"
	 xml:space="preserve">
<g id="all">
	<g id="renwu" display="none">
		
			<image display="inline" overflow="visible" enable-background="new    " width="436" height="624" xlink:href="2755F624.jpeg"  transform="matrix(-1 0 0 1 516.2939 103.5122)">
		</image>
	</g>
	<g id="shenti">
		<path id="tou" display="none" fill="#FFFFFF" d="M347.701,387.333c0,0,23.5-2,40-15.5s21.5-54,26-62.5c-1.5-1.5-17-8-16.5-17
			s0-43-3.5-49c22-20.5,6-35.5-0.5-31.5c0,0,1,11.5-5,12.5c-6-3-10-23-24-41.5c-28.5-29-123-18-133-9.5s-21.5,44.5-27.5,46.5
			c-6.5-5.5-8.5-11.5-8.5-11.5s-17.5,15.5,8,34c-23.5,63,7.5,87.5,11,91c7,20.5,21,33.5,25,36
			C304.701,363.333,347.701,387.333,347.701,387.333z"/>
		<path id="xiong" display="none" fill="#FFFFFF" d="M355.701,398.833c0,0,18.758,24.776,25,51.471
			c-23,9.162-90.833,2.498-90.833,2.498s12-24.432-14-28.873c-26-4.442-49.333,17.768-49.333,17.768c-6.667,1.111-26-6.107-26-6.107
			s9.167-36.753,24.167-52.253C282.701,378.336,355.701,398.833,355.701,398.833z"/>
		<g id="fu" display="none">
			<path display="inline" fill="#FFFFFF" d="M380.701,449.333c0,0,11.834,40.334,9.834,55.666
				c-57.334,29.334-142.667,10.668-142.667,10.668s31.334-36,42-63.334C349.201,461.667,380.701,449.333,380.701,449.333z"/>
			<path display="inline" fill="#FFFFFF" d="M226.534,439c-11.666,1-26-7.332-26-7.332l-7.333,38
				C193.201,469.667,218.534,443.667,226.534,439z"/>
		</g>
		<path id="tun" display="none" fill="#FFFFFF" d="M390.535,505c0,0,4.334,34.332-6,50.666S236.201,625,197.868,543.333
			c10,0,13.333-10.334,13.333-10.334s23-0.666,36.666-17.332C339.201,534.666,390.535,505,390.535,505z"/>
		<g id="shou" display="none">
			<path id="zuoshou" display="inline" fill="#FFFFFF" d="M283.867,421c-31.666-18-75.999,33.667-90.666,48.667
				c-14.667,14.998-11.334,34.998-11.334,34.998s-28.333,12-7,30.334c-1,0.666,26.334,16.334,36.334-2
				c28.333,0.334,46.333-29.334,46.333-29.334S313.867,439,283.867,421z"/>
			<path display="inline" fill="#FFFFFF" d="M374.867,428.667c50.334,39.332,36.334,57,39,64c17,18.666,3,29.332,3,29.332
				s-11.332,11.334-25.666-5C394.201,511,386.201,449.667,374.867,428.667z"/>
		</g>
		<path id="jiao" display="none" fill="#FFFFFF" d="M320.201,658.333c0,0,20.334,0,17.666,23
			C337.201,684,328.201,686,328.201,686s0.666,2.334-0.334,4c-10,11.668-53.999,10.334-57.999,1c-4-9.332,3.666-21.666,3.666-21.666
			L320.201,658.333z"/>
		<path id="tui" display="none" fill="#FFFFFF" d="M273.326,668.583c-4.548-11.662-25.023-64.797-26.792-84.25
			c46.334,12,99.667-7.334,99.667-7.334s-11.666,47.668-17,50c-1.121,10.09-7.621,26.352-9.375,30.959L273.326,668.583z"/>
		<path id="jing" display="none" fill="#FFFFFF" d="M344.201,386l11.5,12.833c0,0-59.833-19.833-129.833-16.833
			c0.667-1.333,8.334-9,13.334-12.667C307.201,366,344.201,386,344.201,386z"/>
		<path fill="none" stroke="#727171" stroke-width="4" stroke-linejoin="round" stroke-miterlimit="10" d="M358.185,178
			c11.666,8.667,24.5,47,32,48c2.494,0.526,10.332-12.333,5-13.333c15.332,0.667,9.666,30.667-1.668,31.667
			c6,15.667,4.666,40,5,50.667s15,14,15,14s-6,46.667-23.666,61.333S348.185,387,348.185,387s18,18.667,26.332,41.333
			c52.334,39,39.334,64.666,39.334,64.666s16,19.334,1.334,29.334c-14.668,10-22.668-6.334-22.668-6.334s1.334,22-8.666,38.334
			s-35.666,21-35.666,21s-10.334,42.668-18,49.666c-4,22.002-10,33.334-10,33.334s22,1.334,16.666,22.334
			c0.666,4.334-8,5.666-8,5.666l-0.666,3c0,0-24,17.334-58.333,1.334c-6.666-10.334,5.334-20.668,5.334-20.668
			s-22.667-46.332-29-86.332c-38-11.334-48.667-40.668-48.667-40.668s-3.667-0.334-6.667-3c-17,2.334-24.332-14.668-23.666-21.666
			c0.666-7,16-15,16-15s-5.667-15.666,9.666-32.668C202.185,387.667,239.185,369,239.185,369s-17.334-14.333-25-37.333
			c-37.334-33-11-89.667-11-89.667s-23.334-18.333-7.667-32.667c-1.666,5.667,7.334,9,8,9.667c5.334,0.334,14.668-31,27.334-44.667
			S338.851,156,358.185,178z"/>
	</g>
	<g id="jingluo" display="none">
		<path id="Governor" display="inline" fill="none" stroke="#915F33" stroke-miterlimit="10" d="M407.589,332.667
			c2.668-12.667,6-23.333,6-23.333s-16.666-9.333-16-20.667c0.668-11.333,2-38.667-10-59.333s-74.666-78-143.333-38
			C162.257,240.667,220.924,350,231.59,352c4.667,1.333,10.668,8,9.334,14.667"/>
		<path id="Gallbladder-2" display="inline" fill="none" stroke="#EBAC22" stroke-miterlimit="10" d="M327.589,684.666
			c0,0-35.333,3.334-38-8.666s0.667-25.334,0.667-25.334l-6,0.668c0,0,3.333-18.666-2-30c0-19.334-19.333-50.668-19.333-50.668
			s58,3.336,62-7.998s-40-34.668-44-46.668c4,0.668,39.333,8.666,68.666-25.332c-32,6.666-40.666-30.668-40.666-30.668l-4.666-4.666
			c0,0,19.332-8.666,19.332-22c0-13.333-11.332-39.333-52.666-40.667c-1.334-26-17.334-25.137-28.667-51.333
			c-19.731-45.606-33.011-109.377,9.333-132.667c66.667-36.667,128,22,126,43.333c-16-44-95.333-60.667-127.333-28
			s-19.333,109.334,20,112.667C244.924,316,252.924,294,260.257,284c14-22,46-16,46-1.334c4.666,2,30-17.999,22.666-35.333
			c25.334,44.667-22,68-22,68s44.668-31.333,58-28"/>
		<g id="TripleEnergizer-2" display="inline">
			<g>
				<line fill="none" stroke="#EBAC22" stroke-miterlimit="10" x1="372.257" y1="262.666" x2="369.921" y2="263.556"/>
				
					<line fill="none" stroke="#EBAC22" stroke-miterlimit="10" stroke-dasharray="4.6605,4.6605" x1="365.566" y1="265.215" x2="306.771" y2="287.613"/>
				<path fill="none" stroke="#EBAC22" stroke-miterlimit="10" d="M304.593,288.443l-2.336,0.89c0,0-0.301,0.901-0.617,2.419"/>
				<path fill="none" stroke="#EBAC22" stroke-miterlimit="10" d="M301.019,296.164c-0.059,0.791-0.096,1.628-0.096,2.502
					c-0.041-0.848-0.102-1.681-0.176-2.494"/>
				<path fill="none" stroke="#EBAC22" stroke-miterlimit="10" stroke-dasharray="4.999,4.999" d="M300.007,291.228
					c-1.961-9.092-7.082-14.429-17.75-11.229c-12.643,8.428-13.868,38.059-1.714,47.653"/>
				<path fill="none" stroke="#EBAC22" stroke-miterlimit="10" d="M282.628,329.025c0.727,0.391,1.492,0.717,2.295,0.975
					c-0.466,0.466-1.03,1.094-1.672,1.855"/>
				<path fill="none" stroke="#EBAC22" stroke-miterlimit="10" stroke-dasharray="5.0027,5.0027" d="M280.136,335.765
					c-8.662,11.297-23.212,32.901-23.212,32.901s1.999,18,10.666,24.667s0,16.667,0,16.667l-46,39.333l-13.17,27.482"/>
				<polyline fill="none" stroke="#EBAC22" stroke-miterlimit="10" points="207.336,479.078 206.256,481.333 209.59,484 
					208.344,486.167 				"/>
				<polyline fill="none" stroke="#EBAC22" stroke-miterlimit="10" stroke-dasharray="5.0449,5.0449" points="205.829,490.541 
					194.256,510.667 175.972,527.289 				"/>
				<line fill="none" stroke="#EBAC22" stroke-miterlimit="10" x1="174.105" y1="528.986" x2="172.256" y2="530.667"/>
			</g>
		</g>
		<g id="Stomach-2" display="inline">
			<path fill="none" stroke="#B81C25" stroke-miterlimit="10" d="M380.923,293.333c0,0-8,34.667,0.666,48.667
				c-1.332,8.667-57.332,28.667-56.666-11.333c0-16.667,24-47.333,22.666-66.667c-1.332-19.333-20.666-36-20.666-36"/>
			<path fill="none" stroke="#B81C25" stroke-miterlimit="10" d="M364.257,352.666c0,0-23.334,25.334-36.668,22.668L324.923,388
				l4,9.333c0,0-19.334-7.334-26.666-13.333c21.332,22.668,47.334,60.666,50.666,70c3.334,9.334-1.334,28-1.334,28
				s9.334,2.666,14.668-2c-6.668,37.334-23.334,80.668-23.334,80.668S332.257,588.666,327.589,590
				c-4.666,1.334-11.998,38.668-16.666,41.334c0,2-4,25.334-4,25.334l-3.334-6c0,0-5.999,15.332-0.666,22c5.334,6.666,26,8,26,8"/>
		</g>
		<path id="LargeIntestine-2" display="inline" fill="none" stroke="#B81C25" stroke-miterlimit="10" stroke-dasharray="5,5" d="
			M386.923,314c4.666,8,20,6,20,6s-87.334,20-123.333,46.666c0,16.001-20.001,16-17.334,24s17.335,2,22.668,12
			S249.59,460,248.923,475.333c-4.666,9.332-22,24-22,24s-15.333,24-23.333,28s-14.667,10-14.667,10"/>
		<g id="Bladder-2" display="inline">
			<path fill="none" stroke="#D31176" stroke-miterlimit="10" d="M391.589,265.333c-4-31.333-22-48.667-22-48.667
				s-0.666-0.667-4.666,0c-2-10.667-65.334-52-122.667-12.667s-14,143.333-2.667,149.333c6.667,6.667,4.667,13.333,4.667,13.333"/>
			<path fill="none" stroke="#D31176" stroke-miterlimit="10" d="M267.59,649.333c12,14.666,10.667,37.334,10.667,37.334
				l7.333-5.334c0,0,14,9.332,36.667,8"/>
		</g>
		<path id="Spleen-2" display="inline" fill="none" stroke="#8ABA28" stroke-miterlimit="10" d="M298.923,470.667
			c16-2,32.666-24,32.666-24s8.002,46.666,17.334,56c-22,26-12.666,61.332-18.666,67.332"/>
		<path id="Lung-2" display="inline" fill="none" stroke="#8ABA28" stroke-miterlimit="10" stroke-dasharray="5,5" d="
			M306.923,395.333l-6-7.333c0,0-9.333,4.667-8.667,16.667s-9.334,39.999-9.334,48.667c0,8.666-14,28.666-13.333,34.666"/>
		<path id="Liver-2" display="inline" fill="none" stroke="#88157B" stroke-miterlimit="10" d="M348.923,484.667
			c0,0-23.334,40.666-52.667,40c40.667,20,38.667,50,38.667,50"/>
		<path id="Pericardium-2" display="inline" fill="none" stroke="#88157B" stroke-miterlimit="10" stroke-dasharray="5,5" d="
			M286.256,458.667c0,0,10.667-28.668,26-28.668c15.334,0,24.668,12.668,37.334,34.668"/>
		<g id="SmallIntestine-2" display="inline">
			<path fill="none" stroke="#D31177" stroke-miterlimit="10" stroke-dasharray="5,5" d="M197.59,466c-2.881,7.043-13.334,24-14,38
				c-10.667,2-16,18-16,18"/>
			<path fill="none" stroke="#D31177" stroke-miterlimit="10" stroke-dasharray="5,5" d="M298.257,305.334
				c30.666,12.667,71.332,6,71.332,6s-56,22.667-73.333,25.333s-31.333,26-45.333,31.333"/>
		</g>
		<g id="Dai" display="inline">
			<path fill="none" stroke="#898989" stroke-miterlimit="10" d="M245.667,521.667c28.333-26.668,51.667,4,51.667,4
				s27.667,25.334,28.667,36.666c0,0,15-18,27.666-12"/>
		</g>
	</g>
	<g id="xuewei" display="none">
		
			<circle id="GV27" display="inline" fill="#040000" stroke="#926034" stroke-width="0.75" stroke-miterlimit="10" cx="407.589" cy="331.891" r="1.891"/>
		
			<circle id="GV26" display="inline" fill="#040000" stroke="#926034" stroke-width="0.75" stroke-miterlimit="10" cx="410.089" cy="322.391" r="1.891"/>
		
			<circle id="GV25" display="inline" fill="#040000" stroke="#926034" stroke-width="0.75" stroke-miterlimit="10" cx="413.089" cy="308.391" r="1.891"/>
		
			<circle id="GV24" display="inline" fill="#040000" stroke="#926034" stroke-width="0.75" stroke-miterlimit="10" cx="381.589" cy="221.609" r="1.891"/>
		
			<circle id="GV23" display="inline" fill="#040000" stroke="#926034" stroke-width="0.75" stroke-miterlimit="10" cx="374.089" cy="212.891" r="1.891"/>
		
			<circle id="GV22" display="inline" fill="#040000" stroke="#926034" stroke-width="0.75" stroke-miterlimit="10" cx="358.98" cy="200" r="1.891"/>
		
			<circle id="GV21" display="inline" fill="#040000" stroke="#926034" stroke-width="0.75" stroke-miterlimit="10" cx="303.589" cy="177.391" r="1.891"/>
		
			<circle id="GV20" display="inline" fill="#040000" stroke="#926034" stroke-width="0.75" stroke-miterlimit="10" cx="260.48" cy="183" r="1.891"/>
		
			<circle id="GV19" display="inline" fill="#040000" stroke="#926034" stroke-width="0.75" stroke-miterlimit="10" cx="227.98" cy="203" r="1.891"/>
		
			<circle id="GV18" display="inline" fill="#040000" stroke="#926034" stroke-width="0.75" stroke-miterlimit="10" cx="207.09" cy="235.109" r="1.891"/>
		
			<circle id="GV17" display="inline" fill="#040000" stroke="#926034" stroke-width="0.75" stroke-miterlimit="10" cx="204.98" cy="297" r="1.891"/>
		
			<circle id="GV16" display="inline" fill="#040000" stroke="#926034" stroke-width="0.75" stroke-miterlimit="10" cx="218.09" cy="334.609" r="1.891"/>
		
			<circle id="GV15" display="inline" fill="#040000" stroke="#926034" stroke-width="0.75" stroke-miterlimit="10" cx="228.59" cy="350.109" r="1.891"/>
		
			<circle id="GB14-2" display="inline" fill="#040000" stroke="#ECA123" stroke-width="0.75" stroke-miterlimit="10" cx="377.464" cy="252.5" r="1.875"/>
		
			<circle id="GB15-2" display="inline" fill="#040000" stroke="#ECA123" stroke-width="0.75" stroke-miterlimit="10" cx="358.589" cy="220.875" r="1.875"/>
		
			<circle id="GB16-2" display="inline" fill="#040000" stroke="#ECA123" stroke-width="0.75" stroke-miterlimit="10" cx="343.089" cy="209.875" r="1.875"/>
		
			<circle id="GB17-2" display="inline" fill="#040000" stroke="#ECA123" stroke-width="0.75" stroke-miterlimit="10" cx="302.589" cy="197.375" r="1.875"/>
		
			<circle id="GB18-2" display="inline" fill="#040000" stroke="#ECA123" stroke-width="0.75" stroke-miterlimit="10" cx="270.465" cy="200" r="1.875"/>
		
			<circle id="GB19-2" display="inline" fill="#040000" stroke="#ECA123" stroke-width="0.75" stroke-miterlimit="10" cx="227.465" cy="296" r="1.875"/>
		
			<circle id="GB20-2" display="inline" fill="#040000" stroke="#ECA123" stroke-width="0.75" stroke-miterlimit="10" cx="236.09" cy="325.375" r="1.875"/>
		
			<circle id="GB21-2" display="inline" fill="#040000" stroke="#ECA123" stroke-width="0.75" stroke-miterlimit="10" cx="270.965" cy="392.5" r="1.875"/>
		
			<circle id="GB22-2" display="inline" fill="#040000" stroke="#ECA123" stroke-width="0.75" stroke-miterlimit="10" cx="304.964" cy="455.5" r="1.875"/>
		
			<circle id="GB23-2" display="inline" fill="#040000" stroke="#ECA123" stroke-width="0.75" stroke-miterlimit="10" cx="308.964" cy="460.75" r="1.875"/>
		
			<circle id="GB24-2" display="inline" fill="#040000" stroke="#ECA123" stroke-width="0.75" stroke-miterlimit="10" cx="350.214" cy="489.5" r="1.875"/>
		
			<circle id="GB25-2" display="inline" fill="#040000" stroke="#ECA123" stroke-width="0.75" stroke-miterlimit="10" cx="281.215" cy="516" r="1.875"/>
		
			<circle id="GB26-2" display="inline" fill="#040000" stroke="#ECA123" stroke-width="0.75" stroke-miterlimit="10" cx="292.965" cy="529.25" r="1.875"/>
		
			<circle id="GB27-2" display="inline" fill="#040000" stroke="#ECA123" stroke-width="0.75" stroke-miterlimit="10" cx="321.714" cy="553.5" r="1.875"/>
		
			<circle id="GB28-2" display="inline" fill="#040000" stroke="#ECA123" stroke-width="0.75" stroke-miterlimit="10" cx="325.214" cy="561" r="1.875"/>
		
			<circle id="GB29-2" display="inline" fill="#040000" stroke="#ECA123" stroke-width="0.75" stroke-miterlimit="10" cx="317.964" cy="567.25" r="1.875"/>
		
			<circle id="GB30-2" display="inline" fill="#040000" stroke="#ECA123" stroke-width="0.75" stroke-miterlimit="10" cx="262.465" cy="570.5" r="1.875"/>
		
			<circle id="GB31-2" display="inline" fill="#040000" stroke="#ECA123" stroke-width="0.75" stroke-miterlimit="10" cx="275.715" cy="596" r="1.875"/>
		
			<circle id="GB32-2" display="inline" fill="#040000" stroke="#ECA123" stroke-width="0.75" stroke-miterlimit="10" cx="278.965" cy="603.75" r="1.875"/>
		
			<circle id="GB33-2" display="inline" fill="#040000" stroke="#ECA123" stroke-width="0.75" stroke-miterlimit="10" cx="282.465" cy="620.75" r="1.875"/>
		
			<circle id="GB34-2" display="inline" fill="#040000" stroke="#ECA123" stroke-width="0.75" stroke-miterlimit="10" cx="285.465" cy="634.5" r="1.875"/>
		
			<circle id="GB35-2" display="inline" fill="#040000" stroke="#ECA123" stroke-width="0.75" stroke-miterlimit="10" cx="284.215" cy="651.25" r="1.875"/>
		
			<circle id="GB36-2" display="inline" fill="#040000" stroke="#ECA123" stroke-width="0.75" stroke-miterlimit="10" cx="290.215" cy="650.75" r="1.875"/>
		
			<circle id="GB37-2" display="inline" fill="#040000" stroke="#ECA123" stroke-width="0.75" stroke-miterlimit="10" cx="288.965" cy="658.25" r="1.875"/>
		
			<circle id="GB38-2" display="inline" fill="#040000" stroke="#ECA123" stroke-width="0.75" stroke-miterlimit="10" cx="288.715" cy="663.25" r="1.875"/>
		
			<circle id="GB39-2" display="inline" fill="#040000" stroke="#ECA123" stroke-width="0.75" stroke-miterlimit="10" cx="288.465" cy="667.5" r="1.875"/>
		
			<circle id="GB40-2" display="inline" fill="#040000" stroke="#ECA123" stroke-width="0.75" stroke-miterlimit="10" cx="290.965" cy="678.25" r="1.875"/>
		
			<circle id="GB41-2" display="inline" fill="#040000" stroke="#ECA123" stroke-width="0.75" stroke-miterlimit="10" cx="299.964" cy="683" r="1.875"/>
		
			<circle id="GB42-2" display="inline" fill="#040000" stroke="#ECA123" stroke-width="0.75" stroke-miterlimit="10" cx="304.714" cy="684.5" r="1.875"/>
		
			<circle id="GB43-2" display="inline" fill="#040000" stroke="#ECA123" stroke-width="0.75" stroke-miterlimit="10" cx="310.714" cy="685.25" r="1.875"/>
		
			<circle id="GB44-2" display="inline" fill="#040000" stroke="#ECA123" stroke-width="0.75" stroke-miterlimit="10" cx="325.964" cy="684.75" r="1.875"/>
		
			<circle id="GB13-2" display="inline" fill="#040000" stroke="#ECA123" stroke-width="0.75" stroke-miterlimit="10" cx="350.589" cy="221.125" r="1.875"/>
		
			<circle id="GB12-2" display="inline" fill="#040000" stroke="#ECA123" stroke-width="0.75" stroke-miterlimit="10" cx="269.715" cy="336" r="1.875"/>
		
			<circle id="GB11-2" display="inline" fill="#040000" stroke="#ECA123" stroke-width="0.75" stroke-miterlimit="10" cx="257.09" cy="321.625" r="1.875"/>
		
			<circle id="GB10-2" display="inline" fill="#040000" stroke="#ECA123" stroke-width="0.75" stroke-miterlimit="10" cx="253.09" cy="300.875" r="1.875"/>
		
			<circle id="GB9-2" display="inline" fill="#040000" stroke="#ECA123" stroke-width="0.75" stroke-miterlimit="10" cx="279.09" cy="270.125" r="1.875"/>
		
			<circle id="GB8-2" display="inline" fill="#040000" stroke="#ECA123" stroke-width="0.75" stroke-miterlimit="10" cx="291.715" cy="270.5" r="1.875"/>
		
			<circle id="GB7-2" display="inline" fill="#040000" stroke="#ECA123" stroke-width="0.75" stroke-miterlimit="10" cx="305.964" cy="283" r="1.875"/>
		
			<circle id="GB6-2" display="inline" fill="#040000" stroke="#ECA123" stroke-width="0.75" stroke-miterlimit="10" cx="315.714" cy="278" r="1.875"/>
		
			<circle id="GB5-2" display="inline" fill="#040000" stroke="#ECA123" stroke-width="0.75" stroke-miterlimit="10" cx="324.589" cy="269.125" r="1.875"/>
		
			<circle id="GB4-2" display="inline" fill="#040000" stroke="#ECA123" stroke-width="0.75" stroke-miterlimit="10" cx="329.464" cy="248" r="1.875"/>
		
			<circle id="GB3-2" display="inline" fill="#040000" stroke="#ECA123" stroke-width="0.75" stroke-miterlimit="10" cx="329.089" cy="295.625" r="1.875"/>
		
			<circle id="GB2-2" display="inline" fill="#040000" stroke="#ECA123" stroke-width="0.75" stroke-miterlimit="10" cx="307.089" cy="315.375" r="1.875"/>
		
			<circle id="GB1-2" display="inline" fill="#040000" stroke="#ECA123" stroke-width="0.75" stroke-miterlimit="10" cx="364.464" cy="287.5" r="1.875"/>
		
			<circle id="TE23-2" display="inline" fill="#040000" stroke="#ECA123" stroke-width="0.75" stroke-miterlimit="10" cx="371.589" cy="263.625" r="1.875"/>
		
			<circle id="TE22-2" display="inline" fill="#040000" stroke="#ECA123" stroke-width="0.75" stroke-miterlimit="10" cx="302.089" cy="289.625" r="1.875"/>
		
			<circle id="TE21-2" display="inline" fill="#040000" stroke="#ECA123" stroke-width="0.75" stroke-miterlimit="10" cx="300.589" cy="298.875" r="1.875"/>
		
			<circle id="TE20-2" display="inline" fill="#040000" stroke="#ECA123" stroke-width="0.75" stroke-miterlimit="10" cx="289.715" cy="279" r="1.875"/>
		
			<circle id="TE19-2" display="inline" fill="#040000" stroke="#ECA123" stroke-width="0.75" stroke-miterlimit="10" cx="275.59" cy="288.125" r="1.875"/>
		
			<circle id="TE18-2" display="inline" fill="#040000" stroke="#ECA123" stroke-width="0.75" stroke-miterlimit="10" cx="272.465" cy="312" r="1.875"/>
		
			<circle id="TE17-2" display="inline" fill="#040000" stroke="#ECA123" stroke-width="0.75" stroke-miterlimit="10" cx="284.965" cy="330" r="1.875"/>
		
			<circle id="TE16-2" display="inline" fill="#040000" stroke="#ECA123" stroke-width="0.75" stroke-miterlimit="10" cx="273.59" cy="343.875" r="1.875"/>
		
			<circle id="TE14-2" display="inline" fill="#040000" stroke="#ECA123" stroke-width="0.75" stroke-miterlimit="10" cx="271.59" cy="399.375" r="1.875"/>
		
			<circle id="TE13-2" display="inline" fill="#040000" stroke="#ECA123" stroke-width="0.75" stroke-miterlimit="10" cx="260.465" cy="417" r="1.875"/>
		
			<circle id="TE12-2" display="inline" fill="#040000" stroke="#ECA123" stroke-width="0.75" stroke-miterlimit="10" cx="237.59" cy="435.625" r="1.875"/>
		
			<circle id="TE11-2" display="inline" fill="#040000" stroke="#ECA123" stroke-width="0.75" stroke-miterlimit="10" cx="227.59" cy="443.875" r="1.875"/>
		
			<circle id="TE10-2" display="inline" fill="#040000" stroke="#ECA123" stroke-width="0.75" stroke-miterlimit="10" cx="224.215" cy="448" r="1.875"/>
		
			<circle id="TE9-2" display="inline" fill="#040000" stroke="#ECA123" stroke-width="0.75" stroke-miterlimit="10" cx="215.465" cy="463" r="1.875"/>
		
			<circle id="TE8-2" display="inline" fill="#040000" stroke="#ECA123" stroke-width="0.75" stroke-miterlimit="10" cx="208.59" cy="476.875" r="1.875"/>
		
			<circle id="TE7-2" display="inline" fill="#040000" stroke="#ECA123" stroke-width="0.75" stroke-miterlimit="10" cx="206.09" cy="479.875" r="1.875"/>
		
			<circle id="TE6-2" display="inline" fill="#040000" stroke="#ECA123" stroke-width="0.75" stroke-miterlimit="10" cx="209.59" cy="482.875" r="1.875"/>
		
			<circle id="TE5-2" display="inline" fill="#040000" stroke="#ECA123" stroke-width="0.75" stroke-miterlimit="10" cx="206.465" cy="490" r="1.875"/>
		
			<circle id="TE4-2" display="inline" fill="#040000" stroke="#ECA123" stroke-width="0.75" stroke-miterlimit="10" cx="201.59" cy="498.375" r="1.875"/>
		
			<circle id="TE3-2" display="inline" fill="#040000" stroke="#ECA123" stroke-width="0.75" stroke-miterlimit="10" cx="185.215" cy="518.5" r="1.875"/>
		
			<circle id="TE2-2" display="inline" fill="#040000" stroke="#ECA123" stroke-width="0.75" stroke-miterlimit="10" cx="180.465" cy="522" r="1.875"/>
		
			<circle id="TE1-2" display="inline" fill="#040000" stroke="#ECA123" stroke-width="0.75" stroke-miterlimit="10" cx="172.09" cy="529.875" r="1.875"/>
		
			<circle id="SP20-2" display="inline" fill="#040000" stroke="#8ABA29" stroke-width="0.75" stroke-miterlimit="10" cx="331.736" cy="446.515" r="1.646"/>
		
			<circle id="SP19-2" display="inline" fill="#040000" stroke="#8ABA29" stroke-width="0.75" stroke-miterlimit="10" cx="334.236" cy="459.667" r="1.646"/>
		
			<circle id="SP18-2" display="inline" fill="#040000" stroke="#8ABA29" stroke-width="0.75" stroke-miterlimit="10" cx="336.277" cy="469.667" r="1.646"/>
		
			<circle id="SP17-2" display="inline" fill="#040000" stroke="#8ABA29" stroke-width="0.75" stroke-miterlimit="10" cx="339.943" cy="483" r="1.646"/>
		
			<circle id="SP16-2" display="inline" fill="#040000" stroke="#8ABA29" stroke-width="0.75" stroke-miterlimit="10" cx="349.236" cy="502.667" r="1.646"/>
		
			<circle id="SP15-2" display="inline" fill="#040000" stroke="#8ABA29" stroke-width="0.75" stroke-miterlimit="10" cx="336.568" cy="528" r="1.646"/>
		
			<circle id="SP14-2" display="inline" fill="#040000" stroke="#8ABA29" stroke-width="0.75" stroke-miterlimit="10" cx="334.255" cy="537.688" r="1.646"/>
		
			<circle id="SP13-2" display="inline" fill="#040000" stroke="#8ABA29" stroke-width="0.75" stroke-miterlimit="10" cx="330.568" cy="570" r="1.646"/>
		
			<circle id="SP21-2" display="inline" fill="#040000" stroke="#8ABA29" stroke-width="0.75" stroke-miterlimit="10" cx="298.902" cy="470.667" r="1.646"/>
		
			<circle id="LU1-2" display="inline" fill="#040000" stroke="#8ABA29" stroke-width="0.75" stroke-miterlimit="10" cx="306.568" cy="395" r="1.646"/>
		
			<circle id="LU2-2" display="inline" fill="#040000" stroke="#8ABA29" stroke-width="0.75" stroke-miterlimit="10" cx="300.923" cy="388.021" r="1.646"/>
		
			<circle id="LU3-2" display="inline" fill="#040000" stroke="#8ABA29" stroke-width="0.75" stroke-miterlimit="10" cx="281.736" cy="458.5" r="1.646"/>
		
			<circle id="LU4-2" display="inline" fill="#040000" stroke="#8ABA29" stroke-width="0.75" stroke-miterlimit="10" cx="279.09" cy="466.854" r="1.646"/>
		
			<circle id="LR14-2" display="inline" fill="#040000" stroke="#88157B" stroke-width="0.75" stroke-miterlimit="10" cx="348.82" cy="484.604" r="1.646"/>
		
			<circle id="LR13-2" display="inline" fill="#040000" stroke="#88157B" stroke-width="0.75" stroke-miterlimit="10" cx="295.923" cy="524.313" r="1.646"/>
		
			<circle id="PC1-2" display="inline" fill="#040000" stroke="#88157B" stroke-width="0.75" stroke-miterlimit="10" cx="348.589" cy="463.979" r="1.646"/>
		
			<circle id="ST1-2" display="inline" fill="#040000" stroke="#B81C25" stroke-width="0.75" stroke-miterlimit="10" cx="380.923" cy="294" r="1.647"/>
		
			<circle id="ST2-2" display="inline" fill="#040000" stroke="#B81C25" stroke-width="0.75" stroke-miterlimit="10" cx="378.923" cy="304.315" r="1.647"/>
		
			<circle id="ST3-2" display="inline" fill="#040000" stroke="#B81C25" stroke-width="0.75" stroke-miterlimit="10" cx="377.57" cy="322.001" r="1.647"/>
		
			<circle id="ST4-2" display="inline" fill="#040000" stroke="#B81C25" stroke-width="0.75" stroke-miterlimit="10" cx="381.57" cy="342.334" r="1.647"/>
		
			<circle id="ST5-2" display="inline" fill="#040000" stroke="#B81C25" stroke-width="0.75" stroke-miterlimit="10" cx="352.57" cy="354.667" r="1.647"/>
		
			<circle id="ST6-2" display="inline" fill="#040000" stroke="#B81C25" stroke-width="0.75" stroke-miterlimit="10" cx="324.904" cy="333.667" r="1.647"/>
		
			<circle id="ST7-2" display="inline" fill="#040000" stroke="#B81C25" stroke-width="0.75" stroke-miterlimit="10" cx="331.589" cy="308.648" r="1.647"/>
		
			<circle id="ST8-2" display="inline" fill="#040000" stroke="#B81C25" stroke-width="0.75" stroke-miterlimit="10" cx="327.57" cy="228.003" r="1.647"/>
		
			<circle id="ST9-2" display="inline" fill="#040000" stroke="#B81C25" stroke-width="0.75" stroke-miterlimit="10" cx="327.943" cy="375.336" r="1.647"/>
		
			<circle id="ST10-2" display="inline" fill="#040000" stroke="#B81C25" stroke-width="0.75" stroke-miterlimit="10" cx="325.236" cy="387.336" r="1.647"/>
		
			<circle id="ST11-2" display="inline" fill="#040000" stroke="#B81C25" stroke-width="0.75" stroke-miterlimit="10" cx="328.923" cy="396.984" r="1.647"/>
		
			<circle id="ST12-2" display="inline" fill="#040000" stroke="#B81C25" stroke-width="0.75" stroke-miterlimit="10" cx="302.923" cy="384.023" r="1.647"/>
		
			<circle id="ST13-2" display="inline" fill="#040000" stroke="#B81C25" stroke-width="0.75" stroke-miterlimit="10" cx="313.57" cy="397.003" r="1.647"/>
		
			<circle id="ST14-2" display="inline" fill="#040000" stroke="#B81C25" stroke-width="0.75" stroke-miterlimit="10" cx="320.589" cy="404.689" r="1.647"/>
		
			<circle id="ST15-2" display="inline" fill="#040000" stroke="#B81C25" stroke-width="0.75" stroke-miterlimit="10" cx="327.236" cy="413.668" r="1.647"/>
		
			<circle id="ST16-2" display="inline" fill="#040000" stroke="#B81C25" stroke-width="0.75" stroke-miterlimit="10" cx="333.904" cy="423.001" r="1.647"/>
		
			<circle id="ST17-2" display="inline" fill="#040000" stroke="#B81C25" stroke-width="0.75" stroke-miterlimit="10" cx="350.57" cy="449.001" r="1.646"/>
		
			<circle id="ST18-2" display="inline" fill="#040000" stroke="#B81C25" stroke-width="0.75" stroke-miterlimit="10" cx="351.57" cy="481.001" r="1.646"/>
		
			<circle id="ST19-2" display="inline" fill="#040000" stroke="#B81C25" stroke-width="0.75" stroke-miterlimit="10" cx="366.277" cy="480.001" r="1.646"/>
		
			<circle id="ST20-2" display="inline" fill="#040000" stroke="#B81C25" stroke-width="0.75" stroke-miterlimit="10" cx="364.57" cy="489.667" r="1.647"/>
		
			<circle id="ST21-2" display="inline" fill="#040000" stroke="#B81C25" stroke-width="0.75" stroke-miterlimit="10" cx="361.923" cy="501.648" r="1.646"/>
		
			<circle id="ST22-2" display="inline" fill="#040000" stroke="#B81C25" stroke-width="0.75" stroke-miterlimit="10" cx="359.255" cy="510.981" r="1.647"/>
		
			<circle id="ST23-2" display="inline" fill="#040000" stroke="#B81C25" stroke-width="0.75" stroke-miterlimit="10" cx="356.255" cy="521.648" r="1.646"/>
		
			<circle id="ST24-2" display="inline" fill="#040000" stroke="#B81C25" stroke-width="0.75" stroke-miterlimit="10" cx="353.589" cy="529.648" r="1.646"/>
		
			<circle id="ST25-2" display="inline" fill="#040000" stroke="#B81C25" stroke-width="0.75" stroke-miterlimit="10" cx="350.589" cy="538.981" r="1.647"/>
		
			<circle id="ST26-2" display="inline" fill="#040000" stroke="#B81C25" stroke-width="0.75" stroke-miterlimit="10" cx="347.589" cy="547.021" r="1.646"/>
		
			<circle id="ST27-2" display="inline" fill="#040000" stroke="#B81C25" stroke-width="0.75" stroke-miterlimit="10" cx="344.57" cy="557" r="1.646"/>
		
			<circle id="ST28-2" display="inline" fill="#040000" stroke="#B81C25" stroke-width="0.75" stroke-miterlimit="10" cx="341.904" cy="563.667" r="1.646"/>
		
			<circle id="ST29-2" display="inline" fill="#040000" stroke="#B81C25" stroke-width="0.75" stroke-miterlimit="10" cx="339.589" cy="568.685" r="1.646"/>
		
			<circle id="ST31-2" display="inline" fill="#040000" stroke="#B81C25" stroke-width="0.75" stroke-miterlimit="10" cx="327.257" cy="590.685" r="1.646"/>
		
			<circle id="ST32-2" display="inline" fill="#040000" stroke="#B81C25" stroke-width="0.75" stroke-miterlimit="10" cx="320.257" cy="606.352" r="1.647"/>
		
			<circle id="ST33-2" display="inline" fill="#040000" stroke="#B81C25" stroke-width="0.75" stroke-miterlimit="10" cx="317.236" cy="616.331" r="1.647"/>
		
			<circle id="ST34-2" display="inline" fill="#040000" stroke="#B81C25" stroke-width="0.75" stroke-miterlimit="10" cx="315.923" cy="620.351" r="1.646"/>
		
			<circle id="ST35-2" display="inline" fill="#040000" stroke="#B81C25" stroke-width="0.75" stroke-miterlimit="10" cx="311.255" cy="630.351" r="1.646"/>
		
			<circle id="ST36-2" display="inline" fill="#040000" stroke="#B81C25" stroke-width="0.75" stroke-miterlimit="10" cx="309.904" cy="638.998" r="1.646"/>
		
			<circle id="ST37-2" display="inline" fill="#040000" stroke="#B81C25" stroke-width="0.75" stroke-miterlimit="10" cx="309.236" cy="644.665" r="1.647"/>
		
			<circle id="ST38-2" display="inline" fill="#040000" stroke="#B81C25" stroke-width="0.75" stroke-miterlimit="10" cx="307.923" cy="649.684" r="1.647"/>
		
			<circle id="ST39-2" display="inline" fill="#040000" stroke="#B81C25" stroke-width="0.75" stroke-miterlimit="10" cx="306.257" cy="656.018" r="1.647"/>
		
			<circle id="ST40-2" display="inline" fill="#040000" stroke="#B81C25" stroke-width="0.75" stroke-miterlimit="10" cx="303.609" cy="649.998" r="1.646"/>
		
			<circle id="ST41-2" display="inline" fill="#040000" stroke="#B81C25" stroke-width="0.75" stroke-miterlimit="10" cx="302.57" cy="671.998" r="1.646"/>
		
			<circle id="ST42-2" display="inline" fill="#040000" stroke="#B81C25" stroke-width="0.75" stroke-miterlimit="10" cx="307.238" cy="675.664" r="1.646"/>
		
			<circle id="ST43-2" display="inline" fill="#040000" stroke="#B81C25" stroke-width="0.75" stroke-miterlimit="10" cx="313.904" cy="677.664" r="1.646"/>
		
			<circle id="ST44-2" display="inline" fill="#040000" stroke="#B81C25" stroke-width="0.75" stroke-miterlimit="10" cx="319.904" cy="679.331" r="1.647"/>
		
			<circle id="ST45-2" display="inline" fill="#040000" stroke="#B81C25" stroke-width="0.75" stroke-miterlimit="10" cx="328.238" cy="680.664" r="1.646"/>
		
			<circle id="BL58-2" display="inline" fill="#040000" stroke="#D31577" stroke-width="0.75" stroke-miterlimit="10" cx="271.236" cy="653.854" r="1.892"/>
		
			<circle id="BL59-2" display="inline" fill="#040000" stroke="#D31577" stroke-width="0.75" stroke-miterlimit="10" cx="274.903" cy="662.521" r="1.891"/>
		
			<circle id="BL60-2" display="inline" fill="#040000" stroke="#D31577" stroke-width="0.75" stroke-miterlimit="10" cx="277.57" cy="672.521" r="1.891"/>
		
			<circle id="BL61-2" display="inline" fill="#040000" stroke="#D31577" stroke-width="0.75" stroke-miterlimit="10" cx="278.236" cy="686.854" r="1.892"/>
		
			<circle id="BL62-2" display="inline" fill="#040000" stroke="#D31577" stroke-width="0.75" stroke-miterlimit="10" cx="285.48" cy="681.333" r="1.891"/>
		
			<circle id="BL63-2" display="inline" fill="#040000" stroke="#D31577" stroke-width="0.75" stroke-miterlimit="10" cx="290.48" cy="684" r="1.891"/>
		
			<circle id="BL64-2" display="inline" fill="#040000" stroke="#D31577" stroke-width="0.75" stroke-miterlimit="10" cx="296.23" cy="686" r="1.891"/>
		
			<circle id="BL65-2" display="inline" fill="#040000" stroke="#D31577" stroke-width="0.75" stroke-miterlimit="10" cx="301.23" cy="687.5" r="1.891"/>
		
			<circle id="BL66-2" display="inline" fill="#040000" stroke="#D31577" stroke-width="0.75" stroke-miterlimit="10" cx="308.73" cy="689.25" r="1.891"/>
		
			<circle id="BL67-2" display="inline" fill="#040000" stroke="#D31577" stroke-width="0.75" stroke-miterlimit="10" cx="321.23" cy="689.5" r="1.891"/>
		
			<circle id="BL3-2" display="inline" fill="#040000" stroke="#D31577" stroke-width="0.75" stroke-miterlimit="10" cx="369.98" cy="216" r="1.891"/>
		
			<circle id="BL4-2" display="inline" fill="#040000" stroke="#D31577" stroke-width="0.75" stroke-miterlimit="10" cx="365.48" cy="216.25" r="1.891"/>
		
			<circle id="BL5-2" display="inline" fill="#040000" stroke="#D31577" stroke-width="0.75" stroke-miterlimit="10" cx="349.23" cy="202" r="1.891"/>
		
			<circle id="BL6-2" display="inline" fill="#040000" stroke="#D31577" stroke-width="0.75" stroke-miterlimit="10" cx="323.48" cy="191.25" r="1.891"/>
		
			<circle id="BL7-2" display="inline" fill="#040000" stroke="#D31577" stroke-width="0.75" stroke-miterlimit="10" cx="286.73" cy="187.25" r="1.891"/>
		
			<circle id="BL8-2" display="inline" fill="#040000" stroke="#D31577" stroke-width="0.75" stroke-miterlimit="10" cx="248.23" cy="200.25" r="1.891"/>
		
			<circle id="BL9-2" display="inline" fill="#040000" stroke="#D31577" stroke-width="0.75" stroke-miterlimit="10" cx="216.48" cy="298.5" r="1.891"/>
		
			<circle id="BL10-2" display="inline" fill="#040000" stroke="#D31577" stroke-width="0.75" stroke-miterlimit="10" cx="236.23" cy="349.75" r="1.891"/>
		
			<circle id="SI19-2" display="inline" fill="#040000" stroke="#D31577" stroke-width="0.75" stroke-miterlimit="10" cx="298.73" cy="305" r="1.891"/>
		
			<circle id="SI18-2" display="inline" fill="#040000" stroke="#D31577" stroke-width="0.75" stroke-miterlimit="10" cx="373.48" cy="310.25" r="1.891"/>
		
			<circle id="SI17-2" display="inline" fill="#040000" stroke="#D31577" stroke-width="0.75" stroke-miterlimit="10" cx="292.23" cy="338.25" r="1.891"/>
		
			<circle id="SI16-2" display="inline" fill="#040000" stroke="#D31577" stroke-width="0.75" stroke-miterlimit="10" cx="271.23" cy="352" r="1.891"/>
		
			<circle id="SI7-2" display="inline" fill="#040000" stroke="#D31577" stroke-width="0.75" stroke-miterlimit="10" cx="195.48" cy="471.5" r="1.891"/>
		
			<circle id="SI6-2" display="inline" fill="#040000" stroke="#D31577" stroke-width="0.75" stroke-miterlimit="10" cx="186.73" cy="489.25" r="1.891"/>
		
			<circle id="SI5-2" display="inline" fill="#040000" stroke="#D31577" stroke-width="0.75" stroke-miterlimit="10" cx="184.59" cy="495.891" r="1.892"/>
		
			<circle id="SI4-2" display="inline" fill="#040000" stroke="#D31577" stroke-width="0.75" stroke-miterlimit="10" cx="183.59" cy="501.891" r="1.892"/>
		
			<circle id="SI3-2" display="inline" fill="#040000" stroke="#D31577" stroke-width="0.75" stroke-miterlimit="10" cx="177.48" cy="507" r="1.891"/>
		
			<circle id="SI2-2" display="inline" fill="#040000" stroke="#D31577" stroke-width="0.75" stroke-miterlimit="10" cx="171.48" cy="512.5" r="1.891"/>
		
			<circle id="SI1-2" display="inline" fill="#040000" stroke="#D31577" stroke-width="0.75" stroke-miterlimit="10" cx="167.98" cy="521.5" r="1.891"/>
		
			<circle id="LI20-2" display="inline" fill="#040000" stroke="#B81C25" stroke-width="0.75" stroke-miterlimit="10" cx="387.236" cy="314.333" r="1.647"/>
		
			<circle id="LI19-2" display="inline" fill="#040000" stroke="#B81C25" stroke-width="0.75" stroke-miterlimit="10" cx="406.57" cy="320.333" r="1.647"/>
		
			<circle id="LI18-2" display="inline" fill="#040000" stroke="#B81C25" stroke-width="0.75" stroke-miterlimit="10" cx="302.923" cy="354.98" r="1.647"/>
		
			<circle id="LI17-2" display="inline" fill="#040000" stroke="#B81C25" stroke-width="0.75" stroke-miterlimit="10" cx="282.59" cy="369.98" r="1.647"/>
		
			<circle id="LI15-2" display="inline" fill="#040000" stroke="#B81C25" stroke-width="0.75" stroke-miterlimit="10" cx="289.256" cy="402.98" r="1.647"/>
		
			<circle id="LI14-2" display="inline" fill="#040000" stroke="#B81C25" stroke-width="0.75" stroke-miterlimit="10" cx="275.736" cy="430.5" r="1.647"/>
		
			<circle id="LI13-2" display="inline" fill="#040000" stroke="#B81C25" stroke-width="0.75" stroke-miterlimit="10" cx="257.59" cy="456.853" r="1.646"/>
		
			<circle id="LI12-2" display="inline" fill="#040000" stroke="#B81C25" stroke-width="0.75" stroke-miterlimit="10" cx="252.236" cy="465.5" r="1.647"/>
		
			<circle id="LI11-2" display="inline" fill="#040000" stroke="#B81C25" stroke-width="0.75" stroke-miterlimit="10" cx="250.09" cy="469.853" r="1.646"/>
		
			<circle id="LI10-2" display="inline" fill="#040000" stroke="#B81C25" stroke-width="0.75" stroke-miterlimit="10" cx="245.59" cy="480.647" r="1.647"/>
		
			<circle id="LI9-2" display="inline" fill="#040000" stroke="#B81C25" stroke-width="0.75" stroke-miterlimit="10" cx="241.09" cy="486.147" r="1.647"/>
		
			<circle id="LI8-2" display="inline" fill="#040000" stroke="#B81C25" stroke-width="0.75" stroke-miterlimit="10" cx="236.59" cy="491.147" r="1.647"/>
		
			<circle id="LI7-2" display="inline" fill="#040000" stroke="#B81C25" stroke-width="0.75" stroke-miterlimit="10" cx="228.59" cy="499.147" r="1.647"/>
		
			<circle id="LI6-2" display="inline" fill="#040000" stroke="#B81C25" stroke-width="0.75" stroke-miterlimit="10" cx="222.236" cy="506.5" r="1.647"/>
		
			<circle id="LI5-2" display="inline" fill="#040000" stroke="#B81C25" stroke-width="0.75" stroke-miterlimit="10" cx="215.736" cy="515.5" r="1.647"/>
		
			<circle id="LI4-2" display="inline" fill="#040000" stroke="#B81C25" stroke-width="0.75" stroke-miterlimit="10" cx="209.09" cy="522.353" r="1.646"/>
		
			<circle id="LI3-2" display="inline" fill="#040000" stroke="#B81C25" stroke-width="0.75" stroke-miterlimit="10" cx="203.09" cy="527.147" r="1.647"/>
		
			<circle id="LI2-2" display="inline" fill="#040000" stroke="#B81C25" stroke-width="0.75" stroke-miterlimit="10" cx="198.237" cy="530.5" r="1.647"/>
		
			<circle id="LI1-2" display="inline" fill="#040000" stroke="#B81C25" stroke-width="0.75" stroke-miterlimit="10" cx="188.737" cy="537.5" r="1.647"/>
		
			<circle id="EX-HN7-2" display="inline" fill="#FFFFFF" stroke="#926034" stroke-width="0.75" stroke-miterlimit="10" cx="373.986" cy="293.25" r="1.891"/>
		
			<circle id="EX-HN5-2" display="inline" fill="#FFFFFF" stroke="#926034" stroke-width="0.75" stroke-miterlimit="10" cx="350.986" cy="274.583" r="1.891"/>
	</g>
</g>
</svg>
